<svg width="1839" height="212" viewBox="0 0 1839 212" fill="none" xmlns="http://www.w3.org/2000/svg">
<path d="M682.328 64V60.48C683.523 60.4373 684.44 60.2453 685.08 59.904C685.72 59.52 686.168 58.88 686.424 57.984C686.68 57.0453 686.808 55.7653 686.808 54.144V28.608C686.808 27.5413 686.829 26.5173 686.872 25.536C686.957 24.5547 687.021 23.7867 687.064 23.232C686.339 23.2747 685.507 23.3173 684.568 23.36C683.629 23.36 682.883 23.3813 682.328 23.424V19.2C685.144 19.1573 687.96 19.136 690.776 19.136C693.635 19.0933 696.472 19.072 699.288 19.072C703.171 19.072 706.456 19.52 709.144 20.416C711.875 21.312 713.923 22.72 715.288 24.64C716.696 26.5173 717.379 28.992 717.336 32.064C717.293 33.8133 716.888 35.52 716.12 37.184C715.352 38.848 714.136 40.32 712.472 41.6C710.808 42.88 708.589 43.8827 705.816 44.608C706.627 45.0347 707.395 45.6533 708.12 46.464C708.888 47.2747 709.592 48.1707 710.232 49.152L713.688 54.464C714.541 55.7867 715.331 56.896 716.056 57.792C716.781 58.6453 717.528 59.3067 718.296 59.776C719.064 60.2027 719.981 60.4373 721.048 60.48V64H711.32C710.424 63.2747 709.571 62.3787 708.76 61.312C707.992 60.2453 707.181 59.008 706.328 57.6L701.72 50.24C701.165 49.344 700.632 48.512 700.12 47.744C699.651 46.9333 699.117 46.2507 698.52 45.696C697.837 45.7387 697.219 45.76 696.664 45.76C696.109 45.76 695.512 45.7387 694.872 45.696V54.4C694.872 55.5947 694.851 56.6827 694.808 57.664C694.765 58.6453 694.701 59.4133 694.616 59.968C695.085 59.9253 695.64 59.904 696.28 59.904C696.963 59.8613 697.624 59.84 698.264 59.84C698.904 59.7973 699.416 59.776 699.8 59.776V64H682.328ZM698.2 41.856C700.589 41.8133 702.552 41.4507 704.088 40.768C705.667 40.0853 706.84 39.0187 707.608 37.568C708.419 36.1173 708.824 34.2613 708.824 32C708.824 30.08 708.525 28.5227 707.928 27.328C707.373 26.1333 706.605 25.216 705.624 24.576C704.685 23.936 703.64 23.5093 702.488 23.296C701.379 23.04 700.269 22.912 699.16 22.912C698.051 22.912 697.176 23.0827 696.536 23.424C695.896 23.7653 695.448 24.384 695.192 25.28C694.979 26.1333 694.872 27.3067 694.872 28.8V41.664C695.384 41.7067 695.917 41.7493 696.472 41.792C697.027 41.8347 697.603 41.856 698.2 41.856ZM738.922 65.024C735.85 65.024 733.119 64.3413 730.73 62.976C728.34 61.568 726.484 59.6053 725.161 57.088C723.839 54.528 723.178 51.52 723.178 48.064C723.178 45.0773 723.839 42.2827 725.161 39.68C726.484 37.0773 728.34 34.9867 730.73 33.408C733.162 31.7867 735.978 30.976 739.178 30.976C740.97 30.976 742.698 31.232 744.362 31.744C746.026 32.256 747.519 33.1093 748.842 34.304C750.164 35.4987 751.21 37.0773 751.978 39.04C752.788 41.0027 753.172 43.392 753.13 46.208L731.626 46.592C731.626 49.2373 731.924 51.584 732.522 53.632C733.162 55.6373 734.186 57.2373 735.594 58.432C737.002 59.584 738.858 60.16 741.162 60.16C742.186 60.16 743.274 59.9893 744.426 59.648C745.62 59.264 746.794 58.7093 747.946 57.984C749.098 57.216 750.122 56.2773 751.018 55.168L753.45 57.408C752.042 59.456 750.484 61.0347 748.778 62.144C747.071 63.2533 745.364 64 743.658 64.384C741.951 64.8107 740.372 65.024 738.922 65.024ZM731.946 42.752H745.258C745.215 41.0453 744.959 39.616 744.49 38.464C744.063 37.2693 743.423 36.3733 742.57 35.776C741.716 35.136 740.671 34.816 739.434 34.816C737.343 34.816 735.658 35.52 734.378 36.928C733.14 38.2933 732.33 40.2347 731.946 42.752ZM772.333 65.024C770.371 65.024 768.536 64.768 766.83 64.256C765.123 63.744 763.758 63.1253 762.734 62.4L762.926 64.448H758.766L758.446 53.44H761.902C762.03 54.8907 762.542 56.2133 763.438 57.408C764.334 58.56 765.486 59.4773 766.894 60.16C768.344 60.8 769.944 61.12 771.694 61.12C772.547 61.12 773.358 60.992 774.126 60.736C774.936 60.48 775.598 60.0747 776.11 59.52C776.664 58.9227 776.942 58.176 776.942 57.28C776.942 56.3413 776.622 55.5733 775.982 54.976C775.384 54.3787 774.531 53.824 773.422 53.312C772.312 52.8 771.011 52.2667 769.518 51.712C768.195 51.2 766.872 50.6667 765.55 50.112C764.227 49.5573 763.011 48.896 761.902 48.128C760.792 47.3173 759.896 46.336 759.214 45.184C758.531 44.032 758.19 42.624 758.19 40.96C758.19 39.808 758.403 38.656 758.83 37.504C759.256 36.352 759.939 35.2853 760.878 34.304C761.816 33.28 763.011 32.4693 764.462 31.872C765.955 31.2747 767.768 30.976 769.902 30.976C771.054 30.976 772.355 31.168 773.806 31.552C775.256 31.8933 776.536 32.4907 777.646 33.344L777.582 31.296H781.742V42.56H778.286C778.072 41.0667 777.603 39.744 776.878 38.592C776.152 37.3973 775.192 36.4587 773.998 35.776C772.803 35.0933 771.374 34.752 769.71 34.752C768.344 34.752 767.192 35.0933 766.254 35.776C765.315 36.416 764.845 37.376 764.845 38.656C764.845 39.7227 765.208 40.5973 765.934 41.28C766.659 41.9627 767.64 42.5387 768.878 43.008C770.115 43.4773 771.459 43.9893 772.91 44.544C774.915 45.2267 776.728 46.0373 778.35 46.976C780.014 47.9147 781.336 49.0453 782.318 50.368C783.299 51.6907 783.79 53.3333 783.79 55.296C783.79 57.5147 783.235 59.3493 782.126 60.8C781.016 62.208 779.587 63.2747 777.838 64C776.088 64.6827 774.254 65.024 772.333 65.024ZM788.048 80.32V76.928C789.285 76.928 790.16 76.6507 790.672 76.096C791.227 75.584 791.568 74.8373 791.696 73.856C791.824 72.8747 791.888 71.7653 791.888 70.528L791.952 42.176C791.952 41.408 791.952 40.5973 791.952 39.744C791.995 38.8907 792.08 38.016 792.208 37.12C791.483 37.1627 790.672 37.2053 789.776 37.248C788.923 37.2907 788.219 37.3333 787.664 37.376V33.216C789.627 33.216 791.205 33.1307 792.4 32.96C793.637 32.7467 794.576 32.4907 795.216 32.192C795.899 31.8933 796.389 31.616 796.688 31.36H799.44C799.525 31.7867 799.589 32.2987 799.632 32.896C799.675 33.4933 799.717 34.048 799.76 34.56C801.168 33.3227 802.661 32.4267 804.24 31.872C805.819 31.2747 807.333 30.976 808.784 30.976C811.344 30.976 813.627 31.6373 815.632 32.96C817.637 34.24 819.216 36.096 820.368 38.528C821.52 40.9173 822.096 43.7547 822.096 47.04C822.096 50.5387 821.392 53.6533 819.984 56.384C818.619 59.072 816.741 61.184 814.352 62.72C811.963 64.256 809.211 65.024 806.096 65.024C804.816 65.024 803.664 64.8747 802.64 64.576C801.616 64.32 800.656 63.9787 799.76 63.552V71.168C799.76 71.8507 799.739 72.6613 799.696 73.6C799.696 74.5813 799.632 75.52 799.504 76.416C800.187 76.3307 800.912 76.2667 801.68 76.224C802.448 76.224 803.088 76.224 803.6 76.224V80.32H788.048ZM805.392 60.992C807.355 60.9493 808.933 60.352 810.128 59.2C811.365 58.0053 812.261 56.4267 812.816 54.464C813.371 52.5013 813.648 50.368 813.648 48.064C813.648 45.9733 813.371 43.9893 812.816 42.112C812.304 40.2347 811.472 38.72 810.32 37.568C809.168 36.416 807.632 35.84 805.712 35.84C804.517 35.8827 803.387 36.1813 802.32 36.736C801.296 37.2907 800.443 38.016 799.76 38.912C799.76 39.8507 799.76 40.8107 799.76 41.792C799.76 42.7733 799.76 43.8187 799.76 44.928C799.76 46.0373 799.76 47.296 799.76 48.704C799.76 50.0693 799.76 51.6267 799.76 53.376C799.76 55.1253 799.76 57.1307 799.76 59.392C800.443 59.8613 801.275 60.2453 802.256 60.544C803.237 60.8427 804.283 60.992 805.392 60.992ZM842.807 65.024C839.778 65.024 837.026 64.3627 834.551 63.04C832.076 61.6747 830.114 59.776 828.663 57.344C827.255 54.8693 826.551 51.9893 826.551 48.704C826.551 45.248 827.276 42.176 828.727 39.488C830.178 36.8 832.119 34.7093 834.551 33.216C837.026 31.7227 839.735 30.976 842.679 30.976C845.708 30.976 848.439 31.6587 850.871 33.024C853.303 34.3893 855.223 36.288 856.631 38.72C858.082 41.152 858.807 44.032 858.807 47.36C858.807 50.8587 858.103 53.952 856.695 56.64C855.33 59.2853 853.431 61.3547 850.999 62.848C848.61 64.2987 845.879 65.024 842.807 65.024ZM843.127 61.12C845.047 61.12 846.519 60.5227 847.543 59.328C848.567 58.1333 849.271 56.6187 849.655 54.784C850.082 52.9067 850.295 50.9867 850.295 49.024C850.295 47.36 850.146 45.6747 849.847 43.968C849.591 42.2613 849.164 40.7253 848.567 39.36C847.97 37.952 847.18 36.8427 846.199 36.032C845.218 35.1787 844.023 34.752 842.615 34.752C840.738 34.7947 839.244 35.4133 838.135 36.608C837.026 37.8027 836.215 39.3173 835.703 41.152C835.234 42.9867 834.999 44.928 834.999 46.976C834.999 49.28 835.276 51.5413 835.831 53.76C836.386 55.936 837.26 57.728 838.455 59.136C839.65 60.5013 841.207 61.1627 843.127 61.12ZM863.688 64V60.608C864.925 60.608 865.8 60.352 866.312 59.84C866.824 59.2853 867.144 58.5173 867.272 57.536C867.4 56.5547 867.464 55.4453 867.464 54.208V42.176C867.464 41.408 867.485 40.5973 867.528 39.744C867.571 38.8907 867.635 38.016 867.72 37.12C867.037 37.1627 866.248 37.2053 865.352 37.248C864.499 37.2907 863.795 37.3333 863.24 37.376V33.216C865.16 33.216 866.739 33.1307 867.976 32.96C869.213 32.7467 870.173 32.4907 870.856 32.192C871.539 31.8933 872.029 31.616 872.328 31.36H875.016C875.101 31.8293 875.144 32.2133 875.144 32.512C875.144 32.8107 875.165 33.1307 875.208 33.472C875.251 33.7707 875.315 34.2187 875.4 34.816C876.253 34.0907 877.235 33.4507 878.344 32.896C879.496 32.2987 880.648 31.8293 881.8 31.488C882.952 31.1467 884.019 30.976 885 30.976C888.84 30.976 891.592 32.1067 893.256 34.368C894.92 36.6293 895.752 40.2347 895.752 45.184V54.848C895.752 55.5307 895.731 56.3627 895.688 57.344C895.688 58.2827 895.624 59.2 895.496 60.096C896.221 60.0107 896.968 59.968 897.736 59.968C898.504 59.9253 899.144 59.904 899.656 59.904V64H884.104V60.608C885.341 60.608 886.216 60.352 886.728 59.84C887.283 59.2853 887.624 58.5173 887.752 57.536C887.88 56.5547 887.944 55.4453 887.944 54.208L887.88 45.12C887.88 42.048 887.411 39.7653 886.472 38.272C885.576 36.736 884.083 35.968 881.992 35.968C880.755 36.0107 879.539 36.3093 878.344 36.864C877.149 37.4187 876.147 38.1227 875.336 38.976C875.379 39.488 875.4 40.0213 875.4 40.576C875.4 41.1307 875.4 41.6853 875.4 42.24L875.336 54.848C875.336 55.5307 875.315 56.3627 875.272 57.344C875.272 58.2827 875.208 59.2 875.08 60.096C875.763 60.0107 876.488 59.968 877.256 59.968C878.067 59.9253 878.728 59.904 879.24 59.904V64H863.688ZM918.083 65.024C916.121 65.024 914.286 64.768 912.58 64.256C910.873 63.744 909.508 63.1253 908.484 62.4L908.676 64.448H904.516L904.196 53.44H907.652C907.78 54.8907 908.292 56.2133 909.188 57.408C910.084 58.56 911.236 59.4773 912.644 60.16C914.094 60.8 915.694 61.12 917.444 61.12C918.297 61.12 919.108 60.992 919.876 60.736C920.686 60.48 921.348 60.0747 921.86 59.52C922.414 58.9227 922.692 58.176 922.692 57.28C922.692 56.3413 922.372 55.5733 921.732 54.976C921.134 54.3787 920.281 53.824 919.172 53.312C918.062 52.8 916.761 52.2667 915.268 51.712C913.945 51.2 912.622 50.6667 911.3 50.112C909.977 49.5573 908.761 48.896 907.652 48.128C906.542 47.3173 905.646 46.336 904.964 45.184C904.281 44.032 903.94 42.624 903.94 40.96C903.94 39.808 904.153 38.656 904.58 37.504C905.006 36.352 905.689 35.2853 906.628 34.304C907.566 33.28 908.761 32.4693 910.212 31.872C911.705 31.2747 913.518 30.976 915.652 30.976C916.804 30.976 918.105 31.168 919.556 31.552C921.006 31.8933 922.286 32.4907 923.396 33.344L923.332 31.296H927.492V42.56H924.036C923.822 41.0667 923.353 39.744 922.628 38.592C921.902 37.3973 920.942 36.4587 919.748 35.776C918.553 35.0933 917.124 34.752 915.46 34.752C914.094 34.752 912.942 35.0933 912.004 35.776C911.065 36.416 910.595 37.376 910.595 38.656C910.595 39.7227 910.958 40.5973 911.684 41.28C912.409 41.9627 913.39 42.5387 914.628 43.008C915.865 43.4773 917.209 43.9893 918.66 44.544C920.665 45.2267 922.478 46.0373 924.1 46.976C925.764 47.9147 927.086 49.0453 928.068 50.368C929.049 51.6907 929.54 53.3333 929.54 55.296C929.54 57.5147 928.985 59.3493 927.876 60.8C926.766 62.208 925.337 63.2747 923.588 64C921.838 64.6827 920.004 65.024 918.083 65.024ZM934.438 60.608C935.675 60.608 936.55 60.352 937.062 59.84C937.574 59.2853 937.894 58.5173 938.022 57.536C938.15 56.5547 938.214 55.4453 938.214 54.208V42.24C938.214 41.5147 938.235 40.7253 938.278 39.872C938.321 38.976 938.385 38.0587 938.47 37.12C937.745 37.1627 936.955 37.2053 936.102 37.248C935.249 37.2907 934.545 37.3333 933.99 37.376V33.216C935.91 33.216 937.489 33.1307 938.726 32.96C940.006 32.7467 940.987 32.4907 941.67 32.192C942.395 31.8933 942.907 31.616 943.206 31.36H946.086V54.848C946.086 55.5307 946.065 56.3627 946.022 57.344C946.022 58.2827 945.958 59.2 945.83 60.096C946.513 60.0107 947.238 59.968 948.006 59.968C948.817 59.9253 949.478 59.904 949.99 59.904V64H934.438V60.608ZM941.798 25.856C940.561 25.856 939.515 25.408 938.662 24.512C937.809 23.5733 937.382 22.4427 937.382 21.12C937.382 19.7973 937.809 18.6667 938.662 17.728C939.558 16.7893 940.603 16.32 941.798 16.32C943.035 16.32 944.059 16.7893 944.87 17.728C945.723 18.6667 946.15 19.7973 946.15 21.12C946.15 22.4427 945.745 23.5733 944.934 24.512C944.123 25.408 943.078 25.856 941.798 25.856ZM955.976 26.56C955.976 25.8347 955.976 25.0453 955.976 24.192C956.018 23.296 956.082 22.3787 956.168 21.44C955.485 21.4827 954.696 21.5253 953.799 21.568C952.946 21.6107 952.242 21.6533 951.688 21.696V17.536C953.65 17.536 955.25 17.4507 956.488 17.28C957.725 17.0667 958.685 16.8107 959.368 16.512C960.093 16.2133 960.605 15.936 960.904 15.68H963.848V34.56C965.213 33.28 966.664 32.3627 968.2 31.808C969.736 31.2533 971.272 30.976 972.808 30.976C975.453 30.976 977.778 31.6373 979.784 32.96C981.832 34.2827 983.432 36.16 984.583 38.592C985.736 41.024 986.312 43.8827 986.312 47.168C986.312 50.6667 985.629 53.76 984.264 56.448C982.898 59.136 981.021 61.248 978.632 62.784C976.242 64.2773 973.49 65.024 970.376 65.024C969.138 65.024 967.624 64.768 965.832 64.256C964.082 63.744 962.482 62.72 961.032 61.184L959.24 64H955.976V26.56ZM963.848 54.272C963.848 55.9787 964.125 57.3227 964.68 58.304C965.234 59.2853 965.938 59.9893 966.792 60.416C967.688 60.8 968.584 61.0133 969.48 61.056C971.442 61.056 973.021 60.48 974.216 59.328C975.453 58.176 976.349 56.64 976.904 54.72C977.501 52.7573 977.8 50.6453 977.8 48.384C977.8 46.08 977.522 43.9893 976.968 42.112C976.413 40.192 975.56 38.6773 974.408 37.568C973.256 36.416 971.741 35.84 969.864 35.84C968.712 35.8827 967.602 36.1813 966.536 36.736C965.469 37.2907 964.573 38.016 963.848 38.912V54.272ZM991.251 60.608C992.488 60.608 993.363 60.352 993.875 59.84C994.387 59.2853 994.707 58.5173 994.835 57.536C994.963 56.5547 995.027 55.4453 995.027 54.208V42.24C995.027 41.5147 995.048 40.7253 995.091 39.872C995.133 38.976 995.197 38.0587 995.283 37.12C994.557 37.1627 993.768 37.2053 992.915 37.248C992.061 37.2907 991.357 37.3333 990.803 37.376V33.216C992.723 33.216 994.301 33.1307 995.539 32.96C996.819 32.7467 997.8 32.4907 998.483 32.192C999.208 31.8933 999.72 31.616 1000.02 31.36H1002.9V54.848C1002.9 55.5307 1002.88 56.3627 1002.83 57.344C1002.83 58.2827 1002.77 59.2 1002.64 60.096C1003.33 60.0107 1004.05 59.968 1004.82 59.968C1005.63 59.9253 1006.29 59.904 1006.8 59.904V64H991.251V60.608ZM998.611 25.856C997.373 25.856 996.328 25.408 995.475 24.512C994.621 23.5733 994.195 22.4427 994.195 21.12C994.195 19.7973 994.621 18.6667 995.475 17.728C996.371 16.7893 997.416 16.32 998.611 16.32C999.848 16.32 1000.87 16.7893 1001.68 17.728C1002.54 18.6667 1002.96 19.7973 1002.96 21.12C1002.96 22.4427 1002.56 23.5733 1001.75 24.512C1000.94 25.408 999.891 25.856 998.611 25.856ZM1010.29 60.608C1011.53 60.608 1012.4 60.352 1012.92 59.84C1013.47 59.2853 1013.79 58.5173 1013.88 57.536C1014 56.5547 1014.07 55.4453 1014.07 54.208V26.56C1014.07 25.8347 1014.09 25.0453 1014.13 24.192C1014.17 23.296 1014.24 22.3787 1014.32 21.44C1013.6 21.4827 1012.81 21.5253 1011.96 21.568C1011.1 21.6107 1010.38 21.6533 1009.78 21.696V17.536C1011.74 17.536 1013.34 17.4507 1014.58 17.28C1015.86 17.0667 1016.84 16.8107 1017.52 16.512C1018.25 16.2133 1018.76 15.936 1019.06 15.68H1021.94L1022 54.848C1022 55.5307 1021.98 56.3627 1021.94 57.344C1021.9 58.2827 1021.81 59.2 1021.68 60.096C1022.41 60.0107 1023.16 59.968 1023.92 59.968C1024.69 59.9253 1025.33 59.904 1025.84 59.904V64H1010.29V60.608ZM1030.31 60.608C1031.55 60.608 1032.43 60.352 1032.94 59.84C1033.45 59.2853 1033.77 58.5173 1033.9 57.536C1034.03 56.5547 1034.09 55.4453 1034.09 54.208V42.24C1034.09 41.5147 1034.11 40.7253 1034.15 39.872C1034.2 38.976 1034.26 38.0587 1034.35 37.12C1033.62 37.1627 1032.83 37.2053 1031.98 37.248C1031.12 37.2907 1030.42 37.3333 1029.87 37.376V33.216C1031.79 33.216 1033.36 33.1307 1034.6 32.96C1035.88 32.7467 1036.86 32.4907 1037.55 32.192C1038.27 31.8933 1038.78 31.616 1039.08 31.36H1041.96V54.848C1041.96 55.5307 1041.94 56.3627 1041.9 57.344C1041.9 58.2827 1041.83 59.2 1041.71 60.096C1042.39 60.0107 1043.11 59.968 1043.88 59.968C1044.69 59.9253 1045.35 59.904 1045.87 59.904V64H1030.31V60.608ZM1037.67 25.856C1036.44 25.856 1035.39 25.408 1034.54 24.512C1033.68 23.5733 1033.26 22.4427 1033.26 21.12C1033.26 19.7973 1033.68 18.6667 1034.54 17.728C1035.43 16.7893 1036.48 16.32 1037.67 16.32C1038.91 16.32 1039.93 16.7893 1040.75 17.728C1041.6 18.6667 1042.03 19.7973 1042.03 21.12C1042.03 22.4427 1041.62 23.5733 1040.81 24.512C1040 25.408 1038.95 25.856 1037.67 25.856ZM1062.86 65.024C1061.66 65.024 1060.49 64.8747 1059.34 64.576C1058.23 64.2773 1057.2 63.7227 1056.26 62.912C1055.37 62.1013 1054.64 60.9067 1054.09 59.328C1053.53 57.7067 1053.26 55.5733 1053.26 52.928L1053.38 36.416L1048.84 36.48V32C1050.12 31.9573 1051.36 31.5307 1052.55 30.72C1053.75 29.8667 1054.79 28.7573 1055.69 27.392C1056.58 26.0267 1057.18 24.576 1057.48 23.04H1061.38L1061.32 32H1070.34V36.096L1061.32 36.288L1061.26 52.736C1061.26 54.016 1061.36 55.2107 1061.58 56.32C1061.83 57.3867 1062.26 58.24 1062.86 58.88C1063.5 59.52 1064.35 59.84 1065.42 59.84C1066.23 59.84 1067.14 59.584 1068.17 59.072C1069.23 58.56 1070.3 57.536 1071.37 56L1073.99 58.368C1072.92 59.9893 1071.82 61.248 1070.66 62.144C1069.55 63.04 1068.47 63.7013 1067.4 64.128C1066.38 64.5547 1065.46 64.8107 1064.65 64.896C1063.84 64.9813 1063.24 65.024 1062.86 65.024ZM1076.25 60.608C1077.49 60.608 1078.36 60.352 1078.87 59.84C1079.39 59.2853 1079.71 58.5173 1079.83 57.536C1079.96 56.5547 1080.03 55.4453 1080.03 54.208V42.24C1080.03 41.5147 1080.05 40.7253 1080.09 39.872C1080.13 38.976 1080.2 38.0587 1080.28 37.12C1079.56 37.1627 1078.77 37.2053 1077.91 37.248C1077.06 37.2907 1076.36 37.3333 1075.8 37.376V33.216C1077.72 33.216 1079.3 33.1307 1080.54 32.96C1081.82 32.7467 1082.8 32.4907 1083.48 32.192C1084.21 31.8933 1084.72 31.616 1085.02 31.36H1087.9V54.848C1087.9 55.5307 1087.88 56.3627 1087.83 57.344C1087.83 58.2827 1087.77 59.2 1087.64 60.096C1088.33 60.0107 1089.05 59.968 1089.82 59.968C1090.63 59.9253 1091.29 59.904 1091.8 59.904V64H1076.25V60.608ZM1083.61 25.856C1082.37 25.856 1081.33 25.408 1080.47 24.512C1079.62 23.5733 1079.19 22.4427 1079.19 21.12C1079.19 19.7973 1079.62 18.6667 1080.47 17.728C1081.37 16.7893 1082.42 16.32 1083.61 16.32C1084.85 16.32 1085.87 16.7893 1086.68 17.728C1087.54 18.6667 1087.96 19.7973 1087.96 21.12C1087.96 22.4427 1087.56 23.5733 1086.75 24.512C1085.94 25.408 1084.89 25.856 1083.61 25.856ZM1111.48 65.024C1108.41 65.024 1105.68 64.3413 1103.29 62.976C1100.9 61.568 1099.05 59.6053 1097.72 57.088C1096.4 54.528 1095.74 51.52 1095.74 48.064C1095.74 45.0773 1096.4 42.2827 1097.72 39.68C1099.05 37.0773 1100.9 34.9867 1103.29 33.408C1105.72 31.7867 1108.54 30.976 1111.74 30.976C1113.53 30.976 1115.26 31.232 1116.92 31.744C1118.59 32.256 1120.08 33.1093 1121.4 34.304C1122.73 35.4987 1123.77 37.0773 1124.54 39.04C1125.35 41.0027 1125.73 43.392 1125.69 46.208L1104.19 46.592C1104.19 49.2373 1104.49 51.584 1105.08 53.632C1105.72 55.6373 1106.75 57.2373 1108.16 58.432C1109.56 59.584 1111.42 60.16 1113.72 60.16C1114.75 60.16 1115.84 59.9893 1116.99 59.648C1118.18 59.264 1119.36 58.7093 1120.51 57.984C1121.66 57.216 1122.68 56.2773 1123.58 55.168L1126.01 57.408C1124.6 59.456 1123.05 61.0347 1121.34 62.144C1119.63 63.2533 1117.93 64 1116.22 64.384C1114.51 64.8107 1112.93 65.024 1111.48 65.024ZM1104.51 42.752H1117.82C1117.78 41.0453 1117.52 39.616 1117.05 38.464C1116.63 37.2693 1115.99 36.3733 1115.13 35.776C1114.28 35.136 1113.23 34.816 1112 34.816C1109.91 34.816 1108.22 35.52 1106.94 36.928C1105.7 38.2933 1104.89 40.2347 1104.51 42.752ZM1144.9 65.024C1142.93 65.024 1141.1 64.768 1139.39 64.256C1137.69 63.744 1136.32 63.1253 1135.3 62.4L1135.49 64.448H1131.33L1131.01 53.44H1134.46C1134.59 54.8907 1135.1 56.2133 1136 57.408C1136.9 58.56 1138.05 59.4773 1139.46 60.16C1140.91 60.8 1142.51 61.12 1144.26 61.12C1145.11 61.12 1145.92 60.992 1146.69 60.736C1147.5 60.48 1148.16 60.0747 1148.67 59.52C1149.23 58.9227 1149.5 58.176 1149.5 57.28C1149.5 56.3413 1149.18 55.5733 1148.54 54.976C1147.95 54.3787 1147.09 53.824 1145.98 53.312C1144.87 52.8 1143.57 52.2667 1142.08 51.712C1140.76 51.2 1139.43 50.6667 1138.11 50.112C1136.79 49.5573 1135.57 48.896 1134.46 48.128C1133.35 47.3173 1132.46 46.336 1131.78 45.184C1131.09 44.032 1130.75 42.624 1130.75 40.96C1130.75 39.808 1130.97 38.656 1131.39 37.504C1131.82 36.352 1132.5 35.2853 1133.44 34.304C1134.38 33.28 1135.57 32.4693 1137.02 31.872C1138.52 31.2747 1140.33 30.976 1142.46 30.976C1143.62 30.976 1144.92 31.168 1146.37 31.552C1147.82 31.8933 1149.1 32.4907 1150.21 33.344L1150.14 31.296H1154.3V42.56H1150.85C1150.63 41.0667 1150.17 39.744 1149.44 38.592C1148.71 37.3973 1147.75 36.4587 1146.56 35.776C1145.37 35.0933 1143.94 34.752 1142.27 34.752C1140.91 34.752 1139.75 35.0933 1138.82 35.776C1137.88 36.416 1137.41 37.376 1137.41 38.656C1137.41 39.7227 1137.77 40.5973 1138.5 41.28C1139.22 41.9627 1140.2 42.5387 1141.44 43.008C1142.68 43.4773 1144.02 43.9893 1145.47 44.544C1147.48 45.2267 1149.29 46.0373 1150.91 46.976C1152.58 47.9147 1153.9 49.0453 1154.88 50.368C1155.86 51.6907 1156.35 53.3333 1156.35 55.296C1156.35 57.5147 1155.8 59.3493 1154.69 60.8C1153.58 62.208 1152.15 63.2747 1150.4 64C1148.65 64.6827 1146.82 65.024 1144.9 65.024Z" fill="black"/>
<path d="M21.76 199.96C18.816 199.96 16.2987 199.512 14.208 198.616C12.16 197.72 10.496 196.483 9.216 194.904C7.936 193.325 6.99733 191.491 6.4 189.4C5.84533 187.267 5.568 184.984 5.568 182.552V154.648H9.92V181.976C9.92 184.408 10.1973 186.52 10.752 188.312C11.3493 190.061 12.16 191.512 13.184 192.664C14.208 193.816 15.4453 194.669 16.896 195.224C18.3467 195.779 19.968 196.056 21.76 196.056C23.552 196.056 25.1733 195.779 26.624 195.224C28.0747 194.669 29.312 193.816 30.336 192.664C31.36 191.512 32.1493 190.061 32.704 188.312C33.3013 186.52 33.6 184.408 33.6 181.976V154.648H37.952V182.552C37.952 184.984 37.6533 187.267 37.056 189.4C36.5013 191.491 35.584 193.325 34.304 194.904C33.024 196.483 31.3387 197.72 29.248 198.616C27.2 199.512 24.704 199.96 21.76 199.96ZM49.26 154.648H53.612V199H49.26V154.648ZM114.898 176.792C114.898 180.589 114.3 183.896 113.106 186.712C111.911 189.528 110.226 191.875 108.05 193.752C105.916 195.629 103.356 197.037 100.37 197.976C97.3828 198.915 94.0975 199.384 90.5135 199.384C88.7215 199.384 86.8442 199.277 84.8815 199.064C82.9188 198.893 81.1908 198.616 79.6975 198.232V155.48C81.1908 155.053 82.9188 154.755 84.8815 154.584C86.8442 154.371 88.7215 154.264 90.5135 154.264C94.0975 154.264 97.3828 154.733 100.37 155.672C103.356 156.611 105.916 158.019 108.05 159.896C110.226 161.773 111.911 164.12 113.106 166.936C114.3 169.752 114.898 173.037 114.898 176.792ZM84.0495 195.16C84.3055 195.203 84.9455 195.288 85.9695 195.416C87.0362 195.544 88.7215 195.608 91.0255 195.608C94.2255 195.608 97.0202 195.181 99.4095 194.328C101.799 193.432 103.804 192.173 105.426 190.552C107.047 188.931 108.263 186.968 109.074 184.664C109.884 182.317 110.29 179.693 110.29 176.792C110.29 173.891 109.884 171.288 109.074 168.984C108.263 166.68 107.047 164.717 105.426 163.096C103.804 161.475 101.799 160.237 99.4095 159.384C97.0202 158.488 94.2255 158.04 91.0255 158.04C88.7215 158.04 87.0362 158.104 85.9695 158.232C84.9455 158.36 84.3055 158.445 84.0495 158.488V195.16ZM122.395 182.424C122.395 179.523 122.8 177.005 123.611 174.872C124.464 172.696 125.552 170.883 126.875 169.432C128.24 167.981 129.776 166.915 131.483 166.232C133.232 165.507 135.024 165.144 136.859 165.144C140.912 165.144 144.134 166.467 146.523 169.112C148.955 171.757 150.171 175.832 150.171 181.336C150.171 181.677 150.15 182.019 150.107 182.36C150.107 182.701 150.086 183.021 150.043 183.32H126.811C126.939 187.373 127.942 190.488 129.819 192.664C131.696 194.84 134.683 195.928 138.779 195.928C141.04 195.928 142.832 195.715 144.155 195.288C145.478 194.861 146.438 194.499 147.035 194.2L147.803 197.784C147.206 198.125 146.075 198.531 144.411 199C142.79 199.469 140.87 199.704 138.651 199.704C135.75 199.704 133.275 199.277 131.227 198.424C129.179 197.571 127.494 196.376 126.171 194.84C124.848 193.304 123.888 191.491 123.291 189.4C122.694 187.267 122.395 184.941 122.395 182.424ZM145.883 179.8C145.798 176.344 144.987 173.656 143.451 171.736C141.915 169.816 139.739 168.856 136.923 168.856C135.43 168.856 134.086 169.155 132.891 169.752C131.739 170.349 130.715 171.16 129.819 172.184C128.966 173.165 128.283 174.317 127.771 175.64C127.302 176.963 127.024 178.349 126.939 179.8H145.883ZM166.226 196.056C168.615 196.056 170.578 195.672 172.114 194.904C173.692 194.093 174.482 192.749 174.482 190.872C174.482 189.976 174.332 189.208 174.034 188.568C173.778 187.928 173.33 187.352 172.69 186.84C172.05 186.328 171.196 185.837 170.13 185.368C169.106 184.899 167.826 184.344 166.29 183.704C165.052 183.192 163.879 182.68 162.77 182.168C161.66 181.613 160.679 180.995 159.826 180.312C158.972 179.587 158.29 178.733 157.778 177.752C157.266 176.771 157.01 175.576 157.01 174.168C157.01 171.48 158.012 169.304 160.018 167.64C162.066 165.976 164.86 165.144 168.402 165.144C170.663 165.144 172.519 165.336 173.97 165.72C175.463 166.104 176.508 166.445 177.106 166.744L176.146 170.456C175.634 170.2 174.759 169.859 173.522 169.432C172.327 169.005 170.556 168.792 168.21 168.792C167.271 168.792 166.375 168.899 165.522 169.112C164.711 169.283 163.986 169.581 163.345 170.008C162.705 170.392 162.194 170.904 161.81 171.544C161.426 172.141 161.234 172.888 161.234 173.784C161.234 174.68 161.404 175.448 161.746 176.088C162.087 176.728 162.578 177.304 163.218 177.816C163.9 178.285 164.711 178.733 165.65 179.16C166.631 179.587 167.74 180.056 168.978 180.568C170.258 181.08 171.474 181.613 172.626 182.168C173.82 182.68 174.866 183.32 175.762 184.088C176.658 184.813 177.383 185.709 177.938 186.776C178.492 187.8 178.77 189.101 178.77 190.68C178.77 193.667 177.639 195.928 175.378 197.464C173.159 199 170.108 199.768 166.226 199.768C163.324 199.768 161.106 199.512 159.57 199C158.034 198.531 157.01 198.168 156.498 197.912L157.586 194.136C157.714 194.221 157.991 194.371 158.418 194.584C158.844 194.755 159.42 194.968 160.146 195.224C160.871 195.437 161.724 195.629 162.706 195.8C163.73 195.971 164.903 196.056 166.226 196.056ZM190.977 199H186.817V165.912H190.977V199ZM191.937 155.928C191.937 156.909 191.638 157.699 191.041 158.296C190.443 158.851 189.718 159.128 188.865 159.128C188.011 159.128 187.286 158.851 186.689 158.296C186.091 157.699 185.793 156.909 185.793 155.928C185.793 154.947 186.091 154.179 186.689 153.624C187.286 153.027 188.011 152.728 188.865 152.728C189.718 152.728 190.443 153.027 191.041 153.624C191.638 154.179 191.937 154.947 191.937 155.928ZM223.572 195.16C223.316 195.373 222.932 195.629 222.42 195.928C221.908 196.184 221.268 196.461 220.5 196.76C219.775 197.059 218.921 197.315 217.94 197.528C217.001 197.699 215.935 197.784 214.74 197.784C212.82 197.784 210.964 197.485 209.172 196.888C207.38 196.291 205.801 195.352 204.436 194.072C203.113 192.792 202.047 191.149 201.236 189.144C200.425 187.096 200.02 184.621 200.02 181.72C200.02 179.373 200.383 177.197 201.108 175.192C201.833 173.187 202.857 171.459 204.18 170.008C205.545 168.515 207.188 167.363 209.108 166.552C211.071 165.699 213.268 165.272 215.7 165.272C218.772 165.272 221.225 165.485 223.06 165.912C224.937 166.296 226.473 166.68 227.668 167.064V197.272C227.668 202.221 226.388 205.741 223.828 207.832C221.268 209.965 217.407 211.032 212.244 211.032C210.111 211.032 208.169 210.861 206.42 210.52C204.713 210.221 203.241 209.859 202.004 209.432L202.836 205.656C203.86 206.125 205.247 206.531 206.996 206.872C208.788 207.213 210.58 207.384 212.372 207.384C216.297 207.384 219.135 206.616 220.884 205.08C222.676 203.587 223.572 201.005 223.572 197.336V195.16ZM223.508 169.944C222.783 169.731 221.844 169.539 220.692 169.368C219.54 169.155 217.897 169.048 215.764 169.048C213.972 169.048 212.372 169.368 210.964 170.008C209.599 170.605 208.425 171.48 207.444 172.632C206.463 173.741 205.716 175.085 205.204 176.664C204.692 178.2 204.436 179.907 204.436 181.784C204.436 183.96 204.735 185.837 205.332 187.416C205.929 188.952 206.697 190.211 207.636 191.192C208.617 192.173 209.727 192.899 210.964 193.368C212.201 193.795 213.46 194.008 214.74 194.008C216.617 194.008 218.324 193.731 219.86 193.176C221.439 192.621 222.655 191.981 223.508 191.256V169.944ZM238.692 167.064C239.929 166.723 241.593 166.339 243.684 165.912C245.774 165.485 248.334 165.272 251.364 165.272C253.881 165.272 255.972 165.635 257.636 166.36C259.342 167.085 260.686 168.131 261.668 169.496C262.692 170.819 263.417 172.419 263.844 174.296C264.27 176.173 264.484 178.243 264.484 180.504V199H260.324V181.848C260.324 179.501 260.153 177.517 259.812 175.896C259.513 174.275 258.98 172.952 258.212 171.928C257.486 170.904 256.505 170.179 255.268 169.752C254.073 169.283 252.558 169.048 250.724 169.048C248.761 169.048 247.054 169.155 245.604 169.368C244.196 169.581 243.278 169.773 242.852 169.944V199H238.692V167.064Z" fill="black"/>
<path d="M484.76 199.96C481.816 199.96 479.299 199.512 477.208 198.616C475.16 197.72 473.496 196.483 472.216 194.904C470.936 193.325 469.997 191.491 469.4 189.4C468.845 187.267 468.568 184.984 468.568 182.552V154.648H472.92V181.976C472.92 184.408 473.197 186.52 473.752 188.312C474.349 190.061 475.16 191.512 476.184 192.664C477.208 193.816 478.445 194.669 479.896 195.224C481.347 195.779 482.968 196.056 484.76 196.056C486.552 196.056 488.173 195.779 489.624 195.224C491.075 194.669 492.312 193.816 493.336 192.664C494.36 191.512 495.149 190.061 495.704 188.312C496.301 186.52 496.6 184.408 496.6 181.976V154.648H500.952V182.552C500.952 184.984 500.653 187.267 500.056 189.4C499.501 191.491 498.584 193.325 497.304 194.904C496.024 196.483 494.339 197.72 492.248 198.616C490.2 199.512 487.704 199.96 484.76 199.96ZM518.788 196.056C521.177 196.056 523.14 195.672 524.676 194.904C526.255 194.093 527.044 192.749 527.044 190.872C527.044 189.976 526.895 189.208 526.596 188.568C526.34 187.928 525.892 187.352 525.252 186.84C524.612 186.328 523.759 185.837 522.692 185.368C521.668 184.899 520.388 184.344 518.852 183.704C517.615 183.192 516.441 182.68 515.332 182.168C514.223 181.613 513.241 180.995 512.388 180.312C511.535 179.587 510.852 178.733 510.34 177.752C509.828 176.771 509.572 175.576 509.572 174.168C509.572 171.48 510.575 169.304 512.58 167.64C514.628 165.976 517.423 165.144 520.964 165.144C523.225 165.144 525.081 165.336 526.532 165.72C528.025 166.104 529.071 166.445 529.668 166.744L528.708 170.456C528.196 170.2 527.321 169.859 526.084 169.432C524.889 169.005 523.119 168.792 520.772 168.792C519.833 168.792 518.937 168.899 518.084 169.112C517.273 169.283 516.548 169.581 515.908 170.008C515.268 170.392 514.756 170.904 514.372 171.544C513.988 172.141 513.796 172.888 513.796 173.784C513.796 174.68 513.967 175.448 514.308 176.088C514.649 176.728 515.14 177.304 515.78 177.816C516.463 178.285 517.273 178.733 518.212 179.16C519.193 179.587 520.303 180.056 521.54 180.568C522.82 181.08 524.036 181.613 525.188 182.168C526.383 182.68 527.428 183.32 528.324 184.088C529.22 184.813 529.945 185.709 530.5 186.776C531.055 187.8 531.332 189.101 531.332 190.68C531.332 193.667 530.201 195.928 527.94 197.464C525.721 199 522.671 199.768 518.788 199.768C515.887 199.768 513.668 199.512 512.132 199C510.596 198.531 509.572 198.168 509.06 197.912L510.148 194.136C510.276 194.221 510.553 194.371 510.98 194.584C511.407 194.755 511.983 194.968 512.708 195.224C513.433 195.437 514.287 195.629 515.268 195.8C516.292 195.971 517.465 196.056 518.788 196.056ZM537.395 182.424C537.395 179.523 537.8 177.005 538.611 174.872C539.464 172.696 540.552 170.883 541.875 169.432C543.24 167.981 544.776 166.915 546.483 166.232C548.232 165.507 550.024 165.144 551.859 165.144C555.912 165.144 559.134 166.467 561.523 169.112C563.955 171.757 565.171 175.832 565.171 181.336C565.171 181.677 565.15 182.019 565.107 182.36C565.107 182.701 565.086 183.021 565.043 183.32H541.811C541.939 187.373 542.942 190.488 544.819 192.664C546.696 194.84 549.683 195.928 553.779 195.928C556.04 195.928 557.832 195.715 559.155 195.288C560.478 194.861 561.438 194.499 562.035 194.2L562.803 197.784C562.206 198.125 561.075 198.531 559.411 199C557.79 199.469 555.87 199.704 553.651 199.704C550.75 199.704 548.275 199.277 546.227 198.424C544.179 197.571 542.494 196.376 541.171 194.84C539.848 193.304 538.888 191.491 538.291 189.4C537.694 187.267 537.395 184.941 537.395 182.424ZM560.883 179.8C560.798 176.344 559.987 173.656 558.451 171.736C556.915 169.816 554.739 168.856 551.923 168.856C550.43 168.856 549.086 169.155 547.891 169.752C546.739 170.349 545.715 171.16 544.819 172.184C543.966 173.165 543.283 174.317 542.771 175.64C542.302 176.963 542.024 178.349 541.939 179.8H560.883ZM585.706 165.272C587.071 165.272 588.351 165.379 589.546 165.592C590.783 165.805 591.636 166.019 592.106 166.232L591.274 169.816C590.932 169.645 590.228 169.475 589.162 169.304C588.138 169.091 586.772 168.984 585.066 168.984C583.274 168.984 581.823 169.112 580.714 169.368C579.647 169.624 578.943 169.837 578.602 170.008V199H574.442V167.448C575.508 166.979 576.98 166.509 578.858 166.04C580.735 165.528 583.018 165.272 585.706 165.272ZM641.358 154.648V158.424H627.15V199H622.798V158.424H608.59V154.648H641.358ZM643.208 182.424C643.208 179.523 643.613 177.005 644.424 174.872C645.277 172.696 646.365 170.883 647.688 169.432C649.053 167.981 650.589 166.915 652.296 166.232C654.045 165.507 655.837 165.144 657.672 165.144C661.725 165.144 664.946 166.467 667.336 169.112C669.768 171.757 670.984 175.832 670.984 181.336C670.984 181.677 670.962 182.019 670.92 182.36C670.92 182.701 670.898 183.021 670.856 183.32H647.624C647.752 187.373 648.754 190.488 650.632 192.664C652.509 194.84 655.496 195.928 659.592 195.928C661.853 195.928 663.645 195.715 664.968 195.288C666.29 194.861 667.25 194.499 667.848 194.2L668.616 197.784C668.018 198.125 666.888 198.531 665.224 199C663.602 199.469 661.682 199.704 659.464 199.704C656.562 199.704 654.088 199.277 652.04 198.424C649.992 197.571 648.306 196.376 646.984 194.84C645.661 193.304 644.701 191.491 644.104 189.4C643.506 187.267 643.208 184.941 643.208 182.424ZM666.696 179.8C666.61 176.344 665.8 173.656 664.264 171.736C662.728 169.816 660.552 168.856 657.736 168.856C656.242 168.856 654.898 169.155 653.704 169.752C652.552 170.349 651.528 171.16 650.632 172.184C649.778 173.165 649.096 174.317 648.584 175.64C648.114 176.963 647.837 178.349 647.752 179.8H666.696ZM687.038 196.056C689.427 196.056 691.39 195.672 692.926 194.904C694.505 194.093 695.294 192.749 695.294 190.872C695.294 189.976 695.145 189.208 694.846 188.568C694.59 187.928 694.142 187.352 693.502 186.84C692.862 186.328 692.009 185.837 690.942 185.368C689.918 184.899 688.638 184.344 687.102 183.704C685.865 183.192 684.691 182.68 683.582 182.168C682.473 181.613 681.491 180.995 680.638 180.312C679.785 179.587 679.102 178.733 678.59 177.752C678.078 176.771 677.822 175.576 677.822 174.168C677.822 171.48 678.825 169.304 680.83 167.64C682.878 165.976 685.673 165.144 689.214 165.144C691.475 165.144 693.331 165.336 694.782 165.72C696.275 166.104 697.321 166.445 697.918 166.744L696.958 170.456C696.446 170.2 695.571 169.859 694.334 169.432C693.139 169.005 691.369 168.792 689.022 168.792C688.083 168.792 687.187 168.899 686.334 169.112C685.523 169.283 684.798 169.581 684.158 170.008C683.518 170.392 683.006 170.904 682.622 171.544C682.238 172.141 682.046 172.888 682.046 173.784C682.046 174.68 682.217 175.448 682.558 176.088C682.899 176.728 683.39 177.304 684.03 177.816C684.713 178.285 685.523 178.733 686.462 179.16C687.443 179.587 688.553 180.056 689.79 180.568C691.07 181.08 692.286 181.613 693.438 182.168C694.633 182.68 695.678 183.32 696.574 184.088C697.47 184.813 698.195 185.709 698.75 186.776C699.305 187.8 699.582 189.101 699.582 190.68C699.582 193.667 698.451 195.928 696.19 197.464C693.971 199 690.921 199.768 687.038 199.768C684.137 199.768 681.918 199.512 680.382 199C678.846 198.531 677.822 198.168 677.31 197.912L678.398 194.136C678.526 194.221 678.803 194.371 679.23 194.584C679.657 194.755 680.233 194.968 680.958 195.224C681.683 195.437 682.537 195.629 683.518 195.8C684.542 195.971 685.715 196.056 687.038 196.056ZM711.533 165.912H724.717V169.432H711.533V187.032C711.533 188.909 711.682 190.445 711.981 191.64C712.322 192.792 712.792 193.688 713.389 194.328C713.986 194.968 714.712 195.395 715.565 195.608C716.418 195.821 717.357 195.928 718.381 195.928C720.13 195.928 721.538 195.736 722.605 195.352C723.672 194.925 724.504 194.541 725.101 194.2L726.125 197.656C725.528 198.04 724.482 198.488 722.989 199C721.496 199.469 719.874 199.704 718.125 199.704C716.077 199.704 714.349 199.448 712.941 198.936C711.576 198.381 710.466 197.571 709.613 196.504C708.802 195.395 708.226 194.029 707.885 192.408C707.544 190.787 707.373 188.867 707.373 186.648V156.184L711.533 155.416V165.912ZM736.539 199H732.379V165.912H736.539V199ZM737.499 155.928C737.499 156.909 737.2 157.699 736.603 158.296C736.006 158.851 735.28 159.128 734.427 159.128C733.574 159.128 732.848 158.851 732.251 158.296C731.654 157.699 731.355 156.909 731.355 155.928C731.355 154.947 731.654 154.179 732.251 153.624C732.848 153.027 733.574 152.728 734.427 152.728C735.28 152.728 736.006 153.027 736.603 153.624C737.2 154.179 737.499 154.947 737.499 155.928ZM747.567 167.064C748.804 166.723 750.468 166.339 752.559 165.912C754.649 165.485 757.209 165.272 760.239 165.272C762.756 165.272 764.847 165.635 766.511 166.36C768.217 167.085 769.561 168.131 770.543 169.496C771.567 170.819 772.292 172.419 772.719 174.296C773.145 176.173 773.359 178.243 773.359 180.504V199H769.199V181.848C769.199 179.501 769.028 177.517 768.687 175.896C768.388 174.275 767.855 172.952 767.087 171.928C766.361 170.904 765.38 170.179 764.143 169.752C762.948 169.283 761.433 169.048 759.599 169.048C757.636 169.048 755.929 169.155 754.479 169.368C753.071 169.581 752.153 169.773 751.727 169.944V199H747.567V167.064ZM805.572 195.16C805.316 195.373 804.932 195.629 804.42 195.928C803.908 196.184 803.268 196.461 802.5 196.76C801.775 197.059 800.921 197.315 799.94 197.528C799.001 197.699 797.935 197.784 796.74 197.784C794.82 197.784 792.964 197.485 791.172 196.888C789.38 196.291 787.801 195.352 786.436 194.072C785.113 192.792 784.047 191.149 783.236 189.144C782.425 187.096 782.02 184.621 782.02 181.72C782.02 179.373 782.383 177.197 783.108 175.192C783.833 173.187 784.857 171.459 786.18 170.008C787.545 168.515 789.188 167.363 791.108 166.552C793.071 165.699 795.268 165.272 797.7 165.272C800.772 165.272 803.225 165.485 805.06 165.912C806.937 166.296 808.473 166.68 809.668 167.064V197.272C809.668 202.221 808.388 205.741 805.828 207.832C803.268 209.965 799.407 211.032 794.244 211.032C792.111 211.032 790.169 210.861 788.42 210.52C786.713 210.221 785.241 209.859 784.004 209.432L784.836 205.656C785.86 206.125 787.247 206.531 788.996 206.872C790.788 207.213 792.58 207.384 794.372 207.384C798.297 207.384 801.135 206.616 802.884 205.08C804.676 203.587 805.572 201.005 805.572 197.336V195.16ZM805.508 169.944C804.783 169.731 803.844 169.539 802.692 169.368C801.54 169.155 799.897 169.048 797.764 169.048C795.972 169.048 794.372 169.368 792.964 170.008C791.599 170.605 790.425 171.48 789.444 172.632C788.463 173.741 787.716 175.085 787.204 176.664C786.692 178.2 786.436 179.907 786.436 181.784C786.436 183.96 786.735 185.837 787.332 187.416C787.929 188.952 788.697 190.211 789.636 191.192C790.617 192.173 791.727 192.899 792.964 193.368C794.201 193.795 795.46 194.008 796.74 194.008C798.617 194.008 800.324 193.731 801.86 193.176C803.439 192.621 804.655 191.981 805.508 191.256V169.944Z" fill="black"/>
<path d="M1025.38 199.384C1024.66 199.384 1023.81 199.341 1022.82 199.256C1021.89 199.213 1020.9 199.128 1019.88 199C1018.9 198.915 1017.96 198.808 1017.06 198.68C1016.17 198.509 1015.4 198.339 1014.76 198.168V155.48C1015.53 155.267 1016.38 155.096 1017.32 154.968C1018.26 154.797 1019.22 154.669 1020.2 154.584C1021.22 154.456 1022.21 154.371 1023.14 154.328C1024.13 154.285 1025.02 154.264 1025.83 154.264C1028.22 154.264 1030.48 154.456 1032.62 154.84C1034.79 155.224 1036.69 155.864 1038.31 156.76C1039.93 157.656 1041.21 158.851 1042.15 160.344C1043.13 161.795 1043.62 163.608 1043.62 165.784C1043.62 168.173 1043.01 170.221 1041.77 171.928C1040.57 173.592 1038.95 174.744 1036.9 175.384C1038.18 175.683 1039.36 176.109 1040.42 176.664C1041.49 177.219 1042.43 177.944 1043.24 178.84C1044.05 179.693 1044.67 180.76 1045.1 182.04C1045.57 183.277 1045.8 184.771 1045.8 186.52C1045.8 190.701 1044.14 193.901 1040.81 196.12C1037.48 198.296 1032.34 199.384 1025.38 199.384ZM1019.11 177.752V195.224C1019.75 195.309 1020.71 195.416 1021.99 195.544C1023.27 195.629 1024.57 195.672 1025.9 195.672C1027.86 195.672 1029.76 195.544 1031.59 195.288C1033.47 195.032 1035.11 194.563 1036.52 193.88C1037.93 193.197 1039.06 192.259 1039.91 191.064C1040.77 189.869 1041.19 188.333 1041.19 186.456C1041.19 184.749 1040.89 183.341 1040.3 182.232C1039.7 181.08 1038.85 180.184 1037.74 179.544C1036.63 178.861 1035.26 178.392 1033.64 178.136C1032.06 177.88 1030.29 177.752 1028.33 177.752H1019.11ZM1019.11 174.04H1027.56C1029.14 174.04 1030.63 173.933 1032.04 173.72C1033.45 173.464 1034.66 173.037 1035.69 172.44C1036.75 171.8 1037.59 170.968 1038.18 169.944C1038.78 168.877 1039.08 167.533 1039.08 165.912C1039.08 164.461 1038.76 163.245 1038.12 162.264C1037.48 161.24 1036.56 160.408 1035.37 159.768C1034.22 159.128 1032.83 158.68 1031.21 158.424C1029.59 158.125 1027.79 157.976 1025.83 157.976C1024.25 157.976 1022.91 158.019 1021.8 158.104C1020.73 158.189 1019.84 158.296 1019.11 158.424V174.04ZM1066.08 165.272C1067.45 165.272 1068.73 165.379 1069.92 165.592C1071.16 165.805 1072.01 166.019 1072.48 166.232L1071.65 169.816C1071.31 169.645 1070.6 169.475 1069.54 169.304C1068.51 169.091 1067.15 168.984 1065.44 168.984C1063.65 168.984 1062.2 169.112 1061.09 169.368C1060.02 169.624 1059.32 169.837 1058.98 170.008V199H1054.82V167.448C1055.88 166.979 1057.36 166.509 1059.23 166.04C1061.11 165.528 1063.39 165.272 1066.08 165.272ZM1089.19 195.992C1090.81 195.992 1092.22 195.949 1093.41 195.864C1094.65 195.736 1095.69 195.587 1096.55 195.416V183.768C1096.08 183.555 1095.33 183.341 1094.31 183.128C1093.28 182.872 1091.87 182.744 1090.08 182.744C1089.06 182.744 1087.99 182.829 1086.88 183C1085.77 183.128 1084.75 183.448 1083.81 183.96C1082.87 184.429 1082.1 185.091 1081.51 185.944C1080.91 186.797 1080.61 187.928 1080.61 189.336C1080.61 190.573 1080.8 191.619 1081.19 192.472C1081.61 193.325 1082.19 194.008 1082.91 194.52C1083.68 195.032 1084.58 195.416 1085.6 195.672C1086.67 195.885 1087.86 195.992 1089.19 195.992ZM1088.8 165.144C1090.98 165.144 1092.81 165.464 1094.31 166.104C1095.84 166.701 1097.08 167.555 1098.02 168.664C1098.96 169.731 1099.64 171.011 1100.07 172.504C1100.49 173.997 1100.71 175.619 1100.71 177.368V198.232C1100.28 198.36 1099.66 198.509 1098.85 198.68C1098.04 198.808 1097.1 198.957 1096.03 199.128C1094.97 199.299 1093.77 199.427 1092.45 199.512C1091.17 199.64 1089.85 199.704 1088.48 199.704C1086.73 199.704 1085.11 199.512 1083.62 199.128C1082.17 198.744 1080.89 198.147 1079.78 197.336C1078.71 196.483 1077.86 195.416 1077.22 194.136C1076.62 192.813 1076.32 191.213 1076.32 189.336C1076.32 187.544 1076.66 186.008 1077.35 184.728C1078.03 183.448 1078.99 182.403 1080.23 181.592C1081.46 180.739 1082.94 180.12 1084.64 179.736C1086.35 179.352 1088.2 179.16 1090.21 179.16C1090.81 179.16 1091.43 179.203 1092.07 179.288C1092.75 179.331 1093.39 179.416 1093.99 179.544C1094.63 179.629 1095.16 179.736 1095.59 179.864C1096.06 179.949 1096.38 180.035 1096.55 180.12V178.072C1096.55 176.92 1096.46 175.811 1096.29 174.744C1096.12 173.635 1095.74 172.653 1095.14 171.8C1094.58 170.904 1093.77 170.2 1092.71 169.688C1091.68 169.133 1090.32 168.856 1088.61 168.856C1086.18 168.856 1084.36 169.027 1083.17 169.368C1081.98 169.709 1081.1 169.987 1080.55 170.2L1079.97 166.552C1080.7 166.211 1081.8 165.891 1083.3 165.592C1084.83 165.293 1086.67 165.144 1088.8 165.144ZM1111.32 167.064C1112.55 166.723 1114.22 166.339 1116.31 165.912C1118.4 165.485 1120.96 165.272 1123.99 165.272C1126.51 165.272 1128.6 165.635 1130.26 166.36C1131.97 167.085 1133.31 168.131 1134.29 169.496C1135.32 170.819 1136.04 172.419 1136.47 174.296C1136.9 176.173 1137.11 178.243 1137.11 180.504V199H1132.95V181.848C1132.95 179.501 1132.78 177.517 1132.44 175.896C1132.14 174.275 1131.6 172.952 1130.84 171.928C1130.11 170.904 1129.13 170.179 1127.89 169.752C1126.7 169.283 1125.18 169.048 1123.35 169.048C1121.39 169.048 1119.68 169.155 1118.23 169.368C1116.82 169.581 1115.9 169.773 1115.48 169.944V199H1111.32V167.064ZM1174.06 197.976C1172.82 198.403 1171.24 198.808 1169.32 199.192C1167.4 199.576 1164.97 199.768 1162.03 199.768C1159.59 199.768 1157.38 199.384 1155.37 198.616C1153.41 197.805 1151.7 196.653 1150.25 195.16C1148.84 193.667 1147.73 191.853 1146.92 189.72C1146.15 187.587 1145.77 185.176 1145.77 182.488C1145.77 179.971 1146.09 177.667 1146.73 175.576C1147.41 173.443 1148.39 171.608 1149.67 170.072C1150.95 168.536 1152.51 167.341 1154.35 166.488C1156.22 165.635 1158.36 165.208 1160.75 165.208C1162.92 165.208 1164.8 165.528 1166.38 166.168C1168 166.765 1169.17 167.341 1169.9 167.896V150.104L1174.06 149.336V197.976ZM1169.9 171.928C1169.51 171.629 1169.02 171.309 1168.43 170.968C1167.87 170.627 1167.21 170.307 1166.44 170.008C1165.67 169.709 1164.84 169.475 1163.95 169.304C1163.05 169.091 1162.11 168.984 1161.13 168.984C1159.08 168.984 1157.35 169.347 1155.95 170.072C1154.58 170.797 1153.47 171.779 1152.62 173.016C1151.76 174.211 1151.15 175.64 1150.76 177.304C1150.38 178.925 1150.19 180.653 1150.19 182.488C1150.19 186.84 1151.27 190.189 1153.45 192.536C1155.63 194.84 1158.51 195.992 1162.09 195.992C1164.14 195.992 1165.78 195.907 1167.02 195.736C1168.3 195.523 1169.26 195.309 1169.9 195.096V171.928ZM1235.09 176.792C1235.09 180.589 1234.49 183.896 1233.29 186.712C1232.1 189.528 1230.41 191.875 1228.24 193.752C1226.1 195.629 1223.54 197.037 1220.56 197.976C1217.57 198.915 1214.29 199.384 1210.7 199.384C1208.91 199.384 1207.03 199.277 1205.07 199.064C1203.11 198.893 1201.38 198.616 1199.89 198.232V155.48C1201.38 155.053 1203.11 154.755 1205.07 154.584C1207.03 154.371 1208.91 154.264 1210.7 154.264C1214.29 154.264 1217.57 154.733 1220.56 155.672C1223.54 156.611 1226.1 158.019 1228.24 159.896C1230.41 161.773 1232.1 164.12 1233.29 166.936C1234.49 169.752 1235.09 173.037 1235.09 176.792ZM1204.24 195.16C1204.49 195.203 1205.13 195.288 1206.16 195.416C1207.22 195.544 1208.91 195.608 1211.21 195.608C1214.41 195.608 1217.21 195.181 1219.6 194.328C1221.99 193.432 1223.99 192.173 1225.61 190.552C1227.23 188.931 1228.45 186.968 1229.26 184.664C1230.07 182.317 1230.48 179.693 1230.48 176.792C1230.48 173.891 1230.07 171.288 1229.26 168.984C1228.45 166.68 1227.23 164.717 1225.61 163.096C1223.99 161.475 1221.99 160.237 1219.6 159.384C1217.21 158.488 1214.41 158.04 1211.21 158.04C1208.91 158.04 1207.22 158.104 1206.16 158.232C1205.13 158.36 1204.49 158.445 1204.24 158.488V195.16ZM1242.58 182.424C1242.58 179.523 1242.99 177.005 1243.8 174.872C1244.65 172.696 1245.74 170.883 1247.06 169.432C1248.43 167.981 1249.96 166.915 1251.67 166.232C1253.42 165.507 1255.21 165.144 1257.05 165.144C1261.1 165.144 1264.32 166.467 1266.71 169.112C1269.14 171.757 1270.36 175.832 1270.36 181.336C1270.36 181.677 1270.34 182.019 1270.29 182.36C1270.29 182.701 1270.27 183.021 1270.23 183.32H1247C1247.13 187.373 1248.13 190.488 1250.01 192.664C1251.88 194.84 1254.87 195.928 1258.97 195.928C1261.23 195.928 1263.02 195.715 1264.34 195.288C1265.67 194.861 1266.63 194.499 1267.22 194.2L1267.99 197.784C1267.39 198.125 1266.26 198.531 1264.6 199C1262.98 199.469 1261.06 199.704 1258.84 199.704C1255.94 199.704 1253.46 199.277 1251.41 198.424C1249.37 197.571 1247.68 196.376 1246.36 194.84C1245.04 193.304 1244.08 191.491 1243.48 189.4C1242.88 187.267 1242.58 184.941 1242.58 182.424ZM1266.07 179.8C1265.99 176.344 1265.17 173.656 1263.64 171.736C1262.1 169.816 1259.93 168.856 1257.11 168.856C1255.62 168.856 1254.27 169.155 1253.08 169.752C1251.93 170.349 1250.9 171.16 1250.01 172.184C1249.15 173.165 1248.47 174.317 1247.96 175.64C1247.49 176.963 1247.21 178.349 1247.13 179.8H1266.07ZM1286.41 196.056C1288.8 196.056 1290.77 195.672 1292.3 194.904C1293.88 194.093 1294.67 192.749 1294.67 190.872C1294.67 189.976 1294.52 189.208 1294.22 188.568C1293.97 187.928 1293.52 187.352 1292.88 186.84C1292.24 186.328 1291.38 185.837 1290.32 185.368C1289.29 184.899 1288.01 184.344 1286.48 183.704C1285.24 183.192 1284.07 182.68 1282.96 182.168C1281.85 181.613 1280.87 180.995 1280.01 180.312C1279.16 179.587 1278.48 178.733 1277.97 177.752C1277.45 176.771 1277.2 175.576 1277.2 174.168C1277.2 171.48 1278.2 169.304 1280.21 167.64C1282.25 165.976 1285.05 165.144 1288.59 165.144C1290.85 165.144 1292.71 165.336 1294.16 165.72C1295.65 166.104 1296.7 166.445 1297.29 166.744L1296.33 170.456C1295.82 170.2 1294.95 169.859 1293.71 169.432C1292.51 169.005 1290.74 168.792 1288.4 168.792C1287.46 168.792 1286.56 168.899 1285.71 169.112C1284.9 169.283 1284.17 169.581 1283.53 170.008C1282.89 170.392 1282.38 170.904 1282 171.544C1281.61 172.141 1281.42 172.888 1281.42 173.784C1281.42 174.68 1281.59 175.448 1281.93 176.088C1282.27 176.728 1282.77 177.304 1283.41 177.816C1284.09 178.285 1284.9 178.733 1285.84 179.16C1286.82 179.587 1287.93 180.056 1289.17 180.568C1290.45 181.08 1291.66 181.613 1292.81 182.168C1294.01 182.68 1295.05 183.32 1295.95 184.088C1296.85 184.813 1297.57 185.709 1298.13 186.776C1298.68 187.8 1298.96 189.101 1298.96 190.68C1298.96 193.667 1297.83 195.928 1295.57 197.464C1293.35 199 1290.3 199.768 1286.41 199.768C1283.51 199.768 1281.29 199.512 1279.76 199C1278.22 198.531 1277.2 198.168 1276.69 197.912L1277.77 194.136C1277.9 194.221 1278.18 194.371 1278.61 194.584C1279.03 194.755 1279.61 194.968 1280.33 195.224C1281.06 195.437 1281.91 195.629 1282.89 195.8C1283.92 195.971 1285.09 196.056 1286.41 196.056ZM1311.16 199H1307V165.912H1311.16V199ZM1312.12 155.928C1312.12 156.909 1311.83 157.699 1311.23 158.296C1310.63 158.851 1309.91 159.128 1309.05 159.128C1308.2 159.128 1307.47 158.851 1306.88 158.296C1306.28 157.699 1305.98 156.909 1305.98 155.928C1305.98 154.947 1306.28 154.179 1306.88 153.624C1307.47 153.027 1308.2 152.728 1309.05 152.728C1309.91 152.728 1310.63 153.027 1311.23 153.624C1311.83 154.179 1312.12 154.947 1312.12 155.928ZM1343.76 195.16C1343.5 195.373 1343.12 195.629 1342.61 195.928C1342.1 196.184 1341.46 196.461 1340.69 196.76C1339.96 197.059 1339.11 197.315 1338.13 197.528C1337.19 197.699 1336.12 197.784 1334.93 197.784C1333.01 197.784 1331.15 197.485 1329.36 196.888C1327.57 196.291 1325.99 195.352 1324.62 194.072C1323.3 192.792 1322.23 191.149 1321.42 189.144C1320.61 187.096 1320.21 184.621 1320.21 181.72C1320.21 179.373 1320.57 177.197 1321.3 175.192C1322.02 173.187 1323.04 171.459 1324.37 170.008C1325.73 168.515 1327.38 167.363 1329.3 166.552C1331.26 165.699 1333.46 165.272 1335.89 165.272C1338.96 165.272 1341.41 165.485 1343.25 165.912C1345.12 166.296 1346.66 166.68 1347.86 167.064V197.272C1347.86 202.221 1346.58 205.741 1344.02 207.832C1341.46 209.965 1337.59 211.032 1332.43 211.032C1330.3 211.032 1328.36 210.861 1326.61 210.52C1324.9 210.221 1323.43 209.859 1322.19 209.432L1323.02 205.656C1324.05 206.125 1325.43 206.531 1327.18 206.872C1328.98 207.213 1330.77 207.384 1332.56 207.384C1336.48 207.384 1339.32 206.616 1341.07 205.08C1342.86 203.587 1343.76 201.005 1343.76 197.336V195.16ZM1343.7 169.944C1342.97 169.731 1342.03 169.539 1340.88 169.368C1339.73 169.155 1338.08 169.048 1335.95 169.048C1334.16 169.048 1332.56 169.368 1331.15 170.008C1329.79 170.605 1328.61 171.48 1327.63 172.632C1326.65 173.741 1325.9 175.085 1325.39 176.664C1324.88 178.2 1324.62 179.907 1324.62 181.784C1324.62 183.96 1324.92 185.837 1325.52 187.416C1326.12 188.952 1326.88 190.211 1327.82 191.192C1328.8 192.173 1329.91 192.899 1331.15 193.368C1332.39 193.795 1333.65 194.008 1334.93 194.008C1336.8 194.008 1338.51 193.731 1340.05 193.176C1341.63 192.621 1342.84 191.981 1343.7 191.256V169.944ZM1358.88 167.064C1360.12 166.723 1361.78 166.339 1363.87 165.912C1365.96 165.485 1368.52 165.272 1371.55 165.272C1374.07 165.272 1376.16 165.635 1377.82 166.36C1379.53 167.085 1380.87 168.131 1381.86 169.496C1382.88 170.819 1383.6 172.419 1384.03 174.296C1384.46 176.173 1384.67 178.243 1384.67 180.504V199H1380.51V181.848C1380.51 179.501 1380.34 177.517 1380 175.896C1379.7 174.275 1379.17 172.952 1378.4 171.928C1377.67 170.904 1376.69 170.179 1375.46 169.752C1374.26 169.283 1372.75 169.048 1370.91 169.048C1368.95 169.048 1367.24 169.155 1365.79 169.368C1364.38 169.581 1363.47 169.773 1363.04 169.944V199H1358.88V167.064Z" fill="black"/>
<path d="M1609.66 192.6C1609.24 191.533 1608.62 190.125 1607.81 188.376C1607.04 186.627 1606.17 184.728 1605.18 182.68C1604.2 180.589 1603.2 178.456 1602.18 176.28C1601.15 174.061 1600.17 171.992 1599.23 170.072C1598.29 168.152 1597.46 166.467 1596.74 165.016C1596.01 163.565 1595.48 162.541 1595.14 161.944C1594.58 167.277 1594.13 173.08 1593.79 179.352C1593.49 185.581 1593.22 192.131 1592.96 199H1588.67C1589.06 190.936 1589.48 183.213 1589.95 175.832C1590.46 168.451 1591.08 161.389 1591.81 154.648H1595.65C1596.93 156.781 1598.29 159.256 1599.74 162.072C1601.19 164.845 1602.62 167.747 1604.03 170.776C1605.48 173.763 1606.87 176.728 1608.19 179.672C1609.56 182.573 1610.75 185.197 1611.78 187.544C1612.8 185.197 1613.97 182.573 1615.3 179.672C1616.66 176.728 1618.05 173.763 1619.46 170.776C1620.91 167.747 1622.36 164.845 1623.81 162.072C1625.26 159.256 1626.62 156.781 1627.9 154.648H1631.55C1632.28 161.389 1632.87 168.451 1633.34 175.832C1633.86 183.213 1634.3 190.936 1634.69 199H1630.27C1630.02 192.131 1629.72 185.581 1629.38 179.352C1629.08 173.08 1628.65 167.277 1628.1 161.944C1627.75 162.541 1627.22 163.565 1626.5 165.016C1625.77 166.467 1624.94 168.152 1624 170.072C1623.06 171.992 1622.08 174.061 1621.06 176.28C1620.03 178.456 1619.03 180.589 1618.05 182.68C1617.07 184.728 1616.17 186.627 1615.36 188.376C1614.59 190.125 1613.99 191.533 1613.57 192.6H1609.66ZM1673.1 182.488C1673.1 185.091 1672.72 187.459 1671.95 189.592C1671.23 191.725 1670.18 193.539 1668.82 195.032C1667.49 196.525 1665.91 197.699 1664.08 198.552C1662.24 199.363 1660.22 199.768 1658 199.768C1655.78 199.768 1653.75 199.363 1651.92 198.552C1650.08 197.699 1648.48 196.525 1647.12 195.032C1645.8 193.539 1644.75 191.725 1643.98 189.592C1643.26 187.459 1642.9 185.091 1642.9 182.488C1642.9 179.885 1643.26 177.517 1643.98 175.384C1644.75 173.251 1645.8 171.437 1647.12 169.944C1648.48 168.408 1650.08 167.235 1651.92 166.424C1653.75 165.571 1655.78 165.144 1658 165.144C1660.22 165.144 1662.24 165.571 1664.08 166.424C1665.91 167.235 1667.49 168.408 1668.82 169.944C1670.18 171.437 1671.23 173.251 1671.95 175.384C1672.72 177.517 1673.1 179.885 1673.1 182.488ZM1668.69 182.488C1668.69 178.349 1667.73 175.064 1665.81 172.632C1663.89 170.157 1661.28 168.92 1658 168.92C1654.71 168.92 1652.11 170.157 1650.19 172.632C1648.27 175.064 1647.31 178.349 1647.31 182.488C1647.31 186.627 1648.27 189.912 1650.19 192.344C1652.11 194.776 1654.71 195.992 1658 195.992C1661.28 195.992 1663.89 194.776 1665.81 192.344C1667.73 189.912 1668.69 186.627 1668.69 182.488ZM1695.83 199.704C1693.27 199.704 1691 199.299 1689.04 198.488C1687.08 197.677 1685.44 196.525 1684.11 195.032C1682.83 193.496 1681.85 191.683 1681.17 189.592C1680.49 187.459 1680.15 185.112 1680.15 182.552C1680.15 179.949 1680.49 177.581 1681.17 175.448C1681.89 173.315 1682.92 171.48 1684.24 169.944C1685.56 168.408 1687.16 167.235 1689.04 166.424C1690.92 165.571 1693.03 165.144 1695.38 165.144C1697.17 165.144 1698.83 165.293 1700.37 165.592C1701.95 165.891 1703.16 166.275 1704.02 166.744L1702.93 170.328C1702.08 169.901 1701.12 169.56 1700.05 169.304C1698.98 169.048 1697.55 168.92 1695.76 168.92C1692.09 168.92 1689.3 170.115 1687.38 172.504C1685.5 174.851 1684.56 178.2 1684.56 182.552C1684.56 184.515 1684.77 186.328 1685.2 187.992C1685.63 189.613 1686.31 191.021 1687.25 192.216C1688.23 193.368 1689.47 194.285 1690.96 194.968C1692.5 195.608 1694.35 195.928 1696.53 195.928C1698.32 195.928 1699.81 195.736 1701.01 195.352C1702.25 194.925 1703.14 194.563 1703.7 194.264L1704.59 197.848C1703.83 198.275 1702.61 198.68 1700.95 199.064C1699.32 199.491 1697.62 199.704 1695.83 199.704ZM1720.4 181.016C1721.72 181.912 1723.13 183.064 1724.62 184.472C1726.16 185.88 1727.65 187.416 1729.1 189.08C1730.6 190.701 1731.98 192.387 1733.26 194.136C1734.59 195.843 1735.69 197.464 1736.59 199H1731.66C1730.64 197.293 1729.47 195.629 1728.14 194.008C1726.86 192.344 1725.5 190.787 1724.05 189.336C1722.64 187.885 1721.21 186.563 1719.76 185.368C1718.35 184.173 1717.01 183.171 1715.73 182.36V199H1711.57V150.104L1715.73 149.336V180.824C1716.79 179.8 1717.99 178.627 1719.31 177.304C1720.63 175.981 1721.96 174.637 1723.28 173.272C1724.64 171.907 1725.92 170.584 1727.12 169.304C1728.31 168.024 1729.34 166.893 1730.19 165.912H1735.18C1734.2 166.936 1733.09 168.088 1731.85 169.368C1730.62 170.648 1729.32 171.992 1727.95 173.4C1726.63 174.765 1725.31 176.109 1723.98 177.432C1722.66 178.755 1721.47 179.949 1720.4 181.016ZM1768.66 197.848C1767.42 198.189 1765.76 198.573 1763.67 199C1761.58 199.427 1759.02 199.64 1755.99 199.64C1753.52 199.64 1751.45 199.277 1749.78 198.552C1748.12 197.827 1746.77 196.803 1745.75 195.48C1744.73 194.157 1743.98 192.557 1743.51 190.68C1743.08 188.803 1742.87 186.733 1742.87 184.472V165.912H1747.03V183.128C1747.03 185.475 1747.2 187.459 1747.54 189.08C1747.88 190.701 1748.44 192.024 1749.21 193.048C1749.97 194.029 1750.96 194.755 1752.15 195.224C1753.39 195.651 1754.88 195.864 1756.63 195.864C1758.59 195.864 1760.3 195.757 1761.75 195.544C1763.2 195.331 1764.12 195.139 1764.5 194.968V165.912H1768.66V197.848ZM1783.85 193.048C1784.24 193.347 1784.7 193.667 1785.26 194.008C1785.86 194.349 1786.54 194.669 1787.31 194.968C1788.08 195.267 1788.91 195.523 1789.8 195.736C1790.7 195.907 1791.64 195.992 1792.62 195.992C1794.67 195.992 1796.37 195.651 1797.74 194.968C1799.15 194.243 1800.28 193.283 1801.13 192.088C1801.98 190.851 1802.6 189.421 1802.99 187.8C1803.37 186.136 1803.56 184.387 1803.56 182.552C1803.56 178.2 1802.48 174.872 1800.3 172.568C1798.12 170.221 1795.24 169.048 1791.66 169.048C1789.61 169.048 1787.95 169.155 1786.67 169.368C1785.43 169.539 1784.49 169.731 1783.85 169.944V193.048ZM1783.85 210.84H1779.69V167.064C1780.93 166.637 1782.51 166.232 1784.43 165.848C1786.35 165.464 1788.78 165.272 1791.72 165.272C1794.16 165.272 1796.35 165.677 1798.32 166.488C1800.32 167.256 1802.03 168.387 1803.44 169.88C1804.89 171.373 1806 173.187 1806.76 175.32C1807.57 177.453 1807.98 179.864 1807.98 182.552C1807.98 185.069 1807.64 187.395 1806.96 189.528C1806.32 191.619 1805.36 193.432 1804.08 194.968C1802.8 196.461 1801.22 197.635 1799.34 198.488C1797.5 199.341 1795.39 199.768 1793 199.768C1790.83 199.768 1788.93 199.469 1787.31 198.872C1785.73 198.232 1784.58 197.635 1783.85 197.08V210.84ZM1823.79 196.056C1826.18 196.056 1828.14 195.672 1829.68 194.904C1831.25 194.093 1832.04 192.749 1832.04 190.872C1832.04 189.976 1831.89 189.208 1831.6 188.568C1831.34 187.928 1830.89 187.352 1830.25 186.84C1829.61 186.328 1828.76 185.837 1827.69 185.368C1826.67 184.899 1825.39 184.344 1823.85 183.704C1822.61 183.192 1821.44 182.68 1820.33 182.168C1819.22 181.613 1818.24 180.995 1817.39 180.312C1816.53 179.587 1815.85 178.733 1815.34 177.752C1814.83 176.771 1814.57 175.576 1814.57 174.168C1814.57 171.48 1815.57 169.304 1817.58 167.64C1819.63 165.976 1822.42 165.144 1825.96 165.144C1828.23 165.144 1830.08 165.336 1831.53 165.72C1833.03 166.104 1834.07 166.445 1834.67 166.744L1833.71 170.456C1833.2 170.2 1832.32 169.859 1831.08 169.432C1829.89 169.005 1828.12 168.792 1825.77 168.792C1824.83 168.792 1823.94 168.899 1823.08 169.112C1822.27 169.283 1821.55 169.581 1820.91 170.008C1820.27 170.392 1819.76 170.904 1819.37 171.544C1818.99 172.141 1818.8 172.888 1818.8 173.784C1818.8 174.68 1818.97 175.448 1819.31 176.088C1819.65 176.728 1820.14 177.304 1820.78 177.816C1821.46 178.285 1822.27 178.733 1823.21 179.16C1824.19 179.587 1825.3 180.056 1826.54 180.568C1827.82 181.08 1829.04 181.613 1830.19 182.168C1831.38 182.68 1832.43 183.32 1833.32 184.088C1834.22 184.813 1834.95 185.709 1835.5 186.776C1836.05 187.8 1836.33 189.101 1836.33 190.68C1836.33 193.667 1835.2 195.928 1832.94 197.464C1830.72 199 1827.67 199.768 1823.79 199.768C1820.89 199.768 1818.67 199.512 1817.13 199C1815.6 198.531 1814.57 198.168 1814.06 197.912L1815.15 194.136C1815.28 194.221 1815.55 194.371 1815.98 194.584C1816.41 194.755 1816.98 194.968 1817.71 195.224C1818.43 195.437 1819.29 195.629 1820.27 195.8C1821.29 195.971 1822.47 196.056 1823.79 196.056Z" fill="black"/>
</svg>
