<svg width="902" height="318" viewBox="0 0 902 318" fill="none" xmlns="http://www.w3.org/2000/svg">
<g filter="url(#filter0_d_430_61)">
<path d="M4 25C4 11.1929 15.1929 0 29 0H873C886.807 0 898 11.1929 898 25V232.164C898 234.827 897.574 237.473 896.739 240.003L879.398 292.519C875.719 303.66 861.249 306.455 853.686 297.485L809.491 245.069C804.741 239.436 797.747 236.184 790.378 236.184H674.5H451H29C15.1929 236.184 4 224.992 4 211.184V25Z" fill="#BD4803"/>
</g>
<path d="M50.116 84L54.544 58.8H57.568L53.14 84H50.116ZM75.0831 84.432C73.2831 84.432 71.8671 83.94 70.8351 82.956C69.8271 81.948 69.3231 80.52 69.3231 78.672C69.3231 78.336 69.3351 78 69.3591 77.664C69.3831 77.304 69.4311 76.944 69.5031 76.584L71.3751 66.144H74.3991L72.5991 76.26C72.5511 76.572 72.5031 76.872 72.4551 77.16C72.4311 77.448 72.4191 77.724 72.4191 77.988C72.4191 80.556 73.6791 81.84 76.1991 81.84C77.7111 81.84 79.0671 81.312 80.2671 80.256C81.4671 79.2 82.2711 77.688 82.6791 75.72L84.3711 66.144H87.3951L84.2631 84H81.5271L81.8871 80.76C81.1191 81.912 80.1351 82.812 78.9351 83.46C77.7351 84.108 76.4511 84.432 75.0831 84.432ZM96.1518 84.432C93.9198 84.432 92.1798 83.868 90.9318 82.74C89.6838 81.588 89.1438 80.04 89.3118 78.096H92.3718C92.3238 79.104 92.6238 79.992 93.2718 80.76C93.9198 81.504 95.0238 81.876 96.5838 81.876C97.8558 81.876 98.8758 81.6 99.6438 81.048C100.412 80.472 100.796 79.68 100.796 78.672C100.796 77.88 100.436 77.304 99.7158 76.944C99.0198 76.584 98.0838 76.284 96.9078 76.044C96.0198 75.852 95.1558 75.588 94.3158 75.252C93.4758 74.892 92.7678 74.4 92.1918 73.776C91.6398 73.152 91.3638 72.36 91.3638 71.4C91.3638 70.32 91.6758 69.36 92.2998 68.52C92.9238 67.656 93.7758 66.972 94.8558 66.468C95.9598 65.964 97.2078 65.712 98.5998 65.712C100.496 65.712 102.008 66.192 103.136 67.152C104.288 68.088 104.816 69.432 104.72 71.184H101.696C101.744 70.296 101.456 69.588 100.832 69.06C100.232 68.532 99.3798 68.268 98.2758 68.268C97.1718 68.268 96.2598 68.532 95.5398 69.06C94.8438 69.564 94.4958 70.188 94.4958 70.932C94.4958 71.652 94.8318 72.192 95.5038 72.552C96.1998 72.912 97.1238 73.224 98.2758 73.488C99.2598 73.704 100.184 73.992 101.048 74.352C101.912 74.712 102.608 75.204 103.136 75.828C103.688 76.452 103.964 77.268 103.964 78.276C103.964 79.524 103.628 80.616 102.956 81.552C102.284 82.464 101.36 83.172 100.184 83.676C99.0078 84.18 97.6638 84.432 96.1518 84.432ZM114.669 84.432C112.461 84.432 110.685 83.748 109.341 82.38C108.021 81.012 107.361 79.176 107.361 76.872C107.361 74.808 107.817 72.936 108.729 71.256C109.641 69.552 110.889 68.208 112.473 67.224C114.081 66.216 115.905 65.712 117.945 65.712C119.505 65.712 120.813 66.024 121.869 66.648C122.949 67.248 123.753 68.064 124.281 69.096C124.833 70.128 125.109 71.268 125.109 72.516C125.109 72.996 125.049 73.548 124.929 74.172C124.833 74.772 124.737 75.3 124.641 75.756H110.385C110.337 76.164 110.312 76.524 110.312 76.836C110.312 78.54 110.793 79.812 111.753 80.652C112.713 81.468 113.841 81.876 115.137 81.876C116.385 81.876 117.477 81.588 118.413 81.012C119.373 80.412 120.117 79.632 120.645 78.672H123.633C122.889 80.328 121.737 81.708 120.177 82.812C118.617 83.892 116.781 84.432 114.669 84.432ZM117.549 68.268C116.109 68.268 114.753 68.712 113.481 69.6C112.209 70.464 111.333 71.736 110.853 73.416H122.085C122.109 73.272 122.121 73.14 122.121 73.02C122.145 72.876 122.157 72.744 122.157 72.624C122.157 71.256 121.737 70.188 120.897 69.42C120.057 68.652 118.941 68.268 117.549 68.268ZM148.562 84.432C146.522 84.432 144.77 83.988 143.306 83.1C141.866 82.188 140.75 80.94 139.958 79.356C139.166 77.772 138.77 75.972 138.77 73.956C138.77 71.7 139.13 69.624 139.85 67.728C140.57 65.808 141.578 64.152 142.874 62.76C144.17 61.368 145.706 60.288 147.482 59.52C149.258 58.752 151.214 58.368 153.35 58.368C156.206 58.368 158.486 59.052 160.19 60.42C161.918 61.788 162.842 63.672 162.962 66.072H159.47C159.398 64.56 158.81 63.36 157.706 62.472C156.602 61.584 155.042 61.14 153.026 61.14C150.818 61.14 148.874 61.68 147.194 62.76C145.538 63.84 144.242 65.328 143.306 67.224C142.394 69.12 141.938 71.304 141.938 73.776C141.938 76.2 142.574 78.132 143.846 79.572C145.142 81.012 146.906 81.732 149.138 81.732C151.826 81.732 153.986 80.952 155.618 79.392C157.274 77.808 158.438 75.648 159.11 72.912H151.838L152.234 70.536H162.638L160.262 84H157.49L157.958 79.86C156.782 81.324 155.474 82.452 154.034 83.244C152.594 84.036 150.77 84.432 148.562 84.432ZM173.141 84.432C171.653 84.432 170.333 84.096 169.181 83.424C168.029 82.752 167.129 81.828 166.481 80.652C165.833 79.476 165.509 78.144 165.509 76.656C165.509 75.072 165.785 73.62 166.337 72.3C166.889 70.98 167.645 69.828 168.605 68.844C169.565 67.86 170.681 67.092 171.953 66.54C173.225 65.988 174.605 65.712 176.093 65.712C177.581 65.712 178.901 66.036 180.053 66.684C181.205 67.332 182.105 68.232 182.753 69.384C183.401 70.536 183.725 71.868 183.725 73.38C183.725 74.94 183.449 76.392 182.897 77.736C182.369 79.08 181.613 80.256 180.629 81.264C179.669 82.248 178.553 83.028 177.281 83.604C176.009 84.156 174.629 84.432 173.141 84.432ZM173.537 81.84C174.881 81.84 176.081 81.48 177.137 80.76C178.217 80.04 179.069 79.056 179.693 77.808C180.317 76.56 180.629 75.156 180.629 73.596C180.629 71.916 180.137 70.62 179.153 69.708C178.193 68.772 177.041 68.304 175.697 68.304C174.377 68.304 173.189 68.664 172.133 69.384C171.077 70.104 170.237 71.088 169.613 72.336C168.989 73.584 168.677 74.988 168.677 76.548C168.677 77.676 168.893 78.636 169.325 79.428C169.781 80.196 170.381 80.796 171.125 81.228C171.869 81.636 172.673 81.84 173.537 81.84ZM194.481 84.432C192.993 84.432 191.673 84.096 190.521 83.424C189.369 82.752 188.469 81.828 187.821 80.652C187.173 79.476 186.849 78.144 186.849 76.656C186.849 75.072 187.125 73.62 187.677 72.3C188.229 70.98 188.985 69.828 189.945 68.844C190.905 67.86 192.021 67.092 193.293 66.54C194.565 65.988 195.945 65.712 197.433 65.712C198.921 65.712 200.241 66.036 201.393 66.684C202.545 67.332 203.445 68.232 204.093 69.384C204.741 70.536 205.065 71.868 205.065 73.38C205.065 74.94 204.789 76.392 204.237 77.736C203.709 79.08 202.953 80.256 201.969 81.264C201.009 82.248 199.893 83.028 198.621 83.604C197.349 84.156 195.969 84.432 194.481 84.432ZM194.877 81.84C196.221 81.84 197.421 81.48 198.477 80.76C199.557 80.04 200.409 79.056 201.033 77.808C201.657 76.56 201.969 75.156 201.969 73.596C201.969 71.916 201.477 70.62 200.493 69.708C199.533 68.772 198.381 68.304 197.037 68.304C195.717 68.304 194.529 68.664 193.473 69.384C192.417 70.104 191.577 71.088 190.953 72.336C190.329 73.584 190.017 74.988 190.017 76.548C190.017 77.676 190.233 78.636 190.665 79.428C191.121 80.196 191.721 80.796 192.465 81.228C193.209 81.636 194.013 81.84 194.877 81.84ZM214.616 78.384C213.56 78.384 212.624 78.24 211.808 77.952L210.044 79.32C210.572 79.656 211.172 79.92 211.844 80.112C212.516 80.304 213.5 80.448 214.796 80.544C216.476 80.664 217.784 80.964 218.72 81.444C219.68 81.924 220.352 82.524 220.736 83.244C221.12 83.94 221.312 84.672 221.312 85.44C221.312 86.76 220.928 87.936 220.16 88.968C219.392 90.024 218.324 90.852 216.956 91.452C215.588 92.052 214.016 92.352 212.24 92.352C210.056 92.352 208.28 91.908 206.912 91.02C205.544 90.156 204.86 88.908 204.86 87.276C204.86 86.148 205.172 85.116 205.796 84.18C206.396 83.268 207.284 82.452 208.46 81.732C207.62 81.348 206.936 80.868 206.408 80.292L206.552 79.428L209.9 76.764C208.964 75.852 208.496 74.676 208.496 73.236C208.496 71.82 208.868 70.548 209.612 69.42C210.356 68.268 211.352 67.368 212.6 66.72C213.872 66.048 215.288 65.712 216.848 65.712C217.88 65.712 218.792 65.856 219.584 66.144H226.172L225.74 68.376L222.392 68.52C222.728 69.216 222.896 69.996 222.896 70.86C222.896 72.276 222.524 73.56 221.78 74.712C221.06 75.84 220.076 76.74 218.828 77.412C217.58 78.06 216.176 78.384 214.616 78.384ZM215.048 75.9C216.512 75.9 217.7 75.468 218.612 74.604C219.548 73.716 220.016 72.576 220.016 71.184C220.016 70.248 219.692 69.516 219.044 68.988C218.396 68.46 217.52 68.196 216.416 68.196C214.952 68.196 213.752 68.64 212.816 69.528C211.904 70.392 211.448 71.52 211.448 72.912C211.448 73.872 211.76 74.616 212.384 75.144C213.032 75.648 213.92 75.9 215.048 75.9ZM207.92 86.7C207.92 87.684 208.34 88.452 209.18 89.004C210.02 89.58 211.184 89.868 212.672 89.868C214.304 89.868 215.648 89.496 216.704 88.752C217.76 88.008 218.288 87 218.288 85.728C218.288 85.056 218.024 84.468 217.496 83.964C216.968 83.436 215.924 83.112 214.364 82.992C213.068 82.92 211.916 82.764 210.908 82.524C208.916 83.628 207.92 85.02 207.92 86.7ZM226.525 84L231.133 58.08H234.157L229.549 84H226.525ZM242.497 84.432C240.289 84.432 238.513 83.748 237.169 82.38C235.849 81.012 235.189 79.176 235.189 76.872C235.189 74.808 235.645 72.936 236.557 71.256C237.469 69.552 238.717 68.208 240.301 67.224C241.909 66.216 243.733 65.712 245.773 65.712C247.333 65.712 248.641 66.024 249.697 66.648C250.777 67.248 251.581 68.064 252.109 69.096C252.661 70.128 252.937 71.268 252.937 72.516C252.937 72.996 252.877 73.548 252.757 74.172C252.661 74.772 252.565 75.3 252.469 75.756H238.213C238.165 76.164 238.141 76.524 238.141 76.836C238.141 78.54 238.621 79.812 239.581 80.652C240.541 81.468 241.669 81.876 242.965 81.876C244.213 81.876 245.305 81.588 246.241 81.012C247.201 80.412 247.945 79.632 248.473 78.672H251.461C250.717 80.328 249.565 81.708 248.005 82.812C246.445 83.892 244.609 84.432 242.497 84.432ZM245.377 68.268C243.937 68.268 242.581 68.712 241.309 69.6C240.037 70.464 239.161 71.736 238.681 73.416H249.913C249.937 73.272 249.949 73.14 249.949 73.02C249.973 72.876 249.985 72.744 249.985 72.624C249.985 71.256 249.565 70.188 248.725 69.42C247.885 68.652 246.769 68.268 245.377 68.268ZM265.518 84L269.946 58.8H273.474L279.45 76.368L291.546 58.8H295.11L290.682 84H287.658L291.114 64.2L279.882 80.4H277.614L272.034 64.236L268.542 84H265.518ZM301.614 84.432C300.27 84.432 299.178 84.216 298.338 83.784C297.498 83.328 296.874 82.74 296.466 82.02C296.058 81.276 295.854 80.484 295.854 79.644C295.854 78.324 296.226 77.184 296.97 76.224C297.714 75.264 298.746 74.532 300.066 74.028C301.41 73.5 302.97 73.236 304.746 73.236H309.534L309.57 73.02C309.642 72.612 309.678 72.204 309.678 71.796C309.678 70.644 309.342 69.768 308.67 69.168C308.022 68.568 307.11 68.268 305.934 68.268C304.782 68.268 303.714 68.568 302.73 69.168C301.746 69.744 301.062 70.596 300.678 71.724H297.546C297.93 70.428 298.554 69.336 299.418 68.448C300.306 67.56 301.35 66.888 302.55 66.432C303.75 65.952 305.01 65.712 306.33 65.712C308.466 65.712 310.062 66.216 311.118 67.224C312.198 68.232 312.738 69.6 312.738 71.328C312.738 71.592 312.726 71.868 312.702 72.156C312.678 72.444 312.642 72.732 312.594 73.02L310.686 84H307.95L308.31 80.832C307.638 81.84 306.75 82.692 305.646 83.388C304.566 84.084 303.222 84.432 301.614 84.432ZM302.514 81.876C303.666 81.876 304.698 81.576 305.61 80.976C306.546 80.376 307.314 79.596 307.914 78.636C308.514 77.676 308.91 76.668 309.102 75.612V75.576H304.566C302.862 75.576 301.518 75.912 300.534 76.584C299.574 77.232 299.094 78.132 299.094 79.284C299.094 80.1 299.382 80.736 299.958 81.192C300.558 81.648 301.41 81.876 302.514 81.876ZM313.82 91.92L318.392 66.144H321.2L320.912 69.096C321.656 68.16 322.568 67.368 323.648 66.72C324.752 66.048 326.108 65.712 327.716 65.712C329.252 65.712 330.572 66.048 331.676 66.72C332.78 67.392 333.62 68.304 334.196 69.456C334.796 70.608 335.096 71.916 335.096 73.38C335.096 75.468 334.64 77.352 333.728 79.032C332.84 80.688 331.616 82.008 330.056 82.992C328.496 83.952 326.732 84.432 324.764 84.432C323.804 84.432 322.916 84.264 322.1 83.928C321.308 83.592 320.624 83.16 320.048 82.632C319.496 82.104 319.088 81.552 318.824 80.976L316.844 91.92H313.82ZM324.944 81.804C326.312 81.804 327.524 81.456 328.58 80.76C329.636 80.064 330.464 79.116 331.064 77.916C331.664 76.716 331.964 75.348 331.964 73.812C331.964 72.228 331.508 70.92 330.596 69.888C329.708 68.856 328.496 68.34 326.96 68.34C325.592 68.34 324.368 68.7 323.288 69.42C322.208 70.14 321.356 71.124 320.732 72.372C320.108 73.596 319.796 74.964 319.796 76.476C319.796 78.084 320.264 79.38 321.2 80.364C322.136 81.324 323.384 81.804 324.944 81.804ZM344.46 84.432C342.228 84.432 340.488 83.868 339.24 82.74C337.992 81.588 337.452 80.04 337.62 78.096H340.68C340.632 79.104 340.932 79.992 341.58 80.76C342.228 81.504 343.332 81.876 344.892 81.876C346.164 81.876 347.184 81.6 347.952 81.048C348.72 80.472 349.104 79.68 349.104 78.672C349.104 77.88 348.744 77.304 348.024 76.944C347.328 76.584 346.392 76.284 345.216 76.044C344.328 75.852 343.464 75.588 342.624 75.252C341.784 74.892 341.076 74.4 340.5 73.776C339.948 73.152 339.672 72.36 339.672 71.4C339.672 70.32 339.984 69.36 340.608 68.52C341.232 67.656 342.084 66.972 343.164 66.468C344.268 65.964 345.516 65.712 346.908 65.712C348.804 65.712 350.316 66.192 351.444 67.152C352.596 68.088 353.124 69.432 353.028 71.184H350.004C350.052 70.296 349.764 69.588 349.14 69.06C348.54 68.532 347.688 68.268 346.584 68.268C345.48 68.268 344.568 68.532 343.848 69.06C343.152 69.564 342.804 70.188 342.804 70.932C342.804 71.652 343.14 72.192 343.812 72.552C344.508 72.912 345.432 73.224 346.584 73.488C347.568 73.704 348.492 73.992 349.356 74.352C350.22 74.712 350.916 75.204 351.444 75.828C351.996 76.452 352.272 77.268 352.272 78.276C352.272 79.524 351.936 80.616 351.264 81.552C350.592 82.464 349.668 83.172 348.492 83.676C347.316 84.18 345.972 84.432 344.46 84.432ZM369.833 84L367.709 66.144H370.769L372.065 80.148L378.725 66.144H382.145L383.837 80.148L390.101 66.144H393.125L384.773 84H381.677L379.877 69.276L372.893 84H369.833ZM393.202 84L397.738 58.08H400.762L398.818 69.204C399.586 68.124 400.558 67.272 401.734 66.648C402.934 66.024 404.194 65.712 405.514 65.712C407.602 65.712 409.162 66.36 410.194 67.656C411.25 68.928 411.538 70.896 411.058 73.56L409.222 84H406.198L407.962 73.884C408.61 70.164 407.41 68.304 404.362 68.304C402.826 68.304 401.446 68.868 400.222 69.996C398.998 71.1 398.206 72.684 397.846 74.748L396.226 84H393.202ZM421.758 84.432C419.55 84.432 417.774 83.748 416.43 82.38C415.11 81.012 414.45 79.176 414.45 76.872C414.45 74.808 414.906 72.936 415.818 71.256C416.73 69.552 417.978 68.208 419.562 67.224C421.17 66.216 422.994 65.712 425.034 65.712C426.594 65.712 427.902 66.024 428.958 66.648C430.038 67.248 430.842 68.064 431.37 69.096C431.922 70.128 432.198 71.268 432.198 72.516C432.198 72.996 432.138 73.548 432.018 74.172C431.922 74.772 431.826 75.3 431.73 75.756H417.474C417.426 76.164 417.402 76.524 417.402 76.836C417.402 78.54 417.882 79.812 418.842 80.652C419.802 81.468 420.93 81.876 422.226 81.876C423.474 81.876 424.566 81.588 425.502 81.012C426.462 80.412 427.206 79.632 427.734 78.672H430.722C429.978 80.328 428.826 81.708 427.266 82.812C425.706 83.892 423.87 84.432 421.758 84.432ZM424.638 68.268C423.198 68.268 421.842 68.712 420.57 69.6C419.298 70.464 418.422 71.736 417.942 73.416H429.174C429.198 73.272 429.21 73.14 429.21 73.02C429.234 72.876 429.246 72.744 429.246 72.624C429.246 71.256 428.826 70.188 427.986 69.42C427.146 68.652 426.03 68.268 424.638 68.268ZM434.299 84L437.431 66.144H440.167L439.807 69.384C440.575 68.232 441.559 67.332 442.759 66.684C443.959 66.036 445.243 65.712 446.611 65.712C448.387 65.712 449.791 66.216 450.823 67.224C451.855 68.208 452.371 69.624 452.371 71.472C452.371 71.808 452.347 72.156 452.299 72.516C452.275 72.852 452.227 73.2 452.155 73.56L450.319 84H447.295L449.059 73.884C449.107 73.572 449.143 73.272 449.167 72.984C449.215 72.696 449.239 72.42 449.239 72.156C449.239 69.588 447.979 68.304 445.459 68.304C443.947 68.304 442.591 68.832 441.391 69.888C440.215 70.944 439.423 72.456 439.015 74.424L437.323 84H434.299ZM465.417 84L469.845 58.8H472.869L468.441 84H465.417ZM491.788 78.384C490.732 78.384 489.796 78.24 488.98 77.952L487.216 79.32C487.744 79.656 488.344 79.92 489.016 80.112C489.688 80.304 490.672 80.448 491.968 80.544C493.648 80.664 494.956 80.964 495.892 81.444C496.852 81.924 497.524 82.524 497.908 83.244C498.292 83.94 498.484 84.672 498.484 85.44C498.484 86.76 498.1 87.936 497.332 88.968C496.564 90.024 495.496 90.852 494.128 91.452C492.76 92.052 491.188 92.352 489.412 92.352C487.228 92.352 485.452 91.908 484.084 91.02C482.716 90.156 482.032 88.908 482.032 87.276C482.032 86.148 482.344 85.116 482.968 84.18C483.568 83.268 484.456 82.452 485.632 81.732C484.792 81.348 484.108 80.868 483.58 80.292L483.724 79.428L487.072 76.764C486.136 75.852 485.668 74.676 485.668 73.236C485.668 71.82 486.04 70.548 486.784 69.42C487.528 68.268 488.524 67.368 489.772 66.72C491.044 66.048 492.46 65.712 494.02 65.712C495.052 65.712 495.964 65.856 496.756 66.144H503.344L502.912 68.376L499.564 68.52C499.9 69.216 500.068 69.996 500.068 70.86C500.068 72.276 499.696 73.56 498.952 74.712C498.232 75.84 497.248 76.74 496 77.412C494.752 78.06 493.348 78.384 491.788 78.384ZM492.22 75.9C493.684 75.9 494.872 75.468 495.784 74.604C496.72 73.716 497.188 72.576 497.188 71.184C497.188 70.248 496.864 69.516 496.216 68.988C495.568 68.46 494.692 68.196 493.588 68.196C492.124 68.196 490.924 68.64 489.988 69.528C489.076 70.392 488.62 71.52 488.62 72.912C488.62 73.872 488.932 74.616 489.556 75.144C490.204 75.648 491.092 75.9 492.22 75.9ZM485.092 86.7C485.092 87.684 485.512 88.452 486.352 89.004C487.192 89.58 488.356 89.868 489.844 89.868C491.476 89.868 492.82 89.496 493.876 88.752C494.932 88.008 495.46 87 495.46 85.728C495.46 85.056 495.196 84.468 494.668 83.964C494.14 83.436 493.096 83.112 491.536 82.992C490.24 82.92 489.088 82.764 488.08 82.524C486.088 83.628 485.092 85.02 485.092 86.7ZM510.985 84.432C508.777 84.432 507.001 83.748 505.657 82.38C504.337 81.012 503.677 79.176 503.677 76.872C503.677 74.808 504.133 72.936 505.045 71.256C505.957 69.552 507.205 68.208 508.789 67.224C510.397 66.216 512.221 65.712 514.261 65.712C515.821 65.712 517.129 66.024 518.185 66.648C519.265 67.248 520.069 68.064 520.597 69.096C521.149 70.128 521.425 71.268 521.425 72.516C521.425 72.996 521.365 73.548 521.245 74.172C521.149 74.772 521.053 75.3 520.957 75.756H506.701C506.653 76.164 506.629 76.524 506.629 76.836C506.629 78.54 507.109 79.812 508.069 80.652C509.029 81.468 510.157 81.876 511.453 81.876C512.701 81.876 513.793 81.588 514.729 81.012C515.689 80.412 516.433 79.632 516.961 78.672H519.949C519.205 80.328 518.053 81.708 516.493 82.812C514.933 83.892 513.097 84.432 510.985 84.432ZM513.865 68.268C512.425 68.268 511.069 68.712 509.797 69.6C508.525 70.464 507.649 71.736 507.169 73.416H518.401C518.425 73.272 518.437 73.14 518.437 73.02C518.461 72.876 518.473 72.744 518.473 72.624C518.473 71.256 518.053 70.188 517.213 69.42C516.373 68.652 515.257 68.268 513.865 68.268ZM529.97 84C528.482 84 527.33 83.712 526.514 83.136C525.698 82.536 525.29 81.528 525.29 80.112C525.29 79.872 525.302 79.62 525.326 79.356C525.35 79.068 525.386 78.768 525.434 78.456L527.162 68.7H524.39L524.858 66.144H527.63L528.782 61.86H531.446L530.654 66.144H535.946L535.478 68.7H530.222L528.458 78.456C528.41 78.84 528.386 79.176 528.386 79.464C528.386 80.208 528.578 80.724 528.962 81.012C529.37 81.276 530.018 81.408 530.906 81.408H533.246L532.778 84H529.97ZM547.115 84L551.723 58.08H554.747L550.139 84H547.115ZM563.41 84.432C561.922 84.432 560.602 84.096 559.45 83.424C558.298 82.752 557.398 81.828 556.75 80.652C556.102 79.476 555.778 78.144 555.778 76.656C555.778 75.072 556.054 73.62 556.606 72.3C557.158 70.98 557.914 69.828 558.874 68.844C559.834 67.86 560.95 67.092 562.222 66.54C563.494 65.988 564.874 65.712 566.362 65.712C567.85 65.712 569.17 66.036 570.322 66.684C571.474 67.332 572.374 68.232 573.022 69.384C573.67 70.536 573.994 71.868 573.994 73.38C573.994 74.94 573.718 76.392 573.166 77.736C572.638 79.08 571.882 80.256 570.898 81.264C569.938 82.248 568.822 83.028 567.55 83.604C566.278 84.156 564.898 84.432 563.41 84.432ZM563.806 81.84C565.15 81.84 566.35 81.48 567.406 80.76C568.486 80.04 569.338 79.056 569.962 77.808C570.586 76.56 570.898 75.156 570.898 73.596C570.898 71.916 570.406 70.62 569.422 69.708C568.462 68.772 567.31 68.304 565.966 68.304C564.646 68.304 563.458 68.664 562.402 69.384C561.346 70.104 560.506 71.088 559.882 72.336C559.258 73.584 558.946 74.988 558.946 76.548C558.946 77.676 559.162 78.636 559.594 79.428C560.05 80.196 560.65 80.796 561.394 81.228C562.138 81.636 562.942 81.84 563.806 81.84ZM583.382 84.432C581.15 84.432 579.41 83.868 578.162 82.74C576.914 81.588 576.374 80.04 576.542 78.096H579.602C579.554 79.104 579.854 79.992 580.502 80.76C581.15 81.504 582.254 81.876 583.814 81.876C585.086 81.876 586.106 81.6 586.874 81.048C587.642 80.472 588.026 79.68 588.026 78.672C588.026 77.88 587.666 77.304 586.946 76.944C586.25 76.584 585.314 76.284 584.138 76.044C583.25 75.852 582.386 75.588 581.546 75.252C580.706 74.892 579.998 74.4 579.422 73.776C578.87 73.152 578.594 72.36 578.594 71.4C578.594 70.32 578.906 69.36 579.53 68.52C580.154 67.656 581.006 66.972 582.086 66.468C583.19 65.964 584.438 65.712 585.83 65.712C587.726 65.712 589.238 66.192 590.366 67.152C591.518 68.088 592.046 69.432 591.95 71.184H588.926C588.974 70.296 588.686 69.588 588.062 69.06C587.462 68.532 586.61 68.268 585.506 68.268C584.402 68.268 583.49 68.532 582.77 69.06C582.074 69.564 581.726 70.188 581.726 70.932C581.726 71.652 582.062 72.192 582.734 72.552C583.43 72.912 584.354 73.224 585.506 73.488C586.49 73.704 587.414 73.992 588.278 74.352C589.142 74.712 589.838 75.204 590.366 75.828C590.918 76.452 591.194 77.268 591.194 78.276C591.194 79.524 590.858 80.616 590.186 81.552C589.514 82.464 588.59 83.172 587.414 83.676C586.238 84.18 584.894 84.432 583.382 84.432ZM600.739 84C599.251 84 598.099 83.712 597.283 83.136C596.467 82.536 596.059 81.528 596.059 80.112C596.059 79.872 596.071 79.62 596.095 79.356C596.119 79.068 596.155 78.768 596.203 78.456L597.931 68.7H595.159L595.627 66.144H598.399L599.551 61.86H602.215L601.423 66.144H606.715L606.247 68.7H600.991L599.227 78.456C599.179 78.84 599.155 79.176 599.155 79.464C599.155 80.208 599.347 80.724 599.731 81.012C600.139 81.276 600.787 81.408 601.675 81.408H604.015L603.547 84H600.739ZM606.243 88.284L609.735 80.328H612.867L608.331 88.284H606.243ZM631.942 84.432C630.598 84.432 629.506 84.216 628.666 83.784C627.826 83.328 627.202 82.74 626.794 82.02C626.386 81.276 626.182 80.484 626.182 79.644C626.182 78.324 626.554 77.184 627.298 76.224C628.042 75.264 629.074 74.532 630.394 74.028C631.738 73.5 633.298 73.236 635.074 73.236H639.862L639.898 73.02C639.97 72.612 640.006 72.204 640.006 71.796C640.006 70.644 639.67 69.768 638.998 69.168C638.35 68.568 637.438 68.268 636.262 68.268C635.11 68.268 634.042 68.568 633.058 69.168C632.074 69.744 631.39 70.596 631.006 71.724H627.874C628.258 70.428 628.882 69.336 629.746 68.448C630.634 67.56 631.678 66.888 632.878 66.432C634.078 65.952 635.338 65.712 636.658 65.712C638.794 65.712 640.39 66.216 641.446 67.224C642.526 68.232 643.066 69.6 643.066 71.328C643.066 71.592 643.054 71.868 643.03 72.156C643.006 72.444 642.97 72.732 642.922 73.02L641.014 84H638.278L638.638 80.832C637.966 81.84 637.078 82.692 635.974 83.388C634.894 84.084 633.55 84.432 631.942 84.432ZM632.842 81.876C633.994 81.876 635.026 81.576 635.938 80.976C636.874 80.376 637.642 79.596 638.242 78.636C638.842 77.676 639.238 76.668 639.43 75.612V75.576H634.894C633.19 75.576 631.846 75.912 630.862 76.584C629.902 77.232 629.422 78.132 629.422 79.284C629.422 80.1 629.71 80.736 630.286 81.192C630.886 81.648 631.738 81.876 632.842 81.876ZM645.552 84L650.16 58.08H653.184L648.576 84H645.552ZM660.048 84C658.56 84 657.408 83.712 656.592 83.136C655.776 82.536 655.368 81.528 655.368 80.112C655.368 79.872 655.38 79.62 655.404 79.356C655.428 79.068 655.464 78.768 655.512 78.456L657.24 68.7H654.468L654.936 66.144H657.708L658.86 61.86H661.524L660.732 66.144H666.024L665.556 68.7H660.3L658.536 78.456C658.488 78.84 658.464 79.176 658.464 79.464C658.464 80.208 658.656 80.724 659.04 81.012C659.448 81.276 660.096 81.408 660.984 81.408H663.324L662.856 84H660.048ZM666.928 84L671.464 58.08H674.488L672.544 69.204C673.312 68.124 674.284 67.272 675.46 66.648C676.66 66.024 677.92 65.712 679.24 65.712C681.328 65.712 682.888 66.36 683.92 67.656C684.976 68.928 685.264 70.896 684.784 73.56L682.948 84H679.924L681.688 73.884C682.336 70.164 681.136 68.304 678.088 68.304C676.552 68.304 675.172 68.868 673.948 69.996C672.724 71.1 671.932 72.684 671.572 74.748L669.952 84H666.928ZM695.809 84.432C694.321 84.432 693.001 84.096 691.849 83.424C690.697 82.752 689.797 81.828 689.149 80.652C688.501 79.476 688.177 78.144 688.177 76.656C688.177 75.072 688.453 73.62 689.005 72.3C689.557 70.98 690.313 69.828 691.273 68.844C692.233 67.86 693.349 67.092 694.621 66.54C695.893 65.988 697.273 65.712 698.761 65.712C700.249 65.712 701.569 66.036 702.721 66.684C703.873 67.332 704.773 68.232 705.421 69.384C706.069 70.536 706.393 71.868 706.393 73.38C706.393 74.94 706.117 76.392 705.565 77.736C705.037 79.08 704.281 80.256 703.297 81.264C702.337 82.248 701.221 83.028 699.949 83.604C698.677 84.156 697.297 84.432 695.809 84.432ZM696.205 81.84C697.549 81.84 698.749 81.48 699.805 80.76C700.885 80.04 701.737 79.056 702.361 77.808C702.985 76.56 703.297 75.156 703.297 73.596C703.297 71.916 702.805 70.62 701.821 69.708C700.861 68.772 699.709 68.304 698.365 68.304C697.045 68.304 695.857 68.664 694.801 69.384C693.745 70.104 692.905 71.088 692.281 72.336C691.657 73.584 691.345 74.988 691.345 76.548C691.345 77.676 691.561 78.636 691.993 79.428C692.449 80.196 693.049 80.796 693.793 81.228C694.537 81.636 695.341 81.84 696.205 81.84ZM715.349 84.432C713.549 84.432 712.133 83.94 711.101 82.956C710.093 81.948 709.589 80.52 709.589 78.672C709.589 78.336 709.601 78 709.625 77.664C709.649 77.304 709.697 76.944 709.769 76.584L711.641 66.144H714.665L712.865 76.26C712.817 76.572 712.769 76.872 712.721 77.16C712.697 77.448 712.685 77.724 712.685 77.988C712.685 80.556 713.945 81.84 716.465 81.84C717.977 81.84 719.333 81.312 720.533 80.256C721.733 79.2 722.537 77.688 722.945 75.72L724.637 66.144H727.661L724.529 84H721.793L722.153 80.76C721.385 81.912 720.401 82.812 719.201 83.46C718.001 84.108 716.717 84.432 715.349 84.432ZM737.389 78.384C736.333 78.384 735.397 78.24 734.581 77.952L732.817 79.32C733.345 79.656 733.945 79.92 734.617 80.112C735.289 80.304 736.273 80.448 737.569 80.544C739.249 80.664 740.557 80.964 741.493 81.444C742.453 81.924 743.125 82.524 743.509 83.244C743.893 83.94 744.085 84.672 744.085 85.44C744.085 86.76 743.701 87.936 742.933 88.968C742.165 90.024 741.097 90.852 739.729 91.452C738.361 92.052 736.789 92.352 735.013 92.352C732.829 92.352 731.053 91.908 729.685 91.02C728.317 90.156 727.633 88.908 727.633 87.276C727.633 86.148 727.945 85.116 728.569 84.18C729.169 83.268 730.057 82.452 731.233 81.732C730.393 81.348 729.709 80.868 729.181 80.292L729.325 79.428L732.673 76.764C731.737 75.852 731.269 74.676 731.269 73.236C731.269 71.82 731.641 70.548 732.385 69.42C733.129 68.268 734.125 67.368 735.373 66.72C736.645 66.048 738.061 65.712 739.621 65.712C740.653 65.712 741.565 65.856 742.357 66.144H748.945L748.513 68.376L745.165 68.52C745.501 69.216 745.669 69.996 745.669 70.86C745.669 72.276 745.297 73.56 744.553 74.712C743.833 75.84 742.849 76.74 741.601 77.412C740.353 78.06 738.949 78.384 737.389 78.384ZM737.821 75.9C739.285 75.9 740.473 75.468 741.385 74.604C742.321 73.716 742.789 72.576 742.789 71.184C742.789 70.248 742.465 69.516 741.817 68.988C741.169 68.46 740.293 68.196 739.189 68.196C737.725 68.196 736.525 68.64 735.589 69.528C734.677 70.392 734.221 71.52 734.221 72.912C734.221 73.872 734.533 74.616 735.157 75.144C735.805 75.648 736.693 75.9 737.821 75.9ZM730.693 86.7C730.693 87.684 731.113 88.452 731.953 89.004C732.793 89.58 733.957 89.868 735.445 89.868C737.077 89.868 738.421 89.496 739.477 88.752C740.533 88.008 741.061 87 741.061 85.728C741.061 85.056 740.797 84.468 740.269 83.964C739.741 83.436 738.697 83.112 737.137 82.992C735.841 82.92 734.689 82.764 733.681 82.524C731.689 83.628 730.693 85.02 730.693 86.7ZM749.334 84L753.87 58.08H756.894L754.95 69.204C755.718 68.124 756.69 67.272 757.866 66.648C759.066 66.024 760.326 65.712 761.646 65.712C763.734 65.712 765.294 66.36 766.326 67.656C767.382 68.928 767.67 70.896 767.19 73.56L765.354 84H762.33L764.094 73.884C764.742 70.164 763.542 68.304 760.494 68.304C758.958 68.304 757.578 68.868 756.354 69.996C755.13 71.1 754.338 72.684 753.978 74.748L752.358 84H749.334ZM780.452 84L784.88 58.8H787.904L783.476 84H780.452ZM791.482 63.912L792.31 56.82H795.19L793.57 63.912H791.482ZM799.519 84L795.631 66.144H798.763L801.823 81.12L810.103 66.144H813.307L803.083 84H799.519ZM820.501 84.432C818.293 84.432 816.517 83.748 815.173 82.38C813.853 81.012 813.193 79.176 813.193 76.872C813.193 74.808 813.649 72.936 814.561 71.256C815.473 69.552 816.721 68.208 818.305 67.224C819.913 66.216 821.737 65.712 823.777 65.712C825.337 65.712 826.645 66.024 827.701 66.648C828.781 67.248 829.585 68.064 830.113 69.096C830.665 70.128 830.941 71.268 830.941 72.516C830.941 72.996 830.881 73.548 830.761 74.172C830.665 74.772 830.569 75.3 830.473 75.756H816.217C816.169 76.164 816.145 76.524 816.145 76.836C816.145 78.54 816.625 79.812 817.585 80.652C818.545 81.468 819.673 81.876 820.969 81.876C822.217 81.876 823.309 81.588 824.245 81.012C825.205 80.412 825.949 79.632 826.477 78.672H829.465C828.721 80.328 827.569 81.708 826.009 82.812C824.449 83.892 822.613 84.432 820.501 84.432ZM823.381 68.268C821.941 68.268 820.585 68.712 819.313 69.6C818.041 70.464 817.165 71.736 816.685 73.416H827.917C827.941 73.272 827.953 73.14 827.953 73.02C827.977 72.876 827.989 72.744 827.989 72.624C827.989 71.256 827.569 70.188 826.729 69.42C825.889 68.652 824.773 68.268 823.381 68.268ZM59.44 131.432C58.456 131.432 57.556 131.264 56.74 130.928C55.948 130.592 55.264 130.16 54.688 129.632C54.136 129.104 53.728 128.552 53.464 127.976L52.636 131H49.9L54.472 105.08H57.496L55.588 115.916C56.308 115.076 57.208 114.332 58.288 113.684C59.392 113.036 60.76 112.712 62.392 112.712C63.928 112.712 65.236 113.048 66.316 113.72C67.42 114.392 68.26 115.304 68.836 116.456C69.436 117.608 69.736 118.916 69.736 120.38C69.736 122.468 69.28 124.352 68.368 126.032C67.48 127.688 66.256 129.008 64.696 129.992C63.136 130.952 61.384 131.432 59.44 131.432ZM59.584 128.804C60.952 128.804 62.164 128.456 63.22 127.76C64.276 127.064 65.104 126.116 65.704 124.916C66.304 123.716 66.604 122.348 66.604 120.812C66.604 119.228 66.148 117.92 65.236 116.888C64.348 115.856 63.136 115.34 61.6 115.34C60.232 115.34 59.008 115.7 57.928 116.42C56.848 117.14 55.996 118.124 55.372 119.372C54.772 120.596 54.472 121.964 54.472 123.476C54.472 125.084 54.928 126.38 55.84 127.364C56.776 128.324 58.024 128.804 59.584 128.804ZM80.1451 131.432C77.9371 131.432 76.1611 130.748 74.8171 129.38C73.4971 128.012 72.8371 126.176 72.8371 123.872C72.8371 121.808 73.2931 119.936 74.2051 118.256C75.1171 116.552 76.3651 115.208 77.9491 114.224C79.5571 113.216 81.3811 112.712 83.4211 112.712C84.9811 112.712 86.2891 113.024 87.3451 113.648C88.4251 114.248 89.2291 115.064 89.7571 116.096C90.3091 117.128 90.5851 118.268 90.5851 119.516C90.5851 119.996 90.5251 120.548 90.4051 121.172C90.3091 121.772 90.2131 122.3 90.1171 122.756H75.8611C75.8131 123.164 75.7891 123.524 75.7891 123.836C75.7891 125.54 76.2691 126.812 77.2291 127.652C78.1891 128.468 79.3171 128.876 80.6131 128.876C81.8611 128.876 82.9531 128.588 83.8891 128.012C84.8491 127.412 85.5931 126.632 86.1211 125.672H89.1091C88.3651 127.328 87.2131 128.708 85.6531 129.812C84.0931 130.892 82.2571 131.432 80.1451 131.432ZM83.0251 115.268C81.5851 115.268 80.2291 115.712 78.9571 116.6C77.6851 117.464 76.8091 118.736 76.3291 120.416H87.5611C87.5851 120.272 87.5971 120.14 87.5971 120.02C87.6211 119.876 87.6331 119.744 87.6331 119.624C87.6331 118.256 87.2131 117.188 86.3731 116.42C85.5331 115.652 84.4171 115.268 83.0251 115.268ZM100.606 131.432C98.398 131.432 96.622 130.748 95.278 129.38C93.958 128.012 93.298 126.176 93.298 123.872C93.298 121.808 93.754 119.936 94.666 118.256C95.578 116.552 96.826 115.208 98.41 114.224C100.018 113.216 101.842 112.712 103.882 112.712C105.442 112.712 106.75 113.024 107.806 113.648C108.886 114.248 109.69 115.064 110.218 116.096C110.77 117.128 111.046 118.268 111.046 119.516C111.046 119.996 110.986 120.548 110.866 121.172C110.77 121.772 110.674 122.3 110.578 122.756H96.322C96.274 123.164 96.25 123.524 96.25 123.836C96.25 125.54 96.73 126.812 97.69 127.652C98.65 128.468 99.778 128.876 101.074 128.876C102.322 128.876 103.414 128.588 104.35 128.012C105.31 127.412 106.054 126.632 106.582 125.672H109.57C108.826 127.328 107.674 128.708 106.114 129.812C104.554 130.892 102.718 131.432 100.606 131.432ZM103.486 115.268C102.046 115.268 100.69 115.712 99.418 116.6C98.146 117.464 97.27 118.736 96.79 120.416H108.022C108.046 120.272 108.058 120.14 108.058 120.02C108.082 119.876 108.094 119.744 108.094 119.624C108.094 118.256 107.674 117.188 106.834 116.42C105.994 115.652 104.878 115.268 103.486 115.268ZM113.147 131L116.279 113.144H119.015L118.655 116.384C119.423 115.232 120.407 114.332 121.607 113.684C122.807 113.036 124.091 112.712 125.459 112.712C127.235 112.712 128.639 113.216 129.671 114.224C130.703 115.208 131.219 116.624 131.219 118.472C131.219 118.808 131.195 119.156 131.147 119.516C131.123 119.852 131.075 120.2 131.003 120.56L129.167 131H126.143L127.907 120.884C127.955 120.572 127.991 120.272 128.015 119.984C128.063 119.696 128.087 119.42 128.087 119.156C128.087 116.588 126.827 115.304 124.307 115.304C122.795 115.304 121.439 115.832 120.239 116.888C119.063 117.944 118.271 119.456 117.863 121.424L116.171 131H113.147ZM150.528 131C149.04 131 147.888 130.712 147.072 130.136C146.256 129.536 145.848 128.528 145.848 127.112C145.848 126.872 145.86 126.62 145.884 126.356C145.908 126.068 145.944 125.768 145.992 125.456L147.72 115.7H144.948L145.416 113.144H148.188L149.34 108.86H152.004L151.212 113.144H156.504L156.036 115.7H150.78L149.016 125.456C148.968 125.84 148.944 126.176 148.944 126.464C148.944 127.208 149.136 127.724 149.52 128.012C149.928 128.276 150.576 128.408 151.464 128.408H153.804L153.336 131H150.528ZM164.985 131.432C163.497 131.432 162.177 131.096 161.025 130.424C159.873 129.752 158.973 128.828 158.325 127.652C157.677 126.476 157.353 125.144 157.353 123.656C157.353 122.072 157.629 120.62 158.181 119.3C158.733 117.98 159.489 116.828 160.449 115.844C161.409 114.86 162.525 114.092 163.797 113.54C165.069 112.988 166.449 112.712 167.937 112.712C169.425 112.712 170.745 113.036 171.897 113.684C173.049 114.332 173.949 115.232 174.597 116.384C175.245 117.536 175.569 118.868 175.569 120.38C175.569 121.94 175.293 123.392 174.741 124.736C174.213 126.08 173.457 127.256 172.473 128.264C171.513 129.248 170.397 130.028 169.125 130.604C167.853 131.156 166.473 131.432 164.985 131.432ZM165.381 128.84C166.725 128.84 167.925 128.48 168.981 127.76C170.061 127.04 170.913 126.056 171.537 124.808C172.161 123.56 172.473 122.156 172.473 120.596C172.473 118.916 171.981 117.62 170.997 116.708C170.037 115.772 168.885 115.304 167.541 115.304C166.221 115.304 165.033 115.664 163.977 116.384C162.921 117.104 162.081 118.088 161.457 119.336C160.833 120.584 160.521 121.988 160.521 123.548C160.521 124.676 160.737 125.636 161.169 126.428C161.625 127.196 162.225 127.796 162.969 128.228C163.713 128.636 164.517 128.84 165.381 128.84ZM195.257 131.432C193.025 131.432 191.285 130.868 190.037 129.74C188.789 128.588 188.249 127.04 188.417 125.096H191.477C191.429 126.104 191.729 126.992 192.377 127.76C193.025 128.504 194.129 128.876 195.689 128.876C196.961 128.876 197.981 128.6 198.749 128.048C199.517 127.472 199.901 126.68 199.901 125.672C199.901 124.88 199.541 124.304 198.821 123.944C198.125 123.584 197.189 123.284 196.013 123.044C195.125 122.852 194.261 122.588 193.421 122.252C192.581 121.892 191.873 121.4 191.297 120.776C190.745 120.152 190.469 119.36 190.469 118.4C190.469 117.32 190.781 116.36 191.405 115.52C192.029 114.656 192.881 113.972 193.961 113.468C195.065 112.964 196.313 112.712 197.705 112.712C199.601 112.712 201.113 113.192 202.241 114.152C203.393 115.088 203.921 116.432 203.825 118.184H200.801C200.849 117.296 200.561 116.588 199.937 116.06C199.337 115.532 198.485 115.268 197.381 115.268C196.277 115.268 195.365 115.532 194.645 116.06C193.949 116.564 193.601 117.188 193.601 117.932C193.601 118.652 193.937 119.192 194.609 119.552C195.305 119.912 196.229 120.224 197.381 120.488C198.365 120.704 199.289 120.992 200.153 121.352C201.017 121.712 201.713 122.204 202.241 122.828C202.793 123.452 203.069 124.268 203.069 125.276C203.069 126.524 202.733 127.616 202.061 128.552C201.389 129.464 200.465 130.172 199.289 130.676C198.113 131.18 196.769 131.432 195.257 131.432ZM214.098 131.432C212.61 131.432 211.29 131.096 210.138 130.424C208.986 129.752 208.086 128.828 207.438 127.652C206.79 126.476 206.466 125.144 206.466 123.656C206.466 122.072 206.742 120.62 207.294 119.3C207.846 117.98 208.602 116.828 209.562 115.844C210.522 114.86 211.638 114.092 212.91 113.54C214.182 112.988 215.562 112.712 217.05 112.712C218.538 112.712 219.858 113.036 221.01 113.684C222.162 114.332 223.062 115.232 223.71 116.384C224.358 117.536 224.682 118.868 224.682 120.38C224.682 121.94 224.406 123.392 223.854 124.736C223.326 126.08 222.57 127.256 221.586 128.264C220.626 129.248 219.51 130.028 218.238 130.604C216.966 131.156 215.586 131.432 214.098 131.432ZM214.494 128.84C215.838 128.84 217.038 128.48 218.094 127.76C219.174 127.04 220.026 126.056 220.65 124.808C221.274 123.56 221.586 122.156 221.586 120.596C221.586 118.916 221.094 117.62 220.11 116.708C219.15 115.772 217.998 115.304 216.654 115.304C215.334 115.304 214.146 115.664 213.09 116.384C212.034 117.104 211.194 118.088 210.57 119.336C209.946 120.584 209.634 121.988 209.634 123.548C209.634 124.676 209.85 125.636 210.282 126.428C210.738 127.196 211.338 127.796 212.082 128.228C212.826 128.636 213.63 128.84 214.494 128.84ZM227.194 131L230.326 113.144H233.026L232.774 116.06C233.47 115.028 234.334 114.212 235.366 113.612C236.398 113.012 237.514 112.712 238.714 112.712C240.034 112.712 241.174 113.012 242.134 113.612C243.094 114.212 243.754 115.124 244.114 116.348C244.882 115.22 245.854 114.332 247.03 113.684C248.23 113.036 249.454 112.712 250.702 112.712C252.022 112.712 253.15 113 254.086 113.576C255.046 114.128 255.73 114.992 256.138 116.168C256.57 117.32 256.618 118.784 256.282 120.56L254.446 131H251.422L253.186 120.884C253.522 119.036 253.39 117.644 252.79 116.708C252.214 115.772 251.278 115.304 249.982 115.304C248.71 115.304 247.522 115.808 246.418 116.816C245.314 117.8 244.534 119.228 244.078 121.1L242.314 131H239.326L241.09 120.884C241.402 119.036 241.258 117.644 240.658 116.708C240.082 115.772 239.146 115.304 237.85 115.304C236.53 115.304 235.282 115.868 234.106 116.996C232.954 118.1 232.198 119.684 231.838 121.748L230.218 131H227.194ZM266.965 131.432C264.757 131.432 262.981 130.748 261.637 129.38C260.317 128.012 259.657 126.176 259.657 123.872C259.657 121.808 260.113 119.936 261.025 118.256C261.937 116.552 263.185 115.208 264.769 114.224C266.377 113.216 268.201 112.712 270.241 112.712C271.801 112.712 273.109 113.024 274.165 113.648C275.245 114.248 276.049 115.064 276.577 116.096C277.129 117.128 277.405 118.268 277.405 119.516C277.405 119.996 277.345 120.548 277.225 121.172C277.129 121.772 277.033 122.3 276.937 122.756H262.681C262.633 123.164 262.609 123.524 262.609 123.836C262.609 125.54 263.089 126.812 264.049 127.652C265.009 128.468 266.137 128.876 267.433 128.876C268.681 128.876 269.773 128.588 270.709 128.012C271.669 127.412 272.413 126.632 272.941 125.672H275.929C275.185 127.328 274.033 128.708 272.473 129.812C270.913 130.892 269.077 131.432 266.965 131.432ZM269.845 115.268C268.405 115.268 267.049 115.712 265.777 116.6C264.505 117.464 263.629 118.736 263.149 120.416H274.381C274.405 120.272 274.417 120.14 274.417 120.02C274.441 119.876 274.453 119.744 274.453 119.624C274.453 118.256 274.033 117.188 273.193 116.42C272.353 115.652 271.237 115.268 269.845 115.268ZM288.367 138.92L292.939 113.144H295.747L295.459 116.096C296.203 115.16 297.115 114.368 298.195 113.72C299.299 113.048 300.655 112.712 302.263 112.712C303.799 112.712 305.119 113.048 306.223 113.72C307.327 114.392 308.167 115.304 308.743 116.456C309.343 117.608 309.643 118.916 309.643 120.38C309.643 122.468 309.187 124.352 308.275 126.032C307.387 127.688 306.163 129.008 304.603 129.992C303.043 130.952 301.279 131.432 299.311 131.432C298.351 131.432 297.463 131.264 296.647 130.928C295.855 130.592 295.171 130.16 294.595 129.632C294.043 129.104 293.635 128.552 293.371 127.976L291.391 138.92H288.367ZM299.491 128.804C300.859 128.804 302.071 128.456 303.127 127.76C304.183 127.064 305.011 126.116 305.611 124.916C306.211 123.716 306.511 122.348 306.511 120.812C306.511 119.228 306.055 117.92 305.143 116.888C304.255 115.856 303.043 115.34 301.507 115.34C300.139 115.34 298.915 115.7 297.835 116.42C296.755 117.14 295.903 118.124 295.279 119.372C294.655 120.596 294.343 121.964 294.343 123.476C294.343 125.084 294.811 126.38 295.747 127.364C296.683 128.324 297.931 128.804 299.491 128.804ZM312.095 131L316.703 105.08H319.727L315.119 131H312.095ZM325.907 131.432C324.563 131.432 323.471 131.216 322.631 130.784C321.791 130.328 321.167 129.74 320.759 129.02C320.351 128.276 320.147 127.484 320.147 126.644C320.147 125.324 320.519 124.184 321.263 123.224C322.007 122.264 323.039 121.532 324.359 121.028C325.703 120.5 327.263 120.236 329.039 120.236H333.827L333.863 120.02C333.935 119.612 333.971 119.204 333.971 118.796C333.971 117.644 333.635 116.768 332.963 116.168C332.315 115.568 331.403 115.268 330.227 115.268C329.075 115.268 328.007 115.568 327.023 116.168C326.039 116.744 325.355 117.596 324.971 118.724H321.839C322.223 117.428 322.847 116.336 323.711 115.448C324.599 114.56 325.643 113.888 326.843 113.432C328.043 112.952 329.303 112.712 330.623 112.712C332.759 112.712 334.355 113.216 335.411 114.224C336.491 115.232 337.031 116.6 337.031 118.328C337.031 118.592 337.019 118.868 336.995 119.156C336.971 119.444 336.935 119.732 336.887 120.02L334.979 131H332.243L332.603 127.832C331.931 128.84 331.043 129.692 329.939 130.388C328.859 131.084 327.515 131.432 325.907 131.432ZM326.807 128.876C327.959 128.876 328.991 128.576 329.903 127.976C330.839 127.376 331.607 126.596 332.207 125.636C332.807 124.676 333.203 123.668 333.395 122.612V122.576H328.859C327.155 122.576 325.811 122.912 324.827 123.584C323.867 124.232 323.387 125.132 323.387 126.284C323.387 127.1 323.675 127.736 324.251 128.192C324.851 128.648 325.703 128.876 326.807 128.876ZM347.617 131.432C346.153 131.432 344.857 131.12 343.729 130.496C342.601 129.848 341.725 128.96 341.101 127.832C340.477 126.68 340.165 125.348 340.165 123.836C340.165 122.252 340.441 120.788 340.993 119.444C341.545 118.076 342.313 116.888 343.297 115.88C344.281 114.872 345.421 114.092 346.717 113.54C348.013 112.988 349.405 112.712 350.893 112.712C353.053 112.712 354.769 113.276 356.041 114.404C357.313 115.532 357.961 117.056 357.985 118.976H354.889C354.889 117.752 354.457 116.84 353.593 116.24C352.729 115.616 351.685 115.304 350.461 115.304C349.141 115.304 347.941 115.664 346.861 116.384C345.781 117.08 344.917 118.052 344.269 119.3C343.621 120.524 343.297 121.928 343.297 123.512C343.297 125.216 343.765 126.536 344.701 127.472C345.637 128.408 346.765 128.876 348.085 128.876C349.309 128.876 350.449 128.564 351.505 127.94C352.585 127.316 353.353 126.392 353.809 125.168H356.905C356.449 126.392 355.765 127.484 354.853 128.444C353.941 129.38 352.861 130.112 351.613 130.64C350.389 131.168 349.057 131.432 347.617 131.432ZM367.969 131.432C365.761 131.432 363.985 130.748 362.641 129.38C361.321 128.012 360.661 126.176 360.661 123.872C360.661 121.808 361.117 119.936 362.029 118.256C362.941 116.552 364.189 115.208 365.773 114.224C367.381 113.216 369.205 112.712 371.245 112.712C372.805 112.712 374.113 113.024 375.169 113.648C376.249 114.248 377.053 115.064 377.581 116.096C378.133 117.128 378.409 118.268 378.409 119.516C378.409 119.996 378.349 120.548 378.229 121.172C378.133 121.772 378.037 122.3 377.941 122.756H363.685C363.637 123.164 363.613 123.524 363.613 123.836C363.613 125.54 364.093 126.812 365.053 127.652C366.013 128.468 367.141 128.876 368.437 128.876C369.685 128.876 370.777 128.588 371.713 128.012C372.673 127.412 373.417 126.632 373.945 125.672H376.933C376.189 127.328 375.037 128.708 373.477 129.812C371.917 130.892 370.081 131.432 367.969 131.432ZM370.849 115.268C369.409 115.268 368.053 115.712 366.781 116.6C365.509 117.464 364.633 118.736 364.153 120.416H375.385C375.409 120.272 375.421 120.14 375.421 120.02C375.445 119.876 375.457 119.744 375.457 119.624C375.457 118.256 375.037 117.188 374.197 116.42C373.357 115.652 372.241 115.268 370.849 115.268ZM387.386 131.432C385.154 131.432 383.414 130.868 382.166 129.74C380.918 128.588 380.378 127.04 380.546 125.096H383.606C383.558 126.104 383.858 126.992 384.506 127.76C385.154 128.504 386.258 128.876 387.818 128.876C389.09 128.876 390.11 128.6 390.878 128.048C391.646 127.472 392.03 126.68 392.03 125.672C392.03 124.88 391.67 124.304 390.95 123.944C390.254 123.584 389.318 123.284 388.142 123.044C387.254 122.852 386.39 122.588 385.55 122.252C384.71 121.892 384.002 121.4 383.426 120.776C382.874 120.152 382.598 119.36 382.598 118.4C382.598 117.32 382.91 116.36 383.534 115.52C384.158 114.656 385.01 113.972 386.09 113.468C387.194 112.964 388.442 112.712 389.834 112.712C391.73 112.712 393.242 113.192 394.37 114.152C395.522 115.088 396.05 116.432 395.954 118.184H392.93C392.978 117.296 392.69 116.588 392.066 116.06C391.466 115.532 390.614 115.268 389.51 115.268C388.406 115.268 387.494 115.532 386.774 116.06C386.078 116.564 385.73 117.188 385.73 117.932C385.73 118.652 386.066 119.192 386.738 119.552C387.434 119.912 388.358 120.224 389.51 120.488C390.494 120.704 391.418 120.992 392.282 121.352C393.146 121.712 393.842 122.204 394.37 122.828C394.922 123.452 395.198 124.268 395.198 125.276C395.198 126.524 394.862 127.616 394.19 128.552C393.518 129.464 392.594 130.172 391.418 130.676C390.242 131.18 388.898 131.432 387.386 131.432ZM412.759 131L410.635 113.144H413.695L414.991 127.148L421.651 113.144H425.071L426.763 127.148L433.027 113.144H436.051L427.699 131H424.603L422.803 116.276L415.819 131H412.759ZM442.175 109.184C441.575 109.184 441.071 108.992 440.663 108.608C440.279 108.224 440.087 107.732 440.087 107.132C440.087 106.532 440.279 106.04 440.663 105.656C441.071 105.272 441.575 105.08 442.175 105.08C442.751 105.08 443.243 105.272 443.651 105.656C444.059 106.04 444.263 106.532 444.263 107.132C444.263 107.732 444.059 108.224 443.651 108.608C443.243 108.992 442.751 109.184 442.175 109.184ZM436.451 131L439.583 113.144H442.607L439.475 131H436.451ZM451.255 131C449.767 131 448.615 130.712 447.799 130.136C446.983 129.536 446.575 128.528 446.575 127.112C446.575 126.872 446.587 126.62 446.611 126.356C446.635 126.068 446.671 125.768 446.719 125.456L448.447 115.7H445.675L446.143 113.144H448.915L450.067 108.86H452.731L451.939 113.144H457.231L456.763 115.7H451.507L449.743 125.456C449.695 125.84 449.671 126.176 449.671 126.464C449.671 127.208 449.863 127.724 450.247 128.012C450.655 128.276 451.303 128.408 452.191 128.408H454.531L454.063 131H451.255ZM458.135 131L462.671 105.08H465.695L463.751 116.204C464.519 115.124 465.491 114.272 466.667 113.648C467.867 113.024 469.127 112.712 470.447 112.712C472.535 112.712 474.095 113.36 475.127 114.656C476.183 115.928 476.471 117.896 475.991 120.56L474.155 131H471.131L472.895 120.884C473.543 117.164 472.343 115.304 469.295 115.304C467.759 115.304 466.379 115.868 465.155 116.996C463.931 118.1 463.139 119.684 462.779 121.748L461.159 131H458.135ZM494.293 131L490.405 113.144H493.537L496.597 128.12L504.877 113.144H508.081L497.857 131H494.293ZM515.274 131.432C513.066 131.432 511.29 130.748 509.946 129.38C508.626 128.012 507.966 126.176 507.966 123.872C507.966 121.808 508.422 119.936 509.334 118.256C510.246 116.552 511.494 115.208 513.078 114.224C514.686 113.216 516.51 112.712 518.55 112.712C520.11 112.712 521.418 113.024 522.474 113.648C523.554 114.248 524.358 115.064 524.886 116.096C525.438 117.128 525.714 118.268 525.714 119.516C525.714 119.996 525.654 120.548 525.534 121.172C525.438 121.772 525.342 122.3 525.246 122.756H510.99C510.942 123.164 510.918 123.524 510.918 123.836C510.918 125.54 511.398 126.812 512.358 127.652C513.318 128.468 514.446 128.876 515.742 128.876C516.99 128.876 518.082 128.588 519.018 128.012C519.978 127.412 520.722 126.632 521.25 125.672H524.238C523.494 127.328 522.342 128.708 520.782 129.812C519.222 130.892 517.386 131.432 515.274 131.432ZM518.154 115.268C516.714 115.268 515.358 115.712 514.086 116.6C512.814 117.464 511.938 118.736 511.458 120.416H522.69C522.714 120.272 522.726 120.14 522.726 120.02C522.75 119.876 522.762 119.744 522.762 119.624C522.762 118.256 522.342 117.188 521.502 116.42C520.662 115.652 519.546 115.268 518.154 115.268ZM527.815 131L530.947 113.144H533.719L533.395 116.312C534.163 115.208 535.171 114.332 536.419 113.684C537.691 113.036 539.131 112.712 540.739 112.712L540.199 115.88H539.371C538.291 115.88 537.271 116.048 536.311 116.384C535.375 116.72 534.571 117.296 533.899 118.112C533.227 118.904 532.771 119.996 532.531 121.388L530.839 131H527.815ZM541.644 138.92L547.728 129.272H546.72L542.436 113.144H545.64L549.204 127.04L557.88 113.144H561.048L544.812 138.92H541.644ZM578.25 131.432C576.018 131.432 574.278 130.868 573.03 129.74C571.782 128.588 571.242 127.04 571.41 125.096H574.47C574.422 126.104 574.722 126.992 575.37 127.76C576.018 128.504 577.122 128.876 578.682 128.876C579.954 128.876 580.974 128.6 581.742 128.048C582.51 127.472 582.894 126.68 582.894 125.672C582.894 124.88 582.534 124.304 581.814 123.944C581.118 123.584 580.182 123.284 579.006 123.044C578.118 122.852 577.254 122.588 576.414 122.252C575.574 121.892 574.866 121.4 574.29 120.776C573.738 120.152 573.462 119.36 573.462 118.4C573.462 117.32 573.774 116.36 574.398 115.52C575.022 114.656 575.874 113.972 576.954 113.468C578.058 112.964 579.306 112.712 580.698 112.712C582.594 112.712 584.106 113.192 585.234 114.152C586.386 115.088 586.914 116.432 586.818 118.184H583.794C583.842 117.296 583.554 116.588 582.93 116.06C582.33 115.532 581.478 115.268 580.374 115.268C579.27 115.268 578.358 115.532 577.638 116.06C576.942 116.564 576.594 117.188 576.594 117.932C576.594 118.652 576.93 119.192 577.602 119.552C578.298 119.912 579.222 120.224 580.374 120.488C581.358 120.704 582.282 120.992 583.146 121.352C584.01 121.712 584.706 122.204 585.234 122.828C585.786 123.452 586.062 124.268 586.062 125.276C586.062 126.524 585.726 127.616 585.054 128.552C584.382 129.464 583.458 130.172 582.282 130.676C581.106 131.18 579.762 131.432 578.25 131.432ZM589.866 131L592.998 113.144H595.698L595.446 116.06C596.142 115.028 597.006 114.212 598.038 113.612C599.07 113.012 600.186 112.712 601.386 112.712C602.706 112.712 603.846 113.012 604.806 113.612C605.766 114.212 606.426 115.124 606.786 116.348C607.554 115.22 608.526 114.332 609.702 113.684C610.902 113.036 612.126 112.712 613.374 112.712C614.694 112.712 615.822 113 616.758 113.576C617.718 114.128 618.402 114.992 618.81 116.168C619.242 117.32 619.29 118.784 618.954 120.56L617.118 131H614.094L615.858 120.884C616.194 119.036 616.062 117.644 615.462 116.708C614.886 115.772 613.95 115.304 612.654 115.304C611.382 115.304 610.194 115.808 609.09 116.816C607.986 117.8 607.206 119.228 606.75 121.1L604.986 131H601.998L603.762 120.884C604.074 119.036 603.93 117.644 603.33 116.708C602.754 115.772 601.818 115.304 600.522 115.304C599.202 115.304 597.954 115.868 596.778 116.996C595.626 118.1 594.87 119.684 594.51 121.748L592.89 131H589.866ZM627.477 131.432C626.133 131.432 625.041 131.216 624.201 130.784C623.361 130.328 622.737 129.74 622.329 129.02C621.921 128.276 621.717 127.484 621.717 126.644C621.717 125.324 622.089 124.184 622.833 123.224C623.577 122.264 624.609 121.532 625.929 121.028C627.273 120.5 628.833 120.236 630.609 120.236H635.397L635.433 120.02C635.505 119.612 635.541 119.204 635.541 118.796C635.541 117.644 635.205 116.768 634.533 116.168C633.885 115.568 632.973 115.268 631.797 115.268C630.645 115.268 629.577 115.568 628.593 116.168C627.609 116.744 626.925 117.596 626.541 118.724H623.409C623.793 117.428 624.417 116.336 625.281 115.448C626.169 114.56 627.213 113.888 628.413 113.432C629.613 112.952 630.873 112.712 632.193 112.712C634.329 112.712 635.925 113.216 636.981 114.224C638.061 115.232 638.601 116.6 638.601 118.328C638.601 118.592 638.589 118.868 638.565 119.156C638.541 119.444 638.505 119.732 638.457 120.02L636.549 131H633.813L634.173 127.832C633.501 128.84 632.613 129.692 631.509 130.388C630.429 131.084 629.085 131.432 627.477 131.432ZM628.377 128.876C629.529 128.876 630.561 128.576 631.473 127.976C632.409 127.376 633.177 126.596 633.777 125.636C634.377 124.676 634.773 123.668 634.965 122.612V122.576H630.429C628.725 122.576 627.381 122.912 626.397 123.584C625.437 124.232 624.957 125.132 624.957 126.284C624.957 127.1 625.245 127.736 625.821 128.192C626.421 128.648 627.273 128.876 628.377 128.876ZM641.088 131L645.696 105.08H648.72L644.112 131H641.088ZM649.103 131L653.711 105.08H656.735L652.127 131H649.103ZM674.332 131.432C672.1 131.432 670.36 130.868 669.112 129.74C667.864 128.588 667.324 127.04 667.492 125.096H670.552C670.504 126.104 670.804 126.992 671.452 127.76C672.1 128.504 673.204 128.876 674.764 128.876C676.036 128.876 677.056 128.6 677.824 128.048C678.592 127.472 678.976 126.68 678.976 125.672C678.976 124.88 678.616 124.304 677.896 123.944C677.2 123.584 676.264 123.284 675.088 123.044C674.2 122.852 673.336 122.588 672.496 122.252C671.656 121.892 670.948 121.4 670.372 120.776C669.82 120.152 669.544 119.36 669.544 118.4C669.544 117.32 669.856 116.36 670.48 115.52C671.104 114.656 671.956 113.972 673.036 113.468C674.14 112.964 675.388 112.712 676.78 112.712C678.676 112.712 680.188 113.192 681.316 114.152C682.468 115.088 682.996 116.432 682.9 118.184H679.876C679.924 117.296 679.636 116.588 679.012 116.06C678.412 115.532 677.56 115.268 676.456 115.268C675.352 115.268 674.44 115.532 673.72 116.06C673.024 116.564 672.676 117.188 672.676 117.932C672.676 118.652 673.012 119.192 673.684 119.552C674.38 119.912 675.304 120.224 676.456 120.488C677.44 120.704 678.364 120.992 679.228 121.352C680.092 121.712 680.788 122.204 681.316 122.828C681.868 123.452 682.144 124.268 682.144 125.276C682.144 126.524 681.808 127.616 681.136 128.552C680.464 129.464 679.54 130.172 678.364 130.676C677.188 131.18 675.844 131.432 674.332 131.432ZM691.689 131C690.201 131 689.049 130.712 688.233 130.136C687.417 129.536 687.009 128.528 687.009 127.112C687.009 126.872 687.021 126.62 687.045 126.356C687.069 126.068 687.105 125.768 687.153 125.456L688.881 115.7H686.109L686.577 113.144H689.349L690.501 108.86H693.165L692.373 113.144H697.665L697.197 115.7H691.941L690.177 125.456C690.129 125.84 690.105 126.176 690.105 126.464C690.105 127.208 690.297 127.724 690.681 128.012C691.089 128.276 691.737 128.408 692.625 128.408H694.965L694.497 131H691.689ZM698.569 131L701.701 113.144H704.473L704.149 116.312C704.917 115.208 705.925 114.332 707.173 113.684C708.445 113.036 709.885 112.712 711.493 112.712L710.953 115.88H710.125C709.045 115.88 708.025 116.048 707.065 116.384C706.129 116.72 705.325 117.296 704.653 118.112C703.981 118.904 703.525 119.996 703.285 121.388L701.593 131H698.569ZM719.11 131.432C716.902 131.432 715.126 130.748 713.782 129.38C712.462 128.012 711.802 126.176 711.802 123.872C711.802 121.808 712.258 119.936 713.17 118.256C714.082 116.552 715.33 115.208 716.914 114.224C718.522 113.216 720.346 112.712 722.386 112.712C723.946 112.712 725.254 113.024 726.31 113.648C727.39 114.248 728.194 115.064 728.722 116.096C729.274 117.128 729.55 118.268 729.55 119.516C729.55 119.996 729.49 120.548 729.37 121.172C729.274 121.772 729.178 122.3 729.082 122.756H714.826C714.778 123.164 714.754 123.524 714.754 123.836C714.754 125.54 715.234 126.812 716.194 127.652C717.154 128.468 718.282 128.876 719.578 128.876C720.826 128.876 721.918 128.588 722.854 128.012C723.814 127.412 724.558 126.632 725.086 125.672H728.074C727.33 127.328 726.178 128.708 724.618 129.812C723.058 130.892 721.222 131.432 719.11 131.432ZM721.99 115.268C720.55 115.268 719.194 115.712 717.922 116.6C716.65 117.464 715.774 118.736 715.294 120.416H726.526C726.55 120.272 726.562 120.14 726.562 120.02C726.586 119.876 726.598 119.744 726.598 119.624C726.598 118.256 726.178 117.188 725.338 116.42C724.498 115.652 723.382 115.268 721.99 115.268ZM739.571 131.432C737.363 131.432 735.587 130.748 734.243 129.38C732.923 128.012 732.263 126.176 732.263 123.872C732.263 121.808 732.719 119.936 733.631 118.256C734.543 116.552 735.791 115.208 737.375 114.224C738.983 113.216 740.807 112.712 742.847 112.712C744.407 112.712 745.715 113.024 746.771 113.648C747.851 114.248 748.655 115.064 749.183 116.096C749.735 117.128 750.011 118.268 750.011 119.516C750.011 119.996 749.951 120.548 749.831 121.172C749.735 121.772 749.639 122.3 749.543 122.756H735.287C735.239 123.164 735.215 123.524 735.215 123.836C735.215 125.54 735.695 126.812 736.655 127.652C737.615 128.468 738.743 128.876 740.039 128.876C741.287 128.876 742.379 128.588 743.315 128.012C744.275 127.412 745.019 126.632 745.547 125.672H748.535C747.791 127.328 746.639 128.708 745.079 129.812C743.519 130.892 741.683 131.432 739.571 131.432ZM742.451 115.268C741.011 115.268 739.655 115.712 738.383 116.6C737.111 117.464 736.235 118.736 735.755 120.416H746.987C747.011 120.272 747.023 120.14 747.023 120.02C747.047 119.876 747.059 119.744 747.059 119.624C747.059 118.256 746.639 117.188 745.799 116.42C744.959 115.652 743.843 115.268 742.451 115.268ZM758.556 131C757.068 131 755.916 130.712 755.1 130.136C754.284 129.536 753.876 128.528 753.876 127.112C753.876 126.872 753.888 126.62 753.912 126.356C753.936 126.068 753.972 125.768 754.02 125.456L755.748 115.7H752.976L753.444 113.144H756.216L757.368 108.86H760.032L759.24 113.144H764.532L764.064 115.7H758.808L757.044 125.456C756.996 125.84 756.972 126.176 756.972 126.464C756.972 127.208 757.164 127.724 757.548 128.012C757.956 128.276 758.604 128.408 759.492 128.408H761.832L761.364 131H758.556ZM772.312 131.432C770.08 131.432 768.34 130.868 767.092 129.74C765.844 128.588 765.304 127.04 765.472 125.096H768.532C768.484 126.104 768.784 126.992 769.432 127.76C770.08 128.504 771.184 128.876 772.744 128.876C774.016 128.876 775.036 128.6 775.804 128.048C776.572 127.472 776.956 126.68 776.956 125.672C776.956 124.88 776.596 124.304 775.876 123.944C775.18 123.584 774.244 123.284 773.068 123.044C772.18 122.852 771.316 122.588 770.476 122.252C769.636 121.892 768.928 121.4 768.352 120.776C767.8 120.152 767.524 119.36 767.524 118.4C767.524 117.32 767.836 116.36 768.46 115.52C769.084 114.656 769.936 113.972 771.016 113.468C772.12 112.964 773.368 112.712 774.76 112.712C776.656 112.712 778.168 113.192 779.296 114.152C780.448 115.088 780.976 116.432 780.88 118.184H777.856C777.904 117.296 777.616 116.588 776.992 116.06C776.392 115.532 775.54 115.268 774.436 115.268C773.332 115.268 772.42 115.532 771.7 116.06C771.004 116.564 770.656 117.188 770.656 117.932C770.656 118.652 770.992 119.192 771.664 119.552C772.36 119.912 773.284 120.224 774.436 120.488C775.42 120.704 776.344 120.992 777.208 121.352C778.072 121.712 778.768 122.204 779.296 122.828C779.848 123.452 780.124 124.268 780.124 125.276C780.124 126.524 779.788 127.616 779.116 128.552C778.444 129.464 777.52 130.172 776.344 130.676C775.168 131.18 773.824 131.432 772.312 131.432ZM799.989 131.432C798.645 131.432 797.553 131.216 796.713 130.784C795.873 130.328 795.249 129.74 794.841 129.02C794.433 128.276 794.229 127.484 794.229 126.644C794.229 125.324 794.601 124.184 795.345 123.224C796.089 122.264 797.121 121.532 798.441 121.028C799.785 120.5 801.345 120.236 803.121 120.236H807.909L807.945 120.02C808.017 119.612 808.053 119.204 808.053 118.796C808.053 117.644 807.717 116.768 807.045 116.168C806.397 115.568 805.485 115.268 804.309 115.268C803.157 115.268 802.089 115.568 801.105 116.168C800.121 116.744 799.437 117.596 799.053 118.724H795.921C796.305 117.428 796.929 116.336 797.793 115.448C798.681 114.56 799.725 113.888 800.925 113.432C802.125 112.952 803.385 112.712 804.705 112.712C806.841 112.712 808.437 113.216 809.493 114.224C810.573 115.232 811.113 116.6 811.113 118.328C811.113 118.592 811.101 118.868 811.077 119.156C811.053 119.444 811.017 119.732 810.969 120.02L809.061 131H806.325L806.685 127.832C806.013 128.84 805.125 129.692 804.021 130.388C802.941 131.084 801.597 131.432 799.989 131.432ZM800.889 128.876C802.041 128.876 803.073 128.576 803.985 127.976C804.921 127.376 805.689 126.596 806.289 125.636C806.889 124.676 807.285 123.668 807.477 122.612V122.576H802.941C801.237 122.576 799.893 122.912 798.909 123.584C797.949 124.232 797.469 125.132 797.469 126.284C797.469 127.1 797.757 127.736 798.333 128.192C798.933 128.648 799.785 128.876 800.889 128.876ZM813.635 131L816.767 113.144H819.503L819.143 116.384C819.911 115.232 820.895 114.332 822.095 113.684C823.295 113.036 824.579 112.712 825.947 112.712C827.723 112.712 829.127 113.216 830.159 114.224C831.191 115.208 831.707 116.624 831.707 118.472C831.707 118.808 831.683 119.156 831.635 119.516C831.611 119.852 831.563 120.2 831.491 120.56L829.655 131H826.631L828.395 120.884C828.443 120.572 828.479 120.272 828.503 119.984C828.551 119.696 828.575 119.42 828.575 119.156C828.575 116.588 827.315 115.304 824.795 115.304C823.283 115.304 821.927 115.832 820.727 116.888C819.551 117.944 818.759 119.456 818.351 121.424L816.659 131H813.635ZM842.228 131.432C840.692 131.432 839.372 131.084 838.268 130.388C837.188 129.668 836.36 128.708 835.784 127.508C835.208 126.308 834.92 124.988 834.92 123.548C834.92 121.436 835.364 119.576 836.252 117.968C837.164 116.336 838.388 115.052 839.924 114.116C841.46 113.18 843.176 112.712 845.072 112.712C846.656 112.712 847.952 113.024 848.96 113.648C849.968 114.272 850.712 115.1 851.192 116.132L853.136 105.08H856.16L851.588 131H848.816L849.068 128.048C848.372 128.912 847.472 129.692 846.368 130.388C845.264 131.084 843.884 131.432 842.228 131.432ZM843.092 128.804C844.46 128.804 845.672 128.432 846.728 127.688C847.808 126.944 848.648 125.948 849.248 124.7C849.872 123.428 850.184 122.036 850.184 120.524C850.184 118.964 849.74 117.716 848.852 116.78C847.964 115.82 846.74 115.34 845.18 115.34C843.812 115.34 842.588 115.688 841.508 116.384C840.428 117.08 839.576 118.028 838.952 119.228C838.352 120.404 838.052 121.748 838.052 123.26C838.052 124.844 838.496 126.164 839.384 127.22C840.296 128.276 841.532 128.804 843.092 128.804ZM60.988 178.432C58.948 178.432 57.196 177.988 55.732 177.1C54.292 176.188 53.176 174.94 52.384 173.356C51.592 171.772 51.196 169.972 51.196 167.956C51.196 165.7 51.556 163.624 52.276 161.728C52.996 159.808 54.004 158.152 55.3 156.76C56.596 155.368 58.132 154.288 59.908 153.52C61.684 152.752 63.64 152.368 65.776 152.368C68.632 152.368 70.912 153.052 72.616 154.42C74.344 155.788 75.268 157.672 75.388 160.072H71.896C71.824 158.56 71.236 157.36 70.132 156.472C69.028 155.584 67.468 155.14 65.452 155.14C63.244 155.14 61.3 155.68 59.62 156.76C57.964 157.84 56.668 159.328 55.732 161.224C54.82 163.12 54.364 165.304 54.364 167.776C54.364 170.2 55 172.132 56.272 173.572C57.568 175.012 59.332 175.732 61.564 175.732C64.252 175.732 66.412 174.952 68.044 173.392C69.7 171.808 70.864 169.648 71.536 166.912H64.264L64.66 164.536H75.064L72.688 178H69.916L70.384 173.86C69.208 175.324 67.9 176.452 66.46 177.244C65.02 178.036 63.196 178.432 60.988 178.432ZM85.5667 178.432C84.0787 178.432 82.7587 178.096 81.6067 177.424C80.4547 176.752 79.5547 175.828 78.9067 174.652C78.2587 173.476 77.9347 172.144 77.9347 170.656C77.9347 169.072 78.2107 167.62 78.7627 166.3C79.3147 164.98 80.0707 163.828 81.0307 162.844C81.9907 161.86 83.1067 161.092 84.3787 160.54C85.6507 159.988 87.0307 159.712 88.5187 159.712C90.0067 159.712 91.3267 160.036 92.4787 160.684C93.6307 161.332 94.5307 162.232 95.1787 163.384C95.8267 164.536 96.1507 165.868 96.1507 167.38C96.1507 168.94 95.8747 170.392 95.3227 171.736C94.7947 173.08 94.0387 174.256 93.0547 175.264C92.0947 176.248 90.9787 177.028 89.7067 177.604C88.4347 178.156 87.0547 178.432 85.5667 178.432ZM85.9627 175.84C87.3067 175.84 88.5067 175.48 89.5627 174.76C90.6427 174.04 91.4947 173.056 92.1187 171.808C92.7427 170.56 93.0547 169.156 93.0547 167.596C93.0547 165.916 92.5627 164.62 91.5787 163.708C90.6187 162.772 89.4667 162.304 88.1227 162.304C86.8027 162.304 85.6147 162.664 84.5587 163.384C83.5027 164.104 82.6627 165.088 82.0387 166.336C81.4147 167.584 81.1027 168.988 81.1027 170.548C81.1027 171.676 81.3187 172.636 81.7507 173.428C82.2067 174.196 82.8067 174.796 83.5507 175.228C84.2947 175.636 85.0987 175.84 85.9627 175.84ZM106.907 178.432C105.419 178.432 104.099 178.096 102.947 177.424C101.795 176.752 100.895 175.828 100.247 174.652C99.5986 173.476 99.2746 172.144 99.2746 170.656C99.2746 169.072 99.5506 167.62 100.103 166.3C100.655 164.98 101.411 163.828 102.371 162.844C103.331 161.86 104.447 161.092 105.719 160.54C106.991 159.988 108.371 159.712 109.859 159.712C111.347 159.712 112.667 160.036 113.819 160.684C114.971 161.332 115.871 162.232 116.519 163.384C117.167 164.536 117.491 165.868 117.491 167.38C117.491 168.94 117.215 170.392 116.663 171.736C116.135 173.08 115.379 174.256 114.395 175.264C113.435 176.248 112.319 177.028 111.047 177.604C109.775 178.156 108.395 178.432 106.907 178.432ZM107.303 175.84C108.647 175.84 109.847 175.48 110.903 174.76C111.983 174.04 112.835 173.056 113.459 171.808C114.083 170.56 114.395 169.156 114.395 167.596C114.395 165.916 113.903 164.62 112.919 163.708C111.959 162.772 110.807 162.304 109.463 162.304C108.143 162.304 106.955 162.664 105.899 163.384C104.843 164.104 104.003 165.088 103.379 166.336C102.755 167.584 102.443 168.988 102.443 170.548C102.443 171.676 102.659 172.636 103.091 173.428C103.547 174.196 104.147 174.796 104.891 175.228C105.635 175.636 106.439 175.84 107.303 175.84ZM127.042 172.384C125.986 172.384 125.05 172.24 124.234 171.952L122.47 173.32C122.998 173.656 123.598 173.92 124.27 174.112C124.942 174.304 125.926 174.448 127.222 174.544C128.902 174.664 130.21 174.964 131.146 175.444C132.106 175.924 132.778 176.524 133.162 177.244C133.546 177.94 133.738 178.672 133.738 179.44C133.738 180.76 133.354 181.936 132.586 182.968C131.818 184.024 130.75 184.852 129.382 185.452C128.014 186.052 126.442 186.352 124.666 186.352C122.482 186.352 120.706 185.908 119.338 185.02C117.97 184.156 117.286 182.908 117.286 181.276C117.286 180.148 117.598 179.116 118.222 178.18C118.822 177.268 119.71 176.452 120.886 175.732C120.046 175.348 119.362 174.868 118.834 174.292L118.978 173.428L122.326 170.764C121.39 169.852 120.922 168.676 120.922 167.236C120.922 165.82 121.294 164.548 122.038 163.42C122.782 162.268 123.778 161.368 125.026 160.72C126.298 160.048 127.714 159.712 129.274 159.712C130.306 159.712 131.218 159.856 132.01 160.144H138.598L138.166 162.376L134.818 162.52C135.154 163.216 135.322 163.996 135.322 164.86C135.322 166.276 134.95 167.56 134.206 168.712C133.486 169.84 132.502 170.74 131.254 171.412C130.006 172.06 128.602 172.384 127.042 172.384ZM127.474 169.9C128.938 169.9 130.126 169.468 131.038 168.604C131.974 167.716 132.442 166.576 132.442 165.184C132.442 164.248 132.118 163.516 131.47 162.988C130.822 162.46 129.946 162.196 128.842 162.196C127.378 162.196 126.178 162.64 125.242 163.528C124.33 164.392 123.874 165.52 123.874 166.912C123.874 167.872 124.186 168.616 124.81 169.144C125.458 169.648 126.346 169.9 127.474 169.9ZM120.346 180.7C120.346 181.684 120.766 182.452 121.606 183.004C122.446 183.58 123.61 183.868 125.098 183.868C126.73 183.868 128.074 183.496 129.13 182.752C130.186 182.008 130.714 181 130.714 179.728C130.714 179.056 130.45 178.468 129.922 177.964C129.394 177.436 128.35 177.112 126.79 176.992C125.494 176.92 124.342 176.764 123.334 176.524C121.342 177.628 120.346 179.02 120.346 180.7ZM138.951 178L143.559 152.08H146.583L141.975 178H138.951ZM154.922 178.432C152.714 178.432 150.938 177.748 149.594 176.38C148.274 175.012 147.614 173.176 147.614 170.872C147.614 168.808 148.07 166.936 148.982 165.256C149.894 163.552 151.142 162.208 152.726 161.224C154.334 160.216 156.158 159.712 158.198 159.712C159.758 159.712 161.066 160.024 162.122 160.648C163.202 161.248 164.006 162.064 164.534 163.096C165.086 164.128 165.362 165.268 165.362 166.516C165.362 166.996 165.302 167.548 165.182 168.172C165.086 168.772 164.99 169.3 164.894 169.756H150.638C150.59 170.164 150.566 170.524 150.566 170.836C150.566 172.54 151.046 173.812 152.006 174.652C152.966 175.468 154.094 175.876 155.39 175.876C156.638 175.876 157.73 175.588 158.666 175.012C159.626 174.412 160.37 173.632 160.898 172.672H163.886C163.142 174.328 161.99 175.708 160.43 176.812C158.87 177.892 157.034 178.432 154.922 178.432ZM157.802 162.268C156.362 162.268 155.006 162.712 153.734 163.6C152.462 164.464 151.586 165.736 151.106 167.416H162.338C162.362 167.272 162.374 167.14 162.374 167.02C162.398 166.876 162.41 166.744 162.41 166.624C162.41 165.256 161.99 164.188 161.15 163.42C160.31 162.652 159.194 162.268 157.802 162.268ZM177.944 178L182.372 152.8H185.9L191.876 170.368L203.972 152.8H207.536L203.108 178H200.084L203.54 158.2L192.308 174.4H190.04L184.46 158.236L180.968 178H177.944ZM214.04 178.432C212.696 178.432 211.604 178.216 210.764 177.784C209.924 177.328 209.3 176.74 208.892 176.02C208.484 175.276 208.28 174.484 208.28 173.644C208.28 172.324 208.652 171.184 209.396 170.224C210.14 169.264 211.172 168.532 212.492 168.028C213.836 167.5 215.396 167.236 217.172 167.236H221.96L221.996 167.02C222.068 166.612 222.104 166.204 222.104 165.796C222.104 164.644 221.768 163.768 221.096 163.168C220.448 162.568 219.536 162.268 218.36 162.268C217.208 162.268 216.14 162.568 215.156 163.168C214.172 163.744 213.488 164.596 213.104 165.724H209.972C210.356 164.428 210.98 163.336 211.844 162.448C212.732 161.56 213.776 160.888 214.976 160.432C216.176 159.952 217.436 159.712 218.756 159.712C220.892 159.712 222.488 160.216 223.544 161.224C224.624 162.232 225.164 163.6 225.164 165.328C225.164 165.592 225.152 165.868 225.128 166.156C225.104 166.444 225.068 166.732 225.02 167.02L223.112 178H220.376L220.736 174.832C220.064 175.84 219.176 176.692 218.072 177.388C216.992 178.084 215.648 178.432 214.04 178.432ZM214.94 175.876C216.092 175.876 217.124 175.576 218.036 174.976C218.972 174.376 219.74 173.596 220.34 172.636C220.94 171.676 221.336 170.668 221.528 169.612V169.576H216.992C215.288 169.576 213.944 169.912 212.96 170.584C212 171.232 211.52 172.132 211.52 173.284C211.52 174.1 211.808 174.736 212.384 175.192C212.984 175.648 213.836 175.876 214.94 175.876ZM226.246 185.92L230.818 160.144H233.626L233.338 163.096C234.082 162.16 234.994 161.368 236.074 160.72C237.178 160.048 238.534 159.712 240.142 159.712C241.678 159.712 242.998 160.048 244.102 160.72C245.206 161.392 246.046 162.304 246.622 163.456C247.222 164.608 247.522 165.916 247.522 167.38C247.522 169.468 247.066 171.352 246.154 173.032C245.266 174.688 244.042 176.008 242.482 176.992C240.922 177.952 239.158 178.432 237.19 178.432C236.23 178.432 235.342 178.264 234.526 177.928C233.734 177.592 233.05 177.16 232.474 176.632C231.922 176.104 231.514 175.552 231.25 174.976L229.27 185.92H226.246ZM237.37 175.804C238.738 175.804 239.95 175.456 241.006 174.76C242.062 174.064 242.89 173.116 243.49 171.916C244.09 170.716 244.39 169.348 244.39 167.812C244.39 166.228 243.934 164.92 243.022 163.888C242.134 162.856 240.922 162.34 239.386 162.34C238.018 162.34 236.794 162.7 235.714 163.42C234.634 164.14 233.782 165.124 233.158 166.372C232.534 167.596 232.222 168.964 232.222 170.476C232.222 172.084 232.69 173.38 233.626 174.364C234.562 175.324 235.81 175.804 237.37 175.804ZM256.886 178.432C254.654 178.432 252.914 177.868 251.666 176.74C250.418 175.588 249.878 174.04 250.046 172.096H253.106C253.058 173.104 253.358 173.992 254.006 174.76C254.654 175.504 255.758 175.876 257.318 175.876C258.59 175.876 259.61 175.6 260.378 175.048C261.146 174.472 261.53 173.68 261.53 172.672C261.53 171.88 261.17 171.304 260.45 170.944C259.754 170.584 258.818 170.284 257.642 170.044C256.754 169.852 255.89 169.588 255.05 169.252C254.21 168.892 253.502 168.4 252.926 167.776C252.374 167.152 252.098 166.36 252.098 165.4C252.098 164.32 252.41 163.36 253.034 162.52C253.658 161.656 254.51 160.972 255.59 160.468C256.694 159.964 257.942 159.712 259.334 159.712C261.23 159.712 262.742 160.192 263.87 161.152C265.022 162.088 265.55 163.432 265.454 165.184H262.43C262.478 164.296 262.19 163.588 261.566 163.06C260.966 162.532 260.114 162.268 259.01 162.268C257.906 162.268 256.994 162.532 256.274 163.06C255.578 163.564 255.23 164.188 255.23 164.932C255.23 165.652 255.566 166.192 256.238 166.552C256.934 166.912 257.858 167.224 259.01 167.488C259.994 167.704 260.918 167.992 261.782 168.352C262.646 168.712 263.342 169.204 263.87 169.828C264.422 170.452 264.698 171.268 264.698 172.276C264.698 173.524 264.362 174.616 263.69 175.552C263.018 176.464 262.094 177.172 260.918 177.676C259.742 178.18 258.398 178.432 256.886 178.432ZM286.759 178.432C285.223 178.432 283.903 178.084 282.799 177.388C281.719 176.668 280.891 175.708 280.315 174.508C279.739 173.308 279.451 171.988 279.451 170.548C279.451 168.436 279.895 166.576 280.783 164.968C281.695 163.336 282.919 162.052 284.455 161.116C285.991 160.18 287.707 159.712 289.603 159.712C291.187 159.712 292.483 160.024 293.491 160.648C294.499 161.272 295.243 162.1 295.723 163.132L297.667 152.08H300.691L296.119 178H293.347L293.599 175.048C292.903 175.912 292.003 176.692 290.899 177.388C289.795 178.084 288.415 178.432 286.759 178.432ZM287.623 175.804C288.991 175.804 290.203 175.432 291.259 174.688C292.339 173.944 293.179 172.948 293.779 171.7C294.403 170.428 294.715 169.036 294.715 167.524C294.715 165.964 294.271 164.716 293.383 163.78C292.495 162.82 291.271 162.34 289.711 162.34C288.343 162.34 287.119 162.688 286.039 163.384C284.959 164.08 284.107 165.028 283.483 166.228C282.883 167.404 282.583 168.748 282.583 170.26C282.583 171.844 283.027 173.164 283.915 174.22C284.827 175.276 286.063 175.804 287.623 175.804ZM309.371 178.432C307.883 178.432 306.563 178.096 305.411 177.424C304.259 176.752 303.359 175.828 302.711 174.652C302.063 173.476 301.739 172.144 301.739 170.656C301.739 169.072 302.015 167.62 302.567 166.3C303.119 164.98 303.875 163.828 304.835 162.844C305.795 161.86 306.911 161.092 308.183 160.54C309.455 159.988 310.835 159.712 312.323 159.712C313.811 159.712 315.131 160.036 316.283 160.684C317.435 161.332 318.335 162.232 318.983 163.384C319.631 164.536 319.955 165.868 319.955 167.38C319.955 168.94 319.679 170.392 319.127 171.736C318.599 173.08 317.843 174.256 316.859 175.264C315.899 176.248 314.783 177.028 313.511 177.604C312.239 178.156 310.859 178.432 309.371 178.432ZM309.767 175.84C311.111 175.84 312.311 175.48 313.367 174.76C314.447 174.04 315.299 173.056 315.923 171.808C316.547 170.56 316.859 169.156 316.859 167.596C316.859 165.916 316.367 164.62 315.383 163.708C314.423 162.772 313.271 162.304 311.927 162.304C310.607 162.304 309.419 162.664 308.363 163.384C307.307 164.104 306.467 165.088 305.843 166.336C305.219 167.584 304.907 168.988 304.907 170.548C304.907 171.676 305.123 172.636 305.555 173.428C306.011 174.196 306.611 174.796 307.355 175.228C308.099 175.636 308.903 175.84 309.767 175.84ZM330.387 178.432C328.179 178.432 326.403 177.748 325.059 176.38C323.739 175.012 323.079 173.176 323.079 170.872C323.079 168.808 323.535 166.936 324.447 165.256C325.359 163.552 326.607 162.208 328.191 161.224C329.799 160.216 331.623 159.712 333.663 159.712C335.223 159.712 336.531 160.024 337.587 160.648C338.667 161.248 339.471 162.064 339.999 163.096C340.551 164.128 340.827 165.268 340.827 166.516C340.827 166.996 340.767 167.548 340.647 168.172C340.551 168.772 340.455 169.3 340.359 169.756H326.103C326.055 170.164 326.031 170.524 326.031 170.836C326.031 172.54 326.511 173.812 327.471 174.652C328.431 175.468 329.559 175.876 330.855 175.876C332.103 175.876 333.195 175.588 334.131 175.012C335.091 174.412 335.835 173.632 336.363 172.672H339.351C338.607 174.328 337.455 175.708 335.895 176.812C334.335 177.892 332.499 178.432 330.387 178.432ZM333.267 162.268C331.827 162.268 330.471 162.712 329.199 163.6C327.927 164.464 327.051 165.736 326.571 167.416H337.803C337.827 167.272 337.839 167.14 337.839 167.02C337.863 166.876 337.875 166.744 337.875 166.624C337.875 165.256 337.455 164.188 336.615 163.42C335.775 162.652 334.659 162.268 333.267 162.268ZM349.804 178.432C347.572 178.432 345.832 177.868 344.584 176.74C343.336 175.588 342.796 174.04 342.964 172.096H346.024C345.976 173.104 346.276 173.992 346.924 174.76C347.572 175.504 348.676 175.876 350.236 175.876C351.508 175.876 352.528 175.6 353.296 175.048C354.064 174.472 354.448 173.68 354.448 172.672C354.448 171.88 354.088 171.304 353.368 170.944C352.672 170.584 351.736 170.284 350.56 170.044C349.672 169.852 348.808 169.588 347.968 169.252C347.128 168.892 346.42 168.4 345.844 167.776C345.292 167.152 345.016 166.36 345.016 165.4C345.016 164.32 345.328 163.36 345.952 162.52C346.576 161.656 347.428 160.972 348.508 160.468C349.612 159.964 350.86 159.712 352.252 159.712C354.148 159.712 355.66 160.192 356.788 161.152C357.94 162.088 358.468 163.432 358.372 165.184H355.348C355.396 164.296 355.108 163.588 354.484 163.06C353.884 162.532 353.032 162.268 351.928 162.268C350.824 162.268 349.912 162.532 349.192 163.06C348.496 163.564 348.148 164.188 348.148 164.932C348.148 165.652 348.484 166.192 349.156 166.552C349.852 166.912 350.776 167.224 351.928 167.488C352.912 167.704 353.836 167.992 354.7 168.352C355.564 168.712 356.26 169.204 356.788 169.828C357.34 170.452 357.616 171.268 357.616 172.276C357.616 173.524 357.28 174.616 356.608 175.552C355.936 176.464 355.012 177.172 353.836 177.676C352.66 178.18 351.316 178.432 349.804 178.432ZM361.42 178L364.552 160.144H367.288L366.928 163.384C367.696 162.232 368.68 161.332 369.88 160.684C371.08 160.036 372.364 159.712 373.732 159.712C375.508 159.712 376.912 160.216 377.944 161.224C378.976 162.208 379.492 163.624 379.492 165.472C379.492 165.808 379.468 166.156 379.42 166.516C379.396 166.852 379.348 167.2 379.276 167.56L377.44 178H374.416L376.18 167.884C376.228 167.572 376.264 167.272 376.288 166.984C376.336 166.696 376.36 166.42 376.36 166.156C376.36 163.588 375.1 162.304 372.58 162.304C371.068 162.304 369.712 162.832 368.512 163.888C367.336 164.944 366.544 166.456 366.136 168.424L364.444 178H361.42ZM382.685 157.912L383.513 150.82H386.393L384.773 157.912H382.685ZM391.946 178C390.458 178 389.306 177.712 388.49 177.136C387.674 176.536 387.266 175.528 387.266 174.112C387.266 173.872 387.278 173.62 387.302 173.356C387.326 173.068 387.362 172.768 387.41 172.456L389.138 162.7H386.366L386.834 160.144H389.606L390.758 155.86H393.422L392.63 160.144H397.922L397.454 162.7H392.198L390.434 172.456C390.386 172.84 390.362 173.176 390.362 173.464C390.362 174.208 390.554 174.724 390.938 175.012C391.346 175.276 391.994 175.408 392.882 175.408H395.222L394.754 178H391.946ZM409.127 178L412.259 160.144H415.031L414.707 163.312C415.475 162.208 416.483 161.332 417.731 160.684C419.003 160.036 420.443 159.712 422.051 159.712L421.511 162.88H420.683C419.603 162.88 418.583 163.048 417.623 163.384C416.687 163.72 415.883 164.296 415.211 165.112C414.539 165.904 414.083 166.996 413.843 168.388L412.151 178H409.127ZM429.669 178.432C427.461 178.432 425.685 177.748 424.341 176.38C423.021 175.012 422.361 173.176 422.361 170.872C422.361 168.808 422.817 166.936 423.729 165.256C424.641 163.552 425.889 162.208 427.473 161.224C429.081 160.216 430.905 159.712 432.945 159.712C434.505 159.712 435.813 160.024 436.869 160.648C437.949 161.248 438.753 162.064 439.281 163.096C439.833 164.128 440.109 165.268 440.109 166.516C440.109 166.996 440.049 167.548 439.929 168.172C439.833 168.772 439.737 169.3 439.641 169.756H425.385C425.337 170.164 425.312 170.524 425.312 170.836C425.312 172.54 425.793 173.812 426.753 174.652C427.713 175.468 428.841 175.876 430.137 175.876C431.385 175.876 432.477 175.588 433.413 175.012C434.373 174.412 435.117 173.632 435.645 172.672H438.633C437.889 174.328 436.737 175.708 435.177 176.812C433.617 177.892 431.781 178.432 429.669 178.432ZM432.549 162.268C431.109 162.268 429.753 162.712 428.481 163.6C427.209 164.464 426.333 165.736 425.853 167.416H437.085C437.109 167.272 437.121 167.14 437.121 167.02C437.145 166.876 437.157 166.744 437.157 166.624C437.157 165.256 436.737 164.188 435.897 163.42C435.057 162.652 433.941 162.268 432.549 162.268ZM450.273 178.432C448.809 178.432 447.513 178.12 446.385 177.496C445.257 176.848 444.381 175.96 443.757 174.832C443.133 173.68 442.821 172.348 442.821 170.836C442.821 169.252 443.097 167.788 443.649 166.444C444.201 165.076 444.969 163.888 445.953 162.88C446.937 161.872 448.077 161.092 449.373 160.54C450.669 159.988 452.061 159.712 453.549 159.712C455.709 159.712 457.425 160.276 458.697 161.404C459.969 162.532 460.617 164.056 460.641 165.976H457.545C457.545 164.752 457.113 163.84 456.249 163.24C455.385 162.616 454.341 162.304 453.117 162.304C451.797 162.304 450.597 162.664 449.517 163.384C448.437 164.08 447.573 165.052 446.925 166.3C446.277 167.524 445.953 168.928 445.953 170.512C445.953 172.216 446.421 173.536 447.357 174.472C448.293 175.408 449.421 175.876 450.741 175.876C451.965 175.876 453.105 175.564 454.161 174.94C455.241 174.316 456.009 173.392 456.465 172.168H459.561C459.105 173.392 458.421 174.484 457.509 175.444C456.597 176.38 455.517 177.112 454.269 177.64C453.045 178.168 451.713 178.432 450.273 178.432ZM470.95 178.432C469.462 178.432 468.142 178.096 466.99 177.424C465.838 176.752 464.938 175.828 464.29 174.652C463.642 173.476 463.318 172.144 463.318 170.656C463.318 169.072 463.594 167.62 464.146 166.3C464.698 164.98 465.454 163.828 466.414 162.844C467.374 161.86 468.49 161.092 469.762 160.54C471.034 159.988 472.414 159.712 473.902 159.712C475.39 159.712 476.71 160.036 477.862 160.684C479.014 161.332 479.914 162.232 480.562 163.384C481.21 164.536 481.534 165.868 481.534 167.38C481.534 168.94 481.258 170.392 480.706 171.736C480.178 173.08 479.422 174.256 478.438 175.264C477.478 176.248 476.362 177.028 475.09 177.604C473.818 178.156 472.438 178.432 470.95 178.432ZM471.346 175.84C472.69 175.84 473.89 175.48 474.946 174.76C476.026 174.04 476.878 173.056 477.502 171.808C478.126 170.56 478.438 169.156 478.438 167.596C478.438 165.916 477.946 164.62 476.962 163.708C476.002 162.772 474.85 162.304 473.506 162.304C472.186 162.304 470.998 162.664 469.942 163.384C468.886 164.104 468.046 165.088 467.422 166.336C466.798 167.584 466.486 168.988 466.486 170.548C466.486 171.676 466.702 172.636 467.134 173.428C467.59 174.196 468.19 174.796 468.934 175.228C469.678 175.636 470.482 175.84 471.346 175.84ZM491.085 172.384C490.029 172.384 489.093 172.24 488.277 171.952L486.513 173.32C487.041 173.656 487.641 173.92 488.313 174.112C488.985 174.304 489.969 174.448 491.265 174.544C492.945 174.664 494.253 174.964 495.189 175.444C496.149 175.924 496.821 176.524 497.205 177.244C497.589 177.94 497.781 178.672 497.781 179.44C497.781 180.76 497.397 181.936 496.629 182.968C495.861 184.024 494.793 184.852 493.425 185.452C492.057 186.052 490.485 186.352 488.709 186.352C486.525 186.352 484.749 185.908 483.381 185.02C482.013 184.156 481.329 182.908 481.329 181.276C481.329 180.148 481.641 179.116 482.265 178.18C482.865 177.268 483.753 176.452 484.929 175.732C484.089 175.348 483.405 174.868 482.877 174.292L483.021 173.428L486.369 170.764C485.433 169.852 484.965 168.676 484.965 167.236C484.965 165.82 485.337 164.548 486.081 163.42C486.825 162.268 487.821 161.368 489.069 160.72C490.341 160.048 491.757 159.712 493.317 159.712C494.349 159.712 495.261 159.856 496.053 160.144H502.641L502.209 162.376L498.861 162.52C499.197 163.216 499.365 163.996 499.365 164.86C499.365 166.276 498.993 167.56 498.249 168.712C497.529 169.84 496.545 170.74 495.297 171.412C494.049 172.06 492.645 172.384 491.085 172.384ZM491.517 169.9C492.981 169.9 494.169 169.468 495.081 168.604C496.017 167.716 496.485 166.576 496.485 165.184C496.485 164.248 496.161 163.516 495.513 162.988C494.865 162.46 493.989 162.196 492.885 162.196C491.421 162.196 490.221 162.64 489.285 163.528C488.373 164.392 487.917 165.52 487.917 166.912C487.917 167.872 488.229 168.616 488.853 169.144C489.501 169.648 490.389 169.9 491.517 169.9ZM484.389 180.7C484.389 181.684 484.809 182.452 485.649 183.004C486.489 183.58 487.653 183.868 489.141 183.868C490.773 183.868 492.117 183.496 493.173 182.752C494.229 182.008 494.757 181 494.757 179.728C494.757 179.056 494.493 178.468 493.965 177.964C493.437 177.436 492.393 177.112 490.833 176.992C489.537 176.92 488.385 176.764 487.377 176.524C485.385 177.628 484.389 179.02 484.389 180.7ZM503.03 178L506.162 160.144H508.898L508.538 163.384C509.306 162.232 510.29 161.332 511.49 160.684C512.69 160.036 513.974 159.712 515.342 159.712C517.118 159.712 518.522 160.216 519.554 161.224C520.586 162.208 521.102 163.624 521.102 165.472C521.102 165.808 521.078 166.156 521.03 166.516C521.006 166.852 520.958 167.2 520.886 167.56L519.05 178H516.026L517.79 167.884C517.838 167.572 517.874 167.272 517.898 166.984C517.946 166.696 517.97 166.42 517.97 166.156C517.97 163.588 516.71 162.304 514.19 162.304C512.678 162.304 511.322 162.832 510.122 163.888C508.946 164.944 508.154 166.456 507.746 168.424L506.054 178H503.03ZM529.714 156.184C529.114 156.184 528.61 155.992 528.202 155.608C527.818 155.224 527.626 154.732 527.626 154.132C527.626 153.532 527.818 153.04 528.202 152.656C528.61 152.272 529.114 152.08 529.714 152.08C530.29 152.08 530.782 152.272 531.19 152.656C531.598 153.04 531.802 153.532 531.802 154.132C531.802 154.732 531.598 155.224 531.19 155.608C530.782 155.992 530.29 156.184 529.714 156.184ZM523.99 178L527.122 160.144H530.146L527.014 178H523.99ZM530.91 178L531.378 175.516L543.906 162.664H534.186L534.654 160.144H547.83L547.362 162.628L534.798 175.48H544.878L544.41 178H530.91ZM556.618 178.432C554.41 178.432 552.634 177.748 551.29 176.38C549.97 175.012 549.31 173.176 549.31 170.872C549.31 168.808 549.766 166.936 550.678 165.256C551.59 163.552 552.838 162.208 554.422 161.224C556.03 160.216 557.854 159.712 559.894 159.712C561.454 159.712 562.762 160.024 563.818 160.648C564.898 161.248 565.702 162.064 566.23 163.096C566.782 164.128 567.058 165.268 567.058 166.516C567.058 166.996 566.998 167.548 566.878 168.172C566.782 168.772 566.686 169.3 566.59 169.756H552.334C552.286 170.164 552.262 170.524 552.262 170.836C552.262 172.54 552.742 173.812 553.702 174.652C554.662 175.468 555.79 175.876 557.086 175.876C558.334 175.876 559.426 175.588 560.362 175.012C561.322 174.412 562.066 173.632 562.594 172.672H565.582C564.838 174.328 563.686 175.708 562.126 176.812C560.566 177.892 558.73 178.432 556.618 178.432ZM559.498 162.268C558.058 162.268 556.702 162.712 555.43 163.6C554.158 164.464 553.282 165.736 552.802 167.416H564.034C564.058 167.272 564.07 167.14 564.07 167.02C564.094 166.876 564.106 166.744 564.106 166.624C564.106 165.256 563.686 164.188 562.846 163.42C562.006 162.652 560.89 162.268 559.498 162.268ZM585.903 178C584.415 178 583.263 177.712 582.447 177.136C581.631 176.536 581.223 175.528 581.223 174.112C581.223 173.872 581.235 173.62 581.259 173.356C581.283 173.068 581.319 172.768 581.367 172.456L583.095 162.7H580.323L580.791 160.144H583.563L584.715 155.86H587.379L586.587 160.144H591.879L591.411 162.7H586.155L584.391 172.456C584.343 172.84 584.319 173.176 584.319 173.464C584.319 174.208 584.511 174.724 584.895 175.012C585.303 175.276 585.951 175.408 586.839 175.408H589.179L588.711 178H585.903ZM592.784 178L597.32 152.08H600.344L598.4 163.204C599.168 162.124 600.14 161.272 601.316 160.648C602.516 160.024 603.776 159.712 605.096 159.712C607.184 159.712 608.744 160.36 609.776 161.656C610.832 162.928 611.12 164.896 610.64 167.56L608.804 178H605.78L607.544 167.884C608.192 164.164 606.992 162.304 603.944 162.304C602.408 162.304 601.028 162.868 599.804 163.996C598.58 165.1 597.788 166.684 597.428 168.748L595.808 178H592.784ZM621.34 178.432C619.132 178.432 617.356 177.748 616.012 176.38C614.692 175.012 614.032 173.176 614.032 170.872C614.032 168.808 614.488 166.936 615.4 165.256C616.312 163.552 617.56 162.208 619.144 161.224C620.752 160.216 622.576 159.712 624.616 159.712C626.176 159.712 627.484 160.024 628.54 160.648C629.62 161.248 630.424 162.064 630.952 163.096C631.504 164.128 631.78 165.268 631.78 166.516C631.78 166.996 631.72 167.548 631.6 168.172C631.504 168.772 631.408 169.3 631.312 169.756H617.056C617.008 170.164 616.984 170.524 616.984 170.836C616.984 172.54 617.464 173.812 618.424 174.652C619.384 175.468 620.512 175.876 621.808 175.876C623.056 175.876 624.148 175.588 625.084 175.012C626.044 174.412 626.788 173.632 627.316 172.672H630.304C629.56 174.328 628.408 175.708 626.848 176.812C625.288 177.892 623.452 178.432 621.34 178.432ZM624.22 162.268C622.78 162.268 621.424 162.712 620.152 163.6C618.88 164.464 618.004 165.736 617.524 167.416H628.756C628.78 167.272 628.792 167.14 628.792 167.02C628.816 166.876 628.828 166.744 628.828 166.624C628.828 165.256 628.408 164.188 627.568 163.42C626.728 162.652 625.612 162.268 624.22 162.268ZM651.058 178.432C648.826 178.432 647.086 177.868 645.838 176.74C644.59 175.588 644.05 174.04 644.218 172.096H647.278C647.23 173.104 647.53 173.992 648.178 174.76C648.826 175.504 649.93 175.876 651.49 175.876C652.762 175.876 653.782 175.6 654.55 175.048C655.318 174.472 655.702 173.68 655.702 172.672C655.702 171.88 655.342 171.304 654.622 170.944C653.926 170.584 652.99 170.284 651.814 170.044C650.926 169.852 650.062 169.588 649.222 169.252C648.382 168.892 647.674 168.4 647.098 167.776C646.546 167.152 646.27 166.36 646.27 165.4C646.27 164.32 646.582 163.36 647.206 162.52C647.83 161.656 648.682 160.972 649.762 160.468C650.866 159.964 652.114 159.712 653.506 159.712C655.402 159.712 656.914 160.192 658.042 161.152C659.194 162.088 659.722 163.432 659.626 165.184H656.602C656.65 164.296 656.362 163.588 655.738 163.06C655.138 162.532 654.286 162.268 653.182 162.268C652.078 162.268 651.166 162.532 650.446 163.06C649.75 163.564 649.402 164.188 649.402 164.932C649.402 165.652 649.738 166.192 650.41 166.552C651.106 166.912 652.03 167.224 653.182 167.488C654.166 167.704 655.09 167.992 655.954 168.352C656.818 168.712 657.514 169.204 658.042 169.828C658.594 170.452 658.87 171.268 658.87 172.276C658.87 173.524 658.534 174.616 657.862 175.552C657.19 176.464 656.266 177.172 655.09 177.676C653.914 178.18 652.57 178.432 651.058 178.432ZM668.415 178C666.927 178 665.775 177.712 664.959 177.136C664.143 176.536 663.735 175.528 663.735 174.112C663.735 173.872 663.747 173.62 663.771 173.356C663.795 173.068 663.831 172.768 663.879 172.456L665.607 162.7H662.835L663.303 160.144H666.075L667.227 155.86H669.891L669.099 160.144H674.391L673.923 162.7H668.667L666.903 172.456C666.855 172.84 666.831 173.176 666.831 173.464C666.831 174.208 667.023 174.724 667.407 175.012C667.815 175.276 668.463 175.408 669.351 175.408H671.691L671.223 178H668.415ZM675.295 178L678.427 160.144H681.199L680.875 163.312C681.643 162.208 682.651 161.332 683.899 160.684C685.171 160.036 686.611 159.712 688.219 159.712L687.679 162.88H686.851C685.771 162.88 684.751 163.048 683.791 163.384C682.855 163.72 682.051 164.296 681.379 165.112C680.707 165.904 680.251 166.996 680.011 168.388L678.319 178H675.295ZM695.836 178.432C693.628 178.432 691.852 177.748 690.508 176.38C689.188 175.012 688.528 173.176 688.528 170.872C688.528 168.808 688.984 166.936 689.896 165.256C690.808 163.552 692.056 162.208 693.64 161.224C695.248 160.216 697.072 159.712 699.112 159.712C700.672 159.712 701.98 160.024 703.036 160.648C704.116 161.248 704.92 162.064 705.448 163.096C706 164.128 706.276 165.268 706.276 166.516C706.276 166.996 706.216 167.548 706.096 168.172C706 168.772 705.904 169.3 705.808 169.756H691.552C691.504 170.164 691.48 170.524 691.48 170.836C691.48 172.54 691.96 173.812 692.92 174.652C693.88 175.468 695.008 175.876 696.304 175.876C697.552 175.876 698.644 175.588 699.58 175.012C700.54 174.412 701.284 173.632 701.812 172.672H704.8C704.056 174.328 702.904 175.708 701.344 176.812C699.784 177.892 697.948 178.432 695.836 178.432ZM698.716 162.268C697.276 162.268 695.92 162.712 694.648 163.6C693.376 164.464 692.5 165.736 692.02 167.416H703.252C703.276 167.272 703.288 167.14 703.288 167.02C703.312 166.876 703.324 166.744 703.324 166.624C703.324 165.256 702.904 164.188 702.064 163.42C701.224 162.652 700.108 162.268 698.716 162.268ZM716.297 178.432C714.089 178.432 712.313 177.748 710.969 176.38C709.649 175.012 708.989 173.176 708.989 170.872C708.989 168.808 709.445 166.936 710.357 165.256C711.269 163.552 712.517 162.208 714.101 161.224C715.709 160.216 717.533 159.712 719.573 159.712C721.133 159.712 722.441 160.024 723.497 160.648C724.577 161.248 725.381 162.064 725.909 163.096C726.461 164.128 726.737 165.268 726.737 166.516C726.737 166.996 726.677 167.548 726.557 168.172C726.461 168.772 726.365 169.3 726.269 169.756H712.013C711.965 170.164 711.941 170.524 711.941 170.836C711.941 172.54 712.421 173.812 713.381 174.652C714.341 175.468 715.469 175.876 716.765 175.876C718.013 175.876 719.105 175.588 720.041 175.012C721.001 174.412 721.745 173.632 722.273 172.672H725.261C724.517 174.328 723.365 175.708 721.805 176.812C720.245 177.892 718.409 178.432 716.297 178.432ZM719.177 162.268C717.737 162.268 716.381 162.712 715.109 163.6C713.837 164.464 712.961 165.736 712.481 167.416H723.713C723.737 167.272 723.749 167.14 723.749 167.02C723.773 166.876 723.785 166.744 723.785 166.624C723.785 165.256 723.365 164.188 722.525 163.42C721.685 162.652 720.569 162.268 719.177 162.268ZM735.282 178C733.794 178 732.642 177.712 731.826 177.136C731.01 176.536 730.602 175.528 730.602 174.112C730.602 173.872 730.614 173.62 730.638 173.356C730.662 173.068 730.698 172.768 730.746 172.456L732.474 162.7H729.702L730.17 160.144H732.942L734.094 155.86H736.758L735.966 160.144H741.258L740.79 162.7H735.534L733.77 172.456C733.722 172.84 733.698 173.176 733.698 173.464C733.698 174.208 733.89 174.724 734.274 175.012C734.682 175.276 735.33 175.408 736.218 175.408H738.558L738.09 178H735.282ZM749.039 178.432C746.807 178.432 745.067 177.868 743.819 176.74C742.571 175.588 742.031 174.04 742.199 172.096H745.259C745.211 173.104 745.511 173.992 746.159 174.76C746.807 175.504 747.911 175.876 749.471 175.876C750.743 175.876 751.763 175.6 752.531 175.048C753.299 174.472 753.683 173.68 753.683 172.672C753.683 171.88 753.323 171.304 752.603 170.944C751.907 170.584 750.971 170.284 749.795 170.044C748.907 169.852 748.043 169.588 747.203 169.252C746.363 168.892 745.655 168.4 745.079 167.776C744.527 167.152 744.251 166.36 744.251 165.4C744.251 164.32 744.563 163.36 745.187 162.52C745.811 161.656 746.663 160.972 747.743 160.468C748.847 159.964 750.095 159.712 751.487 159.712C753.383 159.712 754.895 160.192 756.023 161.152C757.175 162.088 757.703 163.432 757.607 165.184H754.583C754.631 164.296 754.343 163.588 753.719 163.06C753.119 162.532 752.267 162.268 751.163 162.268C750.059 162.268 749.147 162.532 748.427 163.06C747.731 163.564 747.383 164.188 747.383 164.932C747.383 165.652 747.719 166.192 748.391 166.552C749.087 166.912 750.011 167.224 751.163 167.488C752.147 167.704 753.071 167.992 753.935 168.352C754.799 168.712 755.495 169.204 756.023 169.828C756.575 170.452 756.851 171.268 756.851 172.276C756.851 173.524 756.515 174.616 755.843 175.552C755.171 176.464 754.247 177.172 753.071 177.676C751.895 178.18 750.551 178.432 749.039 178.432ZM762.023 178.18C761.423 178.18 760.919 177.988 760.511 177.604C760.127 177.196 759.935 176.704 759.935 176.128C759.935 175.552 760.127 175.072 760.511 174.688C760.919 174.28 761.423 174.076 762.023 174.076C762.623 174.076 763.115 174.28 763.499 174.688C763.883 175.072 764.075 175.552 764.075 176.128C764.075 176.704 763.883 177.196 763.499 177.604C763.115 177.988 762.623 178.18 762.023 178.18Z" fill="#FEFAEF"/>
<defs>
<filter id="filter0_d_430_61" x="0" y="0" width="902" height="310.821" filterUnits="userSpaceOnUse" color-interpolation-filters="sRGB">
<feFlood flood-opacity="0" result="BackgroundImageFix"/>
<feColorMatrix in="SourceAlpha" type="matrix" values="0 0 0 0 0 0 0 0 0 0 0 0 0 0 0 0 0 0 127 0" result="hardAlpha"/>
<feOffset dy="4"/>
<feGaussianBlur stdDeviation="2"/>
<feComposite in2="hardAlpha" operator="out"/>
<feColorMatrix type="matrix" values="0 0 0 0 0 0 0 0 0 0 0 0 0 0 0 0 0 0 0.25 0"/>
<feBlend mode="normal" in2="BackgroundImageFix" result="effect1_dropShadow_430_61"/>
<feBlend mode="normal" in="SourceGraphic" in2="effect1_dropShadow_430_61" result="shape"/>
</filter>
</defs>
</svg>
