<svg width="902" height="318" viewBox="0 0 902 318" fill="none" xmlns="http://www.w3.org/2000/svg">
<g filter="url(#filter0_d_430_59)">
<path d="M4 25C4 11.1929 15.1929 0 29 0H873C886.807 0 898 11.1929 898 25V232.164C898 234.827 897.574 237.473 896.739 240.003L879.398 292.519C875.719 303.66 861.249 306.455 853.686 297.485L809.491 245.069C804.741 239.436 797.747 236.184 790.378 236.184H674.5H451H29C15.1929 236.184 4 224.992 4 211.184V25Z" fill="#BD4803"/>
</g>
<path d="M60.4168 84L64.8448 58.8H67.8688L63.4408 84H60.4168ZM71.4471 63.912L72.2751 56.82H75.1551L73.5351 63.912H71.4471ZM74.2641 84L77.3961 66.144H80.0961L79.8441 69.06C80.5401 68.028 81.4041 67.212 82.4361 66.612C83.4681 66.012 84.5841 65.712 85.7841 65.712C87.1041 65.712 88.2441 66.012 89.2041 66.612C90.1641 67.212 90.8241 68.124 91.1841 69.348C91.9521 68.22 92.9241 67.332 94.1001 66.684C95.3001 66.036 96.5241 65.712 97.7721 65.712C99.0921 65.712 100.22 66 101.156 66.576C102.116 67.128 102.8 67.992 103.208 69.168C103.64 70.32 103.688 71.784 103.352 73.56L101.516 84H98.4921L100.256 73.884C100.592 72.036 100.46 70.644 99.8601 69.708C99.2841 68.772 98.3481 68.304 97.0521 68.304C95.7801 68.304 94.5921 68.808 93.4881 69.816C92.3841 70.8 91.6041 72.228 91.1481 74.1L89.3841 84H86.3961L88.1601 73.884C88.4721 72.036 88.3281 70.644 87.7281 69.708C87.1521 68.772 86.2161 68.304 84.9201 68.304C83.6001 68.304 82.3521 68.868 81.1761 69.996C80.0241 71.1 79.2681 72.684 78.9081 74.748L77.2881 84H74.2641ZM122.176 84.432C120.832 84.432 119.74 84.216 118.9 83.784C118.06 83.328 117.436 82.74 117.028 82.02C116.62 81.276 116.416 80.484 116.416 79.644C116.416 78.324 116.788 77.184 117.532 76.224C118.276 75.264 119.308 74.532 120.628 74.028C121.972 73.5 123.532 73.236 125.308 73.236H130.096L130.132 73.02C130.204 72.612 130.24 72.204 130.24 71.796C130.24 70.644 129.904 69.768 129.232 69.168C128.584 68.568 127.672 68.268 126.496 68.268C125.344 68.268 124.276 68.568 123.292 69.168C122.308 69.744 121.624 70.596 121.24 71.724H118.108C118.492 70.428 119.116 69.336 119.98 68.448C120.868 67.56 121.912 66.888 123.112 66.432C124.312 65.952 125.572 65.712 126.892 65.712C129.028 65.712 130.624 66.216 131.68 67.224C132.76 68.232 133.3 69.6 133.3 71.328C133.3 71.592 133.288 71.868 133.264 72.156C133.24 72.444 133.204 72.732 133.156 73.02L131.248 84H128.512L128.872 80.832C128.2 81.84 127.312 82.692 126.208 83.388C125.128 84.084 123.784 84.432 122.176 84.432ZM123.076 81.876C124.228 81.876 125.26 81.576 126.172 80.976C127.108 80.376 127.876 79.596 128.476 78.636C129.076 77.676 129.472 76.668 129.664 75.612V75.576H125.128C123.424 75.576 122.08 75.912 121.096 76.584C120.136 77.232 119.656 78.132 119.656 79.284C119.656 80.1 119.944 80.736 120.52 81.192C121.12 81.648 121.972 81.876 123.076 81.876ZM135.787 84L140.395 58.08H143.419L138.811 84H135.787ZM147.294 84L145.17 66.144H148.23L149.526 80.148L156.186 66.144H159.606L161.298 80.148L167.562 66.144H170.586L162.234 84H159.138L157.338 69.276L150.354 84H147.294ZM176.247 84.432C174.903 84.432 173.811 84.216 172.971 83.784C172.131 83.328 171.507 82.74 171.099 82.02C170.691 81.276 170.487 80.484 170.487 79.644C170.487 78.324 170.859 77.184 171.603 76.224C172.347 75.264 173.379 74.532 174.699 74.028C176.043 73.5 177.603 73.236 179.379 73.236H184.167L184.203 73.02C184.275 72.612 184.311 72.204 184.311 71.796C184.311 70.644 183.975 69.768 183.303 69.168C182.655 68.568 181.743 68.268 180.567 68.268C179.415 68.268 178.347 68.568 177.363 69.168C176.379 69.744 175.695 70.596 175.311 71.724H172.179C172.563 70.428 173.187 69.336 174.051 68.448C174.939 67.56 175.983 66.888 177.183 66.432C178.383 65.952 179.643 65.712 180.963 65.712C183.099 65.712 184.695 66.216 185.751 67.224C186.831 68.232 187.371 69.6 187.371 71.328C187.371 71.592 187.359 71.868 187.335 72.156C187.311 72.444 187.275 72.732 187.227 73.02L185.319 84H182.583L182.943 80.832C182.271 81.84 181.383 82.692 180.279 83.388C179.199 84.084 177.855 84.432 176.247 84.432ZM177.147 81.876C178.299 81.876 179.331 81.576 180.243 80.976C181.179 80.376 181.947 79.596 182.547 78.636C183.147 77.676 183.543 76.668 183.735 75.612V75.576H179.199C177.495 75.576 176.151 75.912 175.167 76.584C174.207 77.232 173.727 78.132 173.727 79.284C173.727 80.1 174.015 80.736 174.591 81.192C175.191 81.648 176.043 81.876 177.147 81.876ZM189.449 91.92L195.533 82.272H194.525L190.241 66.144H193.445L197.009 80.04L205.685 66.144H208.853L192.617 91.92H189.449ZM215.156 84.432C212.924 84.432 211.184 83.868 209.936 82.74C208.688 81.588 208.148 80.04 208.316 78.096H211.376C211.328 79.104 211.628 79.992 212.276 80.76C212.924 81.504 214.028 81.876 215.588 81.876C216.86 81.876 217.88 81.6 218.648 81.048C219.416 80.472 219.8 79.68 219.8 78.672C219.8 77.88 219.44 77.304 218.72 76.944C218.024 76.584 217.088 76.284 215.912 76.044C215.024 75.852 214.16 75.588 213.32 75.252C212.48 74.892 211.772 74.4 211.196 73.776C210.644 73.152 210.368 72.36 210.368 71.4C210.368 70.32 210.68 69.36 211.304 68.52C211.928 67.656 212.78 66.972 213.86 66.468C214.964 65.964 216.212 65.712 217.604 65.712C219.5 65.712 221.012 66.192 222.14 67.152C223.292 68.088 223.82 69.432 223.724 71.184H220.7C220.748 70.296 220.46 69.588 219.836 69.06C219.236 68.532 218.384 68.268 217.28 68.268C216.176 68.268 215.264 68.532 214.544 69.06C213.848 69.564 213.5 70.188 213.5 70.932C213.5 71.652 213.836 72.192 214.508 72.552C215.204 72.912 216.128 73.224 217.28 73.488C218.264 73.704 219.188 73.992 220.052 74.352C220.916 74.712 221.612 75.204 222.14 75.828C222.692 76.452 222.968 77.268 222.968 78.276C222.968 79.524 222.632 80.616 221.96 81.552C221.288 82.464 220.364 83.172 219.188 83.676C218.012 84.18 216.668 84.432 215.156 84.432ZM243.517 84.432C241.717 84.432 240.301 83.94 239.269 82.956C238.261 81.948 237.757 80.52 237.757 78.672C237.757 78.336 237.769 78 237.793 77.664C237.817 77.304 237.865 76.944 237.937 76.584L239.809 66.144H242.833L241.033 76.26C240.985 76.572 240.937 76.872 240.889 77.16C240.865 77.448 240.853 77.724 240.853 77.988C240.853 80.556 242.113 81.84 244.633 81.84C246.145 81.84 247.501 81.312 248.701 80.256C249.901 79.2 250.705 77.688 251.113 75.72L252.805 66.144H255.829L252.697 84H249.961L250.321 80.76C249.553 81.912 248.569 82.812 247.369 83.46C246.169 84.108 244.885 84.432 243.517 84.432ZM257.709 84L260.841 66.144H263.577L263.217 69.384C263.985 68.232 264.969 67.332 266.169 66.684C267.369 66.036 268.653 65.712 270.021 65.712C271.797 65.712 273.201 66.216 274.233 67.224C275.265 68.208 275.781 69.624 275.781 71.472C275.781 71.808 275.757 72.156 275.709 72.516C275.685 72.852 275.637 73.2 275.565 73.56L273.729 84H270.705L272.469 73.884C272.517 73.572 272.553 73.272 272.577 72.984C272.625 72.696 272.649 72.42 272.649 72.156C272.649 69.588 271.389 68.304 268.869 68.304C267.357 68.304 266.001 68.832 264.801 69.888C263.625 70.944 262.833 72.456 262.425 74.424L260.733 84H257.709ZM285.222 84.432C282.99 84.432 281.25 83.868 280.002 82.74C278.754 81.588 278.214 80.04 278.382 78.096H281.442C281.394 79.104 281.694 79.992 282.342 80.76C282.99 81.504 284.094 81.876 285.654 81.876C286.926 81.876 287.946 81.6 288.714 81.048C289.482 80.472 289.866 79.68 289.866 78.672C289.866 77.88 289.506 77.304 288.786 76.944C288.09 76.584 287.154 76.284 285.978 76.044C285.09 75.852 284.226 75.588 283.386 75.252C282.546 74.892 281.838 74.4 281.262 73.776C280.71 73.152 280.434 72.36 280.434 71.4C280.434 70.32 280.746 69.36 281.37 68.52C281.994 67.656 282.846 66.972 283.926 66.468C285.03 65.964 286.278 65.712 287.67 65.712C289.566 65.712 291.078 66.192 292.206 67.152C293.358 68.088 293.886 69.432 293.79 71.184H290.766C290.814 70.296 290.526 69.588 289.902 69.06C289.302 68.532 288.45 68.268 287.346 68.268C286.242 68.268 285.33 68.532 284.61 69.06C283.914 69.564 283.566 70.188 283.566 70.932C283.566 71.652 283.902 72.192 284.574 72.552C285.27 72.912 286.194 73.224 287.346 73.488C288.33 73.704 289.254 73.992 290.118 74.352C290.982 74.712 291.678 75.204 292.206 75.828C292.758 76.452 293.034 77.268 293.034 78.276C293.034 79.524 292.698 80.616 292.026 81.552C291.354 82.464 290.43 83.172 289.254 83.676C288.078 84.18 286.734 84.432 285.222 84.432ZM303.282 84.432C301.482 84.432 300.066 83.94 299.034 82.956C298.026 81.948 297.522 80.52 297.522 78.672C297.522 78.336 297.534 78 297.558 77.664C297.582 77.304 297.63 76.944 297.702 76.584L299.574 66.144H302.598L300.798 76.26C300.75 76.572 300.702 76.872 300.654 77.16C300.63 77.448 300.618 77.724 300.618 77.988C300.618 80.556 301.878 81.84 304.398 81.84C305.91 81.84 307.266 81.312 308.466 80.256C309.666 79.2 310.47 77.688 310.878 75.72L312.57 66.144H315.594L312.462 84H309.726L310.086 80.76C309.318 81.912 308.334 82.812 307.134 83.46C305.934 84.108 304.65 84.432 303.282 84.432ZM317.475 84L320.607 66.144H323.379L323.055 69.312C323.823 68.208 324.831 67.332 326.079 66.684C327.351 66.036 328.791 65.712 330.399 65.712L329.859 68.88H329.031C327.951 68.88 326.931 69.048 325.971 69.384C325.035 69.72 324.231 70.296 323.559 71.112C322.887 71.904 322.431 72.996 322.191 74.388L320.499 84H317.475ZM338.016 84.432C335.808 84.432 334.032 83.748 332.688 82.38C331.368 81.012 330.708 79.176 330.708 76.872C330.708 74.808 331.164 72.936 332.076 71.256C332.988 69.552 334.236 68.208 335.82 67.224C337.428 66.216 339.252 65.712 341.292 65.712C342.852 65.712 344.16 66.024 345.216 66.648C346.296 67.248 347.1 68.064 347.628 69.096C348.18 70.128 348.456 71.268 348.456 72.516C348.456 72.996 348.396 73.548 348.276 74.172C348.18 74.772 348.084 75.3 347.988 75.756H333.732C333.684 76.164 333.66 76.524 333.66 76.836C333.66 78.54 334.14 79.812 335.1 80.652C336.06 81.468 337.188 81.876 338.484 81.876C339.732 81.876 340.824 81.588 341.76 81.012C342.72 80.412 343.464 79.632 343.992 78.672H346.98C346.236 80.328 345.084 81.708 343.524 82.812C341.964 83.892 340.128 84.432 338.016 84.432ZM340.896 68.268C339.456 68.268 338.1 68.712 336.828 69.6C335.556 70.464 334.68 71.736 334.2 73.416H345.432C345.456 73.272 345.468 73.14 345.468 73.02C345.492 72.876 345.504 72.744 345.504 72.624C345.504 71.256 345.084 70.188 344.244 69.42C343.404 68.652 342.288 68.268 340.896 68.268ZM364.314 84L362.19 66.144H365.25L366.546 80.148L373.206 66.144H376.626L378.318 80.148L384.582 66.144H387.606L379.254 84H376.158L374.358 69.276L367.374 84H364.314ZM387.682 84L392.218 58.08H395.242L393.298 69.204C394.066 68.124 395.038 67.272 396.214 66.648C397.414 66.024 398.674 65.712 399.994 65.712C402.082 65.712 403.642 66.36 404.674 67.656C405.73 68.928 406.018 70.896 405.538 73.56L403.702 84H400.678L402.442 73.884C403.09 70.164 401.89 68.304 398.842 68.304C397.306 68.304 395.926 68.868 394.702 69.996C393.478 71.1 392.686 72.684 392.326 74.748L390.706 84H387.682ZM416.239 84.432C414.031 84.432 412.255 83.748 410.911 82.38C409.591 81.012 408.931 79.176 408.931 76.872C408.931 74.808 409.387 72.936 410.299 71.256C411.211 69.552 412.459 68.208 414.043 67.224C415.651 66.216 417.475 65.712 419.515 65.712C421.075 65.712 422.383 66.024 423.439 66.648C424.519 67.248 425.323 68.064 425.851 69.096C426.403 70.128 426.679 71.268 426.679 72.516C426.679 72.996 426.619 73.548 426.499 74.172C426.403 74.772 426.307 75.3 426.211 75.756H411.955C411.907 76.164 411.883 76.524 411.883 76.836C411.883 78.54 412.363 79.812 413.323 80.652C414.283 81.468 415.411 81.876 416.707 81.876C417.955 81.876 419.047 81.588 419.983 81.012C420.943 80.412 421.687 79.632 422.215 78.672H425.203C424.459 80.328 423.307 81.708 421.747 82.812C420.187 83.892 418.351 84.432 416.239 84.432ZM419.119 68.268C417.679 68.268 416.323 68.712 415.051 69.6C413.779 70.464 412.903 71.736 412.423 73.416H423.655C423.679 73.272 423.691 73.14 423.691 73.02C423.715 72.876 423.727 72.744 423.727 72.624C423.727 71.256 423.307 70.188 422.467 69.42C421.627 68.652 420.511 68.268 419.119 68.268ZM435.224 84C433.736 84 432.584 83.712 431.768 83.136C430.952 82.536 430.544 81.528 430.544 80.112C430.544 79.872 430.556 79.62 430.58 79.356C430.604 79.068 430.64 78.768 430.688 78.456L432.416 68.7H429.644L430.112 66.144H432.884L434.036 61.86H436.7L435.908 66.144H441.2L440.732 68.7H435.476L433.712 78.456C433.664 78.84 433.64 79.176 433.64 79.464C433.64 80.208 433.832 80.724 434.216 81.012C434.624 81.276 435.272 81.408 436.16 81.408H438.5L438.032 84H435.224ZM442.104 84L446.64 58.08H449.664L447.72 69.204C448.488 68.124 449.46 67.272 450.636 66.648C451.836 66.024 453.096 65.712 454.416 65.712C456.504 65.712 458.064 66.36 459.096 67.656C460.152 68.928 460.44 70.896 459.96 73.56L458.124 84H455.1L456.864 73.884C457.512 70.164 456.312 68.304 453.264 68.304C451.728 68.304 450.348 68.868 449.124 69.996C447.9 71.1 447.108 72.684 446.748 74.748L445.128 84H442.104ZM470.661 84.432C468.453 84.432 466.677 83.748 465.333 82.38C464.013 81.012 463.353 79.176 463.353 76.872C463.353 74.808 463.809 72.936 464.721 71.256C465.633 69.552 466.881 68.208 468.465 67.224C470.073 66.216 471.897 65.712 473.937 65.712C475.497 65.712 476.805 66.024 477.861 66.648C478.941 67.248 479.745 68.064 480.273 69.096C480.825 70.128 481.101 71.268 481.101 72.516C481.101 72.996 481.041 73.548 480.921 74.172C480.825 74.772 480.729 75.3 480.633 75.756H466.377C466.329 76.164 466.305 76.524 466.305 76.836C466.305 78.54 466.785 79.812 467.745 80.652C468.705 81.468 469.833 81.876 471.129 81.876C472.377 81.876 473.469 81.588 474.405 81.012C475.365 80.412 476.109 79.632 476.637 78.672H479.625C478.881 80.328 477.729 81.708 476.169 82.812C474.609 83.892 472.773 84.432 470.661 84.432ZM473.541 68.268C472.101 68.268 470.745 68.712 469.473 69.6C468.201 70.464 467.325 71.736 466.845 73.416H478.077C478.101 73.272 478.113 73.14 478.113 73.02C478.137 72.876 478.149 72.744 478.149 72.624C478.149 71.256 477.729 70.188 476.889 69.42C476.049 68.652 474.933 68.268 473.541 68.268ZM483.202 84L486.334 66.144H489.106L488.782 69.312C489.55 68.208 490.558 67.332 491.806 66.684C493.078 66.036 494.518 65.712 496.126 65.712L495.586 68.88H494.758C493.678 68.88 492.658 69.048 491.698 69.384C490.762 69.72 489.958 70.296 489.286 71.112C488.614 71.904 488.158 72.996 487.918 74.388L486.226 84H483.202ZM513.235 84C511.747 84 510.595 83.712 509.779 83.136C508.963 82.536 508.555 81.528 508.555 80.112C508.555 79.872 508.567 79.62 508.591 79.356C508.615 79.068 508.651 78.768 508.699 78.456L510.427 68.7H507.655L508.123 66.144H510.895L512.047 61.86H514.711L513.919 66.144H519.211L518.743 68.7H513.487L511.723 78.456C511.675 78.84 511.651 79.176 511.651 79.464C511.651 80.208 511.843 80.724 512.227 81.012C512.635 81.276 513.283 81.408 514.171 81.408H516.511L516.043 84H513.235ZM520.116 84L524.652 58.08H527.676L525.732 69.204C526.5 68.124 527.472 67.272 528.648 66.648C529.848 66.024 531.108 65.712 532.428 65.712C534.516 65.712 536.076 66.36 537.108 67.656C538.164 68.928 538.452 70.896 537.972 73.56L536.136 84H533.112L534.876 73.884C535.524 70.164 534.324 68.304 531.276 68.304C529.74 68.304 528.36 68.868 527.136 69.996C525.912 71.1 525.12 72.684 524.76 74.748L523.14 84H520.116ZM548.672 84.432C546.464 84.432 544.688 83.748 543.344 82.38C542.024 81.012 541.364 79.176 541.364 76.872C541.364 74.808 541.82 72.936 542.732 71.256C543.644 69.552 544.892 68.208 546.476 67.224C548.084 66.216 549.908 65.712 551.948 65.712C553.508 65.712 554.816 66.024 555.872 66.648C556.952 67.248 557.756 68.064 558.284 69.096C558.836 70.128 559.112 71.268 559.112 72.516C559.112 72.996 559.052 73.548 558.932 74.172C558.836 74.772 558.74 75.3 558.644 75.756H544.388C544.34 76.164 544.316 76.524 544.316 76.836C544.316 78.54 544.796 79.812 545.756 80.652C546.716 81.468 547.844 81.876 549.14 81.876C550.388 81.876 551.48 81.588 552.416 81.012C553.376 80.412 554.12 79.632 554.648 78.672H557.636C556.892 80.328 555.74 81.708 554.18 82.812C552.62 83.892 550.784 84.432 548.672 84.432ZM551.552 68.268C550.112 68.268 548.756 68.712 547.484 69.6C546.212 70.464 545.336 71.736 544.856 73.416H556.088C556.112 73.272 556.124 73.14 556.124 73.02C556.148 72.876 556.16 72.744 556.16 72.624C556.16 71.256 555.74 70.188 554.9 69.42C554.06 68.652 552.944 68.268 551.552 68.268ZM570.074 91.92L574.646 66.144H577.454L577.166 69.096C577.91 68.16 578.822 67.368 579.902 66.72C581.006 66.048 582.362 65.712 583.97 65.712C585.506 65.712 586.826 66.048 587.93 66.72C589.034 67.392 589.874 68.304 590.45 69.456C591.05 70.608 591.35 71.916 591.35 73.38C591.35 75.468 590.894 77.352 589.982 79.032C589.094 80.688 587.87 82.008 586.31 82.992C584.75 83.952 582.986 84.432 581.018 84.432C580.058 84.432 579.17 84.264 578.354 83.928C577.562 83.592 576.878 83.16 576.302 82.632C575.75 82.104 575.342 81.552 575.078 80.976L573.098 91.92H570.074ZM581.198 81.804C582.566 81.804 583.778 81.456 584.834 80.76C585.89 80.064 586.718 79.116 587.318 77.916C587.918 76.716 588.218 75.348 588.218 73.812C588.218 72.228 587.762 70.92 586.85 69.888C585.962 68.856 584.75 68.34 583.214 68.34C581.846 68.34 580.622 68.7 579.542 69.42C578.462 70.14 577.61 71.124 576.986 72.372C576.362 73.596 576.05 74.964 576.05 76.476C576.05 78.084 576.518 79.38 577.454 80.364C578.39 81.324 579.638 81.804 581.198 81.804ZM593.802 84L598.41 58.08H601.434L596.826 84H593.802ZM607.614 84.432C606.27 84.432 605.178 84.216 604.338 83.784C603.498 83.328 602.874 82.74 602.466 82.02C602.058 81.276 601.854 80.484 601.854 79.644C601.854 78.324 602.226 77.184 602.97 76.224C603.714 75.264 604.746 74.532 606.066 74.028C607.41 73.5 608.97 73.236 610.746 73.236H615.534L615.57 73.02C615.642 72.612 615.678 72.204 615.678 71.796C615.678 70.644 615.342 69.768 614.67 69.168C614.022 68.568 613.11 68.268 611.934 68.268C610.782 68.268 609.714 68.568 608.73 69.168C607.746 69.744 607.062 70.596 606.678 71.724H603.546C603.93 70.428 604.554 69.336 605.418 68.448C606.306 67.56 607.35 66.888 608.55 66.432C609.75 65.952 611.01 65.712 612.33 65.712C614.466 65.712 616.062 66.216 617.118 67.224C618.198 68.232 618.738 69.6 618.738 71.328C618.738 71.592 618.726 71.868 618.702 72.156C618.678 72.444 618.642 72.732 618.594 73.02L616.686 84H613.95L614.31 80.832C613.638 81.84 612.75 82.692 611.646 83.388C610.566 84.084 609.222 84.432 607.614 84.432ZM608.514 81.876C609.666 81.876 610.698 81.576 611.61 80.976C612.546 80.376 613.314 79.596 613.914 78.636C614.514 77.676 614.91 76.668 615.102 75.612V75.576H610.566C608.862 75.576 607.518 75.912 606.534 76.584C605.574 77.232 605.094 78.132 605.094 79.284C605.094 80.1 605.382 80.736 605.958 81.192C606.558 81.648 607.41 81.876 608.514 81.876ZM629.324 84.432C627.86 84.432 626.564 84.12 625.436 83.496C624.308 82.848 623.432 81.96 622.808 80.832C622.184 79.68 621.872 78.348 621.872 76.836C621.872 75.252 622.148 73.788 622.7 72.444C623.252 71.076 624.02 69.888 625.004 68.88C625.988 67.872 627.128 67.092 628.424 66.54C629.72 65.988 631.112 65.712 632.6 65.712C634.76 65.712 636.476 66.276 637.748 67.404C639.02 68.532 639.668 70.056 639.692 71.976H636.596C636.596 70.752 636.164 69.84 635.3 69.24C634.436 68.616 633.392 68.304 632.168 68.304C630.848 68.304 629.648 68.664 628.568 69.384C627.488 70.08 626.624 71.052 625.976 72.3C625.328 73.524 625.004 74.928 625.004 76.512C625.004 78.216 625.472 79.536 626.408 80.472C627.344 81.408 628.472 81.876 629.792 81.876C631.016 81.876 632.156 81.564 633.212 80.94C634.292 80.316 635.06 79.392 635.516 78.168H638.612C638.156 79.392 637.472 80.484 636.56 81.444C635.648 82.38 634.568 83.112 633.32 83.64C632.096 84.168 630.764 84.432 629.324 84.432ZM649.676 84.432C647.468 84.432 645.692 83.748 644.348 82.38C643.028 81.012 642.368 79.176 642.368 76.872C642.368 74.808 642.824 72.936 643.736 71.256C644.648 69.552 645.896 68.208 647.48 67.224C649.088 66.216 650.912 65.712 652.952 65.712C654.512 65.712 655.82 66.024 656.876 66.648C657.956 67.248 658.76 68.064 659.288 69.096C659.84 70.128 660.116 71.268 660.116 72.516C660.116 72.996 660.056 73.548 659.936 74.172C659.84 74.772 659.744 75.3 659.648 75.756H645.392C645.344 76.164 645.32 76.524 645.32 76.836C645.32 78.54 645.8 79.812 646.76 80.652C647.72 81.468 648.848 81.876 650.144 81.876C651.392 81.876 652.484 81.588 653.42 81.012C654.38 80.412 655.124 79.632 655.652 78.672H658.64C657.896 80.328 656.744 81.708 655.184 82.812C653.624 83.892 651.788 84.432 649.676 84.432ZM652.556 68.268C651.116 68.268 649.76 68.712 648.488 69.6C647.216 70.464 646.34 71.736 645.86 73.416H657.092C657.116 73.272 657.128 73.14 657.128 73.02C657.152 72.876 657.164 72.744 657.164 72.624C657.164 71.256 656.744 70.188 655.904 69.42C655.064 68.652 653.948 68.268 652.556 68.268ZM672.698 84L677.126 58.8H680.15L675.722 84H672.698ZM683.728 63.912L684.556 56.82H687.436L685.816 63.912H683.728ZM686.545 84L689.677 66.144H692.377L692.125 69.06C692.821 68.028 693.685 67.212 694.717 66.612C695.749 66.012 696.865 65.712 698.065 65.712C699.385 65.712 700.525 66.012 701.485 66.612C702.445 67.212 703.105 68.124 703.465 69.348C704.233 68.22 705.205 67.332 706.381 66.684C707.581 66.036 708.805 65.712 710.053 65.712C711.373 65.712 712.501 66 713.437 66.576C714.397 67.128 715.081 67.992 715.489 69.168C715.921 70.32 715.969 71.784 715.633 73.56L713.797 84H710.773L712.537 73.884C712.873 72.036 712.741 70.644 712.141 69.708C711.565 68.772 710.629 68.304 709.333 68.304C708.061 68.304 706.873 68.808 705.769 69.816C704.665 70.8 703.885 72.228 703.429 74.1L701.665 84H698.677L700.441 73.884C700.753 72.036 700.609 70.644 700.009 69.708C699.433 68.772 698.497 68.304 697.201 68.304C695.881 68.304 694.633 68.868 693.457 69.996C692.305 71.1 691.549 72.684 691.189 74.748L689.569 84H686.545ZM736.546 78.384C735.49 78.384 734.554 78.24 733.738 77.952L731.974 79.32C732.502 79.656 733.102 79.92 733.774 80.112C734.446 80.304 735.43 80.448 736.726 80.544C738.406 80.664 739.714 80.964 740.65 81.444C741.61 81.924 742.282 82.524 742.666 83.244C743.05 83.94 743.242 84.672 743.242 85.44C743.242 86.76 742.858 87.936 742.09 88.968C741.322 90.024 740.254 90.852 738.886 91.452C737.518 92.052 735.946 92.352 734.17 92.352C731.986 92.352 730.21 91.908 728.842 91.02C727.474 90.156 726.79 88.908 726.79 87.276C726.79 86.148 727.102 85.116 727.726 84.18C728.326 83.268 729.214 82.452 730.39 81.732C729.55 81.348 728.866 80.868 728.338 80.292L728.482 79.428L731.83 76.764C730.894 75.852 730.426 74.676 730.426 73.236C730.426 71.82 730.798 70.548 731.542 69.42C732.286 68.268 733.282 67.368 734.53 66.72C735.802 66.048 737.218 65.712 738.778 65.712C739.81 65.712 740.722 65.856 741.514 66.144H748.102L747.67 68.376L744.322 68.52C744.658 69.216 744.826 69.996 744.826 70.86C744.826 72.276 744.454 73.56 743.71 74.712C742.99 75.84 742.006 76.74 740.758 77.412C739.51 78.06 738.106 78.384 736.546 78.384ZM736.978 75.9C738.442 75.9 739.63 75.468 740.542 74.604C741.478 73.716 741.946 72.576 741.946 71.184C741.946 70.248 741.622 69.516 740.974 68.988C740.326 68.46 739.45 68.196 738.346 68.196C736.882 68.196 735.682 68.64 734.746 69.528C733.834 70.392 733.378 71.52 733.378 72.912C733.378 73.872 733.69 74.616 734.314 75.144C734.962 75.648 735.85 75.9 736.978 75.9ZM729.85 86.7C729.85 87.684 730.27 88.452 731.11 89.004C731.95 89.58 733.114 89.868 734.602 89.868C736.234 89.868 737.578 89.496 738.634 88.752C739.69 88.008 740.218 87 740.218 85.728C740.218 85.056 739.954 84.468 739.426 83.964C738.898 83.436 737.854 83.112 736.294 82.992C734.998 82.92 733.846 82.764 732.838 82.524C730.846 83.628 729.85 85.02 729.85 86.7ZM756.067 84.432C754.579 84.432 753.259 84.096 752.107 83.424C750.955 82.752 750.055 81.828 749.407 80.652C748.759 79.476 748.435 78.144 748.435 76.656C748.435 75.072 748.711 73.62 749.263 72.3C749.815 70.98 750.571 69.828 751.531 68.844C752.491 67.86 753.607 67.092 754.879 66.54C756.151 65.988 757.531 65.712 759.019 65.712C760.507 65.712 761.827 66.036 762.979 66.684C764.131 67.332 765.031 68.232 765.679 69.384C766.327 70.536 766.651 71.868 766.651 73.38C766.651 74.94 766.375 76.392 765.823 77.736C765.295 79.08 764.539 80.256 763.555 81.264C762.595 82.248 761.479 83.028 760.207 83.604C758.935 84.156 757.555 84.432 756.067 84.432ZM756.463 81.84C757.807 81.84 759.007 81.48 760.063 80.76C761.143 80.04 761.995 79.056 762.619 77.808C763.243 76.56 763.555 75.156 763.555 73.596C763.555 71.916 763.063 70.62 762.079 69.708C761.119 68.772 759.967 68.304 758.623 68.304C757.303 68.304 756.115 68.664 755.059 69.384C754.003 70.104 753.163 71.088 752.539 72.336C751.915 73.584 751.603 74.988 751.603 76.548C751.603 77.676 751.819 78.636 752.251 79.428C752.707 80.196 753.307 80.796 754.051 81.228C754.795 81.636 755.599 81.84 756.463 81.84ZM775.211 62.184C774.611 62.184 774.107 61.992 773.699 61.608C773.315 61.224 773.123 60.732 773.123 60.132C773.123 59.532 773.315 59.04 773.699 58.656C774.107 58.272 774.611 58.08 775.211 58.08C775.787 58.08 776.279 58.272 776.687 58.656C777.095 59.04 777.299 59.532 777.299 60.132C777.299 60.732 777.095 61.224 776.687 61.608C776.279 61.992 775.787 62.184 775.211 62.184ZM769.487 84L772.619 66.144H775.643L772.511 84H769.487ZM777.846 84L780.978 66.144H783.714L783.354 69.384C784.122 68.232 785.106 67.332 786.306 66.684C787.506 66.036 788.79 65.712 790.158 65.712C791.934 65.712 793.338 66.216 794.37 67.224C795.402 68.208 795.918 69.624 795.918 71.472C795.918 71.808 795.894 72.156 795.846 72.516C795.822 72.852 795.774 73.2 795.702 73.56L793.866 84H790.842L792.606 73.884C792.654 73.572 792.69 73.272 792.714 72.984C792.762 72.696 792.786 72.42 792.786 72.156C792.786 69.588 791.526 68.304 789.006 68.304C787.494 68.304 786.138 68.832 784.938 69.888C783.762 70.944 782.97 72.456 782.562 74.424L780.87 84H777.846ZM806.331 78.384C805.275 78.384 804.339 78.24 803.523 77.952L801.759 79.32C802.287 79.656 802.887 79.92 803.559 80.112C804.231 80.304 805.215 80.448 806.511 80.544C808.191 80.664 809.499 80.964 810.435 81.444C811.395 81.924 812.067 82.524 812.451 83.244C812.835 83.94 813.027 84.672 813.027 85.44C813.027 86.76 812.643 87.936 811.875 88.968C811.107 90.024 810.039 90.852 808.671 91.452C807.303 92.052 805.731 92.352 803.955 92.352C801.771 92.352 799.995 91.908 798.627 91.02C797.259 90.156 796.575 88.908 796.575 87.276C796.575 86.148 796.887 85.116 797.511 84.18C798.111 83.268 798.999 82.452 800.175 81.732C799.335 81.348 798.651 80.868 798.123 80.292L798.267 79.428L801.615 76.764C800.679 75.852 800.211 74.676 800.211 73.236C800.211 71.82 800.583 70.548 801.327 69.42C802.071 68.268 803.067 67.368 804.315 66.72C805.587 66.048 807.003 65.712 808.563 65.712C809.595 65.712 810.507 65.856 811.299 66.144H817.887L817.455 68.376L814.107 68.52C814.443 69.216 814.611 69.996 814.611 70.86C814.611 72.276 814.239 73.56 813.495 74.712C812.775 75.84 811.791 76.74 810.543 77.412C809.295 78.06 807.891 78.384 806.331 78.384ZM806.763 75.9C808.227 75.9 809.415 75.468 810.327 74.604C811.263 73.716 811.731 72.576 811.731 71.184C811.731 70.248 811.407 69.516 810.759 68.988C810.111 68.46 809.235 68.196 808.131 68.196C806.667 68.196 805.467 68.64 804.531 69.528C803.619 70.392 803.163 71.52 803.163 72.912C803.163 73.872 803.475 74.616 804.099 75.144C804.747 75.648 805.635 75.9 806.763 75.9ZM799.635 86.7C799.635 87.684 800.055 88.452 800.895 89.004C801.735 89.58 802.899 89.868 804.387 89.868C806.019 89.868 807.363 89.496 808.419 88.752C809.475 88.008 810.003 87 810.003 85.728C810.003 85.056 809.739 84.468 809.211 83.964C808.683 83.436 807.639 83.112 806.079 82.992C804.783 82.92 803.631 82.764 802.623 82.524C800.631 83.628 799.635 85.02 799.635 86.7ZM835.021 84C833.533 84 832.381 83.712 831.565 83.136C830.749 82.536 830.341 81.528 830.341 80.112C830.341 79.872 830.353 79.62 830.377 79.356C830.401 79.068 830.437 78.768 830.485 78.456L832.213 68.7H829.441L829.909 66.144H832.681L833.833 61.86H836.497L835.705 66.144H840.997L840.529 68.7H835.273L833.509 78.456C833.461 78.84 833.437 79.176 833.437 79.464C833.437 80.208 833.629 80.724 834.013 81.012C834.421 81.276 835.069 81.408 835.957 81.408H838.297L837.829 84H835.021ZM849.477 84.432C847.989 84.432 846.669 84.096 845.517 83.424C844.365 82.752 843.465 81.828 842.817 80.652C842.169 79.476 841.845 78.144 841.845 76.656C841.845 75.072 842.121 73.62 842.673 72.3C843.225 70.98 843.981 69.828 844.941 68.844C845.901 67.86 847.017 67.092 848.289 66.54C849.561 65.988 850.941 65.712 852.429 65.712C853.917 65.712 855.237 66.036 856.389 66.684C857.541 67.332 858.441 68.232 859.089 69.384C859.737 70.536 860.061 71.868 860.061 73.38C860.061 74.94 859.785 76.392 859.233 77.736C858.705 79.08 857.949 80.256 856.965 81.264C856.005 82.248 854.889 83.028 853.617 83.604C852.345 84.156 850.965 84.432 849.477 84.432ZM849.873 81.84C851.217 81.84 852.417 81.48 853.473 80.76C854.553 80.04 855.405 79.056 856.029 77.808C856.653 76.56 856.965 75.156 856.965 73.596C856.965 71.916 856.473 70.62 855.489 69.708C854.529 68.772 853.377 68.304 852.033 68.304C850.713 68.304 849.525 68.664 848.469 69.384C847.413 70.104 846.573 71.088 845.949 72.336C845.325 73.584 845.013 74.988 845.013 76.548C845.013 77.676 845.229 78.636 845.661 79.428C846.117 80.196 846.717 80.796 847.461 81.228C848.205 81.636 849.009 81.84 849.873 81.84ZM56.812 131.432C54.58 131.432 52.84 130.868 51.592 129.74C50.344 128.588 49.804 127.04 49.972 125.096H53.032C52.984 126.104 53.284 126.992 53.932 127.76C54.58 128.504 55.684 128.876 57.244 128.876C58.516 128.876 59.536 128.6 60.304 128.048C61.072 127.472 61.456 126.68 61.456 125.672C61.456 124.88 61.096 124.304 60.376 123.944C59.68 123.584 58.744 123.284 57.568 123.044C56.68 122.852 55.816 122.588 54.976 122.252C54.136 121.892 53.428 121.4 52.852 120.776C52.3 120.152 52.024 119.36 52.024 118.4C52.024 117.32 52.336 116.36 52.96 115.52C53.584 114.656 54.436 113.972 55.516 113.468C56.62 112.964 57.868 112.712 59.26 112.712C61.156 112.712 62.668 113.192 63.796 114.152C64.948 115.088 65.476 116.432 65.38 118.184H62.356C62.404 117.296 62.116 116.588 61.492 116.06C60.892 115.532 60.04 115.268 58.936 115.268C57.832 115.268 56.92 115.532 56.2 116.06C55.504 116.564 55.156 117.188 55.156 117.932C55.156 118.652 55.492 119.192 56.164 119.552C56.86 119.912 57.784 120.224 58.936 120.488C59.92 120.704 60.844 120.992 61.708 121.352C62.572 121.712 63.268 122.204 63.796 122.828C64.348 123.452 64.624 124.268 64.624 125.276C64.624 126.524 64.288 127.616 63.616 128.552C62.944 129.464 62.02 130.172 60.844 130.676C59.668 131.18 58.324 131.432 56.812 131.432ZM74.1691 131C72.6811 131 71.5291 130.712 70.7131 130.136C69.8971 129.536 69.4891 128.528 69.4891 127.112C69.4891 126.872 69.5011 126.62 69.5251 126.356C69.5491 126.068 69.5851 125.768 69.6331 125.456L71.3611 115.7H68.5891L69.0571 113.144H71.8291L72.9811 108.86H75.6451L74.8531 113.144H80.1451L79.6771 115.7H74.4211L72.6571 125.456C72.6091 125.84 72.5851 126.176 72.5851 126.464C72.5851 127.208 72.7771 127.724 73.1611 128.012C73.5691 128.276 74.2171 128.408 75.1051 128.408H77.4451L76.9771 131H74.1691ZM86.8093 131.432C85.4653 131.432 84.3733 131.216 83.5333 130.784C82.6933 130.328 82.0693 129.74 81.6613 129.02C81.2533 128.276 81.0493 127.484 81.0493 126.644C81.0493 125.324 81.4213 124.184 82.1653 123.224C82.9093 122.264 83.9413 121.532 85.2613 121.028C86.6053 120.5 88.1653 120.236 89.9413 120.236H94.7293L94.7653 120.02C94.8373 119.612 94.8733 119.204 94.8733 118.796C94.8733 117.644 94.5373 116.768 93.8653 116.168C93.2173 115.568 92.3053 115.268 91.1293 115.268C89.9773 115.268 88.9093 115.568 87.9253 116.168C86.9413 116.744 86.2573 117.596 85.8733 118.724H82.7413C83.1253 117.428 83.7493 116.336 84.6133 115.448C85.5013 114.56 86.5453 113.888 87.7453 113.432C88.9453 112.952 90.2053 112.712 91.5253 112.712C93.6613 112.712 95.2573 113.216 96.3133 114.224C97.3933 115.232 97.9333 116.6 97.9333 118.328C97.9333 118.592 97.9213 118.868 97.8973 119.156C97.8733 119.444 97.8373 119.732 97.7893 120.02L95.8813 131H93.1453L93.5053 127.832C92.8333 128.84 91.9453 129.692 90.8413 130.388C89.7613 131.084 88.4173 131.432 86.8093 131.432ZM87.7093 128.876C88.8613 128.876 89.8933 128.576 90.8053 127.976C91.7413 127.376 92.5093 126.596 93.1093 125.636C93.7093 124.676 94.1053 123.668 94.2973 122.612V122.576H89.7613C88.0573 122.576 86.7133 122.912 85.7293 123.584C84.7693 124.232 84.2893 125.132 84.2893 126.284C84.2893 127.1 84.5773 127.736 85.1533 128.192C85.7533 128.648 86.6053 128.876 87.7093 128.876ZM100.011 138.92L106.095 129.272H105.087L100.803 113.144H104.007L107.571 127.04L116.247 113.144H119.415L103.179 138.92H100.011ZM135.789 109.184C135.189 109.184 134.685 108.992 134.277 108.608C133.893 108.224 133.701 107.732 133.701 107.132C133.701 106.532 133.893 106.04 134.277 105.656C134.685 105.272 135.189 105.08 135.789 105.08C136.365 105.08 136.857 105.272 137.265 105.656C137.673 106.04 137.877 106.532 137.877 107.132C137.877 107.732 137.673 108.224 137.265 108.608C136.857 108.992 136.365 109.184 135.789 109.184ZM130.065 131L133.197 113.144H136.221L133.089 131H130.065ZM145.3 131.432C143.068 131.432 141.328 130.868 140.08 129.74C138.832 128.588 138.292 127.04 138.46 125.096H141.52C141.472 126.104 141.772 126.992 142.42 127.76C143.068 128.504 144.172 128.876 145.732 128.876C147.004 128.876 148.024 128.6 148.792 128.048C149.56 127.472 149.944 126.68 149.944 125.672C149.944 124.88 149.584 124.304 148.864 123.944C148.168 123.584 147.232 123.284 146.056 123.044C145.168 122.852 144.304 122.588 143.464 122.252C142.624 121.892 141.916 121.4 141.34 120.776C140.788 120.152 140.512 119.36 140.512 118.4C140.512 117.32 140.824 116.36 141.448 115.52C142.072 114.656 142.924 113.972 144.004 113.468C145.108 112.964 146.356 112.712 147.748 112.712C149.644 112.712 151.156 113.192 152.284 114.152C153.436 115.088 153.964 116.432 153.868 118.184H150.844C150.892 117.296 150.604 116.588 149.98 116.06C149.38 115.532 148.528 115.268 147.424 115.268C146.32 115.268 145.408 115.532 144.688 116.06C143.992 116.564 143.644 117.188 143.644 117.932C143.644 118.652 143.98 119.192 144.652 119.552C145.348 119.912 146.272 120.224 147.424 120.488C148.408 120.704 149.332 120.992 150.196 121.352C151.06 121.712 151.756 122.204 152.284 122.828C152.836 123.452 153.112 124.268 153.112 125.276C153.112 126.524 152.776 127.616 152.104 128.552C151.432 129.464 150.508 130.172 149.332 130.676C148.156 131.18 146.812 131.432 145.3 131.432ZM167.217 131L170.349 113.144H173.121L172.797 116.312C173.565 115.208 174.573 114.332 175.821 113.684C177.093 113.036 178.533 112.712 180.141 112.712L179.601 115.88H178.773C177.693 115.88 176.673 116.048 175.713 116.384C174.777 116.72 173.973 117.296 173.301 118.112C172.629 118.904 172.173 119.996 171.933 121.388L170.241 131H167.217ZM187.758 131.432C185.55 131.432 183.774 130.748 182.43 129.38C181.11 128.012 180.45 126.176 180.45 123.872C180.45 121.808 180.906 119.936 181.818 118.256C182.73 116.552 183.978 115.208 185.562 114.224C187.17 113.216 188.994 112.712 191.034 112.712C192.594 112.712 193.902 113.024 194.958 113.648C196.038 114.248 196.842 115.064 197.37 116.096C197.922 117.128 198.198 118.268 198.198 119.516C198.198 119.996 198.138 120.548 198.018 121.172C197.922 121.772 197.826 122.3 197.73 122.756H183.474C183.426 123.164 183.402 123.524 183.402 123.836C183.402 125.54 183.882 126.812 184.842 127.652C185.802 128.468 186.93 128.876 188.226 128.876C189.474 128.876 190.566 128.588 191.502 128.012C192.462 127.412 193.206 126.632 193.734 125.672H196.722C195.978 127.328 194.826 128.708 193.266 129.812C191.706 130.892 189.87 131.432 187.758 131.432ZM190.638 115.268C189.198 115.268 187.842 115.712 186.57 116.6C185.298 117.464 184.422 118.736 183.942 120.416H195.174C195.198 120.272 195.21 120.14 195.21 120.02C195.234 119.876 195.246 119.744 195.246 119.624C195.246 118.256 194.826 117.188 193.986 116.42C193.146 115.652 192.03 115.268 190.638 115.268ZM206.059 131.432C204.715 131.432 203.623 131.216 202.783 130.784C201.943 130.328 201.319 129.74 200.911 129.02C200.503 128.276 200.299 127.484 200.299 126.644C200.299 125.324 200.671 124.184 201.415 123.224C202.159 122.264 203.191 121.532 204.511 121.028C205.855 120.5 207.415 120.236 209.191 120.236H213.979L214.015 120.02C214.087 119.612 214.123 119.204 214.123 118.796C214.123 117.644 213.787 116.768 213.115 116.168C212.467 115.568 211.555 115.268 210.379 115.268C209.227 115.268 208.159 115.568 207.175 116.168C206.191 116.744 205.507 117.596 205.123 118.724H201.991C202.375 117.428 202.999 116.336 203.863 115.448C204.751 114.56 205.795 113.888 206.995 113.432C208.195 112.952 209.455 112.712 210.775 112.712C212.911 112.712 214.507 113.216 215.563 114.224C216.643 115.232 217.183 116.6 217.183 118.328C217.183 118.592 217.171 118.868 217.147 119.156C217.123 119.444 217.087 119.732 217.039 120.02L215.131 131H212.395L212.755 127.832C212.083 128.84 211.195 129.692 210.091 130.388C209.011 131.084 207.667 131.432 206.059 131.432ZM206.959 128.876C208.111 128.876 209.143 128.576 210.055 127.976C210.991 127.376 211.759 126.596 212.359 125.636C212.959 124.676 213.355 123.668 213.547 122.612V122.576H209.011C207.307 122.576 205.963 122.912 204.979 123.584C204.019 124.232 203.539 125.132 203.539 126.284C203.539 127.1 203.827 127.736 204.403 128.192C205.003 128.648 205.855 128.876 206.959 128.876ZM219.67 131L224.278 105.08H227.302L222.694 131H219.67ZM227.685 131L232.293 105.08H235.317L230.709 131H227.685ZM236.277 138.92L242.361 129.272H241.353L237.069 113.144H240.273L243.837 127.04L252.513 113.144H255.681L239.445 138.92H236.277ZM278.93 138.92L280.802 128.048C280.106 128.912 279.206 129.692 278.102 130.388C276.998 131.084 275.618 131.432 273.962 131.432C272.426 131.432 271.106 131.084 270.002 130.388C268.922 129.668 268.094 128.708 267.518 127.508C266.942 126.308 266.654 124.988 266.654 123.548C266.654 121.436 267.098 119.576 267.986 117.968C268.898 116.336 270.122 115.052 271.658 114.116C273.194 113.18 274.91 112.712 276.806 112.712C278.39 112.712 279.686 113.024 280.694 113.648C281.702 114.272 282.446 115.1 282.926 116.132L283.754 113.144H286.49L281.954 138.92H278.93ZM274.826 128.804C276.194 128.804 277.406 128.432 278.462 127.688C279.542 126.944 280.382 125.948 280.982 124.7C281.606 123.428 281.918 122.036 281.918 120.524C281.918 118.964 281.474 117.716 280.586 116.78C279.698 115.82 278.474 115.34 276.914 115.34C275.546 115.34 274.322 115.688 273.242 116.384C272.162 117.08 271.31 118.028 270.686 119.228C270.086 120.404 269.786 121.748 269.786 123.26C269.786 124.844 270.23 126.164 271.118 127.22C272.03 128.276 273.266 128.804 274.826 128.804ZM294.81 131.432C293.01 131.432 291.594 130.94 290.562 129.956C289.554 128.948 289.05 127.52 289.05 125.672C289.05 125.336 289.062 125 289.086 124.664C289.11 124.304 289.158 123.944 289.23 123.584L291.102 113.144H294.126L292.326 123.26C292.278 123.572 292.23 123.872 292.182 124.16C292.158 124.448 292.146 124.724 292.146 124.988C292.146 127.556 293.406 128.84 295.926 128.84C297.438 128.84 298.794 128.312 299.994 127.256C301.194 126.2 301.998 124.688 302.406 122.72L304.098 113.144H307.122L303.99 131H301.254L301.614 127.76C300.846 128.912 299.862 129.812 298.662 130.46C297.462 131.108 296.178 131.432 294.81 131.432ZM315.05 109.184C314.45 109.184 313.946 108.992 313.538 108.608C313.154 108.224 312.962 107.732 312.962 107.132C312.962 106.532 313.154 106.04 313.538 105.656C313.946 105.272 314.45 105.08 315.05 105.08C315.626 105.08 316.118 105.272 316.526 105.656C316.934 106.04 317.138 106.532 317.138 107.132C317.138 107.732 316.934 108.224 316.526 108.608C316.118 108.992 315.626 109.184 315.05 109.184ZM309.326 131L312.458 113.144H315.482L312.35 131H309.326ZM325.606 131.432C323.398 131.432 321.622 130.748 320.278 129.38C318.958 128.012 318.298 126.176 318.298 123.872C318.298 121.808 318.754 119.936 319.666 118.256C320.578 116.552 321.826 115.208 323.41 114.224C325.018 113.216 326.842 112.712 328.882 112.712C330.442 112.712 331.75 113.024 332.806 113.648C333.886 114.248 334.69 115.064 335.218 116.096C335.77 117.128 336.046 118.268 336.046 119.516C336.046 119.996 335.986 120.548 335.866 121.172C335.77 121.772 335.674 122.3 335.578 122.756H321.322C321.274 123.164 321.25 123.524 321.25 123.836C321.25 125.54 321.73 126.812 322.69 127.652C323.65 128.468 324.778 128.876 326.074 128.876C327.322 128.876 328.414 128.588 329.35 128.012C330.31 127.412 331.054 126.632 331.582 125.672H334.57C333.826 127.328 332.674 128.708 331.114 129.812C329.554 130.892 327.718 131.432 325.606 131.432ZM328.486 115.268C327.046 115.268 325.69 115.712 324.418 116.6C323.146 117.464 322.27 118.736 321.79 120.416H333.022C333.046 120.272 333.058 120.14 333.058 120.02C333.082 119.876 333.094 119.744 333.094 119.624C333.094 118.256 332.674 117.188 331.834 116.42C330.994 115.652 329.878 115.268 328.486 115.268ZM344.591 131C343.103 131 341.951 130.712 341.135 130.136C340.319 129.536 339.911 128.528 339.911 127.112C339.911 126.872 339.923 126.62 339.947 126.356C339.971 126.068 340.007 125.768 340.055 125.456L341.783 115.7H339.011L339.479 113.144H342.251L343.403 108.86H346.067L345.275 113.144H350.567L350.099 115.7H344.843L343.079 125.456C343.031 125.84 343.007 126.176 343.007 126.464C343.007 127.208 343.199 127.724 343.583 128.012C343.991 128.276 344.639 128.408 345.527 128.408H347.867L347.399 131H344.591ZM370.016 131.432C368.528 131.432 367.208 131.096 366.056 130.424C364.904 129.752 364.004 128.828 363.356 127.652C362.708 126.476 362.384 125.144 362.384 123.656C362.384 122.072 362.66 120.62 363.212 119.3C363.764 117.98 364.52 116.828 365.48 115.844C366.44 114.86 367.556 114.092 368.828 113.54C370.1 112.988 371.48 112.712 372.968 112.712C374.456 112.712 375.776 113.036 376.928 113.684C378.08 114.332 378.98 115.232 379.628 116.384C380.276 117.536 380.6 118.868 380.6 120.38C380.6 121.94 380.324 123.392 379.772 124.736C379.244 126.08 378.488 127.256 377.504 128.264C376.544 129.248 375.428 130.028 374.156 130.604C372.884 131.156 371.504 131.432 370.016 131.432ZM370.412 128.84C371.756 128.84 372.956 128.48 374.012 127.76C375.092 127.04 375.944 126.056 376.568 124.808C377.192 123.56 377.504 122.156 377.504 120.596C377.504 118.916 377.012 117.62 376.028 116.708C375.068 115.772 373.916 115.304 372.572 115.304C371.252 115.304 370.064 115.664 369.008 116.384C367.952 117.104 367.112 118.088 366.488 119.336C365.864 120.584 365.552 121.988 365.552 123.548C365.552 124.676 365.768 125.636 366.2 126.428C366.656 127.196 367.256 127.796 368 128.228C368.744 128.636 369.548 128.84 370.412 128.84ZM383.112 131L386.244 113.144H389.016L388.692 116.312C389.46 115.208 390.468 114.332 391.716 113.684C392.988 113.036 394.428 112.712 396.036 112.712L395.496 115.88H394.668C393.588 115.88 392.568 116.048 391.608 116.384C390.672 116.72 389.868 117.296 389.196 118.112C388.524 118.904 388.068 119.996 387.828 121.388L386.136 131H383.112ZM406.702 131L409.834 113.144H412.57L412.21 116.384C412.978 115.232 413.962 114.332 415.162 113.684C416.362 113.036 417.646 112.712 419.014 112.712C420.79 112.712 422.194 113.216 423.226 114.224C424.258 115.208 424.774 116.624 424.774 118.472C424.774 118.808 424.75 119.156 424.702 119.516C424.678 119.852 424.63 120.2 424.558 120.56L422.722 131H419.698L421.462 120.884C421.51 120.572 421.546 120.272 421.57 119.984C421.618 119.696 421.642 119.42 421.642 119.156C421.642 116.588 420.382 115.304 417.862 115.304C416.35 115.304 414.994 115.832 413.794 116.888C412.618 117.944 411.826 119.456 411.418 121.424L409.726 131H406.702ZM435.582 131.432C434.094 131.432 432.774 131.096 431.622 130.424C430.47 129.752 429.57 128.828 428.922 127.652C428.274 126.476 427.95 125.144 427.95 123.656C427.95 122.072 428.226 120.62 428.778 119.3C429.33 117.98 430.086 116.828 431.046 115.844C432.006 114.86 433.122 114.092 434.394 113.54C435.666 112.988 437.046 112.712 438.534 112.712C440.022 112.712 441.342 113.036 442.494 113.684C443.646 114.332 444.546 115.232 445.194 116.384C445.842 117.536 446.166 118.868 446.166 120.38C446.166 121.94 445.89 123.392 445.338 124.736C444.81 126.08 444.054 127.256 443.07 128.264C442.11 129.248 440.994 130.028 439.722 130.604C438.45 131.156 437.07 131.432 435.582 131.432ZM435.978 128.84C437.322 128.84 438.522 128.48 439.578 127.76C440.658 127.04 441.51 126.056 442.134 124.808C442.758 123.56 443.07 122.156 443.07 120.596C443.07 118.916 442.578 117.62 441.594 116.708C440.634 115.772 439.482 115.304 438.138 115.304C436.818 115.304 435.63 115.664 434.574 116.384C433.518 117.104 432.678 118.088 432.054 119.336C431.43 120.584 431.118 121.988 431.118 123.548C431.118 124.676 431.334 125.636 431.766 126.428C432.222 127.196 432.822 127.796 433.566 128.228C434.31 128.636 435.114 128.84 435.978 128.84ZM454.419 131C452.931 131 451.779 130.712 450.963 130.136C450.147 129.536 449.739 128.528 449.739 127.112C449.739 126.872 449.751 126.62 449.775 126.356C449.799 126.068 449.835 125.768 449.883 125.456L451.611 115.7H448.839L449.307 113.144H452.079L453.231 108.86H455.895L455.103 113.144H460.395L459.927 115.7H454.671L452.907 125.456C452.859 125.84 452.835 126.176 452.835 126.464C452.835 127.208 453.027 127.724 453.411 128.012C453.819 128.276 454.467 128.408 455.355 128.408H457.695L457.227 131H454.419ZM459.923 135.284L463.415 127.328H466.547L462.011 135.284H459.923ZM483.318 131L481.194 113.144H484.254L485.55 127.148L492.21 113.144H495.63L497.322 127.148L503.586 113.144H506.61L498.258 131H495.162L493.362 116.276L486.378 131H483.318ZM506.686 131L511.222 105.08H514.246L512.302 116.204C513.07 115.124 514.042 114.272 515.218 113.648C516.418 113.024 517.678 112.712 518.998 112.712C521.086 112.712 522.646 113.36 523.678 114.656C524.734 115.928 525.022 117.896 524.542 120.56L522.706 131H519.682L521.446 120.884C522.094 117.164 520.894 115.304 517.846 115.304C516.31 115.304 514.93 115.868 513.706 116.996C512.482 118.1 511.69 119.684 511.33 121.748L509.71 131H506.686ZM535.243 131.432C533.035 131.432 531.259 130.748 529.915 129.38C528.595 128.012 527.935 126.176 527.935 123.872C527.935 121.808 528.391 119.936 529.303 118.256C530.215 116.552 531.463 115.208 533.047 114.224C534.655 113.216 536.479 112.712 538.519 112.712C540.079 112.712 541.387 113.024 542.443 113.648C543.523 114.248 544.327 115.064 544.855 116.096C545.407 117.128 545.683 118.268 545.683 119.516C545.683 119.996 545.623 120.548 545.503 121.172C545.407 121.772 545.311 122.3 545.215 122.756H530.959C530.911 123.164 530.887 123.524 530.887 123.836C530.887 125.54 531.367 126.812 532.327 127.652C533.287 128.468 534.415 128.876 535.711 128.876C536.959 128.876 538.051 128.588 538.987 128.012C539.947 127.412 540.691 126.632 541.219 125.672H544.207C543.463 127.328 542.311 128.708 540.751 129.812C539.191 130.892 537.355 131.432 535.243 131.432ZM538.123 115.268C536.683 115.268 535.327 115.712 534.055 116.6C532.783 117.464 531.907 118.736 531.427 120.416H542.659C542.683 120.272 542.695 120.14 542.695 120.02C542.719 119.876 542.731 119.744 542.731 119.624C542.731 118.256 542.311 117.188 541.471 116.42C540.631 115.652 539.515 115.268 538.123 115.268ZM554.228 131C552.74 131 551.588 130.712 550.772 130.136C549.956 129.536 549.548 128.528 549.548 127.112C549.548 126.872 549.56 126.62 549.584 126.356C549.608 126.068 549.644 125.768 549.692 125.456L551.42 115.7H548.648L549.116 113.144H551.888L553.04 108.86H555.704L554.912 113.144H560.204L559.736 115.7H554.48L552.716 125.456C552.668 125.84 552.644 126.176 552.644 126.464C552.644 127.208 552.836 127.724 553.22 128.012C553.628 128.276 554.276 128.408 555.164 128.408H557.504L557.036 131H554.228ZM561.108 131L565.644 105.08H568.668L566.724 116.204C567.492 115.124 568.464 114.272 569.64 113.648C570.84 113.024 572.1 112.712 573.42 112.712C575.508 112.712 577.068 113.36 578.1 114.656C579.156 115.928 579.444 117.896 578.964 120.56L577.128 131H574.104L575.868 120.884C576.516 117.164 575.316 115.304 572.268 115.304C570.732 115.304 569.352 115.868 568.128 116.996C566.904 118.1 566.112 119.684 565.752 121.748L564.132 131H561.108ZM589.665 131.432C587.457 131.432 585.681 130.748 584.337 129.38C583.017 128.012 582.357 126.176 582.357 123.872C582.357 121.808 582.813 119.936 583.725 118.256C584.637 116.552 585.885 115.208 587.469 114.224C589.077 113.216 590.901 112.712 592.941 112.712C594.501 112.712 595.809 113.024 596.865 113.648C597.945 114.248 598.749 115.064 599.277 116.096C599.829 117.128 600.105 118.268 600.105 119.516C600.105 119.996 600.045 120.548 599.925 121.172C599.829 121.772 599.733 122.3 599.637 122.756H585.381C585.333 123.164 585.309 123.524 585.309 123.836C585.309 125.54 585.789 126.812 586.749 127.652C587.709 128.468 588.837 128.876 590.133 128.876C591.381 128.876 592.473 128.588 593.409 128.012C594.369 127.412 595.113 126.632 595.641 125.672H598.629C597.885 127.328 596.733 128.708 595.173 129.812C593.613 130.892 591.777 131.432 589.665 131.432ZM592.545 115.268C591.105 115.268 589.749 115.712 588.477 116.6C587.205 117.464 586.329 118.736 585.849 120.416H597.081C597.105 120.272 597.117 120.14 597.117 120.02C597.141 119.876 597.153 119.744 597.153 119.624C597.153 118.256 596.733 117.188 595.893 116.42C595.053 115.652 593.937 115.268 592.545 115.268ZM602.206 131L605.338 113.144H608.11L607.786 116.312C608.554 115.208 609.562 114.332 610.81 113.684C612.082 113.036 613.522 112.712 615.13 112.712L614.59 115.88H613.762C612.682 115.88 611.662 116.048 610.702 116.384C609.766 116.72 608.962 117.296 608.29 118.112C607.618 118.904 607.162 119.996 606.922 121.388L605.23 131H602.206ZM632.239 131C630.751 131 629.599 130.712 628.783 130.136C627.967 129.536 627.559 128.528 627.559 127.112C627.559 126.872 627.571 126.62 627.595 126.356C627.619 126.068 627.655 125.768 627.703 125.456L629.431 115.7H626.659L627.127 113.144H629.899L631.051 108.86H633.715L632.923 113.144H638.215L637.747 115.7H632.491L630.727 125.456C630.679 125.84 630.655 126.176 630.655 126.464C630.655 127.208 630.847 127.724 631.231 128.012C631.639 128.276 632.287 128.408 633.175 128.408H635.515L635.047 131H632.239ZM639.12 131L643.656 105.08H646.68L644.736 116.204C645.504 115.124 646.476 114.272 647.652 113.648C648.852 113.024 650.112 112.712 651.432 112.712C653.52 112.712 655.08 113.36 656.112 114.656C657.168 115.928 657.456 117.896 656.976 120.56L655.14 131H652.116L653.88 120.884C654.528 117.164 653.328 115.304 650.28 115.304C648.744 115.304 647.364 115.868 646.14 116.996C644.916 118.1 644.124 119.684 643.764 121.748L642.144 131H639.12ZM667.676 131.432C665.468 131.432 663.692 130.748 662.348 129.38C661.028 128.012 660.368 126.176 660.368 123.872C660.368 121.808 660.824 119.936 661.736 118.256C662.648 116.552 663.896 115.208 665.48 114.224C667.088 113.216 668.912 112.712 670.952 112.712C672.512 112.712 673.82 113.024 674.876 113.648C675.956 114.248 676.76 115.064 677.288 116.096C677.84 117.128 678.116 118.268 678.116 119.516C678.116 119.996 678.056 120.548 677.936 121.172C677.84 121.772 677.744 122.3 677.648 122.756H663.392C663.344 123.164 663.32 123.524 663.32 123.836C663.32 125.54 663.8 126.812 664.76 127.652C665.72 128.468 666.848 128.876 668.144 128.876C669.392 128.876 670.484 128.588 671.42 128.012C672.38 127.412 673.124 126.632 673.652 125.672H676.64C675.896 127.328 674.744 128.708 673.184 129.812C671.624 130.892 669.788 131.432 667.676 131.432ZM670.556 115.268C669.116 115.268 667.76 115.712 666.488 116.6C665.216 117.464 664.34 118.736 663.86 120.416H675.092C675.116 120.272 675.128 120.14 675.128 120.02C675.152 119.876 675.164 119.744 675.164 119.624C675.164 118.256 674.744 117.188 673.904 116.42C673.064 115.652 671.948 115.268 670.556 115.268ZM680.217 131L683.349 113.144H686.121L685.797 116.312C686.565 115.208 687.573 114.332 688.821 113.684C690.093 113.036 691.533 112.712 693.141 112.712L692.601 115.88H691.773C690.693 115.88 689.673 116.048 688.713 116.384C687.777 116.72 686.973 117.296 686.301 118.112C685.629 118.904 685.173 119.996 684.933 121.388L683.241 131H680.217ZM700.758 131.432C698.55 131.432 696.774 130.748 695.43 129.38C694.11 128.012 693.45 126.176 693.45 123.872C693.45 121.808 693.906 119.936 694.818 118.256C695.73 116.552 696.978 115.208 698.562 114.224C700.17 113.216 701.994 112.712 704.034 112.712C705.594 112.712 706.902 113.024 707.958 113.648C709.038 114.248 709.842 115.064 710.37 116.096C710.922 117.128 711.198 118.268 711.198 119.516C711.198 119.996 711.138 120.548 711.018 121.172C710.922 121.772 710.826 122.3 710.73 122.756H696.474C696.426 123.164 696.402 123.524 696.402 123.836C696.402 125.54 696.882 126.812 697.842 127.652C698.802 128.468 699.93 128.876 701.226 128.876C702.474 128.876 703.566 128.588 704.502 128.012C705.462 127.412 706.206 126.632 706.734 125.672H709.722C708.978 127.328 707.826 128.708 706.266 129.812C704.706 130.892 702.87 131.432 700.758 131.432ZM703.638 115.268C702.198 115.268 700.842 115.712 699.57 116.6C698.298 117.464 697.422 118.736 696.942 120.416H708.174C708.198 120.272 708.21 120.14 708.21 120.02C708.234 119.876 708.246 119.744 708.246 119.624C708.246 118.256 707.826 117.188 706.986 116.42C706.146 115.652 705.03 115.268 703.638 115.268ZM727.056 131L724.932 113.144H727.992L729.288 127.148L735.948 113.144H739.368L741.06 127.148L747.324 113.144H750.348L741.996 131H738.9L737.1 116.276L730.116 131H727.056ZM756.472 109.184C755.872 109.184 755.368 108.992 754.96 108.608C754.576 108.224 754.384 107.732 754.384 107.132C754.384 106.532 754.576 106.04 754.96 105.656C755.368 105.272 755.872 105.08 756.472 105.08C757.048 105.08 757.54 105.272 757.948 105.656C758.356 106.04 758.56 106.532 758.56 107.132C758.56 107.732 758.356 108.224 757.948 108.608C757.54 108.992 757.048 109.184 756.472 109.184ZM750.748 131L753.88 113.144H756.904L753.772 131H750.748ZM759.072 131L763.68 105.08H766.704L762.096 131H759.072ZM767.088 131L771.696 105.08H774.72L770.112 131H767.088ZM794.944 131.432C793.96 131.432 793.06 131.264 792.244 130.928C791.452 130.592 790.768 130.16 790.192 129.632C789.64 129.104 789.232 128.552 788.968 127.976L788.14 131H785.404L789.976 105.08H793L791.092 115.916C791.812 115.076 792.712 114.332 793.792 113.684C794.896 113.036 796.264 112.712 797.896 112.712C799.432 112.712 800.74 113.048 801.82 113.72C802.924 114.392 803.764 115.304 804.34 116.456C804.94 117.608 805.24 118.916 805.24 120.38C805.24 122.468 804.784 124.352 803.872 126.032C802.984 127.688 801.76 129.008 800.2 129.992C798.64 130.952 796.888 131.432 794.944 131.432ZM795.088 128.804C796.456 128.804 797.668 128.456 798.724 127.76C799.78 127.064 800.608 126.116 801.208 124.916C801.808 123.716 802.108 122.348 802.108 120.812C802.108 119.228 801.652 117.92 800.74 116.888C799.852 115.856 798.64 115.34 797.104 115.34C795.736 115.34 794.512 115.7 793.432 116.42C792.352 117.14 791.5 118.124 790.876 119.372C790.276 120.596 789.976 121.964 789.976 123.476C789.976 125.084 790.432 126.38 791.344 127.364C792.28 128.324 793.528 128.804 795.088 128.804ZM815.649 131.432C813.441 131.432 811.665 130.748 810.321 129.38C809.001 128.012 808.341 126.176 808.341 123.872C808.341 121.808 808.797 119.936 809.709 118.256C810.621 116.552 811.869 115.208 813.453 114.224C815.061 113.216 816.885 112.712 818.925 112.712C820.485 112.712 821.793 113.024 822.849 113.648C823.929 114.248 824.733 115.064 825.261 116.096C825.813 117.128 826.089 118.268 826.089 119.516C826.089 119.996 826.029 120.548 825.909 121.172C825.813 121.772 825.717 122.3 825.621 122.756H811.365C811.317 123.164 811.293 123.524 811.293 123.836C811.293 125.54 811.773 126.812 812.733 127.652C813.693 128.468 814.821 128.876 816.117 128.876C817.365 128.876 818.457 128.588 819.393 128.012C820.353 127.412 821.097 126.632 821.625 125.672H824.613C823.869 127.328 822.717 128.708 821.157 129.812C819.597 130.892 817.761 131.432 815.649 131.432ZM818.529 115.268C817.089 115.268 815.733 115.712 814.461 116.6C813.189 117.464 812.313 118.736 811.833 120.416H823.065C823.089 120.272 823.101 120.14 823.101 120.02C823.125 119.876 823.137 119.744 823.137 119.624C823.137 118.256 822.717 117.188 821.877 116.42C821.037 115.652 819.921 115.268 818.529 115.268ZM49.936 178L53.068 160.144H55.804L55.444 163.384C56.212 162.232 57.196 161.332 58.396 160.684C59.596 160.036 60.88 159.712 62.248 159.712C64.024 159.712 65.428 160.216 66.46 161.224C67.492 162.208 68.008 163.624 68.008 165.472C68.008 165.808 67.984 166.156 67.936 166.516C67.912 166.852 67.864 167.2 67.792 167.56L65.956 178H62.932L64.696 167.884C64.744 167.572 64.78 167.272 64.804 166.984C64.852 166.696 64.876 166.42 64.876 166.156C64.876 163.588 63.616 162.304 61.096 162.304C59.584 162.304 58.228 162.832 57.028 163.888C55.852 164.944 55.06 166.456 54.652 168.424L52.96 178H49.936ZM78.8167 178.432C77.3287 178.432 76.0087 178.096 74.8567 177.424C73.7047 176.752 72.8047 175.828 72.1567 174.652C71.5087 173.476 71.1847 172.144 71.1847 170.656C71.1847 169.072 71.4607 167.62 72.0127 166.3C72.5647 164.98 73.3207 163.828 74.2807 162.844C75.2407 161.86 76.3567 161.092 77.6287 160.54C78.9007 159.988 80.2807 159.712 81.7687 159.712C83.2567 159.712 84.5767 160.036 85.7287 160.684C86.8807 161.332 87.7807 162.232 88.4287 163.384C89.0767 164.536 89.4007 165.868 89.4007 167.38C89.4007 168.94 89.1247 170.392 88.5727 171.736C88.0447 173.08 87.2887 174.256 86.3047 175.264C85.3447 176.248 84.2287 177.028 82.9567 177.604C81.6847 178.156 80.3047 178.432 78.8167 178.432ZM79.2127 175.84C80.5567 175.84 81.7567 175.48 82.8127 174.76C83.8927 174.04 84.7447 173.056 85.3687 171.808C85.9927 170.56 86.3047 169.156 86.3047 167.596C86.3047 165.916 85.8127 164.62 84.8287 163.708C83.8687 162.772 82.7167 162.304 81.3727 162.304C80.0527 162.304 78.8647 162.664 77.8087 163.384C76.7527 164.104 75.9127 165.088 75.2887 166.336C74.6647 167.584 74.3527 168.988 74.3527 170.548C74.3527 171.676 74.5687 172.636 75.0007 173.428C75.4567 174.196 76.0567 174.796 76.8007 175.228C77.5447 175.636 78.3487 175.84 79.2127 175.84ZM97.9606 156.184C97.3606 156.184 96.8566 155.992 96.4486 155.608C96.0646 155.224 95.8726 154.732 95.8726 154.132C95.8726 153.532 96.0646 153.04 96.4486 152.656C96.8566 152.272 97.3606 152.08 97.9606 152.08C98.5366 152.08 99.0286 152.272 99.4366 152.656C99.8446 153.04 100.049 153.532 100.049 154.132C100.049 154.732 99.8446 155.224 99.4366 155.608C99.0286 155.992 98.5366 156.184 97.9606 156.184ZM92.2366 178L95.3686 160.144H98.3926L95.2606 178H92.2366ZM107.472 178.432C105.24 178.432 103.5 177.868 102.252 176.74C101.004 175.588 100.464 174.04 100.632 172.096H103.692C103.644 173.104 103.944 173.992 104.592 174.76C105.24 175.504 106.344 175.876 107.904 175.876C109.176 175.876 110.196 175.6 110.964 175.048C111.732 174.472 112.116 173.68 112.116 172.672C112.116 171.88 111.756 171.304 111.036 170.944C110.34 170.584 109.404 170.284 108.228 170.044C107.34 169.852 106.476 169.588 105.636 169.252C104.796 168.892 104.088 168.4 103.512 167.776C102.96 167.152 102.684 166.36 102.684 165.4C102.684 164.32 102.996 163.36 103.62 162.52C104.244 161.656 105.096 160.972 106.176 160.468C107.28 159.964 108.528 159.712 109.92 159.712C111.816 159.712 113.328 160.192 114.456 161.152C115.608 162.088 116.136 163.432 116.04 165.184H113.016C113.064 164.296 112.776 163.588 112.152 163.06C111.552 162.532 110.7 162.268 109.596 162.268C108.492 162.268 107.58 162.532 106.86 163.06C106.164 163.564 105.816 164.188 105.816 164.932C105.816 165.652 106.152 166.192 106.824 166.552C107.52 166.912 108.444 167.224 109.596 167.488C110.58 167.704 111.504 167.992 112.368 168.352C113.232 168.712 113.928 169.204 114.456 169.828C115.008 170.452 115.284 171.268 115.284 172.276C115.284 173.524 114.948 174.616 114.276 175.552C113.604 176.464 112.68 177.172 111.504 177.676C110.328 178.18 108.984 178.432 107.472 178.432ZM125.989 178.432C123.781 178.432 122.005 177.748 120.661 176.38C119.341 175.012 118.681 173.176 118.681 170.872C118.681 168.808 119.137 166.936 120.049 165.256C120.961 163.552 122.209 162.208 123.793 161.224C125.401 160.216 127.225 159.712 129.265 159.712C130.825 159.712 132.133 160.024 133.189 160.648C134.269 161.248 135.073 162.064 135.601 163.096C136.153 164.128 136.429 165.268 136.429 166.516C136.429 166.996 136.369 167.548 136.249 168.172C136.153 168.772 136.057 169.3 135.961 169.756H121.705C121.657 170.164 121.633 170.524 121.633 170.836C121.633 172.54 122.113 173.812 123.073 174.652C124.033 175.468 125.161 175.876 126.457 175.876C127.705 175.876 128.797 175.588 129.733 175.012C130.693 174.412 131.437 173.632 131.965 172.672H134.953C134.209 174.328 133.057 175.708 131.497 176.812C129.937 177.892 128.101 178.432 125.989 178.432ZM128.869 162.268C127.429 162.268 126.073 162.712 124.801 163.6C123.529 164.464 122.653 165.736 122.173 167.416H133.405C133.429 167.272 133.441 167.14 133.441 167.02C133.465 166.876 133.477 166.744 133.477 166.624C133.477 165.256 133.057 164.188 132.217 163.42C131.377 162.652 130.261 162.268 128.869 162.268ZM157.075 178.432C155.587 178.432 154.267 178.096 153.115 177.424C151.963 176.752 151.063 175.828 150.415 174.652C149.767 173.476 149.443 172.144 149.443 170.656C149.443 169.072 149.719 167.62 150.271 166.3C150.823 164.98 151.579 163.828 152.539 162.844C153.499 161.86 154.615 161.092 155.887 160.54C157.159 159.988 158.539 159.712 160.027 159.712C161.515 159.712 162.835 160.036 163.987 160.684C165.139 161.332 166.039 162.232 166.687 163.384C167.335 164.536 167.659 165.868 167.659 167.38C167.659 168.94 167.383 170.392 166.831 171.736C166.303 173.08 165.547 174.256 164.563 175.264C163.603 176.248 162.487 177.028 161.215 177.604C159.943 178.156 158.563 178.432 157.075 178.432ZM157.471 175.84C158.815 175.84 160.015 175.48 161.071 174.76C162.151 174.04 163.003 173.056 163.627 171.808C164.251 170.56 164.563 169.156 164.563 167.596C164.563 165.916 164.071 164.62 163.087 163.708C162.127 162.772 160.975 162.304 159.631 162.304C158.311 162.304 157.123 162.664 156.067 163.384C155.011 164.104 154.171 165.088 153.547 166.336C152.923 167.584 152.611 168.988 152.611 170.548C152.611 171.676 152.827 172.636 153.259 173.428C153.715 174.196 154.315 174.796 155.059 175.228C155.803 175.636 156.607 175.84 157.471 175.84ZM170.17 178L173.302 160.144H176.074L175.75 163.312C176.518 162.208 177.526 161.332 178.774 160.684C180.046 160.036 181.486 159.712 183.094 159.712L182.554 162.88H181.726C180.646 162.88 179.626 163.048 178.666 163.384C177.73 163.72 176.926 164.296 176.254 165.112C175.582 165.904 175.126 166.996 174.886 168.388L173.194 178H170.17ZM197.216 178L195.092 160.144H198.152L199.448 174.148L206.108 160.144H209.528L211.22 174.148L217.484 160.144H220.508L212.156 178H209.06L207.26 163.276L200.276 178H197.216ZM220.584 178L225.12 152.08H228.144L226.2 163.204C226.968 162.124 227.94 161.272 229.116 160.648C230.316 160.024 231.576 159.712 232.896 159.712C234.984 159.712 236.544 160.36 237.576 161.656C238.632 162.928 238.92 164.896 238.44 167.56L236.604 178H233.58L235.344 167.884C235.992 164.164 234.792 162.304 231.744 162.304C230.208 162.304 228.828 162.868 227.604 163.996C226.38 165.1 225.588 166.684 225.228 168.748L223.608 178H220.584ZM249.141 178.432C246.933 178.432 245.157 177.748 243.813 176.38C242.493 175.012 241.833 173.176 241.833 170.872C241.833 168.808 242.289 166.936 243.201 165.256C244.113 163.552 245.361 162.208 246.945 161.224C248.553 160.216 250.377 159.712 252.417 159.712C253.977 159.712 255.285 160.024 256.341 160.648C257.421 161.248 258.225 162.064 258.753 163.096C259.305 164.128 259.581 165.268 259.581 166.516C259.581 166.996 259.521 167.548 259.401 168.172C259.305 168.772 259.209 169.3 259.113 169.756H244.857C244.809 170.164 244.785 170.524 244.785 170.836C244.785 172.54 245.265 173.812 246.225 174.652C247.185 175.468 248.313 175.876 249.609 175.876C250.857 175.876 251.949 175.588 252.885 175.012C253.845 174.412 254.589 173.632 255.117 172.672H258.105C257.361 174.328 256.209 175.708 254.649 176.812C253.089 177.892 251.253 178.432 249.141 178.432ZM252.021 162.268C250.581 162.268 249.225 162.712 247.953 163.6C246.681 164.464 245.805 165.736 245.325 167.416H256.557C256.581 167.272 256.593 167.14 256.593 167.02C256.617 166.876 256.629 166.744 256.629 166.624C256.629 165.256 256.209 164.188 255.369 163.42C254.529 162.652 253.413 162.268 252.021 162.268ZM268.126 178C266.638 178 265.486 177.712 264.67 177.136C263.854 176.536 263.446 175.528 263.446 174.112C263.446 173.872 263.458 173.62 263.482 173.356C263.506 173.068 263.542 172.768 263.59 172.456L265.318 162.7H262.546L263.014 160.144H265.786L266.938 155.86H269.602L268.81 160.144H274.102L273.634 162.7H268.378L266.614 172.456C266.566 172.84 266.542 173.176 266.542 173.464C266.542 174.208 266.734 174.724 267.118 175.012C267.526 175.276 268.174 175.408 269.062 175.408H271.402L270.934 178H268.126ZM275.006 178L279.542 152.08H282.566L280.622 163.204C281.39 162.124 282.362 161.272 283.538 160.648C284.738 160.024 285.998 159.712 287.318 159.712C289.406 159.712 290.966 160.36 291.998 161.656C293.054 162.928 293.342 164.896 292.862 167.56L291.026 178H288.002L289.766 167.884C290.414 164.164 289.214 162.304 286.166 162.304C284.63 162.304 283.25 162.868 282.026 163.996C280.802 165.1 280.01 166.684 279.65 168.748L278.03 178H275.006ZM303.563 178.432C301.355 178.432 299.579 177.748 298.235 176.38C296.915 175.012 296.255 173.176 296.255 170.872C296.255 168.808 296.711 166.936 297.623 165.256C298.535 163.552 299.783 162.208 301.367 161.224C302.975 160.216 304.799 159.712 306.839 159.712C308.399 159.712 309.707 160.024 310.763 160.648C311.843 161.248 312.647 162.064 313.175 163.096C313.727 164.128 314.003 165.268 314.003 166.516C314.003 166.996 313.943 167.548 313.823 168.172C313.727 168.772 313.631 169.3 313.535 169.756H299.279C299.231 170.164 299.207 170.524 299.207 170.836C299.207 172.54 299.687 173.812 300.647 174.652C301.607 175.468 302.735 175.876 304.031 175.876C305.279 175.876 306.371 175.588 307.307 175.012C308.267 174.412 309.011 173.632 309.539 172.672H312.527C311.783 174.328 310.631 175.708 309.071 176.812C307.511 177.892 305.675 178.432 303.563 178.432ZM306.443 162.268C305.003 162.268 303.647 162.712 302.375 163.6C301.103 164.464 300.227 165.736 299.747 167.416H310.979C311.003 167.272 311.015 167.14 311.015 167.02C311.039 166.876 311.051 166.744 311.051 166.624C311.051 165.256 310.631 164.188 309.791 163.42C308.951 162.652 307.835 162.268 306.443 162.268ZM316.104 178L319.236 160.144H322.008L321.684 163.312C322.452 162.208 323.46 161.332 324.708 160.684C325.98 160.036 327.42 159.712 329.028 159.712L328.488 162.88H327.66C326.58 162.88 325.56 163.048 324.6 163.384C323.664 163.72 322.86 164.296 322.188 165.112C321.516 165.904 321.06 166.996 320.82 168.388L319.128 178H316.104ZM345.742 156.184C345.142 156.184 344.638 155.992 344.23 155.608C343.846 155.224 343.654 154.732 343.654 154.132C343.654 153.532 343.846 153.04 344.23 152.656C344.638 152.272 345.142 152.08 345.742 152.08C346.318 152.08 346.81 152.272 347.218 152.656C347.626 153.04 347.83 153.532 347.83 154.132C347.83 154.732 347.626 155.224 347.218 155.608C346.81 155.992 346.318 156.184 345.742 156.184ZM340.018 178L343.15 160.144H346.174L343.042 178H340.018ZM354.821 178C353.333 178 352.181 177.712 351.365 177.136C350.549 176.536 350.141 175.528 350.141 174.112C350.141 173.872 350.153 173.62 350.177 173.356C350.201 173.068 350.237 172.768 350.285 172.456L352.013 162.7H349.241L349.709 160.144H352.481L353.633 155.86H356.297L355.505 160.144H360.797L360.329 162.7H355.073L353.309 172.456C353.261 172.84 353.237 173.176 353.237 173.464C353.237 174.208 353.429 174.724 353.813 175.012C354.221 175.276 354.869 175.408 355.757 175.408H358.097L357.629 178H354.821ZM375.458 178L373.334 160.144H376.394L377.69 174.148L384.35 160.144H387.77L389.462 174.148L395.726 160.144H398.75L390.398 178H387.302L385.502 163.276L378.518 178H375.458ZM404.875 156.184C404.275 156.184 403.771 155.992 403.363 155.608C402.979 155.224 402.787 154.732 402.787 154.132C402.787 153.532 402.979 153.04 403.363 152.656C403.771 152.272 404.275 152.08 404.875 152.08C405.451 152.08 405.943 152.272 406.351 152.656C406.759 153.04 406.963 153.532 406.963 154.132C406.963 154.732 406.759 155.224 406.351 155.608C405.943 155.992 405.451 156.184 404.875 156.184ZM399.151 178L402.283 160.144H405.307L402.175 178H399.151ZM407.474 178L412.082 152.08H415.106L410.498 178H407.474ZM415.49 178L420.098 152.08H423.122L418.514 178H415.49ZM443.346 178.432C442.362 178.432 441.462 178.264 440.646 177.928C439.854 177.592 439.17 177.16 438.594 176.632C438.042 176.104 437.634 175.552 437.37 174.976L436.542 178H433.806L438.378 152.08H441.402L439.494 162.916C440.214 162.076 441.114 161.332 442.194 160.684C443.298 160.036 444.666 159.712 446.298 159.712C447.834 159.712 449.142 160.048 450.222 160.72C451.326 161.392 452.166 162.304 452.742 163.456C453.342 164.608 453.642 165.916 453.642 167.38C453.642 169.468 453.186 171.352 452.274 173.032C451.386 174.688 450.162 176.008 448.602 176.992C447.042 177.952 445.29 178.432 443.346 178.432ZM443.49 175.804C444.858 175.804 446.07 175.456 447.126 174.76C448.182 174.064 449.01 173.116 449.61 171.916C450.21 170.716 450.51 169.348 450.51 167.812C450.51 166.228 450.054 164.92 449.142 163.888C448.254 162.856 447.042 162.34 445.506 162.34C444.138 162.34 442.914 162.7 441.834 163.42C440.754 164.14 439.902 165.124 439.278 166.372C438.678 167.596 438.378 168.964 438.378 170.476C438.378 172.084 438.834 173.38 439.746 174.364C440.682 175.324 441.93 175.804 443.49 175.804ZM464.051 178.432C461.843 178.432 460.067 177.748 458.723 176.38C457.403 175.012 456.743 173.176 456.743 170.872C456.743 168.808 457.199 166.936 458.111 165.256C459.023 163.552 460.271 162.208 461.855 161.224C463.463 160.216 465.287 159.712 467.327 159.712C468.887 159.712 470.195 160.024 471.251 160.648C472.331 161.248 473.135 162.064 473.663 163.096C474.215 164.128 474.491 165.268 474.491 166.516C474.491 166.996 474.431 167.548 474.311 168.172C474.215 168.772 474.119 169.3 474.023 169.756H459.767C459.719 170.164 459.695 170.524 459.695 170.836C459.695 172.54 460.175 173.812 461.135 174.652C462.095 175.468 463.223 175.876 464.519 175.876C465.767 175.876 466.859 175.588 467.795 175.012C468.755 174.412 469.499 173.632 470.027 172.672H473.015C472.271 174.328 471.119 175.708 469.559 176.812C467.999 177.892 466.163 178.432 464.051 178.432ZM466.931 162.268C465.491 162.268 464.135 162.712 462.863 163.6C461.591 164.464 460.715 165.736 460.235 167.416H471.467C471.491 167.272 471.503 167.14 471.503 167.02C471.527 166.876 471.539 166.744 471.539 166.624C471.539 165.256 471.119 164.188 470.279 163.42C469.439 162.652 468.323 162.268 466.931 162.268ZM492.113 178L488.225 160.144H491.357L494.417 175.12L502.697 160.144H505.901L495.677 178H492.113ZM513.094 178.432C510.886 178.432 509.11 177.748 507.766 176.38C506.446 175.012 505.786 173.176 505.786 170.872C505.786 168.808 506.242 166.936 507.154 165.256C508.066 163.552 509.314 162.208 510.898 161.224C512.506 160.216 514.33 159.712 516.37 159.712C517.93 159.712 519.238 160.024 520.294 160.648C521.374 161.248 522.178 162.064 522.706 163.096C523.258 164.128 523.534 165.268 523.534 166.516C523.534 166.996 523.474 167.548 523.354 168.172C523.258 168.772 523.162 169.3 523.066 169.756H508.81C508.762 170.164 508.738 170.524 508.738 170.836C508.738 172.54 509.218 173.812 510.178 174.652C511.138 175.468 512.266 175.876 513.562 175.876C514.81 175.876 515.902 175.588 516.838 175.012C517.798 174.412 518.542 173.632 519.07 172.672H522.058C521.314 174.328 520.162 175.708 518.602 176.812C517.042 177.892 515.206 178.432 513.094 178.432ZM515.974 162.268C514.534 162.268 513.178 162.712 511.906 163.6C510.634 164.464 509.758 165.736 509.278 167.416H520.51C520.534 167.272 520.546 167.14 520.546 167.02C520.57 166.876 520.582 166.744 520.582 166.624C520.582 165.256 520.162 164.188 519.322 163.42C518.482 162.652 517.366 162.268 515.974 162.268ZM525.635 178L528.767 160.144H531.539L531.215 163.312C531.983 162.208 532.991 161.332 534.239 160.684C535.511 160.036 536.951 159.712 538.559 159.712L538.019 162.88H537.191C536.111 162.88 535.091 163.048 534.131 163.384C533.195 163.72 532.391 164.296 531.719 165.112C531.047 165.904 530.591 166.996 530.351 168.388L528.659 178H525.635ZM539.464 185.92L545.548 176.272H544.54L540.256 160.144H543.46L547.024 174.04L555.7 160.144H558.868L542.632 185.92H539.464ZM575.638 178.432C573.838 178.432 572.422 177.94 571.39 176.956C570.382 175.948 569.878 174.52 569.878 172.672C569.878 172.336 569.89 172 569.914 171.664C569.938 171.304 569.986 170.944 570.058 170.584L571.93 160.144H574.954L573.154 170.26C573.106 170.572 573.058 170.872 573.01 171.16C572.986 171.448 572.974 171.724 572.974 171.988C572.974 174.556 574.234 175.84 576.754 175.84C578.266 175.84 579.622 175.312 580.822 174.256C582.022 173.2 582.826 171.688 583.234 169.72L584.926 160.144H587.95L584.818 178H582.082L582.442 174.76C581.674 175.912 580.69 176.812 579.49 177.46C578.29 178.108 577.006 178.432 575.638 178.432ZM589.831 178L592.963 160.144H595.699L595.339 163.384C596.107 162.232 597.091 161.332 598.291 160.684C599.491 160.036 600.775 159.712 602.143 159.712C603.919 159.712 605.323 160.216 606.355 161.224C607.387 162.208 607.903 163.624 607.903 165.472C607.903 165.808 607.879 166.156 607.831 166.516C607.807 166.852 607.759 167.2 607.687 167.56L605.851 178H602.827L604.591 167.884C604.639 167.572 604.675 167.272 604.699 166.984C604.747 166.696 604.771 166.42 604.771 166.156C604.771 163.588 603.511 162.304 600.991 162.304C599.479 162.304 598.123 162.832 596.923 163.888C595.747 164.944 594.955 166.456 594.547 168.424L592.855 178H589.831ZM618.531 178.432C617.067 178.432 615.771 178.12 614.643 177.496C613.515 176.848 612.639 175.96 612.015 174.832C611.391 173.68 611.079 172.348 611.079 170.836C611.079 169.252 611.355 167.788 611.907 166.444C612.459 165.076 613.227 163.888 614.211 162.88C615.195 161.872 616.335 161.092 617.631 160.54C618.927 159.988 620.319 159.712 621.807 159.712C623.967 159.712 625.683 160.276 626.955 161.404C628.227 162.532 628.875 164.056 628.899 165.976H625.803C625.803 164.752 625.371 163.84 624.507 163.24C623.643 162.616 622.599 162.304 621.375 162.304C620.055 162.304 618.855 162.664 617.775 163.384C616.695 164.08 615.831 165.052 615.183 166.3C614.535 167.524 614.211 168.928 614.211 170.512C614.211 172.216 614.679 173.536 615.615 174.472C616.551 175.408 617.679 175.876 618.999 175.876C620.223 175.876 621.363 175.564 622.419 174.94C623.499 174.316 624.267 173.392 624.723 172.168H627.819C627.363 173.392 626.679 174.484 625.767 175.444C624.855 176.38 623.775 177.112 622.527 177.64C621.303 178.168 619.971 178.432 618.531 178.432ZM639.207 178.432C637.719 178.432 636.399 178.096 635.247 177.424C634.095 176.752 633.195 175.828 632.547 174.652C631.899 173.476 631.575 172.144 631.575 170.656C631.575 169.072 631.851 167.62 632.403 166.3C632.955 164.98 633.711 163.828 634.671 162.844C635.631 161.86 636.747 161.092 638.019 160.54C639.291 159.988 640.671 159.712 642.159 159.712C643.647 159.712 644.967 160.036 646.119 160.684C647.271 161.332 648.171 162.232 648.819 163.384C649.467 164.536 649.791 165.868 649.791 167.38C649.791 168.94 649.515 170.392 648.963 171.736C648.435 173.08 647.679 174.256 646.695 175.264C645.735 176.248 644.619 177.028 643.347 177.604C642.075 178.156 640.695 178.432 639.207 178.432ZM639.603 175.84C640.947 175.84 642.147 175.48 643.203 174.76C644.283 174.04 645.135 173.056 645.759 171.808C646.383 170.56 646.695 169.156 646.695 167.596C646.695 165.916 646.203 164.62 645.219 163.708C644.259 162.772 643.107 162.304 641.763 162.304C640.443 162.304 639.255 162.664 638.199 163.384C637.143 164.104 636.303 165.088 635.679 166.336C635.055 167.584 634.743 168.988 634.743 170.548C634.743 171.676 634.959 172.636 635.391 173.428C635.847 174.196 636.447 174.796 637.191 175.228C637.935 175.636 638.739 175.84 639.603 175.84ZM652.303 178L655.435 160.144H658.135L657.883 163.06C658.579 162.028 659.443 161.212 660.475 160.612C661.507 160.012 662.623 159.712 663.823 159.712C665.143 159.712 666.283 160.012 667.243 160.612C668.203 161.212 668.863 162.124 669.223 163.348C669.991 162.22 670.963 161.332 672.139 160.684C673.339 160.036 674.563 159.712 675.811 159.712C677.131 159.712 678.259 160 679.195 160.576C680.155 161.128 680.839 161.992 681.247 163.168C681.679 164.32 681.727 165.784 681.391 167.56L679.555 178H676.531L678.295 167.884C678.631 166.036 678.499 164.644 677.899 163.708C677.323 162.772 676.387 162.304 675.091 162.304C673.819 162.304 672.631 162.808 671.527 163.816C670.423 164.8 669.643 166.228 669.187 168.1L667.423 178H664.435L666.199 167.884C666.511 166.036 666.367 164.644 665.767 163.708C665.191 162.772 664.255 162.304 662.959 162.304C661.639 162.304 660.391 162.868 659.215 163.996C658.063 165.1 657.307 166.684 656.947 168.748L655.327 178H652.303ZM685.091 178L687.791 162.7H685.127L685.559 160.144H688.223L688.763 157.048C689.075 155.32 689.735 154.06 690.743 153.268C691.751 152.476 693.095 152.08 694.775 152.08H696.539L696.071 154.672H694.775C693.863 154.672 693.179 154.864 692.723 155.248C692.267 155.608 691.955 156.232 691.787 157.12L691.247 160.144H695.675L695.207 162.7H690.815L688.115 178H685.091ZM704.422 178.432C702.934 178.432 701.614 178.096 700.462 177.424C699.31 176.752 698.41 175.828 697.762 174.652C697.114 173.476 696.79 172.144 696.79 170.656C696.79 169.072 697.066 167.62 697.618 166.3C698.17 164.98 698.926 163.828 699.886 162.844C700.846 161.86 701.962 161.092 703.234 160.54C704.506 159.988 705.886 159.712 707.374 159.712C708.862 159.712 710.182 160.036 711.334 160.684C712.486 161.332 713.386 162.232 714.034 163.384C714.682 164.536 715.006 165.868 715.006 167.38C715.006 168.94 714.73 170.392 714.178 171.736C713.65 173.08 712.894 174.256 711.91 175.264C710.95 176.248 709.834 177.028 708.562 177.604C707.29 178.156 705.91 178.432 704.422 178.432ZM704.818 175.84C706.162 175.84 707.362 175.48 708.418 174.76C709.498 174.04 710.35 173.056 710.974 171.808C711.598 170.56 711.91 169.156 711.91 167.596C711.91 165.916 711.418 164.62 710.434 163.708C709.474 162.772 708.322 162.304 706.978 162.304C705.658 162.304 704.47 162.664 703.414 163.384C702.358 164.104 701.518 165.088 700.894 166.336C700.27 167.584 699.958 168.988 699.958 170.548C699.958 171.676 700.174 172.636 700.606 173.428C701.062 174.196 701.662 174.796 702.406 175.228C703.15 175.636 703.954 175.84 704.818 175.84ZM717.518 178L720.65 160.144H723.422L723.098 163.312C723.866 162.208 724.874 161.332 726.122 160.684C727.394 160.036 728.834 159.712 730.442 159.712L729.902 162.88H729.074C727.994 162.88 726.974 163.048 726.014 163.384C725.078 163.72 724.274 164.296 723.602 165.112C722.93 165.904 722.474 166.996 722.234 168.388L720.542 178H717.518ZM737.251 178C735.763 178 734.611 177.712 733.795 177.136C732.979 176.536 732.571 175.528 732.571 174.112C732.571 173.872 732.583 173.62 732.607 173.356C732.631 173.068 732.667 172.768 732.715 172.456L734.443 162.7H731.671L732.139 160.144H734.911L736.063 155.86H738.727L737.935 160.144H743.227L742.759 162.7H737.503L735.739 172.456C735.691 172.84 735.667 173.176 735.667 173.464C735.667 174.208 735.859 174.724 736.243 175.012C736.651 175.276 737.299 175.408 738.187 175.408H740.527L740.059 178H737.251ZM749.891 178.432C748.547 178.432 747.455 178.216 746.615 177.784C745.775 177.328 745.151 176.74 744.743 176.02C744.335 175.276 744.131 174.484 744.131 173.644C744.131 172.324 744.503 171.184 745.247 170.224C745.991 169.264 747.023 168.532 748.343 168.028C749.687 167.5 751.247 167.236 753.023 167.236H757.811L757.847 167.02C757.919 166.612 757.955 166.204 757.955 165.796C757.955 164.644 757.619 163.768 756.947 163.168C756.299 162.568 755.387 162.268 754.211 162.268C753.059 162.268 751.991 162.568 751.007 163.168C750.023 163.744 749.339 164.596 748.955 165.724H745.823C746.207 164.428 746.831 163.336 747.695 162.448C748.583 161.56 749.627 160.888 750.827 160.432C752.027 159.952 753.287 159.712 754.607 159.712C756.743 159.712 758.339 160.216 759.395 161.224C760.475 162.232 761.015 163.6 761.015 165.328C761.015 165.592 761.003 165.868 760.979 166.156C760.955 166.444 760.919 166.732 760.871 167.02L758.963 178H756.227L756.587 174.832C755.915 175.84 755.027 176.692 753.923 177.388C752.843 178.084 751.499 178.432 749.891 178.432ZM750.791 175.876C751.943 175.876 752.975 175.576 753.887 174.976C754.823 174.376 755.591 173.596 756.191 172.636C756.791 171.676 757.187 170.668 757.379 169.612V169.576H752.843C751.139 169.576 749.795 169.912 748.811 170.584C747.851 171.232 747.371 172.132 747.371 173.284C747.371 174.1 747.659 174.736 748.235 175.192C748.835 175.648 749.687 175.876 750.791 175.876ZM773.042 178.432C772.058 178.432 771.158 178.264 770.342 177.928C769.55 177.592 768.866 177.16 768.29 176.632C767.738 176.104 767.33 175.552 767.066 174.976L766.238 178H763.502L768.074 152.08H771.098L769.19 162.916C769.91 162.076 770.81 161.332 771.89 160.684C772.994 160.036 774.362 159.712 775.994 159.712C777.53 159.712 778.838 160.048 779.918 160.72C781.022 161.392 781.862 162.304 782.438 163.456C783.038 164.608 783.338 165.916 783.338 167.38C783.338 169.468 782.882 171.352 781.97 173.032C781.082 174.688 779.858 176.008 778.298 176.992C776.738 177.952 774.986 178.432 773.042 178.432ZM773.186 175.804C774.554 175.804 775.766 175.456 776.822 174.76C777.878 174.064 778.706 173.116 779.306 171.916C779.906 170.716 780.206 169.348 780.206 167.812C780.206 166.228 779.75 164.92 778.838 163.888C777.95 162.856 776.738 162.34 775.202 162.34C773.834 162.34 772.61 162.7 771.53 163.42C770.45 164.14 769.598 165.124 768.974 166.372C768.374 167.596 768.074 168.964 768.074 170.476C768.074 172.084 768.53 173.38 769.442 174.364C770.378 175.324 771.626 175.804 773.186 175.804ZM785.791 178L790.399 152.08H793.423L788.815 178H785.791ZM801.762 178.432C799.554 178.432 797.778 177.748 796.434 176.38C795.114 175.012 794.454 173.176 794.454 170.872C794.454 168.808 794.91 166.936 795.822 165.256C796.734 163.552 797.982 162.208 799.566 161.224C801.174 160.216 802.998 159.712 805.038 159.712C806.598 159.712 807.906 160.024 808.962 160.648C810.042 161.248 810.846 162.064 811.374 163.096C811.926 164.128 812.202 165.268 812.202 166.516C812.202 166.996 812.142 167.548 812.022 168.172C811.926 168.772 811.83 169.3 811.734 169.756H797.478C797.43 170.164 797.406 170.524 797.406 170.836C797.406 172.54 797.886 173.812 798.846 174.652C799.806 175.468 800.934 175.876 802.23 175.876C803.478 175.876 804.57 175.588 805.506 175.012C806.466 174.412 807.21 173.632 807.738 172.672H810.726C809.982 174.328 808.83 175.708 807.27 176.812C805.71 177.892 803.874 178.432 801.762 178.432ZM804.642 162.268C803.202 162.268 801.846 162.712 800.574 163.6C799.302 164.464 798.426 165.736 797.946 167.416H809.178C809.202 167.272 809.214 167.14 809.214 167.02C809.238 166.876 809.25 166.744 809.25 166.624C809.25 165.256 808.83 164.188 807.99 163.42C807.15 162.652 806.034 162.268 804.642 162.268ZM815.671 178.18C815.071 178.18 814.567 177.988 814.159 177.604C813.775 177.196 813.583 176.704 813.583 176.128C813.583 175.552 813.775 175.072 814.159 174.688C814.567 174.28 815.071 174.076 815.671 174.076C816.271 174.076 816.763 174.28 817.147 174.688C817.531 175.072 817.723 175.552 817.723 176.128C817.723 176.704 817.531 177.196 817.147 177.604C816.763 177.988 816.271 178.18 815.671 178.18Z" fill="#FEFAEF"/>
<defs>
<filter id="filter0_d_430_59" x="0" y="0" width="902" height="310.822" filterUnits="userSpaceOnUse" color-interpolation-filters="sRGB">
<feFlood flood-opacity="0" result="BackgroundImageFix"/>
<feColorMatrix in="SourceAlpha" type="matrix" values="0 0 0 0 0 0 0 0 0 0 0 0 0 0 0 0 0 0 127 0" result="hardAlpha"/>
<feOffset dy="4"/>
<feGaussianBlur stdDeviation="2"/>
<feComposite in2="hardAlpha" operator="out"/>
<feColorMatrix type="matrix" values="0 0 0 0 0 0 0 0 0 0 0 0 0 0 0 0 0 0 0.25 0"/>
<feBlend mode="normal" in2="BackgroundImageFix" result="effect1_dropShadow_430_59"/>
<feBlend mode="normal" in="SourceGraphic" in2="effect1_dropShadow_430_59" result="shape"/>
</filter>
</defs>
</svg>
