<svg width="908" height="307" viewBox="0 0 908 307" fill="none" xmlns="http://www.w3.org/2000/svg">
<g filter="url(#filter0_d_430_65)">
<path d="M4 25C4 11.1929 15.1929 0 29 0H873C886.807 0 898 11.1929 898 25V223.857C898 226.61 897.545 229.344 896.655 231.948L879.389 282.425C875.653 293.349 861.493 296.134 853.899 287.438L809.471 236.569C804.724 231.134 797.859 228.015 790.642 228.015H674.5H451H29C15.1929 228.015 4 216.822 4 203.015V25Z" fill="#BD4803"/>
</g>
<path d="M59.116 84.432C57.604 84.432 56.26 84.18 55.084 83.676C53.908 83.148 52.972 82.344 52.276 81.264C51.604 80.184 51.268 78.816 51.268 77.16C51.268 76.392 51.34 75.576 51.484 74.712L54.328 58.8H57.352L54.508 74.712C54.364 75.432 54.292 76.092 54.292 76.692C54.292 78.444 54.772 79.716 55.732 80.508C56.716 81.3 58.012 81.696 59.62 81.696C61.492 81.696 63.1 81.144 64.444 80.04C65.812 78.936 66.712 77.16 67.144 74.712L69.988 58.8H73.012L70.204 74.712C69.82 76.944 69.076 78.78 67.972 80.22C66.892 81.66 65.572 82.728 64.012 83.424C62.476 84.096 60.844 84.432 59.116 84.432ZM73.9477 84L77.0797 66.144H79.8157L79.4557 69.384C80.2237 68.232 81.2077 67.332 82.4077 66.684C83.6077 66.036 84.8917 65.712 86.2597 65.712C88.0357 65.712 89.4397 66.216 90.4717 67.224C91.5037 68.208 92.0197 69.624 92.0197 71.472C92.0197 71.808 91.9957 72.156 91.9477 72.516C91.9237 72.852 91.8757 73.2 91.8037 73.56L89.9677 84H86.9437L88.7077 73.884C88.7557 73.572 88.7917 73.272 88.8157 72.984C88.8637 72.696 88.8877 72.42 88.8877 72.156C88.8877 69.588 87.6277 68.304 85.1077 68.304C83.5957 68.304 82.2397 68.832 81.0397 69.888C79.8637 70.944 79.0717 72.456 78.6637 74.424L76.9717 84H73.9477ZM95.5204 84L98.2204 68.7H95.5564L95.9884 66.144H98.6524L99.1924 63.048C99.5044 61.32 100.164 60.06 101.172 59.268C102.18 58.476 103.524 58.08 105.204 58.08H106.968L106.5 60.672H105.204C104.292 60.672 103.608 60.864 103.152 61.248C102.696 61.608 102.384 62.232 102.216 63.12L101.676 66.144H106.104L105.636 68.7H101.244L98.5444 84H95.5204ZM114.852 84.432C113.364 84.432 112.044 84.096 110.892 83.424C109.74 82.752 108.84 81.828 108.192 80.652C107.544 79.476 107.22 78.144 107.22 76.656C107.22 75.072 107.496 73.62 108.048 72.3C108.6 70.98 109.356 69.828 110.316 68.844C111.276 67.86 112.392 67.092 113.664 66.54C114.936 65.988 116.316 65.712 117.804 65.712C119.292 65.712 120.612 66.036 121.764 66.684C122.916 67.332 123.816 68.232 124.464 69.384C125.112 70.536 125.436 71.868 125.436 73.38C125.436 74.94 125.16 76.392 124.608 77.736C124.08 79.08 123.324 80.256 122.34 81.264C121.38 82.248 120.264 83.028 118.992 83.604C117.72 84.156 116.34 84.432 114.852 84.432ZM115.248 81.84C116.592 81.84 117.792 81.48 118.848 80.76C119.928 80.04 120.78 79.056 121.404 77.808C122.028 76.56 122.34 75.156 122.34 73.596C122.34 71.916 121.848 70.62 120.864 69.708C119.904 68.772 118.752 68.304 117.408 68.304C116.088 68.304 114.9 68.664 113.844 69.384C112.788 70.104 111.948 71.088 111.324 72.336C110.7 73.584 110.388 74.988 110.388 76.548C110.388 77.676 110.604 78.636 111.036 79.428C111.492 80.196 112.092 80.796 112.836 81.228C113.58 81.636 114.384 81.84 115.248 81.84ZM127.948 84L131.08 66.144H133.852L133.528 69.312C134.296 68.208 135.304 67.332 136.552 66.684C137.824 66.036 139.264 65.712 140.872 65.712L140.332 68.88H139.504C138.424 68.88 137.404 69.048 136.444 69.384C135.508 69.72 134.704 70.296 134.032 71.112C133.36 71.904 132.904 72.996 132.664 74.388L130.972 84H127.948ZM148.489 84.432C146.281 84.432 144.505 83.748 143.161 82.38C141.841 81.012 141.181 79.176 141.181 76.872C141.181 74.808 141.637 72.936 142.549 71.256C143.461 69.552 144.709 68.208 146.293 67.224C147.901 66.216 149.725 65.712 151.765 65.712C153.325 65.712 154.633 66.024 155.689 66.648C156.769 67.248 157.573 68.064 158.101 69.096C158.653 70.128 158.929 71.268 158.929 72.516C158.929 72.996 158.869 73.548 158.749 74.172C158.653 74.772 158.557 75.3 158.461 75.756H144.205C144.157 76.164 144.133 76.524 144.133 76.836C144.133 78.54 144.613 79.812 145.573 80.652C146.533 81.468 147.661 81.876 148.957 81.876C150.205 81.876 151.297 81.588 152.233 81.012C153.193 80.412 153.937 79.632 154.465 78.672H157.453C156.709 80.328 155.557 81.708 153.997 82.812C152.437 83.892 150.601 84.432 148.489 84.432ZM151.369 68.268C149.929 68.268 148.573 68.712 147.301 69.6C146.029 70.464 145.153 71.736 144.673 73.416H155.905C155.929 73.272 155.941 73.14 155.941 73.02C155.965 72.876 155.977 72.744 155.977 72.624C155.977 71.256 155.557 70.188 154.717 69.42C153.877 68.652 152.761 68.268 151.369 68.268ZM167.906 84.432C165.674 84.432 163.934 83.868 162.686 82.74C161.438 81.588 160.898 80.04 161.066 78.096H164.126C164.078 79.104 164.378 79.992 165.026 80.76C165.674 81.504 166.778 81.876 168.338 81.876C169.61 81.876 170.63 81.6 171.398 81.048C172.166 80.472 172.55 79.68 172.55 78.672C172.55 77.88 172.19 77.304 171.47 76.944C170.774 76.584 169.838 76.284 168.662 76.044C167.774 75.852 166.91 75.588 166.07 75.252C165.23 74.892 164.522 74.4 163.946 73.776C163.394 73.152 163.118 72.36 163.118 71.4C163.118 70.32 163.43 69.36 164.054 68.52C164.678 67.656 165.53 66.972 166.61 66.468C167.714 65.964 168.962 65.712 170.354 65.712C172.25 65.712 173.762 66.192 174.89 67.152C176.042 68.088 176.57 69.432 176.474 71.184H173.45C173.498 70.296 173.21 69.588 172.586 69.06C171.986 68.532 171.134 68.268 170.03 68.268C168.926 68.268 168.014 68.532 167.294 69.06C166.598 69.564 166.25 70.188 166.25 70.932C166.25 71.652 166.586 72.192 167.258 72.552C167.954 72.912 168.878 73.224 170.03 73.488C171.014 73.704 171.938 73.992 172.802 74.352C173.666 74.712 174.362 75.204 174.89 75.828C175.442 76.452 175.718 77.268 175.718 78.276C175.718 79.524 175.382 80.616 174.71 81.552C174.038 82.464 173.114 83.172 171.938 83.676C170.762 84.18 169.418 84.432 167.906 84.432ZM186.422 84.432C184.214 84.432 182.438 83.748 181.094 82.38C179.774 81.012 179.114 79.176 179.114 76.872C179.114 74.808 179.57 72.936 180.482 71.256C181.394 69.552 182.642 68.208 184.226 67.224C185.834 66.216 187.658 65.712 189.698 65.712C191.258 65.712 192.566 66.024 193.622 66.648C194.702 67.248 195.506 68.064 196.034 69.096C196.586 70.128 196.862 71.268 196.862 72.516C196.862 72.996 196.802 73.548 196.682 74.172C196.586 74.772 196.49 75.3 196.394 75.756H182.138C182.09 76.164 182.066 76.524 182.066 76.836C182.066 78.54 182.546 79.812 183.506 80.652C184.466 81.468 185.594 81.876 186.89 81.876C188.138 81.876 189.23 81.588 190.166 81.012C191.126 80.412 191.87 79.632 192.398 78.672H195.386C194.642 80.328 193.49 81.708 191.93 82.812C190.37 83.892 188.534 84.432 186.422 84.432ZM189.302 68.268C187.862 68.268 186.506 68.712 185.234 69.6C183.962 70.464 183.086 71.736 182.606 73.416H193.838C193.862 73.272 193.874 73.14 193.874 73.02C193.898 72.876 193.91 72.744 193.91 72.624C193.91 71.256 193.49 70.188 192.65 69.42C191.81 68.652 190.694 68.268 189.302 68.268ZM206.883 84.432C204.675 84.432 202.899 83.748 201.555 82.38C200.235 81.012 199.575 79.176 199.575 76.872C199.575 74.808 200.031 72.936 200.943 71.256C201.855 69.552 203.103 68.208 204.687 67.224C206.295 66.216 208.119 65.712 210.159 65.712C211.719 65.712 213.027 66.024 214.083 66.648C215.163 67.248 215.967 68.064 216.495 69.096C217.047 70.128 217.323 71.268 217.323 72.516C217.323 72.996 217.263 73.548 217.143 74.172C217.047 74.772 216.951 75.3 216.855 75.756H202.599C202.551 76.164 202.527 76.524 202.527 76.836C202.527 78.54 203.007 79.812 203.967 80.652C204.927 81.468 206.055 81.876 207.351 81.876C208.599 81.876 209.691 81.588 210.627 81.012C211.587 80.412 212.331 79.632 212.859 78.672H215.847C215.103 80.328 213.951 81.708 212.391 82.812C210.831 83.892 208.995 84.432 206.883 84.432ZM209.763 68.268C208.323 68.268 206.967 68.712 205.695 69.6C204.423 70.464 203.547 71.736 203.067 73.416H214.299C214.323 73.272 214.335 73.14 214.335 73.02C214.359 72.876 214.371 72.744 214.371 72.624C214.371 71.256 213.951 70.188 213.111 69.42C212.271 68.652 211.155 68.268 209.763 68.268ZM219.424 84L222.556 66.144H225.292L224.932 69.384C225.7 68.232 226.684 67.332 227.884 66.684C229.084 66.036 230.368 65.712 231.736 65.712C233.512 65.712 234.916 66.216 235.948 67.224C236.98 68.208 237.496 69.624 237.496 71.472C237.496 71.808 237.472 72.156 237.424 72.516C237.4 72.852 237.352 73.2 237.28 73.56L235.444 84H232.42L234.184 73.884C234.232 73.572 234.268 73.272 234.292 72.984C234.34 72.696 234.364 72.42 234.364 72.156C234.364 69.588 233.104 68.304 230.584 68.304C229.072 68.304 227.716 68.832 226.516 69.888C225.34 70.944 224.548 72.456 224.14 74.424L222.448 84H219.424ZM258.282 84.432C256.074 84.432 254.298 83.748 252.954 82.38C251.634 81.012 250.974 79.176 250.974 76.872C250.974 74.808 251.43 72.936 252.342 71.256C253.254 69.552 254.502 68.208 256.086 67.224C257.694 66.216 259.518 65.712 261.558 65.712C263.118 65.712 264.426 66.024 265.482 66.648C266.562 67.248 267.366 68.064 267.894 69.096C268.446 70.128 268.722 71.268 268.722 72.516C268.722 72.996 268.662 73.548 268.542 74.172C268.446 74.772 268.35 75.3 268.254 75.756H253.998C253.95 76.164 253.926 76.524 253.926 76.836C253.926 78.54 254.406 79.812 255.366 80.652C256.326 81.468 257.454 81.876 258.75 81.876C259.998 81.876 261.09 81.588 262.026 81.012C262.986 80.412 263.73 79.632 264.258 78.672H267.246C266.502 80.328 265.35 81.708 263.79 82.812C262.23 83.892 260.394 84.432 258.282 84.432ZM261.162 68.268C259.722 68.268 258.366 68.712 257.094 69.6C255.822 70.464 254.946 71.736 254.466 73.416H265.698C265.722 73.272 265.734 73.14 265.734 73.02C265.758 72.876 265.77 72.744 265.77 72.624C265.77 71.256 265.35 70.188 264.51 69.42C263.67 68.652 262.554 68.268 261.162 68.268ZM275.129 84L271.241 66.144H274.373L277.433 81.12L285.713 66.144H288.917L278.693 84H275.129ZM296.11 84.432C293.902 84.432 292.126 83.748 290.782 82.38C289.462 81.012 288.802 79.176 288.802 76.872C288.802 74.808 289.258 72.936 290.17 71.256C291.082 69.552 292.33 68.208 293.914 67.224C295.522 66.216 297.346 65.712 299.386 65.712C300.946 65.712 302.254 66.024 303.31 66.648C304.39 67.248 305.194 68.064 305.722 69.096C306.274 70.128 306.55 71.268 306.55 72.516C306.55 72.996 306.49 73.548 306.37 74.172C306.274 74.772 306.178 75.3 306.082 75.756H291.826C291.778 76.164 291.754 76.524 291.754 76.836C291.754 78.54 292.234 79.812 293.194 80.652C294.154 81.468 295.282 81.876 296.578 81.876C297.826 81.876 298.918 81.588 299.854 81.012C300.814 80.412 301.558 79.632 302.086 78.672H305.074C304.33 80.328 303.178 81.708 301.618 82.812C300.058 83.892 298.222 84.432 296.11 84.432ZM298.99 68.268C297.55 68.268 296.194 68.712 294.922 69.6C293.65 70.464 292.774 71.736 292.294 73.416H303.526C303.55 73.272 303.562 73.14 303.562 73.02C303.586 72.876 303.598 72.744 303.598 72.624C303.598 71.256 303.178 70.188 302.338 69.42C301.498 68.652 300.382 68.268 298.99 68.268ZM308.651 84L311.783 66.144H314.519L314.159 69.384C314.927 68.232 315.911 67.332 317.111 66.684C318.311 66.036 319.595 65.712 320.963 65.712C322.739 65.712 324.143 66.216 325.175 67.224C326.207 68.208 326.723 69.624 326.723 71.472C326.723 71.808 326.699 72.156 326.651 72.516C326.627 72.852 326.579 73.2 326.507 73.56L324.671 84H321.647L323.411 73.884C323.459 73.572 323.495 73.272 323.519 72.984C323.567 72.696 323.591 72.42 323.591 72.156C323.591 69.588 322.331 68.304 319.811 68.304C318.299 68.304 316.943 68.832 315.743 69.888C314.567 70.944 313.775 72.456 313.367 74.424L311.675 84H308.651ZM335.732 84C334.244 84 333.092 83.712 332.276 83.136C331.46 82.536 331.052 81.528 331.052 80.112C331.052 79.872 331.064 79.62 331.088 79.356C331.112 79.068 331.148 78.768 331.196 78.456L332.924 68.7H330.152L330.62 66.144H333.392L334.544 61.86H337.208L336.416 66.144H341.708L341.24 68.7H335.984L334.22 78.456C334.172 78.84 334.148 79.176 334.148 79.464C334.148 80.208 334.34 80.724 334.724 81.012C335.132 81.276 335.78 81.408 336.668 81.408H339.008L338.54 84H335.732ZM349.488 84.432C347.256 84.432 345.516 83.868 344.268 82.74C343.02 81.588 342.48 80.04 342.648 78.096H345.708C345.66 79.104 345.96 79.992 346.608 80.76C347.256 81.504 348.36 81.876 349.92 81.876C351.192 81.876 352.212 81.6 352.98 81.048C353.748 80.472 354.132 79.68 354.132 78.672C354.132 77.88 353.772 77.304 353.052 76.944C352.356 76.584 351.42 76.284 350.244 76.044C349.356 75.852 348.492 75.588 347.652 75.252C346.812 74.892 346.104 74.4 345.528 73.776C344.976 73.152 344.7 72.36 344.7 71.4C344.7 70.32 345.012 69.36 345.636 68.52C346.26 67.656 347.112 66.972 348.192 66.468C349.296 65.964 350.544 65.712 351.936 65.712C353.832 65.712 355.344 66.192 356.472 67.152C357.624 68.088 358.152 69.432 358.056 71.184H355.032C355.08 70.296 354.792 69.588 354.168 69.06C353.568 68.532 352.716 68.268 351.612 68.268C350.508 68.268 349.596 68.532 348.876 69.06C348.18 69.564 347.832 70.188 347.832 70.932C347.832 71.652 348.168 72.192 348.84 72.552C349.536 72.912 350.46 73.224 351.612 73.488C352.596 73.704 353.52 73.992 354.384 74.352C355.248 74.712 355.944 75.204 356.472 75.828C357.024 76.452 357.3 77.268 357.3 78.276C357.3 79.524 356.964 80.616 356.292 81.552C355.62 82.464 354.696 83.172 353.52 83.676C352.344 84.18 351 84.432 349.488 84.432ZM371.405 84L375.941 58.08H378.965L377.021 69.204C377.789 68.124 378.761 67.272 379.937 66.648C381.137 66.024 382.397 65.712 383.717 65.712C385.805 65.712 387.365 66.36 388.397 67.656C389.453 68.928 389.741 70.896 389.261 73.56L387.425 84H384.401L386.165 73.884C386.813 70.164 385.613 68.304 382.565 68.304C381.029 68.304 379.649 68.868 378.425 69.996C377.201 71.1 376.409 72.684 376.049 74.748L374.429 84H371.405ZM397.801 84.432C396.457 84.432 395.365 84.216 394.525 83.784C393.685 83.328 393.061 82.74 392.653 82.02C392.245 81.276 392.041 80.484 392.041 79.644C392.041 78.324 392.413 77.184 393.157 76.224C393.901 75.264 394.933 74.532 396.253 74.028C397.597 73.5 399.157 73.236 400.933 73.236H405.721L405.757 73.02C405.829 72.612 405.865 72.204 405.865 71.796C405.865 70.644 405.529 69.768 404.857 69.168C404.209 68.568 403.297 68.268 402.121 68.268C400.969 68.268 399.901 68.568 398.917 69.168C397.933 69.744 397.249 70.596 396.865 71.724H393.733C394.117 70.428 394.741 69.336 395.605 68.448C396.493 67.56 397.537 66.888 398.737 66.432C399.937 65.952 401.197 65.712 402.517 65.712C404.653 65.712 406.249 66.216 407.305 67.224C408.385 68.232 408.925 69.6 408.925 71.328C408.925 71.592 408.913 71.868 408.889 72.156C408.865 72.444 408.829 72.732 408.781 73.02L406.873 84H404.137L404.497 80.832C403.825 81.84 402.937 82.692 401.833 83.388C400.753 84.084 399.409 84.432 397.801 84.432ZM398.701 81.876C399.853 81.876 400.885 81.576 401.797 80.976C402.733 80.376 403.501 79.596 404.101 78.636C404.701 77.676 405.097 76.668 405.289 75.612V75.576H400.753C399.049 75.576 397.705 75.912 396.721 76.584C395.761 77.232 395.281 78.132 395.281 79.284C395.281 80.1 395.569 80.736 396.145 81.192C396.745 81.648 397.597 81.876 398.701 81.876ZM410.008 91.92L414.58 66.144H417.388L417.1 69.096C417.844 68.16 418.756 67.368 419.836 66.72C420.94 66.048 422.296 65.712 423.904 65.712C425.44 65.712 426.76 66.048 427.864 66.72C428.968 67.392 429.808 68.304 430.384 69.456C430.984 70.608 431.284 71.916 431.284 73.38C431.284 75.468 430.828 77.352 429.916 79.032C429.028 80.688 427.804 82.008 426.244 82.992C424.684 83.952 422.92 84.432 420.952 84.432C419.992 84.432 419.104 84.264 418.288 83.928C417.496 83.592 416.812 83.16 416.236 82.632C415.684 82.104 415.276 81.552 415.012 80.976L413.032 91.92H410.008ZM421.132 81.804C422.5 81.804 423.712 81.456 424.768 80.76C425.824 80.064 426.652 79.116 427.252 77.916C427.852 76.716 428.152 75.348 428.152 73.812C428.152 72.228 427.696 70.92 426.784 69.888C425.896 68.856 424.684 68.34 423.148 68.34C421.78 68.34 420.556 68.7 419.476 69.42C418.396 70.14 417.544 71.124 416.92 72.372C416.296 73.596 415.984 74.964 415.984 76.476C415.984 78.084 416.452 79.38 417.388 80.364C418.324 81.324 419.572 81.804 421.132 81.804ZM432.332 91.92L436.904 66.144H439.712L439.424 69.096C440.168 68.16 441.08 67.368 442.16 66.72C443.264 66.048 444.62 65.712 446.228 65.712C447.764 65.712 449.084 66.048 450.188 66.72C451.292 67.392 452.132 68.304 452.708 69.456C453.308 70.608 453.608 71.916 453.608 73.38C453.608 75.468 453.152 77.352 452.24 79.032C451.352 80.688 450.128 82.008 448.568 82.992C447.008 83.952 445.244 84.432 443.276 84.432C442.316 84.432 441.428 84.264 440.612 83.928C439.82 83.592 439.136 83.16 438.56 82.632C438.008 82.104 437.6 81.552 437.336 80.976L435.356 91.92H432.332ZM443.456 81.804C444.824 81.804 446.036 81.456 447.092 80.76C448.148 80.064 448.976 79.116 449.576 77.916C450.176 76.716 450.476 75.348 450.476 73.812C450.476 72.228 450.02 70.92 449.108 69.888C448.22 68.856 447.008 68.34 445.472 68.34C444.104 68.34 442.88 68.7 441.8 69.42C440.72 70.14 439.868 71.124 439.244 72.372C438.62 73.596 438.308 74.964 438.308 76.476C438.308 78.084 438.776 79.38 439.712 80.364C440.648 81.324 441.896 81.804 443.456 81.804ZM464.016 84.432C461.808 84.432 460.032 83.748 458.688 82.38C457.368 81.012 456.708 79.176 456.708 76.872C456.708 74.808 457.164 72.936 458.076 71.256C458.988 69.552 460.236 68.208 461.82 67.224C463.428 66.216 465.252 65.712 467.292 65.712C468.852 65.712 470.16 66.024 471.216 66.648C472.296 67.248 473.1 68.064 473.628 69.096C474.18 70.128 474.456 71.268 474.456 72.516C474.456 72.996 474.396 73.548 474.276 74.172C474.18 74.772 474.084 75.3 473.988 75.756H459.732C459.684 76.164 459.66 76.524 459.66 76.836C459.66 78.54 460.14 79.812 461.1 80.652C462.06 81.468 463.188 81.876 464.484 81.876C465.732 81.876 466.824 81.588 467.76 81.012C468.72 80.412 469.464 79.632 469.992 78.672H472.98C472.236 80.328 471.084 81.708 469.524 82.812C467.964 83.892 466.128 84.432 464.016 84.432ZM466.896 68.268C465.456 68.268 464.1 68.712 462.828 69.6C461.556 70.464 460.68 71.736 460.2 73.416H471.432C471.456 73.272 471.468 73.14 471.468 73.02C471.492 72.876 471.504 72.744 471.504 72.624C471.504 71.256 471.084 70.188 470.244 69.42C469.404 68.652 468.288 68.268 466.896 68.268ZM476.557 84L479.689 66.144H482.425L482.065 69.384C482.833 68.232 483.817 67.332 485.017 66.684C486.217 66.036 487.501 65.712 488.869 65.712C490.645 65.712 492.049 66.216 493.081 67.224C494.113 68.208 494.629 69.624 494.629 71.472C494.629 71.808 494.605 72.156 494.557 72.516C494.533 72.852 494.485 73.2 494.413 73.56L492.577 84H489.553L491.317 73.884C491.365 73.572 491.401 73.272 491.425 72.984C491.473 72.696 491.497 72.42 491.497 72.156C491.497 69.588 490.237 68.304 487.717 68.304C486.205 68.304 484.849 68.832 483.649 69.888C482.473 70.944 481.681 72.456 481.273 74.424L479.581 84H476.557ZM493.954 88.284L497.446 80.328H500.578L496.042 88.284H493.954ZM521.849 84.432C520.313 84.432 518.993 84.084 517.889 83.388C516.809 82.668 515.981 81.708 515.405 80.508C514.829 79.308 514.541 77.988 514.541 76.548C514.541 74.436 514.985 72.576 515.873 70.968C516.785 69.336 518.009 68.052 519.545 67.116C521.081 66.18 522.797 65.712 524.693 65.712C526.277 65.712 527.573 66.024 528.581 66.648C529.589 67.272 530.333 68.1 530.813 69.132L532.757 58.08H535.781L531.209 84H528.437L528.689 81.048C527.993 81.912 527.093 82.692 525.989 83.388C524.885 84.084 523.505 84.432 521.849 84.432ZM522.713 81.804C524.081 81.804 525.293 81.432 526.349 80.688C527.429 79.944 528.269 78.948 528.869 77.7C529.493 76.428 529.805 75.036 529.805 73.524C529.805 71.964 529.361 70.716 528.473 69.78C527.585 68.82 526.361 68.34 524.801 68.34C523.433 68.34 522.209 68.688 521.129 69.384C520.049 70.08 519.197 71.028 518.573 72.228C517.973 73.404 517.673 74.748 517.673 76.26C517.673 77.844 518.117 79.164 519.005 80.22C519.917 81.276 521.153 81.804 522.713 81.804ZM544.137 84.432C541.929 84.432 540.153 83.748 538.809 82.38C537.489 81.012 536.829 79.176 536.829 76.872C536.829 74.808 537.285 72.936 538.197 71.256C539.109 69.552 540.357 68.208 541.941 67.224C543.549 66.216 545.373 65.712 547.413 65.712C548.973 65.712 550.281 66.024 551.337 66.648C552.417 67.248 553.221 68.064 553.749 69.096C554.301 70.128 554.577 71.268 554.577 72.516C554.577 72.996 554.517 73.548 554.397 74.172C554.301 74.772 554.205 75.3 554.109 75.756H539.853C539.805 76.164 539.781 76.524 539.781 76.836C539.781 78.54 540.261 79.812 541.221 80.652C542.181 81.468 543.309 81.876 544.605 81.876C545.853 81.876 546.945 81.588 547.881 81.012C548.841 80.412 549.585 79.632 550.113 78.672H553.101C552.357 80.328 551.205 81.708 549.645 82.812C548.085 83.892 546.249 84.432 544.137 84.432ZM547.017 68.268C545.577 68.268 544.221 68.712 542.949 69.6C541.677 70.464 540.801 71.736 540.321 73.416H551.553C551.577 73.272 551.589 73.14 551.589 73.02C551.613 72.876 551.625 72.744 551.625 72.624C551.625 71.256 551.205 70.188 550.365 69.42C549.525 68.652 548.409 68.268 547.017 68.268ZM556.642 84L561.25 58.08H564.274L559.666 84H556.642ZM570.454 84.432C569.11 84.432 568.018 84.216 567.178 83.784C566.338 83.328 565.714 82.74 565.306 82.02C564.898 81.276 564.694 80.484 564.694 79.644C564.694 78.324 565.066 77.184 565.81 76.224C566.554 75.264 567.586 74.532 568.906 74.028C570.25 73.5 571.81 73.236 573.586 73.236H578.374L578.41 73.02C578.482 72.612 578.518 72.204 578.518 71.796C578.518 70.644 578.182 69.768 577.51 69.168C576.862 68.568 575.95 68.268 574.774 68.268C573.622 68.268 572.554 68.568 571.57 69.168C570.586 69.744 569.902 70.596 569.518 71.724H566.386C566.77 70.428 567.394 69.336 568.258 68.448C569.146 67.56 570.19 66.888 571.39 66.432C572.59 65.952 573.85 65.712 575.17 65.712C577.306 65.712 578.902 66.216 579.958 67.224C581.038 68.232 581.578 69.6 581.578 71.328C581.578 71.592 581.566 71.868 581.542 72.156C581.518 72.444 581.482 72.732 581.434 73.02L579.526 84H576.79L577.15 80.832C576.478 81.84 575.59 82.692 574.486 83.388C573.406 84.084 572.062 84.432 570.454 84.432ZM571.354 81.876C572.506 81.876 573.538 81.576 574.45 80.976C575.386 80.376 576.154 79.596 576.754 78.636C577.354 77.676 577.75 76.668 577.942 75.612V75.576H573.406C571.702 75.576 570.358 75.912 569.374 76.584C568.414 77.232 567.934 78.132 567.934 79.284C567.934 80.1 568.222 80.736 568.798 81.192C569.398 81.648 570.25 81.876 571.354 81.876ZM583.656 91.92L589.74 82.272H588.732L584.448 66.144H587.652L591.216 80.04L599.892 66.144H603.06L586.824 91.92H583.656ZM609.363 84.432C607.131 84.432 605.391 83.868 604.143 82.74C602.895 81.588 602.355 80.04 602.523 78.096H605.583C605.535 79.104 605.835 79.992 606.483 80.76C607.131 81.504 608.235 81.876 609.795 81.876C611.067 81.876 612.087 81.6 612.855 81.048C613.623 80.472 614.007 79.68 614.007 78.672C614.007 77.88 613.647 77.304 612.927 76.944C612.231 76.584 611.295 76.284 610.119 76.044C609.231 75.852 608.367 75.588 607.527 75.252C606.687 74.892 605.979 74.4 605.403 73.776C604.851 73.152 604.575 72.36 604.575 71.4C604.575 70.32 604.887 69.36 605.511 68.52C606.135 67.656 606.987 66.972 608.067 66.468C609.171 65.964 610.419 65.712 611.811 65.712C613.707 65.712 615.219 66.192 616.347 67.152C617.499 68.088 618.027 69.432 617.931 71.184H614.907C614.955 70.296 614.667 69.588 614.043 69.06C613.443 68.532 612.591 68.268 611.487 68.268C610.383 68.268 609.471 68.532 608.751 69.06C608.055 69.564 607.707 70.188 607.707 70.932C607.707 71.652 608.043 72.192 608.715 72.552C609.411 72.912 610.335 73.224 611.487 73.488C612.471 73.704 613.395 73.992 614.259 74.352C615.123 74.712 615.819 75.204 616.347 75.828C616.899 76.452 617.175 77.268 617.175 78.276C617.175 79.524 616.839 80.616 616.167 81.552C615.495 82.464 614.571 83.172 613.395 83.676C612.219 84.18 610.875 84.432 609.363 84.432ZM637.724 84C636.236 84 635.084 83.712 634.268 83.136C633.452 82.536 633.044 81.528 633.044 80.112C633.044 79.872 633.056 79.62 633.08 79.356C633.104 79.068 633.14 78.768 633.188 78.456L634.916 68.7H632.144L632.612 66.144H635.384L636.536 61.86H639.2L638.408 66.144H643.7L643.232 68.7H637.976L636.212 78.456C636.164 78.84 636.14 79.176 636.14 79.464C636.14 80.208 636.332 80.724 636.716 81.012C637.124 81.276 637.772 81.408 638.66 81.408H641L640.532 84H637.724ZM644.604 84L649.14 58.08H652.164L650.22 69.204C650.988 68.124 651.96 67.272 653.136 66.648C654.336 66.024 655.596 65.712 656.916 65.712C659.004 65.712 660.564 66.36 661.596 67.656C662.652 68.928 662.94 70.896 662.46 73.56L660.624 84H657.6L659.364 73.884C660.012 70.164 658.812 68.304 655.764 68.304C654.228 68.304 652.848 68.868 651.624 69.996C650.4 71.1 649.608 72.684 649.248 74.748L647.628 84H644.604ZM671.001 84.432C669.657 84.432 668.565 84.216 667.725 83.784C666.885 83.328 666.261 82.74 665.853 82.02C665.445 81.276 665.241 80.484 665.241 79.644C665.241 78.324 665.613 77.184 666.357 76.224C667.101 75.264 668.133 74.532 669.453 74.028C670.797 73.5 672.357 73.236 674.133 73.236H678.921L678.957 73.02C679.029 72.612 679.065 72.204 679.065 71.796C679.065 70.644 678.729 69.768 678.057 69.168C677.409 68.568 676.497 68.268 675.321 68.268C674.169 68.268 673.101 68.568 672.117 69.168C671.133 69.744 670.449 70.596 670.065 71.724H666.933C667.317 70.428 667.941 69.336 668.805 68.448C669.693 67.56 670.737 66.888 671.937 66.432C673.137 65.952 674.397 65.712 675.717 65.712C677.853 65.712 679.449 66.216 680.505 67.224C681.585 68.232 682.125 69.6 682.125 71.328C682.125 71.592 682.113 71.868 682.089 72.156C682.065 72.444 682.029 72.732 681.981 73.02L680.073 84H677.337L677.697 80.832C677.025 81.84 676.137 82.692 675.033 83.388C673.953 84.084 672.609 84.432 671.001 84.432ZM671.901 81.876C673.053 81.876 674.085 81.576 674.997 80.976C675.933 80.376 676.701 79.596 677.301 78.636C677.901 77.676 678.297 76.668 678.489 75.612V75.576H673.953C672.249 75.576 670.905 75.912 669.921 76.584C668.961 77.232 668.481 78.132 668.481 79.284C668.481 80.1 668.769 80.736 669.345 81.192C669.945 81.648 670.797 81.876 671.901 81.876ZM691.091 84C689.603 84 688.451 83.712 687.635 83.136C686.819 82.536 686.411 81.528 686.411 80.112C686.411 79.872 686.423 79.62 686.447 79.356C686.471 79.068 686.507 78.768 686.555 78.456L688.283 68.7H685.511L685.979 66.144H688.751L689.903 61.86H692.567L691.775 66.144H697.067L696.599 68.7H691.343L689.579 78.456C689.531 78.84 689.507 79.176 689.507 79.464C689.507 80.208 689.699 80.724 690.083 81.012C690.491 81.276 691.139 81.408 692.027 81.408H694.367L693.899 84H691.091ZM714.32 62.184C713.72 62.184 713.216 61.992 712.808 61.608C712.424 61.224 712.232 60.732 712.232 60.132C712.232 59.532 712.424 59.04 712.808 58.656C713.216 58.272 713.72 58.08 714.32 58.08C714.896 58.08 715.388 58.272 715.796 58.656C716.204 59.04 716.408 59.532 716.408 60.132C716.408 60.732 716.204 61.224 715.796 61.608C715.388 61.992 714.896 62.184 714.32 62.184ZM708.596 84L711.728 66.144H714.752L711.62 84H708.596ZM716.956 84L720.088 66.144H722.824L722.464 69.384C723.232 68.232 724.216 67.332 725.416 66.684C726.616 66.036 727.9 65.712 729.268 65.712C731.044 65.712 732.448 66.216 733.48 67.224C734.512 68.208 735.028 69.624 735.028 71.472C735.028 71.808 735.004 72.156 734.956 72.516C734.932 72.852 734.884 73.2 734.812 73.56L732.976 84H729.952L731.716 73.884C731.764 73.572 731.8 73.272 731.824 72.984C731.872 72.696 731.896 72.42 731.896 72.156C731.896 69.588 730.636 68.304 728.116 68.304C726.604 68.304 725.248 68.832 724.048 69.888C722.872 70.944 722.08 72.456 721.672 74.424L719.98 84H716.956ZM744.036 84C742.548 84 741.396 83.712 740.58 83.136C739.764 82.536 739.356 81.528 739.356 80.112C739.356 79.872 739.368 79.62 739.392 79.356C739.416 79.068 739.452 78.768 739.5 78.456L741.228 68.7H738.456L738.924 66.144H741.696L742.848 61.86H745.512L744.72 66.144H750.012L749.544 68.7H744.288L742.524 78.456C742.476 78.84 742.452 79.176 742.452 79.464C742.452 80.208 742.644 80.724 743.028 81.012C743.436 81.276 744.084 81.408 744.972 81.408H747.312L746.844 84H744.036ZM758.169 84.432C755.961 84.432 754.185 83.748 752.841 82.38C751.521 81.012 750.861 79.176 750.861 76.872C750.861 74.808 751.317 72.936 752.229 71.256C753.141 69.552 754.389 68.208 755.973 67.224C757.581 66.216 759.405 65.712 761.445 65.712C763.005 65.712 764.313 66.024 765.369 66.648C766.449 67.248 767.253 68.064 767.781 69.096C768.333 70.128 768.609 71.268 768.609 72.516C768.609 72.996 768.549 73.548 768.429 74.172C768.333 74.772 768.237 75.3 768.141 75.756H753.885C753.837 76.164 753.812 76.524 753.812 76.836C753.812 78.54 754.293 79.812 755.253 80.652C756.213 81.468 757.341 81.876 758.637 81.876C759.885 81.876 760.977 81.588 761.913 81.012C762.873 80.412 763.617 79.632 764.145 78.672H767.133C766.389 80.328 765.237 81.708 763.677 82.812C762.117 83.892 760.281 84.432 758.169 84.432ZM761.049 68.268C759.609 68.268 758.253 68.712 756.981 69.6C755.709 70.464 754.833 71.736 754.353 73.416H765.585C765.609 73.272 765.621 73.14 765.621 73.02C765.645 72.876 765.657 72.744 765.657 72.624C765.657 71.256 765.237 70.188 764.397 69.42C763.557 68.652 762.441 68.268 761.049 68.268ZM770.709 84L773.841 66.144H776.613L776.289 69.312C777.057 68.208 778.065 67.332 779.313 66.684C780.585 66.036 782.025 65.712 783.633 65.712L783.093 68.88H782.265C781.185 68.88 780.165 69.048 779.205 69.384C778.269 69.72 777.465 70.296 776.793 71.112C776.121 71.904 775.665 72.996 775.425 74.388L773.733 84H770.709ZM784.935 84L787.635 68.7H784.971L785.403 66.144H788.067L788.607 63.048C788.919 61.32 789.579 60.06 790.587 59.268C791.595 58.476 792.939 58.08 794.619 58.08H796.383L795.915 60.672H794.619C793.707 60.672 793.023 60.864 792.566 61.248C792.111 61.608 791.799 62.232 791.631 63.12L791.091 66.144H795.519L795.051 68.7H790.659L787.959 84H784.935ZM803.942 84.432C801.734 84.432 799.958 83.748 798.614 82.38C797.294 81.012 796.634 79.176 796.634 76.872C796.634 74.808 797.09 72.936 798.002 71.256C798.914 69.552 800.162 68.208 801.746 67.224C803.354 66.216 805.178 65.712 807.218 65.712C808.778 65.712 810.086 66.024 811.142 66.648C812.222 67.248 813.026 68.064 813.554 69.096C814.106 70.128 814.382 71.268 814.382 72.516C814.382 72.996 814.322 73.548 814.202 74.172C814.106 74.772 814.01 75.3 813.914 75.756H799.658C799.61 76.164 799.586 76.524 799.586 76.836C799.586 78.54 800.066 79.812 801.026 80.652C801.986 81.468 803.114 81.876 804.41 81.876C805.658 81.876 806.75 81.588 807.686 81.012C808.646 80.412 809.39 79.632 809.918 78.672H812.906C812.162 80.328 811.01 81.708 809.45 82.812C807.89 83.892 806.054 84.432 803.942 84.432ZM806.822 68.268C805.382 68.268 804.026 68.712 802.754 69.6C801.482 70.464 800.606 71.736 800.126 73.416H811.358C811.382 73.272 811.394 73.14 811.394 73.02C811.418 72.876 811.43 72.744 811.43 72.624C811.43 71.256 811.01 70.188 810.17 69.42C809.33 68.652 808.214 68.268 806.822 68.268ZM816.483 84L819.615 66.144H822.387L822.063 69.312C822.831 68.208 823.839 67.332 825.087 66.684C826.359 66.036 827.799 65.712 829.407 65.712L828.867 68.88H828.039C826.959 68.88 825.939 69.048 824.979 69.384C824.043 69.72 823.239 70.296 822.567 71.112C821.895 71.904 821.439 72.996 821.199 74.388L819.507 84H816.483ZM837.024 84.432C834.816 84.432 833.04 83.748 831.696 82.38C830.376 81.012 829.716 79.176 829.716 76.872C829.716 74.808 830.172 72.936 831.084 71.256C831.996 69.552 833.244 68.208 834.828 67.224C836.436 66.216 838.26 65.712 840.3 65.712C841.86 65.712 843.168 66.024 844.224 66.648C845.304 67.248 846.108 68.064 846.636 69.096C847.188 70.128 847.464 71.268 847.464 72.516C847.464 72.996 847.404 73.548 847.284 74.172C847.188 74.772 847.092 75.3 846.996 75.756H832.74C832.692 76.164 832.668 76.524 832.668 76.836C832.668 78.54 833.148 79.812 834.108 80.652C835.068 81.468 836.196 81.876 837.492 81.876C838.74 81.876 839.832 81.588 840.768 81.012C841.728 80.412 842.472 79.632 843 78.672H845.988C845.244 80.328 844.092 81.708 842.532 82.812C840.972 83.892 839.136 84.432 837.024 84.432ZM839.904 68.268C838.464 68.268 837.108 68.712 835.836 69.6C834.564 70.464 833.688 71.736 833.208 73.416H844.44C844.464 73.272 844.476 73.14 844.476 73.02C844.5 72.876 844.512 72.744 844.512 72.624C844.512 71.256 844.092 70.188 843.252 69.42C842.412 68.652 841.296 68.268 839.904 68.268ZM53.392 131L51.268 113.144H54.328L55.624 127.148L62.284 113.144H65.704L67.396 127.148L73.66 113.144H76.684L68.332 131H65.236L63.436 116.276L56.452 131H53.392ZM82.8082 109.184C82.2082 109.184 81.7042 108.992 81.2962 108.608C80.9122 108.224 80.7202 107.732 80.7202 107.132C80.7202 106.532 80.9122 106.04 81.2962 105.656C81.7042 105.272 82.2082 105.08 82.8082 105.08C83.3842 105.08 83.8762 105.272 84.2842 105.656C84.6922 106.04 84.8962 106.532 84.8962 107.132C84.8962 107.732 84.6922 108.224 84.2842 108.608C83.8762 108.992 83.3842 109.184 82.8082 109.184ZM77.0842 131L80.2162 113.144H83.2402L80.1082 131H77.0842ZM91.8878 131C90.3998 131 89.2478 130.712 88.4318 130.136C87.6158 129.536 87.2078 128.528 87.2078 127.112C87.2078 126.872 87.2198 126.62 87.2438 126.356C87.2678 126.068 87.3038 125.768 87.3518 125.456L89.0798 115.7H86.3078L86.7758 113.144H89.5478L90.6998 108.86H93.3638L92.5718 113.144H97.8638L97.3958 115.7H92.1398L90.3758 125.456C90.3278 125.84 90.3038 126.176 90.3038 126.464C90.3038 127.208 90.4958 127.724 90.8798 128.012C91.2878 128.276 91.9358 128.408 92.8238 128.408H95.1638L94.6958 131H91.8878ZM98.768 131L103.304 105.08H106.328L104.384 116.204C105.152 115.124 106.124 114.272 107.3 113.648C108.5 113.024 109.76 112.712 111.08 112.712C113.168 112.712 114.728 113.36 115.76 114.656C116.816 115.928 117.104 117.896 116.624 120.56L114.788 131H111.764L113.528 120.884C114.176 117.164 112.976 115.304 109.928 115.304C108.392 115.304 107.012 115.868 105.788 116.996C104.564 118.1 103.772 119.684 103.412 121.748L101.792 131H98.768ZM128.266 138.92L132.838 113.144H135.646L135.358 116.096C136.102 115.16 137.014 114.368 138.094 113.72C139.198 113.048 140.554 112.712 142.162 112.712C143.698 112.712 145.018 113.048 146.122 113.72C147.226 114.392 148.066 115.304 148.642 116.456C149.242 117.608 149.542 118.916 149.542 120.38C149.542 122.468 149.086 124.352 148.174 126.032C147.286 127.688 146.062 129.008 144.502 129.992C142.942 130.952 141.178 131.432 139.21 131.432C138.25 131.432 137.362 131.264 136.546 130.928C135.754 130.592 135.07 130.16 134.494 129.632C133.942 129.104 133.534 128.552 133.27 127.976L131.29 138.92H128.266ZM139.39 128.804C140.758 128.804 141.97 128.456 143.026 127.76C144.082 127.064 144.91 126.116 145.51 124.916C146.11 123.716 146.41 122.348 146.41 120.812C146.41 119.228 145.954 117.92 145.042 116.888C144.154 115.856 142.942 115.34 141.406 115.34C140.038 115.34 138.814 115.7 137.734 116.42C136.654 117.14 135.802 118.124 135.178 119.372C134.554 120.596 134.242 121.964 134.242 123.476C134.242 125.084 134.71 126.38 135.646 127.364C136.582 128.324 137.83 128.804 139.39 128.804ZM151.994 131L156.602 105.08H159.626L155.018 131H151.994ZM165.805 131.432C164.461 131.432 163.369 131.216 162.529 130.784C161.689 130.328 161.065 129.74 160.657 129.02C160.249 128.276 160.045 127.484 160.045 126.644C160.045 125.324 160.417 124.184 161.161 123.224C161.905 122.264 162.937 121.532 164.257 121.028C165.601 120.5 167.161 120.236 168.937 120.236H173.725L173.761 120.02C173.833 119.612 173.869 119.204 173.869 118.796C173.869 117.644 173.533 116.768 172.861 116.168C172.213 115.568 171.301 115.268 170.125 115.268C168.973 115.268 167.905 115.568 166.921 116.168C165.937 116.744 165.253 117.596 164.869 118.724H161.737C162.121 117.428 162.745 116.336 163.609 115.448C164.497 114.56 165.541 113.888 166.741 113.432C167.941 112.952 169.201 112.712 170.521 112.712C172.657 112.712 174.253 113.216 175.309 114.224C176.389 115.232 176.929 116.6 176.929 118.328C176.929 118.592 176.917 118.868 176.893 119.156C176.869 119.444 176.833 119.732 176.785 120.02L174.877 131H172.141L172.501 127.832C171.829 128.84 170.941 129.692 169.837 130.388C168.757 131.084 167.413 131.432 165.805 131.432ZM166.705 128.876C167.857 128.876 168.889 128.576 169.801 127.976C170.737 127.376 171.505 126.596 172.105 125.636C172.705 124.676 173.101 123.668 173.293 122.612V122.576H168.757C167.053 122.576 165.709 122.912 164.725 123.584C163.765 124.232 163.285 125.132 163.285 126.284C163.285 127.1 163.573 127.736 164.149 128.192C164.749 128.648 165.601 128.876 166.705 128.876ZM179.452 131L182.584 113.144H185.32L184.96 116.384C185.728 115.232 186.712 114.332 187.912 113.684C189.112 113.036 190.396 112.712 191.764 112.712C193.54 112.712 194.944 113.216 195.976 114.224C197.008 115.208 197.524 116.624 197.524 118.472C197.524 118.808 197.5 119.156 197.452 119.516C197.428 119.852 197.38 120.2 197.308 120.56L195.472 131H192.448L194.212 120.884C194.26 120.572 194.296 120.272 194.32 119.984C194.368 119.696 194.392 119.42 194.392 119.156C194.392 116.588 193.132 115.304 190.612 115.304C189.1 115.304 187.744 115.832 186.544 116.888C185.368 117.944 184.576 119.456 184.168 121.424L182.476 131H179.452ZM200.088 131L203.22 113.144H205.956L205.596 116.384C206.364 115.232 207.348 114.332 208.548 113.684C209.748 113.036 211.032 112.712 212.4 112.712C214.176 112.712 215.58 113.216 216.612 114.224C217.644 115.208 218.16 116.624 218.16 118.472C218.16 118.808 218.136 119.156 218.088 119.516C218.064 119.852 218.016 120.2 217.944 120.56L216.108 131H213.084L214.848 120.884C214.896 120.572 214.932 120.272 214.956 119.984C215.004 119.696 215.028 119.42 215.028 119.156C215.028 116.588 213.768 115.304 211.248 115.304C209.736 115.304 208.38 115.832 207.18 116.888C206.004 117.944 205.212 119.456 204.804 121.424L203.112 131H200.088ZM226.773 109.184C226.173 109.184 225.669 108.992 225.261 108.608C224.877 108.224 224.685 107.732 224.685 107.132C224.685 106.532 224.877 106.04 225.261 105.656C225.669 105.272 226.173 105.08 226.773 105.08C227.349 105.08 227.841 105.272 228.249 105.656C228.657 106.04 228.861 106.532 228.861 107.132C228.861 107.732 228.657 108.224 228.249 108.608C227.841 108.992 227.349 109.184 226.773 109.184ZM221.049 131L224.181 113.144H227.205L224.073 131H221.049ZM229.409 131L232.541 113.144H235.277L234.917 116.384C235.685 115.232 236.669 114.332 237.869 113.684C239.069 113.036 240.353 112.712 241.721 112.712C243.497 112.712 244.901 113.216 245.933 114.224C246.965 115.208 247.481 116.624 247.481 118.472C247.481 118.808 247.457 119.156 247.409 119.516C247.385 119.852 247.337 120.2 247.265 120.56L245.429 131H242.405L244.169 120.884C244.217 120.572 244.253 120.272 244.277 119.984C244.325 119.696 244.349 119.42 244.349 119.156C244.349 116.588 243.089 115.304 240.569 115.304C239.057 115.304 237.701 115.832 236.501 116.888C235.325 117.944 234.533 119.456 234.125 121.424L232.433 131H229.409ZM257.893 125.384C256.837 125.384 255.901 125.24 255.085 124.952L253.321 126.32C253.849 126.656 254.449 126.92 255.121 127.112C255.793 127.304 256.777 127.448 258.073 127.544C259.753 127.664 261.061 127.964 261.997 128.444C262.957 128.924 263.629 129.524 264.013 130.244C264.397 130.94 264.589 131.672 264.589 132.44C264.589 133.76 264.205 134.936 263.437 135.968C262.669 137.024 261.601 137.852 260.233 138.452C258.865 139.052 257.293 139.352 255.517 139.352C253.333 139.352 251.557 138.908 250.189 138.02C248.821 137.156 248.137 135.908 248.137 134.276C248.137 133.148 248.449 132.116 249.073 131.18C249.673 130.268 250.561 129.452 251.737 128.732C250.897 128.348 250.213 127.868 249.685 127.292L249.829 126.428L253.177 123.764C252.241 122.852 251.773 121.676 251.773 120.236C251.773 118.82 252.145 117.548 252.889 116.42C253.633 115.268 254.629 114.368 255.877 113.72C257.149 113.048 258.565 112.712 260.125 112.712C261.157 112.712 262.069 112.856 262.861 113.144H269.449L269.017 115.376L265.669 115.52C266.005 116.216 266.173 116.996 266.173 117.86C266.173 119.276 265.801 120.56 265.057 121.712C264.337 122.84 263.353 123.74 262.105 124.412C260.857 125.06 259.453 125.384 257.893 125.384ZM258.325 122.9C259.789 122.9 260.977 122.468 261.889 121.604C262.825 120.716 263.293 119.576 263.293 118.184C263.293 117.248 262.969 116.516 262.321 115.988C261.673 115.46 260.797 115.196 259.693 115.196C258.229 115.196 257.029 115.64 256.093 116.528C255.181 117.392 254.725 118.52 254.725 119.912C254.725 120.872 255.037 121.616 255.661 122.144C256.309 122.648 257.197 122.9 258.325 122.9ZM251.197 133.7C251.197 134.684 251.617 135.452 252.457 136.004C253.297 136.58 254.461 136.868 255.949 136.868C257.581 136.868 258.925 136.496 259.981 135.752C261.037 135.008 261.565 134 261.565 132.728C261.565 132.056 261.301 131.468 260.773 130.964C260.245 130.436 259.201 130.112 257.641 129.992C256.345 129.92 255.193 129.764 254.185 129.524C252.193 130.628 251.197 132.02 251.197 133.7ZM285.899 131.432C284.555 131.432 283.463 131.216 282.623 130.784C281.783 130.328 281.159 129.74 280.751 129.02C280.343 128.276 280.139 127.484 280.139 126.644C280.139 125.324 280.511 124.184 281.255 123.224C281.999 122.264 283.031 121.532 284.351 121.028C285.695 120.5 287.255 120.236 289.031 120.236H293.819L293.855 120.02C293.927 119.612 293.963 119.204 293.963 118.796C293.963 117.644 293.627 116.768 292.955 116.168C292.307 115.568 291.395 115.268 290.219 115.268C289.067 115.268 287.999 115.568 287.015 116.168C286.031 116.744 285.347 117.596 284.963 118.724H281.831C282.215 117.428 282.839 116.336 283.703 115.448C284.591 114.56 285.635 113.888 286.835 113.432C288.035 112.952 289.295 112.712 290.615 112.712C292.751 112.712 294.347 113.216 295.403 114.224C296.483 115.232 297.023 116.6 297.023 118.328C297.023 118.592 297.011 118.868 296.987 119.156C296.963 119.444 296.927 119.732 296.879 120.02L294.971 131H292.235L292.595 127.832C291.923 128.84 291.035 129.692 289.931 130.388C288.851 131.084 287.507 131.432 285.899 131.432ZM286.799 128.876C287.951 128.876 288.983 128.576 289.895 127.976C290.831 127.376 291.599 126.596 292.199 125.636C292.799 124.676 293.195 123.668 293.387 122.612V122.576H288.851C287.147 122.576 285.803 122.912 284.819 123.584C283.859 124.232 283.379 125.132 283.379 126.284C283.379 127.1 283.667 127.736 284.243 128.192C284.843 128.648 285.695 128.876 286.799 128.876ZM299.545 131L302.677 113.144H305.413L305.053 116.384C305.821 115.232 306.805 114.332 308.005 113.684C309.205 113.036 310.489 112.712 311.857 112.712C313.633 112.712 315.037 113.216 316.069 114.224C317.101 115.208 317.617 116.624 317.617 118.472C317.617 118.808 317.593 119.156 317.545 119.516C317.521 119.852 317.473 120.2 317.401 120.56L315.565 131H312.541L314.305 120.884C314.353 120.572 314.389 120.272 314.413 119.984C314.461 119.696 314.485 119.42 314.485 119.156C314.485 116.588 313.225 115.304 310.705 115.304C309.193 115.304 307.837 115.832 306.637 116.888C305.461 117.944 304.669 119.456 304.261 121.424L302.569 131H299.545ZM328.138 131.432C326.602 131.432 325.282 131.084 324.178 130.388C323.098 129.668 322.27 128.708 321.694 127.508C321.118 126.308 320.83 124.988 320.83 123.548C320.83 121.436 321.274 119.576 322.162 117.968C323.074 116.336 324.298 115.052 325.834 114.116C327.37 113.18 329.086 112.712 330.982 112.712C332.566 112.712 333.862 113.024 334.87 113.648C335.878 114.272 336.622 115.1 337.102 116.132L339.046 105.08H342.07L337.498 131H334.726L334.978 128.048C334.282 128.912 333.382 129.692 332.278 130.388C331.174 131.084 329.794 131.432 328.138 131.432ZM329.002 128.804C330.37 128.804 331.582 128.432 332.638 127.688C333.718 126.944 334.558 125.948 335.158 124.7C335.782 123.428 336.094 122.036 336.094 120.524C336.094 118.964 335.65 117.716 334.762 116.78C333.874 115.82 332.65 115.34 331.09 115.34C329.722 115.34 328.498 115.688 327.418 116.384C326.338 117.08 325.486 118.028 324.862 119.228C324.262 120.404 323.962 121.748 323.962 123.26C323.962 124.844 324.406 126.164 325.294 127.22C326.206 128.276 327.442 128.804 329.002 128.804ZM352.987 131L357.415 105.8H360.439L356.011 131H352.987ZM379.574 131.432C378.11 131.432 376.814 131.12 375.686 130.496C374.558 129.848 373.682 128.96 373.058 127.832C372.434 126.68 372.122 125.348 372.122 123.836C372.122 122.252 372.398 120.788 372.95 119.444C373.502 118.076 374.27 116.888 375.254 115.88C376.238 114.872 377.378 114.092 378.674 113.54C379.97 112.988 381.362 112.712 382.85 112.712C385.01 112.712 386.726 113.276 387.998 114.404C389.27 115.532 389.918 117.056 389.942 118.976H386.846C386.846 117.752 386.414 116.84 385.55 116.24C384.686 115.616 383.642 115.304 382.418 115.304C381.098 115.304 379.898 115.664 378.818 116.384C377.738 117.08 376.874 118.052 376.226 119.3C375.578 120.524 375.254 121.928 375.254 123.512C375.254 125.216 375.722 126.536 376.658 127.472C377.594 128.408 378.722 128.876 380.042 128.876C381.266 128.876 382.406 128.564 383.462 127.94C384.542 127.316 385.31 126.392 385.766 125.168H388.862C388.406 126.392 387.722 127.484 386.81 128.444C385.898 129.38 384.818 130.112 383.57 130.64C382.346 131.168 381.014 131.432 379.574 131.432ZM397.766 131.432C396.422 131.432 395.33 131.216 394.49 130.784C393.65 130.328 393.026 129.74 392.618 129.02C392.21 128.276 392.006 127.484 392.006 126.644C392.006 125.324 392.378 124.184 393.122 123.224C393.866 122.264 394.898 121.532 396.218 121.028C397.562 120.5 399.122 120.236 400.898 120.236H405.686L405.722 120.02C405.794 119.612 405.83 119.204 405.83 118.796C405.83 117.644 405.494 116.768 404.822 116.168C404.174 115.568 403.262 115.268 402.086 115.268C400.934 115.268 399.866 115.568 398.882 116.168C397.898 116.744 397.214 117.596 396.83 118.724H393.698C394.082 117.428 394.706 116.336 395.57 115.448C396.458 114.56 397.502 113.888 398.702 113.432C399.902 112.952 401.162 112.712 402.482 112.712C404.618 112.712 406.214 113.216 407.27 114.224C408.35 115.232 408.89 116.6 408.89 118.328C408.89 118.592 408.878 118.868 408.854 119.156C408.83 119.444 408.794 119.732 408.746 120.02L406.838 131H404.102L404.462 127.832C403.79 128.84 402.902 129.692 401.798 130.388C400.718 131.084 399.374 131.432 397.766 131.432ZM398.666 128.876C399.818 128.876 400.85 128.576 401.762 127.976C402.698 127.376 403.466 126.596 404.066 125.636C404.666 124.676 405.062 123.668 405.254 122.612V122.576H400.718C399.014 122.576 397.67 122.912 396.686 123.584C395.726 124.232 395.246 125.132 395.246 126.284C395.246 127.1 395.534 127.736 396.11 128.192C396.71 128.648 397.562 128.876 398.666 128.876ZM411.413 131L414.545 113.144H417.281L416.921 116.384C417.689 115.232 418.673 114.332 419.873 113.684C421.073 113.036 422.357 112.712 423.725 112.712C425.501 112.712 426.905 113.216 427.937 114.224C428.969 115.208 429.485 116.624 429.485 118.472C429.485 118.808 429.461 119.156 429.413 119.516C429.389 119.852 429.341 120.2 429.269 120.56L427.433 131H424.409L426.173 120.884C426.221 120.572 426.257 120.272 426.281 119.984C426.329 119.696 426.353 119.42 426.353 119.156C426.353 116.588 425.093 115.304 422.573 115.304C421.061 115.304 419.705 115.832 418.505 116.888C417.329 117.944 416.537 119.456 416.129 121.424L414.437 131H411.413ZM432.678 110.912L433.506 103.82H436.386L434.766 110.912H432.678ZM441.939 131C440.451 131 439.299 130.712 438.483 130.136C437.667 129.536 437.259 128.528 437.259 127.112C437.259 126.872 437.271 126.62 437.295 126.356C437.319 126.068 437.355 125.768 437.403 125.456L439.131 115.7H436.359L436.827 113.144H439.599L440.751 108.86H443.415L442.623 113.144H447.915L447.447 115.7H442.191L440.427 125.456C440.379 125.84 440.355 126.176 440.355 126.464C440.355 127.208 440.547 127.724 440.931 128.012C441.339 128.276 441.987 128.408 442.875 128.408H445.215L444.747 131H441.939ZM464.34 131L460.452 113.144H463.584L466.644 128.12L474.924 113.144H478.128L467.904 131H464.34ZM484.257 109.184C483.657 109.184 483.153 108.992 482.745 108.608C482.361 108.224 482.169 107.732 482.169 107.132C482.169 106.532 482.361 106.04 482.745 105.656C483.153 105.272 483.657 105.08 484.257 105.08C484.833 105.08 485.325 105.272 485.733 105.656C486.141 106.04 486.345 106.532 486.345 107.132C486.345 107.732 486.141 108.224 485.733 108.608C485.325 108.992 484.833 109.184 484.257 109.184ZM478.533 131L481.665 113.144H484.689L481.557 131H478.533ZM493.769 131.432C491.537 131.432 489.797 130.868 488.549 129.74C487.301 128.588 486.761 127.04 486.929 125.096H489.989C489.941 126.104 490.241 126.992 490.889 127.76C491.537 128.504 492.641 128.876 494.201 128.876C495.473 128.876 496.493 128.6 497.261 128.048C498.029 127.472 498.413 126.68 498.413 125.672C498.413 124.88 498.053 124.304 497.333 123.944C496.637 123.584 495.701 123.284 494.525 123.044C493.637 122.852 492.773 122.588 491.933 122.252C491.093 121.892 490.385 121.4 489.809 120.776C489.257 120.152 488.981 119.36 488.981 118.4C488.981 117.32 489.293 116.36 489.917 115.52C490.541 114.656 491.393 113.972 492.473 113.468C493.577 112.964 494.825 112.712 496.217 112.712C498.113 112.712 499.625 113.192 500.753 114.152C501.905 115.088 502.433 116.432 502.337 118.184H499.313C499.361 117.296 499.073 116.588 498.449 116.06C497.849 115.532 496.997 115.268 495.893 115.268C494.789 115.268 493.877 115.532 493.157 116.06C492.461 116.564 492.113 117.188 492.113 117.932C492.113 118.652 492.449 119.192 493.121 119.552C493.817 119.912 494.741 120.224 495.893 120.488C496.877 120.704 497.801 120.992 498.665 121.352C499.529 121.712 500.225 122.204 500.753 122.828C501.305 123.452 501.581 124.268 501.581 125.276C501.581 126.524 501.245 127.616 500.573 128.552C499.901 129.464 498.977 130.172 497.801 130.676C496.625 131.18 495.281 131.432 493.769 131.432ZM511.433 109.184C510.833 109.184 510.329 108.992 509.921 108.608C509.537 108.224 509.345 107.732 509.345 107.132C509.345 106.532 509.537 106.04 509.921 105.656C510.329 105.272 510.833 105.08 511.433 105.08C512.009 105.08 512.501 105.272 512.909 105.656C513.317 106.04 513.521 106.532 513.521 107.132C513.521 107.732 513.317 108.224 512.909 108.608C512.501 108.992 512.009 109.184 511.433 109.184ZM505.709 131L508.841 113.144H511.865L508.733 131H505.709ZM520.513 131C519.025 131 517.873 130.712 517.057 130.136C516.241 129.536 515.833 128.528 515.833 127.112C515.833 126.872 515.845 126.62 515.869 126.356C515.893 126.068 515.929 125.768 515.977 125.456L517.705 115.7H514.933L515.401 113.144H518.173L519.325 108.86H521.989L521.197 113.144H526.489L526.021 115.7H520.765L519.001 125.456C518.953 125.84 518.929 126.176 518.929 126.464C518.929 127.208 519.121 127.724 519.505 128.012C519.913 128.276 520.561 128.408 521.449 128.408H523.789L523.321 131H520.513ZM545.614 131.432C543.406 131.432 541.63 130.748 540.286 129.38C538.966 128.012 538.306 126.176 538.306 123.872C538.306 121.808 538.762 119.936 539.674 118.256C540.586 116.552 541.834 115.208 543.418 114.224C545.026 113.216 546.85 112.712 548.89 112.712C550.45 112.712 551.758 113.024 552.814 113.648C553.894 114.248 554.698 115.064 555.226 116.096C555.778 117.128 556.054 118.268 556.054 119.516C556.054 119.996 555.994 120.548 555.874 121.172C555.778 121.772 555.682 122.3 555.586 122.756H541.33C541.282 123.164 541.258 123.524 541.258 123.836C541.258 125.54 541.738 126.812 542.698 127.652C543.658 128.468 544.786 128.876 546.082 128.876C547.33 128.876 548.422 128.588 549.358 128.012C550.318 127.412 551.062 126.632 551.59 125.672H554.578C553.834 127.328 552.682 128.708 551.122 129.812C549.562 130.892 547.726 131.432 545.614 131.432ZM548.494 115.268C547.054 115.268 545.698 115.712 544.426 116.6C543.154 117.464 542.278 118.736 541.798 120.416H553.03C553.054 120.272 553.066 120.14 553.066 120.02C553.09 119.876 553.102 119.744 553.102 119.624C553.102 118.256 552.682 117.188 551.842 116.42C551.002 115.652 549.886 115.268 548.494 115.268ZM562.461 131L558.573 113.144H561.705L564.765 128.12L573.045 113.144H576.249L566.025 131H562.461ZM583.442 131.432C581.234 131.432 579.458 130.748 578.114 129.38C576.794 128.012 576.134 126.176 576.134 123.872C576.134 121.808 576.59 119.936 577.502 118.256C578.414 116.552 579.662 115.208 581.246 114.224C582.854 113.216 584.678 112.712 586.718 112.712C588.278 112.712 589.586 113.024 590.642 113.648C591.722 114.248 592.526 115.064 593.054 116.096C593.606 117.128 593.882 118.268 593.882 119.516C593.882 119.996 593.822 120.548 593.702 121.172C593.606 121.772 593.51 122.3 593.414 122.756H579.158C579.11 123.164 579.086 123.524 579.086 123.836C579.086 125.54 579.566 126.812 580.526 127.652C581.486 128.468 582.614 128.876 583.91 128.876C585.158 128.876 586.25 128.588 587.186 128.012C588.146 127.412 588.89 126.632 589.418 125.672H592.406C591.662 127.328 590.51 128.708 588.95 129.812C587.39 130.892 585.554 131.432 583.442 131.432ZM586.322 115.268C584.882 115.268 583.526 115.712 582.254 116.6C580.982 117.464 580.106 118.736 579.626 120.416H590.858C590.882 120.272 590.894 120.14 590.894 120.02C590.918 119.876 590.93 119.744 590.93 119.624C590.93 118.256 590.51 117.188 589.67 116.42C588.83 115.652 587.714 115.268 586.322 115.268ZM595.983 131L599.115 113.144H601.887L601.563 116.312C602.331 115.208 603.339 114.332 604.587 113.684C605.859 113.036 607.299 112.712 608.907 112.712L608.367 115.88H607.539C606.459 115.88 605.439 116.048 604.479 116.384C603.543 116.72 602.739 117.296 602.067 118.112C601.395 118.904 600.939 119.996 600.699 121.388L599.007 131H595.983ZM609.812 138.92L615.896 129.272H614.888L610.604 113.144H613.808L617.372 127.04L626.048 113.144H629.216L612.98 138.92H609.812ZM635.685 131C634.197 131 633.045 130.712 632.229 130.136C631.413 129.536 631.005 128.528 631.005 127.112C631.005 126.872 631.017 126.62 631.041 126.356C631.065 126.068 631.101 125.768 631.149 125.456L632.877 115.7H630.105L630.573 113.144H633.345L634.497 108.86H637.161L636.369 113.144H641.661L641.193 115.7H635.937L634.173 125.456C634.125 125.84 634.101 126.176 634.101 126.464C634.101 127.208 634.293 127.724 634.677 128.012C635.085 128.276 635.733 128.408 636.621 128.408H638.961L638.493 131H635.685ZM642.565 131L647.101 105.08H650.125L648.181 116.204C648.949 115.124 649.921 114.272 651.097 113.648C652.297 113.024 653.557 112.712 654.877 112.712C656.965 112.712 658.525 113.36 659.557 114.656C660.613 115.928 660.901 117.896 660.421 120.56L658.585 131H655.561L657.325 120.884C657.973 117.164 656.773 115.304 653.725 115.304C652.189 115.304 650.809 115.868 649.585 116.996C648.361 118.1 647.569 119.684 647.209 121.748L645.589 131H642.565ZM669.25 109.184C668.65 109.184 668.146 108.992 667.738 108.608C667.354 108.224 667.162 107.732 667.162 107.132C667.162 106.532 667.354 106.04 667.738 105.656C668.146 105.272 668.65 105.08 669.25 105.08C669.826 105.08 670.318 105.272 670.726 105.656C671.134 106.04 671.338 106.532 671.338 107.132C671.338 107.732 671.134 108.224 670.726 108.608C670.318 108.992 669.826 109.184 669.25 109.184ZM663.526 131L666.658 113.144H669.682L666.55 131H663.526ZM671.885 131L675.017 113.144H677.753L677.393 116.384C678.161 115.232 679.145 114.332 680.345 113.684C681.545 113.036 682.829 112.712 684.197 112.712C685.973 112.712 687.377 113.216 688.409 114.224C689.441 115.208 689.957 116.624 689.957 118.472C689.957 118.808 689.933 119.156 689.885 119.516C689.861 119.852 689.813 120.2 689.741 120.56L687.905 131H684.881L686.645 120.884C686.693 120.572 686.729 120.272 686.753 119.984C686.801 119.696 686.825 119.42 686.825 119.156C686.825 116.588 685.565 115.304 683.045 115.304C681.533 115.304 680.177 115.832 678.977 116.888C677.801 117.944 677.009 119.456 676.601 121.424L674.909 131H671.885ZM700.37 125.384C699.314 125.384 698.378 125.24 697.562 124.952L695.798 126.32C696.326 126.656 696.926 126.92 697.598 127.112C698.27 127.304 699.254 127.448 700.55 127.544C702.23 127.664 703.538 127.964 704.474 128.444C705.434 128.924 706.106 129.524 706.49 130.244C706.874 130.94 707.066 131.672 707.066 132.44C707.066 133.76 706.682 134.936 705.914 135.968C705.146 137.024 704.078 137.852 702.71 138.452C701.342 139.052 699.77 139.352 697.994 139.352C695.81 139.352 694.034 138.908 692.666 138.02C691.298 137.156 690.614 135.908 690.614 134.276C690.614 133.148 690.926 132.116 691.55 131.18C692.15 130.268 693.038 129.452 694.214 128.732C693.374 128.348 692.69 127.868 692.162 127.292L692.306 126.428L695.654 123.764C694.718 122.852 694.25 121.676 694.25 120.236C694.25 118.82 694.622 117.548 695.366 116.42C696.11 115.268 697.106 114.368 698.354 113.72C699.626 113.048 701.042 112.712 702.602 112.712C703.634 112.712 704.546 112.856 705.338 113.144H711.926L711.494 115.376L708.146 115.52C708.482 116.216 708.65 116.996 708.65 117.86C708.65 119.276 708.278 120.56 707.534 121.712C706.814 122.84 705.83 123.74 704.582 124.412C703.334 125.06 701.93 125.384 700.37 125.384ZM700.802 122.9C702.266 122.9 703.454 122.468 704.366 121.604C705.302 120.716 705.77 119.576 705.77 118.184C705.77 117.248 705.446 116.516 704.798 115.988C704.15 115.46 703.274 115.196 702.17 115.196C700.706 115.196 699.506 115.64 698.57 116.528C697.658 117.392 697.202 118.52 697.202 119.912C697.202 120.872 697.514 121.616 698.138 122.144C698.786 122.648 699.674 122.9 700.802 122.9ZM693.674 133.7C693.674 134.684 694.094 135.452 694.934 136.004C695.774 136.58 696.938 136.868 698.426 136.868C700.058 136.868 701.402 136.496 702.458 135.752C703.514 135.008 704.042 134 704.042 132.728C704.042 132.056 703.778 131.468 703.25 130.964C702.722 130.436 701.678 130.112 700.118 129.992C698.822 129.92 697.67 129.764 696.662 129.524C694.67 130.628 693.674 132.02 693.674 133.7ZM722.796 131L727.224 105.8H730.248L725.82 131H722.796ZM53.392 178L51.268 160.144H54.328L55.624 174.148L62.284 160.144H65.704L67.396 174.148L73.66 160.144H76.684L68.332 178H65.236L63.436 163.276L56.452 178H53.392ZM82.3444 178.432C81.0004 178.432 79.9084 178.216 79.0684 177.784C78.2284 177.328 77.6044 176.74 77.1964 176.02C76.7884 175.276 76.5844 174.484 76.5844 173.644C76.5844 172.324 76.9564 171.184 77.7004 170.224C78.4444 169.264 79.4764 168.532 80.7964 168.028C82.1404 167.5 83.7004 167.236 85.4764 167.236H90.2644L90.3004 167.02C90.3724 166.612 90.4084 166.204 90.4084 165.796C90.4084 164.644 90.0724 163.768 89.4004 163.168C88.7524 162.568 87.8404 162.268 86.6644 162.268C85.5124 162.268 84.4444 162.568 83.4604 163.168C82.4764 163.744 81.7924 164.596 81.4084 165.724H78.2764C78.6604 164.428 79.2844 163.336 80.1484 162.448C81.0364 161.56 82.0804 160.888 83.2804 160.432C84.4804 159.952 85.7404 159.712 87.0604 159.712C89.1964 159.712 90.7924 160.216 91.8484 161.224C92.9284 162.232 93.4684 163.6 93.4684 165.328C93.4684 165.592 93.4564 165.868 93.4324 166.156C93.4084 166.444 93.3724 166.732 93.3244 167.02L91.4164 178H88.6804L89.0404 174.832C88.3684 175.84 87.4804 176.692 86.3764 177.388C85.2964 178.084 83.9524 178.432 82.3444 178.432ZM83.2444 175.876C84.3964 175.876 85.4284 175.576 86.3404 174.976C87.2764 174.376 88.0444 173.596 88.6444 172.636C89.2444 171.676 89.6404 170.668 89.8324 169.612V169.576H85.2964C83.5924 169.576 82.2484 169.912 81.2644 170.584C80.3044 171.232 79.8244 172.132 79.8244 173.284C79.8244 174.1 80.1124 174.736 80.6884 175.192C81.2884 175.648 82.1404 175.876 83.2444 175.876ZM95.9907 178L99.1227 160.144H101.859L101.499 163.384C102.267 162.232 103.251 161.332 104.451 160.684C105.651 160.036 106.935 159.712 108.303 159.712C110.079 159.712 111.483 160.216 112.515 161.224C113.547 162.208 114.063 163.624 114.063 165.472C114.063 165.808 114.039 166.156 113.991 166.516C113.967 166.852 113.919 167.2 113.847 167.56L112.011 178H108.987L110.751 167.884C110.799 167.572 110.835 167.272 110.859 166.984C110.907 166.696 110.931 166.42 110.931 166.156C110.931 163.588 109.671 162.304 107.151 162.304C105.639 162.304 104.283 162.832 103.083 163.888C101.907 164.944 101.115 166.456 100.707 168.424L99.0147 178H95.9907ZM123.071 178C121.583 178 120.431 177.712 119.615 177.136C118.799 176.536 118.391 175.528 118.391 174.112C118.391 173.872 118.403 173.62 118.427 173.356C118.451 173.068 118.487 172.768 118.535 172.456L120.263 162.7H117.491L117.959 160.144H120.731L121.883 155.86H124.547L123.755 160.144H129.047L128.579 162.7H123.323L121.559 172.456C121.511 172.84 121.487 173.176 121.487 173.464C121.487 174.208 121.679 174.724 122.063 175.012C122.471 175.276 123.119 175.408 124.007 175.408H126.347L125.879 178H123.071ZM137.204 178.432C134.996 178.432 133.22 177.748 131.876 176.38C130.556 175.012 129.896 173.176 129.896 170.872C129.896 168.808 130.352 166.936 131.264 165.256C132.176 163.552 133.424 162.208 135.008 161.224C136.616 160.216 138.44 159.712 140.48 159.712C142.04 159.712 143.348 160.024 144.404 160.648C145.484 161.248 146.288 162.064 146.816 163.096C147.368 164.128 147.644 165.268 147.644 166.516C147.644 166.996 147.584 167.548 147.464 168.172C147.368 168.772 147.272 169.3 147.176 169.756H132.92C132.872 170.164 132.848 170.524 132.848 170.836C132.848 172.54 133.328 173.812 134.288 174.652C135.248 175.468 136.376 175.876 137.672 175.876C138.92 175.876 140.012 175.588 140.948 175.012C141.908 174.412 142.652 173.632 143.18 172.672H146.168C145.424 174.328 144.272 175.708 142.712 176.812C141.152 177.892 139.316 178.432 137.204 178.432ZM140.084 162.268C138.644 162.268 137.288 162.712 136.016 163.6C134.744 164.464 133.868 165.736 133.388 167.416H144.62C144.644 167.272 144.656 167.14 144.656 167.02C144.68 166.876 144.692 166.744 144.692 166.624C144.692 165.256 144.272 164.188 143.432 163.42C142.592 162.652 141.476 162.268 140.084 162.268ZM157.701 178.432C156.165 178.432 154.845 178.084 153.741 177.388C152.661 176.668 151.833 175.708 151.257 174.508C150.681 173.308 150.393 171.988 150.393 170.548C150.393 168.436 150.837 166.576 151.725 164.968C152.637 163.336 153.861 162.052 155.397 161.116C156.933 160.18 158.649 159.712 160.545 159.712C162.129 159.712 163.425 160.024 164.433 160.648C165.441 161.272 166.185 162.1 166.665 163.132L168.609 152.08H171.633L167.061 178H164.289L164.541 175.048C163.845 175.912 162.945 176.692 161.841 177.388C160.737 178.084 159.357 178.432 157.701 178.432ZM158.565 175.804C159.933 175.804 161.145 175.432 162.201 174.688C163.281 173.944 164.121 172.948 164.721 171.7C165.345 170.428 165.657 169.036 165.657 167.524C165.657 165.964 165.213 164.716 164.325 163.78C163.437 162.82 162.213 162.34 160.653 162.34C159.285 162.34 158.061 162.688 156.981 163.384C155.901 164.08 155.049 165.028 154.425 166.228C153.825 167.404 153.525 168.748 153.525 170.26C153.525 171.844 153.969 173.164 154.857 174.22C155.769 175.276 157.005 175.804 158.565 175.804ZM173.437 178.18C172.837 178.18 172.333 177.988 171.925 177.604C171.541 177.196 171.349 176.704 171.349 176.128C171.349 175.552 171.541 175.072 171.925 174.688C172.333 174.28 172.837 174.076 173.437 174.076C174.037 174.076 174.529 174.28 174.913 174.688C175.297 175.072 175.489 175.552 175.489 176.128C175.489 176.704 175.297 177.196 174.913 177.604C174.529 177.988 174.037 178.18 173.437 178.18Z" fill="#FEFAEF"/>
<defs>
<filter id="filter0_d_430_65" x="0" y="0" width="902" height="300.576" filterUnits="userSpaceOnUse" color-interpolation-filters="sRGB">
<feFlood flood-opacity="0" result="BackgroundImageFix"/>
<feColorMatrix in="SourceAlpha" type="matrix" values="0 0 0 0 0 0 0 0 0 0 0 0 0 0 0 0 0 0 127 0" result="hardAlpha"/>
<feOffset dy="4"/>
<feGaussianBlur stdDeviation="2"/>
<feComposite in2="hardAlpha" operator="out"/>
<feColorMatrix type="matrix" values="0 0 0 0 0 0 0 0 0 0 0 0 0 0 0 0 0 0 0.25 0"/>
<feBlend mode="normal" in2="BackgroundImageFix" result="effect1_dropShadow_430_65"/>
<feBlend mode="normal" in="SourceGraphic" in2="effect1_dropShadow_430_65" result="shape"/>
</filter>
</defs>
</svg>
