<svg width="124" height="124" viewBox="0 0 124 124" fill="none" xmlns="http://www.w3.org/2000/svg">
<g clip-path="url(#clip0_341_491)">
<path d="M62.0001 62.0002C67.6834 62.0002 72.3334 57.3502 72.3334 51.6668C72.3334 45.9835 67.6834 41.3335 62.0001 41.3335C56.3167 41.3335 51.6667 45.9835 51.6667 51.6668C51.6667 57.3502 56.3167 62.0002 62.0001 62.0002ZM62.0001 10.3335C83.7001 10.3335 103.333 26.9702 103.333 52.7002C103.333 69.1302 90.6751 88.4535 65.4101 110.722C63.4467 112.427 60.5017 112.427 58.5384 110.722C33.3251 88.4535 20.6667 69.1302 20.6667 52.7002C20.6667 26.9702 40.3001 10.3335 62.0001 10.3335Z" fill="#BD4803"/>
</g>
<defs>
<clipPath id="clip0_341_491">
<rect width="124" height="124" fill="white"/>
</clipPath>
</defs>
</svg>
