<svg width="895" height="315" viewBox="0 0 895 315" fill="none" xmlns="http://www.w3.org/2000/svg">
<rect x="2" y="2" width="891" height="311" rx="23" stroke="#BD4803" stroke-width="4"/>
<path d="M123.308 76V54.508H115.964V50.8H135.296V54.508H127.916V76H123.308ZM138.602 76V50.08H143.21V60.88C143.81 59.896 144.614 59.128 145.622 58.576C146.654 58 147.83 57.712 149.15 57.712C151.358 57.712 153.062 58.408 154.262 59.8C155.486 61.192 156.098 63.232 156.098 65.92V76H151.526V66.352C151.526 64.816 151.214 63.64 150.59 62.824C149.99 62.008 149.03 61.6 147.71 61.6C146.414 61.6 145.334 62.056 144.47 62.968C143.63 63.88 143.21 65.152 143.21 66.784V76H138.602ZM169.18 76.432C167.38 76.432 165.784 76.048 164.392 75.28C163 74.512 161.908 73.432 161.116 72.04C160.324 70.648 159.928 69.04 159.928 67.216C159.928 65.368 160.312 63.724 161.08 62.284C161.872 60.844 162.952 59.728 164.32 58.936C165.712 58.12 167.344 57.712 169.216 57.712C170.968 57.712 172.516 58.096 173.86 58.864C175.204 59.632 176.248 60.688 176.992 62.032C177.76 63.352 178.144 64.828 178.144 66.46C178.144 66.724 178.132 67 178.108 67.288C178.108 67.576 178.096 67.876 178.072 68.188H164.5C164.596 69.58 165.076 70.672 165.94 71.464C166.828 72.256 167.896 72.652 169.144 72.652C170.08 72.652 170.86 72.448 171.484 72.04C172.132 71.608 172.612 71.056 172.924 70.384H177.604C177.268 71.512 176.704 72.544 175.912 73.48C175.144 74.392 174.184 75.112 173.032 75.64C171.904 76.168 170.62 76.432 169.18 76.432ZM169.216 61.456C168.088 61.456 167.092 61.78 166.228 62.428C165.364 63.052 164.812 64.012 164.572 65.308H173.464C173.392 64.132 172.96 63.196 172.168 62.5C171.376 61.804 170.392 61.456 169.216 61.456ZM183.373 83.92L187.513 74.812H186.433L179.485 58.144H184.489L189.493 70.708L194.713 58.144H199.609L188.269 83.92H183.373ZM212.027 76V61.996H209.579V58.144H212.027V56.056C212.027 53.896 212.567 52.36 213.647 51.448C214.751 50.536 216.239 50.08 218.111 50.08H220.091V54.004H218.831C218.039 54.004 217.475 54.16 217.139 54.472C216.803 54.784 216.635 55.312 216.635 56.056V58.144H220.487V61.996H216.635V76H212.027ZM232.002 76.432C230.274 76.432 228.714 76.036 227.322 75.244C225.954 74.452 224.862 73.36 224.046 71.968C223.254 70.552 222.858 68.92 222.858 67.072C222.858 65.224 223.266 63.604 224.082 62.212C224.898 60.796 225.99 59.692 227.358 58.9C228.75 58.108 230.31 57.712 232.038 57.712C233.742 57.712 235.278 58.108 236.646 58.9C238.038 59.692 239.13 60.796 239.922 62.212C240.738 63.604 241.146 65.224 241.146 67.072C241.146 68.92 240.738 70.552 239.922 71.968C239.13 73.36 238.038 74.452 236.646 75.244C235.254 76.036 233.706 76.432 232.002 76.432ZM232.002 72.436C233.202 72.436 234.246 71.992 235.134 71.104C236.022 70.192 236.466 68.848 236.466 67.072C236.466 65.296 236.022 63.964 235.134 63.076C234.246 62.164 233.214 61.708 232.038 61.708C230.814 61.708 229.758 62.164 228.87 63.076C228.006 63.964 227.574 65.296 227.574 67.072C227.574 68.848 228.006 70.192 228.87 71.104C229.758 71.992 230.802 72.436 232.002 72.436ZM251.962 76.432C249.73 76.432 248.002 75.736 246.778 74.344C245.578 72.952 244.978 70.912 244.978 68.224V58.144H249.55V67.792C249.55 69.328 249.862 70.504 250.486 71.32C251.11 72.136 252.094 72.544 253.438 72.544C254.71 72.544 255.754 72.088 256.57 71.176C257.41 70.264 257.83 68.992 257.83 67.36V58.144H262.438V76H258.37L258.01 72.976C257.458 74.032 256.654 74.872 255.598 75.496C254.566 76.12 253.354 76.432 251.962 76.432ZM267.168 76V58.144H271.236L271.596 61.168C272.148 60.112 272.94 59.272 273.972 58.648C275.028 58.024 276.264 57.712 277.68 57.712C279.888 57.712 281.604 58.408 282.828 59.8C284.052 61.192 284.664 63.232 284.664 65.92V76H280.056V66.352C280.056 64.816 279.744 63.64 279.12 62.824C278.496 62.008 277.524 61.6 276.204 61.6C274.908 61.6 273.84 62.056 273 62.968C272.184 63.88 271.776 65.152 271.776 66.784V76H267.168ZM297.278 76.432C295.598 76.432 294.098 76.024 292.778 75.208C291.458 74.392 290.414 73.276 289.646 71.86C288.878 70.444 288.494 68.836 288.494 67.036C288.494 65.236 288.878 63.64 289.646 62.248C290.414 60.832 291.458 59.728 292.778 58.936C294.098 58.12 295.598 57.712 297.278 57.712C298.622 57.712 299.798 57.964 300.806 58.468C301.814 58.972 302.63 59.68 303.254 60.592V50.08H307.862V76H303.758L303.254 73.444C302.678 74.236 301.91 74.932 300.95 75.532C300.014 76.132 298.79 76.432 297.278 76.432ZM298.25 72.4C299.738 72.4 300.95 71.908 301.886 70.924C302.846 69.916 303.326 68.632 303.326 67.072C303.326 65.512 302.846 64.24 301.886 63.256C300.95 62.248 299.738 61.744 298.25 61.744C296.786 61.744 295.574 62.236 294.614 63.22C293.654 64.204 293.174 65.476 293.174 67.036C293.174 68.596 293.654 69.88 294.614 70.888C295.574 71.896 296.786 72.4 298.25 72.4ZM321.961 76V61.996H319.513V58.144H321.961V56.056C321.961 53.896 322.501 52.36 323.581 51.448C324.685 50.536 326.173 50.08 328.045 50.08H330.025V54.004H328.765C327.973 54.004 327.409 54.16 327.073 54.472C326.737 54.784 326.569 55.312 326.569 56.056V58.144H330.421V61.996H326.569V76H321.961ZM334.07 76V58.144H338.174L338.606 61.492C339.254 60.34 340.13 59.428 341.234 58.756C342.362 58.06 343.682 57.712 345.194 57.712V62.572H343.898C342.89 62.572 341.99 62.728 341.198 63.04C340.406 63.352 339.782 63.892 339.326 64.66C338.894 65.428 338.678 66.496 338.678 67.864V76H334.07ZM355.04 76.432C352.808 76.432 351.08 75.736 349.856 74.344C348.656 72.952 348.056 70.912 348.056 68.224V58.144H352.628V67.792C352.628 69.328 352.94 70.504 353.564 71.32C354.188 72.136 355.172 72.544 356.516 72.544C357.788 72.544 358.832 72.088 359.648 71.176C360.488 70.264 360.908 68.992 360.908 67.36V58.144H365.516V76H361.448L361.088 72.976C360.536 74.032 359.732 74.872 358.676 75.496C357.644 76.12 356.432 76.432 355.04 76.432ZM377.626 76.432C376.042 76.432 374.65 76.18 373.45 75.676C372.25 75.148 371.29 74.428 370.57 73.516C369.85 72.604 369.418 71.548 369.274 70.348H373.918C374.062 71.044 374.446 71.644 375.07 72.148C375.718 72.628 376.546 72.868 377.554 72.868C378.562 72.868 379.294 72.664 379.75 72.256C380.23 71.848 380.47 71.38 380.47 70.852C380.47 70.084 380.134 69.568 379.462 69.304C378.79 69.016 377.854 68.74 376.654 68.476C375.886 68.308 375.106 68.104 374.314 67.864C373.522 67.624 372.79 67.324 372.118 66.964C371.47 66.58 370.942 66.1 370.534 65.524C370.126 64.924 369.922 64.192 369.922 63.328C369.922 61.744 370.546 60.412 371.794 59.332C373.066 58.252 374.842 57.712 377.122 57.712C379.234 57.712 380.914 58.204 382.162 59.188C383.434 60.172 384.19 61.528 384.43 63.256H380.074C379.81 61.936 378.814 61.276 377.086 61.276C376.222 61.276 375.55 61.444 375.07 61.78C374.614 62.116 374.386 62.536 374.386 63.04C374.386 63.568 374.734 63.988 375.43 64.3C376.126 64.612 377.05 64.9 378.202 65.164C379.45 65.452 380.59 65.776 381.622 66.136C382.678 66.472 383.518 66.988 384.142 67.684C384.766 68.356 385.078 69.328 385.078 70.6C385.102 71.704 384.814 72.7 384.214 73.588C383.614 74.476 382.75 75.172 381.622 75.676C380.494 76.18 379.162 76.432 377.626 76.432ZM396.554 76C394.682 76 393.182 75.544 392.054 74.632C390.926 73.72 390.362 72.1 390.362 69.772V61.996H387.302V58.144H390.362L390.902 53.356H394.97V58.144H399.794V61.996H394.97V69.808C394.97 70.672 395.15 71.272 395.51 71.608C395.894 71.92 396.542 72.076 397.454 72.076H399.686V76H396.554ZM403.75 76V58.144H407.854L408.286 61.492C408.934 60.34 409.81 59.428 410.914 58.756C412.042 58.06 413.362 57.712 414.874 57.712V62.572H413.578C412.57 62.572 411.67 62.728 410.878 63.04C410.086 63.352 409.462 63.892 409.006 64.66C408.574 65.428 408.358 66.496 408.358 67.864V76H403.75ZM424.18 76.432C422.644 76.432 421.384 76.192 420.4 75.712C419.416 75.208 418.684 74.548 418.204 73.732C417.724 72.916 417.484 72.016 417.484 71.032C417.484 69.376 418.132 68.032 419.428 67C420.724 65.968 422.668 65.452 425.26 65.452H429.796V65.02C429.796 63.796 429.448 62.896 428.752 62.32C428.056 61.744 427.192 61.456 426.16 61.456C425.224 61.456 424.408 61.684 423.712 62.14C423.016 62.572 422.584 63.22 422.416 64.084H417.916C418.036 62.788 418.468 61.66 419.212 60.7C419.98 59.74 420.964 59.008 422.164 58.504C423.364 57.976 424.708 57.712 426.196 57.712C428.74 57.712 430.744 58.348 432.208 59.62C433.672 60.892 434.404 62.692 434.404 65.02V76H430.48L430.048 73.12C429.52 74.08 428.776 74.872 427.816 75.496C426.88 76.12 425.668 76.432 424.18 76.432ZM425.224 72.832C426.544 72.832 427.564 72.4 428.284 71.536C429.028 70.672 429.496 69.604 429.688 68.332H425.764C424.54 68.332 423.664 68.56 423.136 69.016C422.608 69.448 422.344 69.988 422.344 70.636C422.344 71.332 422.608 71.872 423.136 72.256C423.664 72.64 424.36 72.832 425.224 72.832ZM446.511 76C444.639 76 443.139 75.544 442.011 74.632C440.883 73.72 440.319 72.1 440.319 69.772V61.996H437.259V58.144H440.319L440.859 53.356H444.927V58.144H449.751V61.996H444.927V69.808C444.927 70.672 445.107 71.272 445.467 71.608C445.851 71.92 446.499 72.076 447.411 72.076H449.643V76H446.511ZM456.191 55.372C455.351 55.372 454.655 55.12 454.103 54.616C453.575 54.112 453.311 53.476 453.311 52.708C453.311 51.94 453.575 51.316 454.103 50.836C454.655 50.332 455.351 50.08 456.191 50.08C457.031 50.08 457.715 50.332 458.243 50.836C458.795 51.316 459.071 51.94 459.071 52.708C459.071 53.476 458.795 54.112 458.243 54.616C457.715 55.12 457.031 55.372 456.191 55.372ZM453.887 76V58.144H458.495V76H453.887ZM471.873 76.432C470.145 76.432 468.585 76.036 467.193 75.244C465.825 74.452 464.733 73.36 463.917 71.968C463.125 70.552 462.729 68.92 462.729 67.072C462.729 65.224 463.137 63.604 463.953 62.212C464.769 60.796 465.861 59.692 467.229 58.9C468.621 58.108 470.181 57.712 471.909 57.712C473.613 57.712 475.149 58.108 476.517 58.9C477.909 59.692 479.001 60.796 479.793 62.212C480.609 63.604 481.017 65.224 481.017 67.072C481.017 68.92 480.609 70.552 479.793 71.968C479.001 73.36 477.909 74.452 476.517 75.244C475.125 76.036 473.577 76.432 471.873 76.432ZM471.873 72.436C473.073 72.436 474.117 71.992 475.005 71.104C475.893 70.192 476.337 68.848 476.337 67.072C476.337 65.296 475.893 63.964 475.005 63.076C474.117 62.164 473.085 61.708 471.909 61.708C470.685 61.708 469.629 62.164 468.741 63.076C467.877 63.964 467.445 65.296 467.445 67.072C467.445 68.848 467.877 70.192 468.741 71.104C469.629 71.992 470.673 72.436 471.873 72.436ZM485.137 76V58.144H489.205L489.565 61.168C490.117 60.112 490.909 59.272 491.941 58.648C492.997 58.024 494.233 57.712 495.649 57.712C497.857 57.712 499.573 58.408 500.797 59.8C502.021 61.192 502.633 63.232 502.633 65.92V76H498.025V66.352C498.025 64.816 497.713 63.64 497.089 62.824C496.465 62.008 495.493 61.6 494.173 61.6C492.877 61.6 491.809 62.056 490.969 62.968C490.153 63.88 489.745 65.152 489.745 66.784V76H485.137ZM519.109 76L513.889 58.144H518.461L521.557 70.996L525.157 58.144H530.269L533.869 70.996L537.001 58.144H541.573L536.317 76H531.529L527.713 62.644L523.897 76H519.109ZM546.965 55.372C546.125 55.372 545.429 55.12 544.877 54.616C544.349 54.112 544.085 53.476 544.085 52.708C544.085 51.94 544.349 51.316 544.877 50.836C545.429 50.332 546.125 50.08 546.965 50.08C547.805 50.08 548.489 50.332 549.017 50.836C549.569 51.316 549.845 51.94 549.845 52.708C549.845 53.476 549.569 54.112 549.017 54.616C548.489 55.12 547.805 55.372 546.965 55.372ZM544.661 76V58.144H549.269V76H544.661ZM562.034 76C560.162 76 558.662 75.544 557.534 74.632C556.406 73.72 555.842 72.1 555.842 69.772V61.996H552.782V58.144H555.842L556.382 53.356H560.45V58.144H565.274V61.996H560.45V69.808C560.45 70.672 560.63 71.272 560.99 71.608C561.374 71.92 562.022 72.076 562.934 72.076H565.166V76H562.034ZM569.231 76V50.08H573.839V60.88C574.439 59.896 575.243 59.128 576.251 58.576C577.283 58 578.459 57.712 579.779 57.712C581.987 57.712 583.691 58.408 584.891 59.8C586.115 61.192 586.727 63.232 586.727 65.92V76H582.155V66.352C582.155 64.816 581.843 63.64 581.219 62.824C580.619 62.008 579.659 61.6 578.339 61.6C577.043 61.6 575.963 62.056 575.099 62.968C574.259 63.88 573.839 65.152 573.839 66.784V76H569.231ZM607.667 76C605.795 76 604.295 75.544 603.167 74.632C602.039 73.72 601.475 72.1 601.475 69.772V61.996H598.415V58.144H601.475L602.015 53.356H606.083V58.144H610.907V61.996H606.083V69.808C606.083 70.672 606.263 71.272 606.623 71.608C607.007 71.92 607.655 72.076 608.567 72.076H610.799V76H607.667ZM614.863 76V50.08H619.471V60.88C620.071 59.896 620.875 59.128 621.883 58.576C622.915 58 624.091 57.712 625.411 57.712C627.619 57.712 629.323 58.408 630.523 59.8C631.747 61.192 632.359 63.232 632.359 65.92V76H627.787V66.352C627.787 64.816 627.475 63.64 626.851 62.824C626.251 62.008 625.291 61.6 623.971 61.6C622.675 61.6 621.595 62.056 620.731 62.968C619.891 63.88 619.471 65.152 619.471 66.784V76H614.863ZM645.442 76.432C643.642 76.432 642.046 76.048 640.654 75.28C639.262 74.512 638.17 73.432 637.378 72.04C636.586 70.648 636.19 69.04 636.19 67.216C636.19 65.368 636.574 63.724 637.342 62.284C638.134 60.844 639.214 59.728 640.582 58.936C641.974 58.12 643.606 57.712 645.478 57.712C647.23 57.712 648.778 58.096 650.122 58.864C651.466 59.632 652.51 60.688 653.254 62.032C654.022 63.352 654.406 64.828 654.406 66.46C654.406 66.724 654.394 67 654.37 67.288C654.37 67.576 654.358 67.876 654.334 68.188H640.762C640.858 69.58 641.338 70.672 642.202 71.464C643.09 72.256 644.158 72.652 645.406 72.652C646.342 72.652 647.122 72.448 647.746 72.04C648.394 71.608 648.874 71.056 649.186 70.384H653.866C653.53 71.512 652.966 72.544 652.174 73.48C651.406 74.392 650.446 75.112 649.294 75.64C648.166 76.168 646.882 76.432 645.442 76.432ZM645.478 61.456C644.35 61.456 643.354 61.78 642.49 62.428C641.626 63.052 641.074 64.012 640.834 65.308H649.726C649.654 64.132 649.222 63.196 648.43 62.5C647.638 61.804 646.654 61.456 645.478 61.456ZM666.86 76V50.08H671.468V76H666.86ZM682.332 76.432C680.796 76.432 679.536 76.192 678.552 75.712C677.568 75.208 676.836 74.548 676.356 73.732C675.876 72.916 675.636 72.016 675.636 71.032C675.636 69.376 676.284 68.032 677.58 67C678.876 65.968 680.82 65.452 683.412 65.452H687.948V65.02C687.948 63.796 687.6 62.896 686.904 62.32C686.208 61.744 685.344 61.456 684.312 61.456C683.376 61.456 682.56 61.684 681.864 62.14C681.168 62.572 680.736 63.22 680.568 64.084H676.068C676.188 62.788 676.62 61.66 677.364 60.7C678.132 59.74 679.116 59.008 680.316 58.504C681.516 57.976 682.86 57.712 684.348 57.712C686.892 57.712 688.896 58.348 690.36 59.62C691.824 60.892 692.556 62.692 692.556 65.02V76H688.632L688.2 73.12C687.672 74.08 686.928 74.872 685.968 75.496C685.032 76.12 683.82 76.432 682.332 76.432ZM683.376 72.832C684.696 72.832 685.716 72.4 686.436 71.536C687.18 70.672 687.648 69.604 687.84 68.332H683.916C682.692 68.332 681.816 68.56 681.288 69.016C680.76 69.448 680.496 69.988 680.496 70.636C680.496 71.332 680.76 71.872 681.288 72.256C681.816 72.64 682.512 72.832 683.376 72.832ZM705.701 76.432C703.877 76.432 702.269 76.036 700.877 75.244C699.485 74.452 698.381 73.348 697.565 71.932C696.773 70.516 696.377 68.896 696.377 67.072C696.377 65.248 696.773 63.628 697.565 62.212C698.381 60.796 699.485 59.692 700.877 58.9C702.269 58.108 703.877 57.712 705.701 57.712C707.981 57.712 709.901 58.312 711.461 59.512C713.021 60.688 714.017 62.32 714.449 64.408H709.589C709.349 63.544 708.869 62.872 708.149 62.392C707.453 61.888 706.625 61.636 705.665 61.636C704.393 61.636 703.313 62.116 702.425 63.076C701.537 64.036 701.093 65.368 701.093 67.072C701.093 68.776 701.537 70.108 702.425 71.068C703.313 72.028 704.393 72.508 705.665 72.508C706.625 72.508 707.453 72.268 708.149 71.788C708.869 71.308 709.349 70.624 709.589 69.736H714.449C714.017 71.752 713.021 73.372 711.461 74.596C709.901 75.82 707.981 76.432 705.701 76.432ZM718.539 76V50.08H723.147V65.38L729.483 58.144H734.955L727.647 66.28L736.143 76H730.383L723.147 67.036V76H718.539ZM756.146 76.432C754.418 76.432 752.858 76.036 751.466 75.244C750.098 74.452 749.006 73.36 748.19 71.968C747.398 70.552 747.002 68.92 747.002 67.072C747.002 65.224 747.41 63.604 748.226 62.212C749.042 60.796 750.134 59.692 751.502 58.9C752.894 58.108 754.454 57.712 756.182 57.712C757.886 57.712 759.422 58.108 760.79 58.9C762.182 59.692 763.274 60.796 764.066 62.212C764.882 63.604 765.29 65.224 765.29 67.072C765.29 68.92 764.882 70.552 764.066 71.968C763.274 73.36 762.182 74.452 760.79 75.244C759.398 76.036 757.85 76.432 756.146 76.432ZM756.146 72.436C757.346 72.436 758.39 71.992 759.278 71.104C760.166 70.192 760.61 68.848 760.61 67.072C760.61 65.296 760.166 63.964 759.278 63.076C758.39 62.164 757.358 61.708 756.182 61.708C754.958 61.708 753.902 62.164 753.014 63.076C752.15 63.964 751.718 65.296 751.718 67.072C751.718 68.848 752.15 70.192 753.014 71.104C753.902 71.992 754.946 72.436 756.146 72.436ZM770.238 76V61.996H767.79V58.144H770.238V56.056C770.238 53.896 770.778 52.36 771.858 51.448C772.962 50.536 774.45 50.08 776.322 50.08H778.302V54.004H777.042C776.25 54.004 775.686 54.16 775.35 54.472C775.014 54.784 774.846 55.312 774.846 56.056V58.144H778.698V61.996H774.846V76H770.238ZM44.1248 102.372C43.2848 102.372 42.5888 102.12 42.0368 101.616C41.5088 101.112 41.2448 100.476 41.2448 99.708C41.2448 98.94 41.5088 98.316 42.0368 97.836C42.5888 97.332 43.2848 97.08 44.1248 97.08C44.9648 97.08 45.6488 97.332 46.1768 97.836C46.7288 98.316 47.0048 98.94 47.0048 99.708C47.0048 100.476 46.7288 101.112 46.1768 101.616C45.6488 102.12 44.9648 102.372 44.1248 102.372ZM41.8208 123V105.144H46.4288V123H41.8208ZM51.2384 123V105.144H55.3064L55.6664 108.168C56.2184 107.112 57.0104 106.272 58.0424 105.648C59.0984 105.024 60.3344 104.712 61.7504 104.712C63.9584 104.712 65.6744 105.408 66.8984 106.8C68.1224 108.192 68.7344 110.232 68.7344 112.92V123H64.1264V113.352C64.1264 111.816 63.8144 110.64 63.1904 109.824C62.5664 109.008 61.5944 108.6 60.2744 108.6C58.9784 108.6 57.9104 109.056 57.0704 109.968C56.2544 110.88 55.8464 112.152 55.8464 113.784V123H51.2384ZM73.9688 123V108.996H71.5208V105.144H73.9688V103.056C73.9688 100.896 74.5088 99.36 75.5888 98.448C76.6928 97.536 78.1808 97.08 80.0528 97.08H82.0328V101.004H80.7728C79.9808 101.004 79.4168 101.16 79.0808 101.472C78.7448 101.784 78.5768 102.312 78.5768 103.056V105.144H82.4288V108.996H78.5768V123H73.9688ZM93.9432 123.432C92.2152 123.432 90.6552 123.036 89.2632 122.244C87.8952 121.452 86.8032 120.36 85.9872 118.968C85.1952 117.552 84.7992 115.92 84.7992 114.072C84.7992 112.224 85.2072 110.604 86.0232 109.212C86.8392 107.796 87.9312 106.692 89.2992 105.9C90.6912 105.108 92.2512 104.712 93.9792 104.712C95.6832 104.712 97.2192 105.108 98.5872 105.9C99.9792 106.692 101.071 107.796 101.863 109.212C102.679 110.604 103.087 112.224 103.087 114.072C103.087 115.92 102.679 117.552 101.863 118.968C101.071 120.36 99.9792 121.452 98.5872 122.244C97.1952 123.036 95.6472 123.432 93.9432 123.432ZM93.9432 119.436C95.1432 119.436 96.1872 118.992 97.0752 118.104C97.9632 117.192 98.4072 115.848 98.4072 114.072C98.4072 112.296 97.9632 110.964 97.0752 110.076C96.1872 109.164 95.1552 108.708 93.9792 108.708C92.7552 108.708 91.6992 109.164 90.8112 110.076C89.9472 110.964 89.5152 112.296 89.5152 114.072C89.5152 115.848 89.9472 117.192 90.8112 118.104C91.6992 118.992 92.7432 119.436 93.9432 119.436ZM107.207 123V105.144H111.311L111.743 108.492C112.391 107.34 113.267 106.428 114.371 105.756C115.499 105.06 116.819 104.712 118.331 104.712V109.572H117.035C116.027 109.572 115.127 109.728 114.335 110.04C113.543 110.352 112.919 110.892 112.463 111.66C112.031 112.428 111.815 113.496 111.815 114.864V123H107.207ZM121.481 123V105.144H125.549L125.945 107.556C126.521 106.692 127.277 106.008 128.213 105.504C129.173 104.976 130.277 104.712 131.525 104.712C134.285 104.712 136.241 105.78 137.393 107.916C138.041 106.932 138.905 106.152 139.985 105.576C141.089 105 142.289 104.712 143.585 104.712C145.913 104.712 147.701 105.408 148.949 106.8C150.197 108.192 150.821 110.232 150.821 112.92V123H146.213V113.352C146.213 111.816 145.913 110.64 145.313 109.824C144.737 109.008 143.837 108.6 142.613 108.6C141.365 108.6 140.357 109.056 139.589 109.968C138.845 110.88 138.473 112.152 138.473 113.784V123H133.865V113.352C133.865 111.816 133.565 110.64 132.965 109.824C132.365 109.008 131.441 108.6 130.193 108.6C128.969 108.6 127.973 109.056 127.205 109.968C126.461 110.88 126.089 112.152 126.089 113.784V123H121.481ZM161.351 123.432C159.815 123.432 158.555 123.192 157.571 122.712C156.587 122.208 155.855 121.548 155.375 120.732C154.895 119.916 154.655 119.016 154.655 118.032C154.655 116.376 155.303 115.032 156.599 114C157.895 112.968 159.839 112.452 162.431 112.452H166.967V112.02C166.967 110.796 166.619 109.896 165.923 109.32C165.227 108.744 164.363 108.456 163.331 108.456C162.395 108.456 161.579 108.684 160.883 109.14C160.187 109.572 159.755 110.22 159.587 111.084H155.087C155.207 109.788 155.639 108.66 156.383 107.7C157.151 106.74 158.135 106.008 159.335 105.504C160.535 104.976 161.879 104.712 163.367 104.712C165.911 104.712 167.915 105.348 169.379 106.62C170.843 107.892 171.575 109.692 171.575 112.02V123H167.651L167.219 120.12C166.691 121.08 165.947 121.872 164.987 122.496C164.051 123.12 162.839 123.432 161.351 123.432ZM162.395 119.832C163.715 119.832 164.735 119.4 165.455 118.536C166.199 117.672 166.667 116.604 166.859 115.332H162.935C161.711 115.332 160.835 115.56 160.307 116.016C159.779 116.448 159.515 116.988 159.515 117.636C159.515 118.332 159.779 118.872 160.307 119.256C160.835 119.64 161.531 119.832 162.395 119.832ZM183.683 123C181.811 123 180.311 122.544 179.183 121.632C178.055 120.72 177.491 119.1 177.491 116.772V108.996H174.431V105.144H177.491L178.031 100.356H182.099V105.144H186.923V108.996H182.099V116.808C182.099 117.672 182.279 118.272 182.639 118.608C183.023 118.92 183.671 119.076 184.583 119.076H186.815V123H183.683ZM193.363 102.372C192.523 102.372 191.827 102.12 191.275 101.616C190.747 101.112 190.483 100.476 190.483 99.708C190.483 98.94 190.747 98.316 191.275 97.836C191.827 97.332 192.523 97.08 193.363 97.08C194.203 97.08 194.887 97.332 195.415 97.836C195.967 98.316 196.243 98.94 196.243 99.708C196.243 100.476 195.967 101.112 195.415 101.616C194.887 102.12 194.203 102.372 193.363 102.372ZM191.059 123V105.144H195.667V123H191.059ZM209.045 123.432C207.317 123.432 205.757 123.036 204.365 122.244C202.997 121.452 201.905 120.36 201.089 118.968C200.297 117.552 199.901 115.92 199.901 114.072C199.901 112.224 200.309 110.604 201.125 109.212C201.941 107.796 203.033 106.692 204.401 105.9C205.793 105.108 207.353 104.712 209.081 104.712C210.785 104.712 212.321 105.108 213.689 105.9C215.081 106.692 216.173 107.796 216.965 109.212C217.781 110.604 218.189 112.224 218.189 114.072C218.189 115.92 217.781 117.552 216.965 118.968C216.173 120.36 215.081 121.452 213.689 122.244C212.297 123.036 210.749 123.432 209.045 123.432ZM209.045 119.436C210.245 119.436 211.289 118.992 212.177 118.104C213.065 117.192 213.509 115.848 213.509 114.072C213.509 112.296 213.065 110.964 212.177 110.076C211.289 109.164 210.257 108.708 209.081 108.708C207.857 108.708 206.801 109.164 205.913 110.076C205.049 110.964 204.617 112.296 204.617 114.072C204.617 115.848 205.049 117.192 205.913 118.104C206.801 118.992 207.845 119.436 209.045 119.436ZM222.309 123V105.144H226.377L226.737 108.168C227.289 107.112 228.081 106.272 229.113 105.648C230.169 105.024 231.405 104.712 232.821 104.712C235.029 104.712 236.745 105.408 237.969 106.8C239.193 108.192 239.805 110.232 239.805 112.92V123H235.197V113.352C235.197 111.816 234.885 110.64 234.261 109.824C233.637 109.008 232.665 108.6 231.345 108.6C230.049 108.6 228.981 109.056 228.141 109.968C227.325 110.88 226.917 112.152 226.917 113.784V123H222.309ZM258.945 123.432C257.409 123.432 256.149 123.192 255.165 122.712C254.181 122.208 253.449 121.548 252.969 120.732C252.489 119.916 252.249 119.016 252.249 118.032C252.249 116.376 252.897 115.032 254.193 114C255.489 112.968 257.433 112.452 260.025 112.452H264.561V112.02C264.561 110.796 264.213 109.896 263.517 109.32C262.821 108.744 261.957 108.456 260.925 108.456C259.989 108.456 259.173 108.684 258.477 109.14C257.781 109.572 257.349 110.22 257.181 111.084H252.681C252.801 109.788 253.233 108.66 253.977 107.7C254.745 106.74 255.729 106.008 256.929 105.504C258.129 104.976 259.473 104.712 260.961 104.712C263.505 104.712 265.509 105.348 266.973 106.62C268.437 107.892 269.169 109.692 269.169 112.02V123H265.245L264.813 120.12C264.285 121.08 263.541 121.872 262.581 122.496C261.645 123.12 260.433 123.432 258.945 123.432ZM259.989 119.832C261.309 119.832 262.329 119.4 263.049 118.536C263.793 117.672 264.261 116.604 264.453 115.332H260.529C259.305 115.332 258.429 115.56 257.901 116.016C257.373 116.448 257.109 116.988 257.109 117.636C257.109 118.332 257.373 118.872 257.901 119.256C258.429 119.64 259.125 119.832 259.989 119.832ZM273.567 123V105.144H277.635L277.995 108.168C278.547 107.112 279.339 106.272 280.371 105.648C281.427 105.024 282.663 104.712 284.079 104.712C286.287 104.712 288.003 105.408 289.227 106.8C290.451 108.192 291.063 110.232 291.063 112.92V123H286.455V113.352C286.455 111.816 286.143 110.64 285.519 109.824C284.895 109.008 283.923 108.6 282.603 108.6C281.307 108.6 280.239 109.056 279.399 109.968C278.583 110.88 278.175 112.152 278.175 113.784V123H273.567ZM303.677 123.432C301.997 123.432 300.497 123.024 299.177 122.208C297.857 121.392 296.813 120.276 296.045 118.86C295.277 117.444 294.893 115.836 294.893 114.036C294.893 112.236 295.277 110.64 296.045 109.248C296.813 107.832 297.857 106.728 299.177 105.936C300.497 105.12 301.997 104.712 303.677 104.712C305.021 104.712 306.197 104.964 307.205 105.468C308.213 105.972 309.029 106.68 309.653 107.592V97.08H314.261V123H310.157L309.653 120.444C309.077 121.236 308.309 121.932 307.349 122.532C306.413 123.132 305.189 123.432 303.677 123.432ZM304.649 119.4C306.137 119.4 307.349 118.908 308.285 117.924C309.245 116.916 309.725 115.632 309.725 114.072C309.725 112.512 309.245 111.24 308.285 110.256C307.349 109.248 306.137 108.744 304.649 108.744C303.185 108.744 301.973 109.236 301.013 110.22C300.053 111.204 299.573 112.476 299.573 114.036C299.573 115.596 300.053 116.88 301.013 117.888C301.973 118.896 303.185 119.4 304.649 119.4ZM334.911 123.432C333.327 123.432 331.935 123.18 330.735 122.676C329.535 122.148 328.575 121.428 327.855 120.516C327.135 119.604 326.703 118.548 326.559 117.348H331.203C331.347 118.044 331.731 118.644 332.355 119.148C333.003 119.628 333.831 119.868 334.839 119.868C335.847 119.868 336.579 119.664 337.035 119.256C337.515 118.848 337.755 118.38 337.755 117.852C337.755 117.084 337.419 116.568 336.747 116.304C336.075 116.016 335.139 115.74 333.939 115.476C333.171 115.308 332.391 115.104 331.599 114.864C330.807 114.624 330.075 114.324 329.403 113.964C328.755 113.58 328.227 113.1 327.819 112.524C327.411 111.924 327.207 111.192 327.207 110.328C327.207 108.744 327.831 107.412 329.079 106.332C330.351 105.252 332.127 104.712 334.407 104.712C336.519 104.712 338.199 105.204 339.447 106.188C340.719 107.172 341.475 108.528 341.715 110.256H337.359C337.095 108.936 336.099 108.276 334.371 108.276C333.507 108.276 332.835 108.444 332.355 108.78C331.899 109.116 331.671 109.536 331.671 110.04C331.671 110.568 332.019 110.988 332.715 111.3C333.411 111.612 334.335 111.9 335.487 112.164C336.735 112.452 337.875 112.776 338.907 113.136C339.963 113.472 340.803 113.988 341.427 114.684C342.051 115.356 342.363 116.328 342.363 117.6C342.387 118.704 342.099 119.7 341.499 120.588C340.899 121.476 340.035 122.172 338.907 122.676C337.779 123.18 336.447 123.432 334.911 123.432ZM348.929 102.372C348.089 102.372 347.393 102.12 346.841 101.616C346.313 101.112 346.049 100.476 346.049 99.708C346.049 98.94 346.313 98.316 346.841 97.836C347.393 97.332 348.089 97.08 348.929 97.08C349.769 97.08 350.453 97.332 350.981 97.836C351.533 98.316 351.809 98.94 351.809 99.708C351.809 100.476 351.533 101.112 350.981 101.616C350.453 102.12 349.769 102.372 348.929 102.372ZM346.625 123V105.144H351.233V123H346.625ZM363.603 117.672C362.739 117.672 361.935 117.576 361.191 117.384L359.859 118.716C360.267 118.932 360.819 119.112 361.515 119.256C362.211 119.4 363.339 119.544 364.899 119.688C367.275 119.904 369.003 120.468 370.083 121.38C371.163 122.292 371.703 123.552 371.703 125.16C371.703 126.216 371.415 127.212 370.839 128.148C370.263 129.108 369.375 129.876 368.175 130.452C366.975 131.052 365.439 131.352 363.567 131.352C361.023 131.352 358.971 130.872 357.411 129.912C355.851 128.976 355.071 127.56 355.071 125.664C355.071 124.056 355.851 122.664 357.411 121.488C356.931 121.272 356.511 121.044 356.151 120.804C355.815 120.564 355.515 120.312 355.251 120.048V119.22L358.383 115.908C356.991 114.684 356.295 113.112 356.295 111.192C356.295 109.992 356.583 108.9 357.159 107.916C357.759 106.932 358.599 106.152 359.679 105.576C360.759 105 362.067 104.712 363.603 104.712C364.611 104.712 365.547 104.856 366.411 105.144H373.179V107.952L370.119 108.168C370.599 109.08 370.839 110.088 370.839 111.192C370.839 112.392 370.551 113.484 369.975 114.468C369.399 115.452 368.559 116.232 367.455 116.808C366.375 117.384 365.091 117.672 363.603 117.672ZM363.603 114.144C364.539 114.144 365.307 113.892 365.907 113.388C366.531 112.884 366.843 112.164 366.843 111.228C366.843 110.292 366.531 109.572 365.907 109.068C365.307 108.564 364.539 108.312 363.603 108.312C362.619 108.312 361.827 108.564 361.227 109.068C360.627 109.572 360.327 110.292 360.327 111.228C360.327 112.164 360.627 112.884 361.227 113.388C361.827 113.892 362.619 114.144 363.603 114.144ZM359.283 125.196C359.283 126.084 359.691 126.744 360.507 127.176C361.347 127.632 362.367 127.86 363.567 127.86C364.719 127.86 365.655 127.62 366.375 127.14C367.095 126.684 367.455 126.06 367.455 125.268C367.455 124.62 367.215 124.08 366.735 123.648C366.279 123.216 365.355 122.952 363.963 122.856C362.979 122.784 362.067 122.676 361.227 122.532C360.531 122.916 360.027 123.336 359.715 123.792C359.427 124.248 359.283 124.716 359.283 125.196ZM376.539 123V105.144H380.607L380.967 108.168C381.519 107.112 382.311 106.272 383.343 105.648C384.399 105.024 385.635 104.712 387.051 104.712C389.259 104.712 390.975 105.408 392.199 106.8C393.423 108.192 394.035 110.232 394.035 112.92V123H389.427V113.352C389.427 111.816 389.115 110.64 388.491 109.824C387.867 109.008 386.895 108.6 385.575 108.6C384.279 108.6 383.211 109.056 382.371 109.968C381.555 110.88 381.147 112.152 381.147 113.784V123H376.539ZM404.598 123.432C403.062 123.432 401.802 123.192 400.818 122.712C399.834 122.208 399.102 121.548 398.622 120.732C398.142 119.916 397.902 119.016 397.902 118.032C397.902 116.376 398.55 115.032 399.846 114C401.142 112.968 403.086 112.452 405.678 112.452H410.214V112.02C410.214 110.796 409.866 109.896 409.17 109.32C408.474 108.744 407.61 108.456 406.578 108.456C405.642 108.456 404.826 108.684 404.13 109.14C403.434 109.572 403.002 110.22 402.834 111.084H398.334C398.454 109.788 398.886 108.66 399.63 107.7C400.398 106.74 401.382 106.008 402.582 105.504C403.782 104.976 405.126 104.712 406.614 104.712C409.158 104.712 411.162 105.348 412.626 106.62C414.09 107.892 414.822 109.692 414.822 112.02V123H410.898L410.466 120.12C409.938 121.08 409.194 121.872 408.234 122.496C407.298 123.12 406.086 123.432 404.598 123.432ZM405.642 119.832C406.962 119.832 407.982 119.4 408.702 118.536C409.446 117.672 409.914 116.604 410.106 115.332H406.182C404.958 115.332 404.082 115.56 403.554 116.016C403.026 116.448 402.762 116.988 402.762 117.636C402.762 118.332 403.026 118.872 403.554 119.256C404.082 119.64 404.778 119.832 405.642 119.832ZM426.779 117.672C425.915 117.672 425.111 117.576 424.367 117.384L423.035 118.716C423.443 118.932 423.995 119.112 424.691 119.256C425.387 119.4 426.515 119.544 428.075 119.688C430.451 119.904 432.179 120.468 433.259 121.38C434.339 122.292 434.879 123.552 434.879 125.16C434.879 126.216 434.591 127.212 434.015 128.148C433.439 129.108 432.551 129.876 431.351 130.452C430.151 131.052 428.615 131.352 426.743 131.352C424.199 131.352 422.147 130.872 420.587 129.912C419.027 128.976 418.247 127.56 418.247 125.664C418.247 124.056 419.027 122.664 420.587 121.488C420.107 121.272 419.687 121.044 419.327 120.804C418.991 120.564 418.691 120.312 418.427 120.048V119.22L421.559 115.908C420.167 114.684 419.471 113.112 419.471 111.192C419.471 109.992 419.759 108.9 420.335 107.916C420.935 106.932 421.775 106.152 422.855 105.576C423.935 105 425.243 104.712 426.779 104.712C427.787 104.712 428.723 104.856 429.587 105.144H436.355V107.952L433.295 108.168C433.775 109.08 434.015 110.088 434.015 111.192C434.015 112.392 433.727 113.484 433.151 114.468C432.575 115.452 431.735 116.232 430.631 116.808C429.551 117.384 428.267 117.672 426.779 117.672ZM426.779 114.144C427.715 114.144 428.483 113.892 429.083 113.388C429.707 112.884 430.019 112.164 430.019 111.228C430.019 110.292 429.707 109.572 429.083 109.068C428.483 108.564 427.715 108.312 426.779 108.312C425.795 108.312 425.003 108.564 424.403 109.068C423.803 109.572 423.503 110.292 423.503 111.228C423.503 112.164 423.803 112.884 424.403 113.388C425.003 113.892 425.795 114.144 426.779 114.144ZM422.459 125.196C422.459 126.084 422.867 126.744 423.683 127.176C424.523 127.632 425.543 127.86 426.743 127.86C427.895 127.86 428.831 127.62 429.551 127.14C430.271 126.684 430.631 126.06 430.631 125.268C430.631 124.62 430.391 124.08 429.911 123.648C429.455 123.216 428.531 122.952 427.139 122.856C426.155 122.784 425.243 122.676 424.403 122.532C423.707 122.916 423.203 123.336 422.891 123.792C422.603 124.248 422.459 124.716 422.459 125.196ZM447.688 123.432C445.888 123.432 444.292 123.048 442.9 122.28C441.508 121.512 440.416 120.432 439.624 119.04C438.832 117.648 438.436 116.04 438.436 114.216C438.436 112.368 438.82 110.724 439.588 109.284C440.38 107.844 441.46 106.728 442.828 105.936C444.22 105.12 445.852 104.712 447.724 104.712C449.476 104.712 451.024 105.096 452.368 105.864C453.712 106.632 454.756 107.688 455.5 109.032C456.268 110.352 456.652 111.828 456.652 113.46C456.652 113.724 456.64 114 456.616 114.288C456.616 114.576 456.604 114.876 456.58 115.188H443.008C443.104 116.58 443.584 117.672 444.448 118.464C445.336 119.256 446.404 119.652 447.652 119.652C448.588 119.652 449.368 119.448 449.992 119.04C450.64 118.608 451.12 118.056 451.432 117.384H456.112C455.776 118.512 455.212 119.544 454.42 120.48C453.652 121.392 452.692 122.112 451.54 122.64C450.412 123.168 449.128 123.432 447.688 123.432ZM447.724 108.456C446.596 108.456 445.6 108.78 444.736 109.428C443.872 110.052 443.32 111.012 443.08 112.308H451.972C451.9 111.132 451.468 110.196 450.676 109.5C449.884 108.804 448.9 108.456 447.724 108.456ZM458.692 127.176L460.744 118.212H465.208L461.716 127.176H458.692ZM477.438 130.92V105.144H481.542L482.046 107.7C482.622 106.908 483.378 106.212 484.314 105.612C485.274 105.012 486.51 104.712 488.022 104.712C489.702 104.712 491.202 105.12 492.522 105.936C493.842 106.752 494.886 107.868 495.654 109.284C496.422 110.7 496.806 112.308 496.806 114.108C496.806 115.908 496.422 117.516 495.654 118.932C494.886 120.324 493.842 121.428 492.522 122.244C491.202 123.036 489.702 123.432 488.022 123.432C486.678 123.432 485.502 123.18 484.494 122.676C483.486 122.172 482.67 121.464 482.046 120.552V130.92H477.438ZM487.05 119.4C488.514 119.4 489.726 118.908 490.686 117.924C491.646 116.94 492.126 115.668 492.126 114.108C492.126 112.548 491.646 111.264 490.686 110.256C489.726 109.248 488.514 108.744 487.05 108.744C485.562 108.744 484.338 109.248 483.378 110.256C482.442 111.24 481.974 112.512 481.974 114.072C481.974 115.632 482.442 116.916 483.378 117.924C484.338 118.908 485.562 119.4 487.05 119.4ZM500.922 123V105.144H505.026L505.458 108.492C506.106 107.34 506.982 106.428 508.086 105.756C509.214 105.06 510.534 104.712 512.046 104.712V109.572H510.75C509.742 109.572 508.842 109.728 508.05 110.04C507.258 110.352 506.634 110.892 506.178 111.66C505.746 112.428 505.53 113.496 505.53 114.864V123H500.922ZM523.447 123.432C521.719 123.432 520.159 123.036 518.767 122.244C517.399 121.452 516.307 120.36 515.491 118.968C514.699 117.552 514.303 115.92 514.303 114.072C514.303 112.224 514.711 110.604 515.527 109.212C516.343 107.796 517.435 106.692 518.803 105.9C520.195 105.108 521.755 104.712 523.483 104.712C525.187 104.712 526.723 105.108 528.091 105.9C529.483 106.692 530.575 107.796 531.367 109.212C532.183 110.604 532.591 112.224 532.591 114.072C532.591 115.92 532.183 117.552 531.367 118.968C530.575 120.36 529.483 121.452 528.091 122.244C526.699 123.036 525.151 123.432 523.447 123.432ZM523.447 119.436C524.647 119.436 525.691 118.992 526.579 118.104C527.467 117.192 527.911 115.848 527.911 114.072C527.911 112.296 527.467 110.964 526.579 110.076C525.691 109.164 524.659 108.708 523.483 108.708C522.259 108.708 521.203 109.164 520.315 110.076C519.451 110.964 519.019 112.296 519.019 114.072C519.019 115.848 519.451 117.192 520.315 118.104C521.203 118.992 522.247 119.436 523.447 119.436ZM547.295 123.432C545.951 123.432 544.775 123.18 543.767 122.676C542.759 122.172 541.943 121.464 541.319 120.552L540.815 123H536.711V97.08H541.319V107.7C541.895 106.908 542.651 106.212 543.587 105.612C544.547 105.012 545.783 104.712 547.295 104.712C548.975 104.712 550.475 105.12 551.795 105.936C553.115 106.752 554.159 107.868 554.927 109.284C555.695 110.7 556.079 112.308 556.079 114.108C556.079 115.908 555.695 117.516 554.927 118.932C554.159 120.324 553.115 121.428 551.795 122.244C550.475 123.036 548.975 123.432 547.295 123.432ZM546.323 119.4C547.787 119.4 548.999 118.908 549.959 117.924C550.919 116.94 551.399 115.668 551.399 114.108C551.399 112.548 550.919 111.264 549.959 110.256C548.999 109.248 547.787 108.744 546.323 108.744C544.835 108.744 543.611 109.248 542.651 110.256C541.715 111.24 541.247 112.512 541.247 114.072C541.247 115.632 541.715 116.916 542.651 117.924C543.611 118.908 544.835 119.4 546.323 119.4ZM560.195 123V97.08H564.803V123H560.195ZM578.188 123.432C576.388 123.432 574.792 123.048 573.4 122.28C572.008 121.512 570.916 120.432 570.124 119.04C569.332 117.648 568.936 116.04 568.936 114.216C568.936 112.368 569.32 110.724 570.088 109.284C570.88 107.844 571.96 106.728 573.328 105.936C574.72 105.12 576.352 104.712 578.224 104.712C579.976 104.712 581.524 105.096 582.868 105.864C584.212 106.632 585.256 107.688 586 109.032C586.768 110.352 587.152 111.828 587.152 113.46C587.152 113.724 587.14 114 587.116 114.288C587.116 114.576 587.104 114.876 587.08 115.188H573.508C573.604 116.58 574.084 117.672 574.948 118.464C575.836 119.256 576.904 119.652 578.152 119.652C579.088 119.652 579.868 119.448 580.492 119.04C581.14 118.608 581.62 118.056 581.932 117.384H586.612C586.276 118.512 585.712 119.544 584.92 120.48C584.152 121.392 583.192 122.112 582.04 122.64C580.912 123.168 579.628 123.432 578.188 123.432ZM578.224 108.456C577.096 108.456 576.1 108.78 575.236 109.428C574.372 110.052 573.82 111.012 573.58 112.308H582.472C582.4 111.132 581.968 110.196 581.176 109.5C580.384 108.804 579.4 108.456 578.224 108.456ZM591.028 123V105.144H595.096L595.492 107.556C596.068 106.692 596.824 106.008 597.76 105.504C598.72 104.976 599.824 104.712 601.072 104.712C603.832 104.712 605.788 105.78 606.94 107.916C607.588 106.932 608.452 106.152 609.532 105.576C610.636 105 611.836 104.712 613.132 104.712C615.46 104.712 617.248 105.408 618.496 106.8C619.744 108.192 620.368 110.232 620.368 112.92V123H615.76V113.352C615.76 111.816 615.46 110.64 614.86 109.824C614.284 109.008 613.384 108.6 612.16 108.6C610.912 108.6 609.904 109.056 609.136 109.968C608.392 110.88 608.02 112.152 608.02 113.784V123H603.412V113.352C603.412 111.816 603.112 110.64 602.512 109.824C601.912 109.008 600.988 108.6 599.74 108.6C598.516 108.6 597.52 109.056 596.752 109.968C596.008 110.88 595.636 112.152 595.636 113.784V123H591.028ZM632.122 123.432C630.538 123.432 629.146 123.18 627.946 122.676C626.746 122.148 625.786 121.428 625.066 120.516C624.346 119.604 623.914 118.548 623.77 117.348H628.414C628.558 118.044 628.942 118.644 629.566 119.148C630.214 119.628 631.042 119.868 632.05 119.868C633.058 119.868 633.79 119.664 634.246 119.256C634.726 118.848 634.966 118.38 634.966 117.852C634.966 117.084 634.63 116.568 633.958 116.304C633.286 116.016 632.35 115.74 631.15 115.476C630.382 115.308 629.602 115.104 628.81 114.864C628.018 114.624 627.286 114.324 626.614 113.964C625.966 113.58 625.438 113.1 625.03 112.524C624.622 111.924 624.418 111.192 624.418 110.328C624.418 108.744 625.042 107.412 626.29 106.332C627.562 105.252 629.338 104.712 631.618 104.712C633.73 104.712 635.41 105.204 636.658 106.188C637.93 107.172 638.686 108.528 638.926 110.256H634.57C634.306 108.936 633.31 108.276 631.582 108.276C630.718 108.276 630.046 108.444 629.566 108.78C629.11 109.116 628.882 109.536 628.882 110.04C628.882 110.568 629.23 110.988 629.926 111.3C630.622 111.612 631.546 111.9 632.698 112.164C633.946 112.452 635.086 112.776 636.118 113.136C637.174 113.472 638.014 113.988 638.638 114.684C639.262 115.356 639.574 116.328 639.574 117.6C639.598 118.704 639.31 119.7 638.71 120.588C638.11 121.476 637.246 122.172 636.118 122.676C634.99 123.18 633.658 123.432 632.122 123.432ZM655.727 123L650.507 105.144H655.079L658.175 117.996L661.775 105.144H666.887L670.487 117.996L673.619 105.144H678.191L672.935 123H668.147L664.331 109.644L660.515 123H655.727ZM683.582 102.372C682.742 102.372 682.046 102.12 681.494 101.616C680.966 101.112 680.702 100.476 680.702 99.708C680.702 98.94 680.966 98.316 681.494 97.836C682.046 97.332 682.742 97.08 683.582 97.08C684.422 97.08 685.106 97.332 685.634 97.836C686.186 98.316 686.462 98.94 686.462 99.708C686.462 100.476 686.186 101.112 685.634 101.616C685.106 102.12 684.422 102.372 683.582 102.372ZM681.278 123V105.144H685.886V123H681.278ZM698.651 123C696.779 123 695.279 122.544 694.151 121.632C693.023 120.72 692.459 119.1 692.459 116.772V108.996H689.399V105.144H692.459L692.999 100.356H697.067V105.144H701.891V108.996H697.067V116.808C697.067 117.672 697.247 118.272 697.607 118.608C697.991 118.92 698.639 119.076 699.551 119.076H701.783V123H698.651ZM705.848 123V97.08H710.456V107.88C711.056 106.896 711.86 106.128 712.868 105.576C713.9 105 715.076 104.712 716.396 104.712C718.604 104.712 720.308 105.408 721.508 106.8C722.732 108.192 723.344 110.232 723.344 112.92V123H718.772V113.352C718.772 111.816 718.46 110.64 717.836 109.824C717.236 109.008 716.276 108.6 714.956 108.6C713.66 108.6 712.58 109.056 711.716 109.968C710.876 110.88 710.456 112.152 710.456 113.784V123H705.848ZM747.452 123.432C745.076 123.432 743 122.892 741.224 121.812C739.448 120.732 738.068 119.232 737.084 117.312C736.1 115.368 735.608 113.112 735.608 110.544C735.608 107.952 736.112 105.672 737.12 103.704C738.152 101.712 739.604 100.164 741.476 99.06C743.372 97.932 745.616 97.368 748.208 97.368C751.16 97.368 753.608 98.076 755.552 99.492C757.496 100.908 758.756 102.864 759.332 105.36H754.184C753.8 104.184 753.104 103.272 752.096 102.624C751.088 101.952 749.792 101.616 748.208 101.616C745.688 101.616 743.744 102.42 742.376 104.028C741.008 105.612 740.324 107.796 740.324 110.58C740.324 113.364 740.996 115.524 742.34 117.06C743.708 118.572 745.556 119.328 747.884 119.328C750.164 119.328 751.88 118.716 753.032 117.492C754.208 116.244 754.916 114.612 755.156 112.596H748.784V109.14H759.8V123H755.552L755.192 119.688C754.376 120.888 753.356 121.812 752.132 122.46C750.908 123.108 749.348 123.432 747.452 123.432ZM772.74 123.432C771.012 123.432 769.452 123.036 768.06 122.244C766.692 121.452 765.6 120.36 764.784 118.968C763.992 117.552 763.596 115.92 763.596 114.072C763.596 112.224 764.004 110.604 764.82 109.212C765.636 107.796 766.728 106.692 768.096 105.9C769.488 105.108 771.048 104.712 772.776 104.712C774.48 104.712 776.016 105.108 777.384 105.9C778.776 106.692 779.868 107.796 780.66 109.212C781.476 110.604 781.884 112.224 781.884 114.072C781.884 115.92 781.476 117.552 780.66 118.968C779.868 120.36 778.776 121.452 777.384 122.244C775.992 123.036 774.444 123.432 772.74 123.432ZM772.74 119.436C773.94 119.436 774.984 118.992 775.872 118.104C776.76 117.192 777.204 115.848 777.204 114.072C777.204 112.296 776.76 110.964 775.872 110.076C774.984 109.164 773.952 108.708 772.776 108.708C771.552 108.708 770.496 109.164 769.608 110.076C768.744 110.964 768.312 112.296 768.312 114.072C768.312 115.848 768.744 117.192 769.608 118.104C770.496 118.992 771.54 119.436 772.74 119.436ZM794.572 123.432C792.844 123.432 791.284 123.036 789.892 122.244C788.524 121.452 787.432 120.36 786.616 118.968C785.824 117.552 785.428 115.92 785.428 114.072C785.428 112.224 785.836 110.604 786.652 109.212C787.468 107.796 788.56 106.692 789.928 105.9C791.32 105.108 792.88 104.712 794.608 104.712C796.312 104.712 797.848 105.108 799.216 105.9C800.608 106.692 801.7 107.796 802.492 109.212C803.308 110.604 803.716 112.224 803.716 114.072C803.716 115.92 803.308 117.552 802.492 118.968C801.7 120.36 800.608 121.452 799.216 122.244C797.824 123.036 796.276 123.432 794.572 123.432ZM794.572 119.436C795.772 119.436 796.816 118.992 797.704 118.104C798.592 117.192 799.036 115.848 799.036 114.072C799.036 112.296 798.592 110.964 797.704 110.076C796.816 109.164 795.784 108.708 794.608 108.708C793.384 108.708 792.328 109.164 791.44 110.076C790.576 110.964 790.144 112.296 790.144 114.072C790.144 115.848 790.576 117.192 791.44 118.104C792.328 118.992 793.372 119.436 794.572 119.436ZM814.271 117.672C813.407 117.672 812.603 117.576 811.859 117.384L810.527 118.716C810.935 118.932 811.487 119.112 812.183 119.256C812.879 119.4 814.007 119.544 815.567 119.688C817.943 119.904 819.671 120.468 820.751 121.38C821.831 122.292 822.371 123.552 822.371 125.16C822.371 126.216 822.083 127.212 821.507 128.148C820.931 129.108 820.043 129.876 818.843 130.452C817.643 131.052 816.107 131.352 814.235 131.352C811.691 131.352 809.639 130.872 808.079 129.912C806.519 128.976 805.739 127.56 805.739 125.664C805.739 124.056 806.519 122.664 808.079 121.488C807.599 121.272 807.179 121.044 806.819 120.804C806.483 120.564 806.183 120.312 805.919 120.048V119.22L809.051 115.908C807.659 114.684 806.963 113.112 806.963 111.192C806.963 109.992 807.251 108.9 807.827 107.916C808.427 106.932 809.267 106.152 810.347 105.576C811.427 105 812.735 104.712 814.271 104.712C815.279 104.712 816.215 104.856 817.079 105.144H823.847V107.952L820.787 108.168C821.267 109.08 821.507 110.088 821.507 111.192C821.507 112.392 821.219 113.484 820.643 114.468C820.067 115.452 819.227 116.232 818.123 116.808C817.043 117.384 815.759 117.672 814.271 117.672ZM814.271 114.144C815.207 114.144 815.975 113.892 816.575 113.388C817.199 112.884 817.511 112.164 817.511 111.228C817.511 110.292 817.199 109.572 816.575 109.068C815.975 108.564 815.207 108.312 814.271 108.312C813.287 108.312 812.495 108.564 811.895 109.068C811.295 109.572 810.995 110.292 810.995 111.228C810.995 112.164 811.295 112.884 811.895 113.388C812.495 113.892 813.287 114.144 814.271 114.144ZM809.951 125.196C809.951 126.084 810.359 126.744 811.175 127.176C812.015 127.632 813.035 127.86 814.235 127.86C815.387 127.86 816.323 127.62 817.043 127.14C817.763 126.684 818.123 126.06 818.123 125.268C818.123 124.62 817.883 124.08 817.403 123.648C816.947 123.216 816.023 122.952 814.631 122.856C813.647 122.784 812.735 122.676 811.895 122.532C811.199 122.916 810.695 123.336 810.383 123.792C810.095 124.248 809.951 124.716 809.951 125.196ZM827.207 123V97.08H831.815V123H827.207ZM845.2 123.432C843.4 123.432 841.804 123.048 840.412 122.28C839.02 121.512 837.928 120.432 837.136 119.04C836.344 117.648 835.948 116.04 835.948 114.216C835.948 112.368 836.332 110.724 837.1 109.284C837.892 107.844 838.972 106.728 840.34 105.936C841.732 105.12 843.364 104.712 845.236 104.712C846.988 104.712 848.536 105.096 849.88 105.864C851.224 106.632 852.268 107.688 853.012 109.032C853.78 110.352 854.164 111.828 854.164 113.46C854.164 113.724 854.152 114 854.128 114.288C854.128 114.576 854.116 114.876 854.092 115.188H840.52C840.616 116.58 841.096 117.672 841.96 118.464C842.848 119.256 843.916 119.652 845.164 119.652C846.1 119.652 846.88 119.448 847.504 119.04C848.152 118.608 848.632 118.056 848.944 117.384H853.624C853.288 118.512 852.724 119.544 851.932 120.48C851.164 121.392 850.204 122.112 849.052 122.64C847.924 123.168 846.64 123.432 845.2 123.432ZM845.236 108.456C844.108 108.456 843.112 108.78 842.248 109.428C841.384 110.052 840.832 111.012 840.592 112.308H849.484C849.412 111.132 848.98 110.196 848.188 109.5C847.396 108.804 846.412 108.456 845.236 108.456ZM95.6609 170V144.8H101.133L109.161 160.784L117.081 144.8H122.553V170H117.945V152.612L110.925 166.4H107.289L100.269 152.612V170H95.6609ZM133.49 170.432C131.954 170.432 130.694 170.192 129.71 169.712C128.726 169.208 127.994 168.548 127.514 167.732C127.034 166.916 126.794 166.016 126.794 165.032C126.794 163.376 127.442 162.032 128.738 161C130.034 159.968 131.978 159.452 134.57 159.452H139.106V159.02C139.106 157.796 138.758 156.896 138.062 156.32C137.366 155.744 136.502 155.456 135.47 155.456C134.534 155.456 133.718 155.684 133.022 156.14C132.326 156.572 131.894 157.22 131.726 158.084H127.226C127.346 156.788 127.778 155.66 128.522 154.7C129.29 153.74 130.274 153.008 131.474 152.504C132.674 151.976 134.018 151.712 135.506 151.712C138.05 151.712 140.054 152.348 141.518 153.62C142.982 154.892 143.714 156.692 143.714 159.02V170H139.79L139.358 167.12C138.83 168.08 138.086 168.872 137.126 169.496C136.19 170.12 134.978 170.432 133.49 170.432ZM134.534 166.832C135.854 166.832 136.874 166.4 137.594 165.536C138.338 164.672 138.806 163.604 138.998 162.332H135.074C133.85 162.332 132.974 162.56 132.446 163.016C131.918 163.448 131.654 163.988 131.654 164.636C131.654 165.332 131.918 165.872 132.446 166.256C132.974 166.64 133.67 166.832 134.534 166.832ZM148.111 177.92V152.144H152.215L152.719 154.7C153.295 153.908 154.051 153.212 154.987 152.612C155.947 152.012 157.183 151.712 158.695 151.712C160.375 151.712 161.875 152.12 163.195 152.936C164.515 153.752 165.559 154.868 166.327 156.284C167.095 157.7 167.479 159.308 167.479 161.108C167.479 162.908 167.095 164.516 166.327 165.932C165.559 167.324 164.515 168.428 163.195 169.244C161.875 170.036 160.375 170.432 158.695 170.432C157.351 170.432 156.175 170.18 155.167 169.676C154.159 169.172 153.343 168.464 152.719 167.552V177.92H148.111ZM157.723 166.4C159.187 166.4 160.399 165.908 161.359 164.924C162.319 163.94 162.799 162.668 162.799 161.108C162.799 159.548 162.319 158.264 161.359 157.256C160.399 156.248 159.187 155.744 157.723 155.744C156.235 155.744 155.011 156.248 154.051 157.256C153.115 158.24 152.647 159.512 152.647 161.072C152.647 162.632 153.115 163.916 154.051 164.924C155.011 165.908 156.235 166.4 157.723 166.4ZM178.976 170.432C177.392 170.432 176 170.18 174.8 169.676C173.6 169.148 172.64 168.428 171.92 167.516C171.2 166.604 170.768 165.548 170.624 164.348H175.268C175.412 165.044 175.796 165.644 176.42 166.148C177.068 166.628 177.896 166.868 178.904 166.868C179.912 166.868 180.644 166.664 181.1 166.256C181.58 165.848 181.82 165.38 181.82 164.852C181.82 164.084 181.484 163.568 180.812 163.304C180.14 163.016 179.204 162.74 178.004 162.476C177.236 162.308 176.456 162.104 175.664 161.864C174.872 161.624 174.14 161.324 173.468 160.964C172.82 160.58 172.292 160.1 171.884 159.524C171.476 158.924 171.272 158.192 171.272 157.328C171.272 155.744 171.896 154.412 173.144 153.332C174.416 152.252 176.192 151.712 178.472 151.712C180.584 151.712 182.264 152.204 183.512 153.188C184.784 154.172 185.54 155.528 185.78 157.256H181.424C181.16 155.936 180.164 155.276 178.436 155.276C177.572 155.276 176.9 155.444 176.42 155.78C175.964 156.116 175.736 156.536 175.736 157.04C175.736 157.568 176.084 157.988 176.78 158.3C177.476 158.612 178.4 158.9 179.552 159.164C180.8 159.452 181.94 159.776 182.972 160.136C184.028 160.472 184.868 160.988 185.492 161.684C186.116 162.356 186.428 163.328 186.428 164.6C186.452 165.704 186.164 166.7 185.564 167.588C184.964 168.476 184.1 169.172 182.972 169.676C181.844 170.18 180.512 170.432 178.976 170.432ZM201.572 149.372C200.732 149.372 200.036 149.12 199.484 148.616C198.956 148.112 198.692 147.476 198.692 146.708C198.692 145.94 198.956 145.316 199.484 144.836C200.036 144.332 200.732 144.08 201.572 144.08C202.412 144.08 203.096 144.332 203.624 144.836C204.176 145.316 204.452 145.94 204.452 146.708C204.452 147.476 204.176 148.112 203.624 148.616C203.096 149.12 202.412 149.372 201.572 149.372ZM199.268 170V152.144H203.876V170H199.268ZM208.686 170V152.144H212.754L213.114 155.168C213.666 154.112 214.458 153.272 215.49 152.648C216.546 152.024 217.782 151.712 219.198 151.712C221.406 151.712 223.122 152.408 224.346 153.8C225.57 155.192 226.182 157.232 226.182 159.92V170H221.574V160.352C221.574 158.816 221.262 157.64 220.638 156.824C220.014 156.008 219.042 155.6 217.722 155.6C216.426 155.6 215.358 156.056 214.518 156.968C213.702 157.88 213.294 159.152 213.294 160.784V170H208.686ZM243.99 170L237.438 152.144H242.262L246.798 165.644L251.334 152.144H256.158L249.57 170H243.99ZM266.862 170.432C265.062 170.432 263.466 170.048 262.074 169.28C260.682 168.512 259.59 167.432 258.798 166.04C258.006 164.648 257.61 163.04 257.61 161.216C257.61 159.368 257.994 157.724 258.762 156.284C259.554 154.844 260.634 153.728 262.002 152.936C263.394 152.12 265.026 151.712 266.898 151.712C268.65 151.712 270.198 152.096 271.542 152.864C272.886 153.632 273.93 154.688 274.674 156.032C275.442 157.352 275.826 158.828 275.826 160.46C275.826 160.724 275.814 161 275.79 161.288C275.79 161.576 275.778 161.876 275.754 162.188H262.182C262.278 163.58 262.758 164.672 263.622 165.464C264.51 166.256 265.578 166.652 266.826 166.652C267.762 166.652 268.542 166.448 269.166 166.04C269.814 165.608 270.294 165.056 270.606 164.384H275.286C274.95 165.512 274.386 166.544 273.594 167.48C272.826 168.392 271.866 169.112 270.714 169.64C269.586 170.168 268.302 170.432 266.862 170.432ZM266.898 155.456C265.77 155.456 264.774 155.78 263.91 156.428C263.046 157.052 262.494 158.012 262.254 159.308H271.146C271.074 158.132 270.642 157.196 269.85 156.5C269.058 155.804 268.074 155.456 266.898 155.456ZM279.701 170V152.144H283.805L284.237 155.492C284.885 154.34 285.761 153.428 286.865 152.756C287.993 152.06 289.313 151.712 290.825 151.712V156.572H289.529C288.521 156.572 287.621 156.728 286.829 157.04C286.037 157.352 285.413 157.892 284.957 158.66C284.525 159.428 284.309 160.496 284.309 161.864V170H279.701ZM296.207 177.92L300.347 168.812H299.267L292.319 152.144H297.323L302.327 164.708L307.547 152.144H312.443L301.103 177.92H296.207ZM324.033 170V152.144H328.137L328.569 155.492C329.217 154.34 330.093 153.428 331.197 152.756C332.325 152.06 333.645 151.712 335.157 151.712V156.572H333.861C332.853 156.572 331.953 156.728 331.161 157.04C330.369 157.352 329.745 157.892 329.289 158.66C328.857 159.428 328.641 160.496 328.641 161.864V170H324.033ZM346.666 170.432C344.866 170.432 343.27 170.048 341.878 169.28C340.486 168.512 339.394 167.432 338.602 166.04C337.81 164.648 337.414 163.04 337.414 161.216C337.414 159.368 337.798 157.724 338.566 156.284C339.358 154.844 340.438 153.728 341.806 152.936C343.198 152.12 344.83 151.712 346.702 151.712C348.454 151.712 350.002 152.096 351.346 152.864C352.69 153.632 353.734 154.688 354.478 156.032C355.246 157.352 355.63 158.828 355.63 160.46C355.63 160.724 355.618 161 355.594 161.288C355.594 161.576 355.582 161.876 355.558 162.188H341.986C342.082 163.58 342.562 164.672 343.426 165.464C344.314 166.256 345.382 166.652 346.63 166.652C347.566 166.652 348.346 166.448 348.97 166.04C349.618 165.608 350.098 165.056 350.41 164.384H355.09C354.754 165.512 354.19 166.544 353.398 167.48C352.63 168.392 351.67 169.112 350.518 169.64C349.39 170.168 348.106 170.432 346.666 170.432ZM346.702 155.456C345.574 155.456 344.578 155.78 343.714 156.428C342.85 157.052 342.298 158.012 342.058 159.308H350.95C350.878 158.132 350.446 157.196 349.654 156.5C348.862 155.804 347.878 155.456 346.702 155.456ZM359.506 170V152.144H363.574L363.97 154.556C364.546 153.692 365.302 153.008 366.238 152.504C367.198 151.976 368.302 151.712 369.55 151.712C372.31 151.712 374.266 152.78 375.418 154.916C376.066 153.932 376.93 153.152 378.01 152.576C379.114 152 380.314 151.712 381.61 151.712C383.938 151.712 385.726 152.408 386.974 153.8C388.222 155.192 388.846 157.232 388.846 159.92V170H384.238V160.352C384.238 158.816 383.938 157.64 383.338 156.824C382.762 156.008 381.862 155.6 380.638 155.6C379.39 155.6 378.382 156.056 377.614 156.968C376.87 157.88 376.498 159.152 376.498 160.784V170H371.89V160.352C371.89 158.816 371.59 157.64 370.99 156.824C370.39 156.008 369.466 155.6 368.218 155.6C366.994 155.6 365.998 156.056 365.23 156.968C364.486 157.88 364.114 159.152 364.114 160.784V170H359.506ZM401.789 170.432C400.061 170.432 398.501 170.036 397.109 169.244C395.741 168.452 394.649 167.36 393.833 165.968C393.041 164.552 392.645 162.92 392.645 161.072C392.645 159.224 393.053 157.604 393.869 156.212C394.685 154.796 395.777 153.692 397.145 152.9C398.537 152.108 400.097 151.712 401.825 151.712C403.529 151.712 405.065 152.108 406.433 152.9C407.825 153.692 408.917 154.796 409.709 156.212C410.525 157.604 410.933 159.224 410.933 161.072C410.933 162.92 410.525 164.552 409.709 165.968C408.917 167.36 407.825 168.452 406.433 169.244C405.041 170.036 403.493 170.432 401.789 170.432ZM401.789 166.436C402.989 166.436 404.033 165.992 404.921 165.104C405.809 164.192 406.253 162.848 406.253 161.072C406.253 159.296 405.809 157.964 404.921 157.076C404.033 156.164 403.001 155.708 401.825 155.708C400.601 155.708 399.545 156.164 398.657 157.076C397.793 157.964 397.361 159.296 397.361 161.072C397.361 162.848 397.793 164.192 398.657 165.104C399.545 165.992 400.589 166.436 401.789 166.436ZM422.306 170C420.434 170 418.934 169.544 417.806 168.632C416.678 167.72 416.114 166.1 416.114 163.772V155.996H413.054V152.144H416.114L416.654 147.356H420.722V152.144H425.546V155.996H420.722V163.808C420.722 164.672 420.902 165.272 421.262 165.608C421.646 165.92 422.294 166.076 423.206 166.076H425.438V170H422.306ZM437.721 170.432C435.921 170.432 434.325 170.048 432.933 169.28C431.541 168.512 430.449 167.432 429.657 166.04C428.865 164.648 428.469 163.04 428.469 161.216C428.469 159.368 428.853 157.724 429.621 156.284C430.413 154.844 431.493 153.728 432.861 152.936C434.253 152.12 435.885 151.712 437.757 151.712C439.509 151.712 441.057 152.096 442.401 152.864C443.745 153.632 444.789 154.688 445.533 156.032C446.301 157.352 446.685 158.828 446.685 160.46C446.685 160.724 446.673 161 446.649 161.288C446.649 161.576 446.637 161.876 446.613 162.188H433.041C433.137 163.58 433.617 164.672 434.481 165.464C435.369 166.256 436.437 166.652 437.685 166.652C438.621 166.652 439.401 166.448 440.025 166.04C440.673 165.608 441.153 165.056 441.465 164.384H446.145C445.809 165.512 445.245 166.544 444.453 167.48C443.685 168.392 442.725 169.112 441.573 169.64C440.445 170.168 439.161 170.432 437.721 170.432ZM437.757 155.456C436.629 155.456 435.633 155.78 434.769 156.428C433.905 157.052 433.353 158.012 433.113 159.308H442.005C441.933 158.132 441.501 157.196 440.709 156.5C439.917 155.804 438.933 155.456 437.757 155.456ZM459.139 177.92V152.144H463.243L463.747 154.7C464.323 153.908 465.079 153.212 466.015 152.612C466.975 152.012 468.211 151.712 469.723 151.712C471.403 151.712 472.903 152.12 474.223 152.936C475.543 153.752 476.587 154.868 477.355 156.284C478.123 157.7 478.507 159.308 478.507 161.108C478.507 162.908 478.123 164.516 477.355 165.932C476.587 167.324 475.543 168.428 474.223 169.244C472.903 170.036 471.403 170.432 469.723 170.432C468.379 170.432 467.203 170.18 466.195 169.676C465.187 169.172 464.371 168.464 463.747 167.552V177.92H459.139ZM468.751 166.4C470.215 166.4 471.427 165.908 472.387 164.924C473.347 163.94 473.827 162.668 473.827 161.108C473.827 159.548 473.347 158.264 472.387 157.256C471.427 156.248 470.215 155.744 468.751 155.744C467.263 155.744 466.039 156.248 465.079 157.256C464.143 158.24 463.675 159.512 463.675 161.072C463.675 162.632 464.143 163.916 465.079 164.924C466.039 165.908 467.263 166.4 468.751 166.4ZM482.623 170V144.08H487.231V170H482.623ZM498.096 170.432C496.56 170.432 495.3 170.192 494.316 169.712C493.332 169.208 492.6 168.548 492.12 167.732C491.64 166.916 491.4 166.016 491.4 165.032C491.4 163.376 492.048 162.032 493.344 161C494.64 159.968 496.584 159.452 499.176 159.452H503.712V159.02C503.712 157.796 503.364 156.896 502.668 156.32C501.972 155.744 501.108 155.456 500.076 155.456C499.14 155.456 498.324 155.684 497.628 156.14C496.932 156.572 496.5 157.22 496.332 158.084H491.832C491.952 156.788 492.384 155.66 493.128 154.7C493.896 153.74 494.88 153.008 496.08 152.504C497.28 151.976 498.624 151.712 500.112 151.712C502.656 151.712 504.66 152.348 506.124 153.62C507.588 154.892 508.32 156.692 508.32 159.02V170H504.396L503.964 167.12C503.436 168.08 502.692 168.872 501.732 169.496C500.796 170.12 499.584 170.432 498.096 170.432ZM499.14 166.832C500.46 166.832 501.48 166.4 502.2 165.536C502.944 164.672 503.412 163.604 503.604 162.332H499.68C498.456 162.332 497.58 162.56 497.052 163.016C496.524 163.448 496.26 163.988 496.26 164.636C496.26 165.332 496.524 165.872 497.052 166.256C497.58 166.64 498.276 166.832 499.14 166.832ZM521.465 170.432C519.641 170.432 518.033 170.036 516.641 169.244C515.249 168.452 514.145 167.348 513.329 165.932C512.537 164.516 512.141 162.896 512.141 161.072C512.141 159.248 512.537 157.628 513.329 156.212C514.145 154.796 515.249 153.692 516.641 152.9C518.033 152.108 519.641 151.712 521.465 151.712C523.745 151.712 525.665 152.312 527.225 153.512C528.785 154.688 529.781 156.32 530.213 158.408H525.353C525.113 157.544 524.633 156.872 523.913 156.392C523.217 155.888 522.389 155.636 521.429 155.636C520.157 155.636 519.077 156.116 518.189 157.076C517.301 158.036 516.857 159.368 516.857 161.072C516.857 162.776 517.301 164.108 518.189 165.068C519.077 166.028 520.157 166.508 521.429 166.508C522.389 166.508 523.217 166.268 523.913 165.788C524.633 165.308 525.113 164.624 525.353 163.736H530.213C529.781 165.752 528.785 167.372 527.225 168.596C525.665 169.82 523.745 170.432 521.465 170.432ZM542.979 170.432C541.179 170.432 539.583 170.048 538.191 169.28C536.799 168.512 535.707 167.432 534.915 166.04C534.123 164.648 533.727 163.04 533.727 161.216C533.727 159.368 534.111 157.724 534.879 156.284C535.671 154.844 536.751 153.728 538.119 152.936C539.511 152.12 541.143 151.712 543.015 151.712C544.767 151.712 546.315 152.096 547.659 152.864C549.003 153.632 550.047 154.688 550.791 156.032C551.559 157.352 551.943 158.828 551.943 160.46C551.943 160.724 551.931 161 551.907 161.288C551.907 161.576 551.895 161.876 551.871 162.188H538.299C538.395 163.58 538.875 164.672 539.739 165.464C540.627 166.256 541.695 166.652 542.943 166.652C543.879 166.652 544.659 166.448 545.283 166.04C545.931 165.608 546.411 165.056 546.723 164.384H551.403C551.067 165.512 550.503 166.544 549.711 167.48C548.943 168.392 547.983 169.112 546.831 169.64C545.703 170.168 544.419 170.432 542.979 170.432ZM543.015 155.456C541.887 155.456 540.891 155.78 540.027 156.428C539.163 157.052 538.611 158.012 538.371 159.308H547.263C547.191 158.132 546.759 157.196 545.967 156.5C545.175 155.804 544.191 155.456 543.015 155.456ZM563.199 170.432C561.615 170.432 560.223 170.18 559.023 169.676C557.823 169.148 556.863 168.428 556.143 167.516C555.423 166.604 554.991 165.548 554.847 164.348H559.491C559.635 165.044 560.019 165.644 560.643 166.148C561.291 166.628 562.119 166.868 563.127 166.868C564.135 166.868 564.867 166.664 565.323 166.256C565.803 165.848 566.043 165.38 566.043 164.852C566.043 164.084 565.707 163.568 565.035 163.304C564.363 163.016 563.427 162.74 562.227 162.476C561.459 162.308 560.679 162.104 559.887 161.864C559.095 161.624 558.363 161.324 557.691 160.964C557.043 160.58 556.515 160.1 556.107 159.524C555.699 158.924 555.495 158.192 555.495 157.328C555.495 155.744 556.119 154.412 557.367 153.332C558.639 152.252 560.415 151.712 562.695 151.712C564.807 151.712 566.487 152.204 567.735 153.188C569.007 154.172 569.763 155.528 570.003 157.256H565.647C565.383 155.936 564.387 155.276 562.659 155.276C561.795 155.276 561.123 155.444 560.643 155.78C560.187 156.116 559.959 156.536 559.959 157.04C559.959 157.568 560.307 157.988 561.003 158.3C561.699 158.612 562.623 158.9 563.775 159.164C565.023 159.452 566.163 159.776 567.195 160.136C568.251 160.472 569.091 160.988 569.715 161.684C570.339 162.356 570.651 163.328 570.651 164.6C570.675 165.704 570.387 166.7 569.787 167.588C569.187 168.476 568.323 169.172 567.195 169.676C566.067 170.18 564.735 170.432 563.199 170.432ZM591.879 170.432C590.151 170.432 588.591 170.036 587.199 169.244C585.831 168.452 584.739 167.36 583.923 165.968C583.131 164.552 582.735 162.92 582.735 161.072C582.735 159.224 583.143 157.604 583.959 156.212C584.775 154.796 585.867 153.692 587.235 152.9C588.627 152.108 590.187 151.712 591.915 151.712C593.619 151.712 595.155 152.108 596.523 152.9C597.915 153.692 599.007 154.796 599.799 156.212C600.615 157.604 601.023 159.224 601.023 161.072C601.023 162.92 600.615 164.552 599.799 165.968C599.007 167.36 597.915 168.452 596.523 169.244C595.131 170.036 593.583 170.432 591.879 170.432ZM591.879 166.436C593.079 166.436 594.123 165.992 595.011 165.104C595.899 164.192 596.343 162.848 596.343 161.072C596.343 159.296 595.899 157.964 595.011 157.076C594.123 156.164 593.091 155.708 591.915 155.708C590.691 155.708 589.635 156.164 588.747 157.076C587.883 157.964 587.451 159.296 587.451 161.072C587.451 162.848 587.883 164.192 588.747 165.104C589.635 165.992 590.679 166.436 591.879 166.436ZM605.143 170V152.144H609.247L609.679 155.492C610.327 154.34 611.203 153.428 612.307 152.756C613.435 152.06 614.755 151.712 616.267 151.712V156.572H614.971C613.963 156.572 613.063 156.728 612.271 157.04C611.479 157.352 610.855 157.892 610.399 158.66C609.967 159.428 609.751 160.496 609.751 161.864V170H605.143ZM631.486 170L626.266 152.144H630.838L633.934 164.996L637.534 152.144H642.646L646.246 164.996L649.378 152.144H653.95L648.694 170H643.906L640.09 156.644L636.274 170H631.486ZM659.342 149.372C658.502 149.372 657.806 149.12 657.254 148.616C656.726 148.112 656.462 147.476 656.462 146.708C656.462 145.94 656.726 145.316 657.254 144.836C657.806 144.332 658.502 144.08 659.342 144.08C660.182 144.08 660.866 144.332 661.394 144.836C661.946 145.316 662.222 145.94 662.222 146.708C662.222 147.476 661.946 148.112 661.394 148.616C660.866 149.12 660.182 149.372 659.342 149.372ZM657.038 170V152.144H661.646V170H657.038ZM674.411 170C672.539 170 671.039 169.544 669.911 168.632C668.783 167.72 668.219 166.1 668.219 163.772V155.996H665.159V152.144H668.219L668.759 147.356H672.827V152.144H677.651V155.996H672.827V163.808C672.827 164.672 673.007 165.272 673.367 165.608C673.751 165.92 674.399 166.076 675.311 166.076H677.543V170H674.411ZM681.608 170V144.08H686.216V154.88C686.816 153.896 687.62 153.128 688.628 152.576C689.66 152 690.836 151.712 692.156 151.712C694.364 151.712 696.068 152.408 697.268 153.8C698.492 155.192 699.104 157.232 699.104 159.92V170H694.532V160.352C694.532 158.816 694.22 157.64 693.596 156.824C692.996 156.008 692.036 155.6 690.716 155.6C689.42 155.6 688.34 156.056 687.476 156.968C686.636 157.88 686.216 159.152 686.216 160.784V170H681.608ZM719.468 170.432C717.884 170.432 716.492 170.18 715.292 169.676C714.092 169.148 713.132 168.428 712.412 167.516C711.692 166.604 711.26 165.548 711.116 164.348H715.76C715.904 165.044 716.288 165.644 716.912 166.148C717.56 166.628 718.388 166.868 719.396 166.868C720.404 166.868 721.136 166.664 721.592 166.256C722.072 165.848 722.312 165.38 722.312 164.852C722.312 164.084 721.976 163.568 721.304 163.304C720.632 163.016 719.696 162.74 718.496 162.476C717.728 162.308 716.948 162.104 716.156 161.864C715.364 161.624 714.632 161.324 713.96 160.964C713.312 160.58 712.784 160.1 712.376 159.524C711.968 158.924 711.764 158.192 711.764 157.328C711.764 155.744 712.388 154.412 713.636 153.332C714.908 152.252 716.684 151.712 718.964 151.712C721.076 151.712 722.756 152.204 724.004 153.188C725.276 154.172 726.032 155.528 726.272 157.256H721.916C721.652 155.936 720.656 155.276 718.928 155.276C718.064 155.276 717.392 155.444 716.912 155.78C716.456 156.116 716.228 156.536 716.228 157.04C716.228 157.568 716.576 157.988 717.272 158.3C717.968 158.612 718.892 158.9 720.044 159.164C721.292 159.452 722.432 159.776 723.464 160.136C724.52 160.472 725.36 160.988 725.984 161.684C726.608 162.356 726.92 163.328 726.92 164.6C726.944 165.704 726.656 166.7 726.056 167.588C725.456 168.476 724.592 169.172 723.464 169.676C722.336 170.18 721.004 170.432 719.468 170.432ZM731.002 170V152.144H735.07L735.466 154.556C736.042 153.692 736.798 153.008 737.734 152.504C738.694 151.976 739.798 151.712 741.046 151.712C743.806 151.712 745.762 152.78 746.914 154.916C747.562 153.932 748.426 153.152 749.506 152.576C750.61 152 751.81 151.712 753.106 151.712C755.434 151.712 757.222 152.408 758.47 153.8C759.718 155.192 760.342 157.232 760.342 159.92V170H755.734V160.352C755.734 158.816 755.434 157.64 754.834 156.824C754.258 156.008 753.358 155.6 752.134 155.6C750.886 155.6 749.878 156.056 749.11 156.968C748.366 157.88 747.994 159.152 747.994 160.784V170H743.386V160.352C743.386 158.816 743.086 157.64 742.486 156.824C741.886 156.008 740.962 155.6 739.714 155.6C738.49 155.6 737.494 156.056 736.726 156.968C735.982 157.88 735.61 159.152 735.61 160.784V170H731.002ZM770.873 170.432C769.337 170.432 768.077 170.192 767.093 169.712C766.109 169.208 765.377 168.548 764.897 167.732C764.417 166.916 764.177 166.016 764.177 165.032C764.177 163.376 764.825 162.032 766.121 161C767.417 159.968 769.361 159.452 771.953 159.452H776.489V159.02C776.489 157.796 776.141 156.896 775.445 156.32C774.749 155.744 773.885 155.456 772.853 155.456C771.917 155.456 771.101 155.684 770.405 156.14C769.709 156.572 769.277 157.22 769.109 158.084H764.609C764.729 156.788 765.161 155.66 765.905 154.7C766.673 153.74 767.657 153.008 768.857 152.504C770.057 151.976 771.401 151.712 772.889 151.712C775.433 151.712 777.437 152.348 778.901 153.62C780.365 154.892 781.097 156.692 781.097 159.02V170H777.173L776.741 167.12C776.213 168.08 775.469 168.872 774.509 169.496C773.573 170.12 772.361 170.432 770.873 170.432ZM771.917 166.832C773.237 166.832 774.257 166.4 774.977 165.536C775.721 164.672 776.189 163.604 776.381 162.332H772.457C771.233 162.332 770.357 162.56 769.829 163.016C769.301 163.448 769.037 163.988 769.037 164.636C769.037 165.332 769.301 165.872 769.829 166.256C770.357 166.64 771.053 166.832 771.917 166.832ZM785.494 170V144.08H790.102V170H785.494ZM794.811 170V144.08H799.419V170H794.811ZM72.9095 217.432C71.3255 217.432 69.9335 217.18 68.7335 216.676C67.5335 216.148 66.5735 215.428 65.8535 214.516C65.1335 213.604 64.7015 212.548 64.5575 211.348H69.2015C69.3455 212.044 69.7295 212.644 70.3535 213.148C71.0015 213.628 71.8295 213.868 72.8375 213.868C73.8455 213.868 74.5775 213.664 75.0335 213.256C75.5135 212.848 75.7535 212.38 75.7535 211.852C75.7535 211.084 75.4175 210.568 74.7455 210.304C74.0735 210.016 73.1375 209.74 71.9375 209.476C71.1695 209.308 70.3895 209.104 69.5975 208.864C68.8055 208.624 68.0735 208.324 67.4015 207.964C66.7535 207.58 66.2255 207.1 65.8175 206.524C65.4095 205.924 65.2055 205.192 65.2055 204.328C65.2055 202.744 65.8295 201.412 67.0775 200.332C68.3495 199.252 70.1255 198.712 72.4055 198.712C74.5175 198.712 76.1975 199.204 77.4455 200.188C78.7175 201.172 79.4735 202.528 79.7135 204.256H75.3575C75.0935 202.936 74.0975 202.276 72.3695 202.276C71.5055 202.276 70.8335 202.444 70.3535 202.78C69.8975 203.116 69.6695 203.536 69.6695 204.04C69.6695 204.568 70.0175 204.988 70.7135 205.3C71.4095 205.612 72.3335 205.9 73.4855 206.164C74.7335 206.452 75.8735 206.776 76.9055 207.136C77.9615 207.472 78.8015 207.988 79.4255 208.684C80.0495 209.356 80.3615 210.328 80.3615 211.6C80.3855 212.704 80.0975 213.7 79.4975 214.588C78.8975 215.476 78.0335 216.172 76.9055 216.676C75.7775 217.18 74.4455 217.432 72.9095 217.432ZM91.837 217C89.965 217 88.465 216.544 87.337 215.632C86.209 214.72 85.645 213.1 85.645 210.772V202.996H82.585V199.144H85.645L86.185 194.356H90.253V199.144H95.077V202.996H90.253V210.808C90.253 211.672 90.433 212.272 90.793 212.608C91.177 212.92 91.825 213.076 92.737 213.076H94.969V217H91.837ZM99.0334 217V199.144H103.137L103.569 202.492C104.217 201.34 105.093 200.428 106.197 199.756C107.325 199.06 108.645 198.712 110.157 198.712V203.572H108.861C107.853 203.572 106.953 203.728 106.161 204.04C105.369 204.352 104.745 204.892 104.289 205.66C103.857 206.428 103.641 207.496 103.641 208.864V217H99.0334ZM121.666 217.432C119.866 217.432 118.27 217.048 116.878 216.28C115.486 215.512 114.394 214.432 113.602 213.04C112.81 211.648 112.414 210.04 112.414 208.216C112.414 206.368 112.798 204.724 113.566 203.284C114.358 201.844 115.438 200.728 116.806 199.936C118.198 199.12 119.83 198.712 121.702 198.712C123.454 198.712 125.002 199.096 126.346 199.864C127.69 200.632 128.734 201.688 129.478 203.032C130.246 204.352 130.63 205.828 130.63 207.46C130.63 207.724 130.618 208 130.594 208.288C130.594 208.576 130.582 208.876 130.558 209.188H116.986C117.082 210.58 117.562 211.672 118.426 212.464C119.314 213.256 120.382 213.652 121.63 213.652C122.566 213.652 123.346 213.448 123.97 213.04C124.618 212.608 125.098 212.056 125.41 211.384H130.09C129.754 212.512 129.19 213.544 128.398 214.48C127.63 215.392 126.67 216.112 125.518 216.64C124.39 217.168 123.106 217.432 121.666 217.432ZM121.702 202.456C120.574 202.456 119.578 202.78 118.714 203.428C117.85 204.052 117.298 205.012 117.058 206.308H125.95C125.878 205.132 125.446 204.196 124.654 203.5C123.862 202.804 122.878 202.456 121.702 202.456ZM143.182 217.432C141.382 217.432 139.786 217.048 138.394 216.28C137.002 215.512 135.91 214.432 135.118 213.04C134.326 211.648 133.93 210.04 133.93 208.216C133.93 206.368 134.314 204.724 135.082 203.284C135.874 201.844 136.954 200.728 138.322 199.936C139.714 199.12 141.346 198.712 143.218 198.712C144.97 198.712 146.518 199.096 147.862 199.864C149.206 200.632 150.25 201.688 150.994 203.032C151.762 204.352 152.146 205.828 152.146 207.46C152.146 207.724 152.134 208 152.11 208.288C152.11 208.576 152.098 208.876 152.074 209.188H138.502C138.598 210.58 139.078 211.672 139.942 212.464C140.83 213.256 141.898 213.652 143.146 213.652C144.082 213.652 144.862 213.448 145.486 213.04C146.134 212.608 146.614 212.056 146.926 211.384H151.606C151.27 212.512 150.706 213.544 149.914 214.48C149.146 215.392 148.186 216.112 147.034 216.64C145.906 217.168 144.622 217.432 143.182 217.432ZM143.218 202.456C142.09 202.456 141.094 202.78 140.23 203.428C139.366 204.052 138.814 205.012 138.574 206.308H147.466C147.394 205.132 146.962 204.196 146.17 203.5C145.378 202.804 144.394 202.456 143.218 202.456ZM163.661 217C161.789 217 160.289 216.544 159.161 215.632C158.033 214.72 157.469 213.1 157.469 210.772V202.996H154.409V199.144H157.469L158.009 194.356H162.077V199.144H166.901V202.996H162.077V210.808C162.077 211.672 162.257 212.272 162.617 212.608C163.001 212.92 163.649 213.076 164.561 213.076H166.793V217H163.661ZM178.238 217.432C176.654 217.432 175.262 217.18 174.062 216.676C172.862 216.148 171.902 215.428 171.182 214.516C170.462 213.604 170.03 212.548 169.886 211.348H174.53C174.674 212.044 175.058 212.644 175.682 213.148C176.33 213.628 177.158 213.868 178.166 213.868C179.174 213.868 179.906 213.664 180.362 213.256C180.842 212.848 181.082 212.38 181.082 211.852C181.082 211.084 180.746 210.568 180.074 210.304C179.402 210.016 178.466 209.74 177.266 209.476C176.498 209.308 175.718 209.104 174.926 208.864C174.134 208.624 173.402 208.324 172.73 207.964C172.082 207.58 171.554 207.1 171.146 206.524C170.738 205.924 170.534 205.192 170.534 204.328C170.534 202.744 171.158 201.412 172.406 200.332C173.678 199.252 175.454 198.712 177.734 198.712C179.846 198.712 181.526 199.204 182.774 200.188C184.046 201.172 184.802 202.528 185.042 204.256H180.686C180.422 202.936 179.426 202.276 177.698 202.276C176.834 202.276 176.162 202.444 175.682 202.78C175.226 203.116 174.998 203.536 174.998 204.04C174.998 204.568 175.346 204.988 176.042 205.3C176.738 205.612 177.662 205.9 178.814 206.164C180.062 206.452 181.202 206.776 182.234 207.136C183.29 207.472 184.13 207.988 184.754 208.684C185.378 209.356 185.69 210.328 185.69 211.6C185.714 212.704 185.426 213.7 184.826 214.588C184.226 215.476 183.362 216.172 182.234 216.676C181.106 217.18 179.774 217.432 178.238 217.432ZM187.936 221.176L189.988 212.212H194.452L190.96 221.176H187.936ZM215.43 217.432C213.606 217.432 211.998 217.036 210.606 216.244C209.214 215.452 208.11 214.348 207.294 212.932C206.502 211.516 206.106 209.896 206.106 208.072C206.106 206.248 206.502 204.628 207.294 203.212C208.11 201.796 209.214 200.692 210.606 199.9C211.998 199.108 213.606 198.712 215.43 198.712C217.71 198.712 219.63 199.312 221.19 200.512C222.75 201.688 223.746 203.32 224.178 205.408H219.318C219.078 204.544 218.598 203.872 217.878 203.392C217.182 202.888 216.354 202.636 215.394 202.636C214.122 202.636 213.042 203.116 212.154 204.076C211.266 205.036 210.822 206.368 210.822 208.072C210.822 209.776 211.266 211.108 212.154 212.068C213.042 213.028 214.122 213.508 215.394 213.508C216.354 213.508 217.182 213.268 217.878 212.788C218.598 212.308 219.078 211.624 219.318 210.736H224.178C223.746 212.752 222.75 214.372 221.19 215.596C219.63 216.82 217.71 217.432 215.43 217.432ZM236.836 217.432C235.108 217.432 233.548 217.036 232.156 216.244C230.788 215.452 229.696 214.36 228.88 212.968C228.088 211.552 227.692 209.92 227.692 208.072C227.692 206.224 228.1 204.604 228.916 203.212C229.732 201.796 230.824 200.692 232.192 199.9C233.584 199.108 235.144 198.712 236.872 198.712C238.576 198.712 240.112 199.108 241.48 199.9C242.872 200.692 243.964 201.796 244.756 203.212C245.572 204.604 245.98 206.224 245.98 208.072C245.98 209.92 245.572 211.552 244.756 212.968C243.964 214.36 242.872 215.452 241.48 216.244C240.088 217.036 238.54 217.432 236.836 217.432ZM236.836 213.436C238.036 213.436 239.08 212.992 239.968 212.104C240.856 211.192 241.3 209.848 241.3 208.072C241.3 206.296 240.856 204.964 239.968 204.076C239.08 203.164 238.048 202.708 236.872 202.708C235.648 202.708 234.592 203.164 233.704 204.076C232.84 204.964 232.408 206.296 232.408 208.072C232.408 209.848 232.84 211.192 233.704 212.104C234.592 212.992 235.636 213.436 236.836 213.436ZM250.1 217V199.144H254.168L254.528 202.168C255.08 201.112 255.872 200.272 256.904 199.648C257.96 199.024 259.196 198.712 260.612 198.712C262.82 198.712 264.536 199.408 265.76 200.8C266.984 202.192 267.596 204.232 267.596 206.92V217H262.988V207.352C262.988 205.816 262.676 204.64 262.052 203.824C261.428 203.008 260.456 202.6 259.136 202.6C257.84 202.6 256.772 203.056 255.932 203.968C255.116 204.88 254.708 206.152 254.708 207.784V217H250.1ZM280.75 217.432C278.926 217.432 277.318 217.036 275.926 216.244C274.534 215.452 273.43 214.348 272.614 212.932C271.822 211.516 271.426 209.896 271.426 208.072C271.426 206.248 271.822 204.628 272.614 203.212C273.43 201.796 274.534 200.692 275.926 199.9C277.318 199.108 278.926 198.712 280.75 198.712C283.03 198.712 284.95 199.312 286.51 200.512C288.07 201.688 289.066 203.32 289.498 205.408H284.638C284.398 204.544 283.918 203.872 283.198 203.392C282.502 202.888 281.674 202.636 280.714 202.636C279.442 202.636 278.362 203.116 277.474 204.076C276.586 205.036 276.142 206.368 276.142 208.072C276.142 209.776 276.586 211.108 277.474 212.068C278.362 213.028 279.442 213.508 280.714 213.508C281.674 213.508 282.502 213.268 283.198 212.788C283.918 212.308 284.398 211.624 284.638 210.736H289.498C289.066 212.752 288.07 214.372 286.51 215.596C284.95 216.82 283.03 217.432 280.75 217.432ZM302.264 217.432C300.464 217.432 298.868 217.048 297.476 216.28C296.084 215.512 294.992 214.432 294.2 213.04C293.408 211.648 293.012 210.04 293.012 208.216C293.012 206.368 293.396 204.724 294.164 203.284C294.956 201.844 296.036 200.728 297.404 199.936C298.796 199.12 300.428 198.712 302.3 198.712C304.052 198.712 305.6 199.096 306.944 199.864C308.288 200.632 309.332 201.688 310.076 203.032C310.844 204.352 311.228 205.828 311.228 207.46C311.228 207.724 311.216 208 311.192 208.288C311.192 208.576 311.18 208.876 311.156 209.188H297.584C297.68 210.58 298.16 211.672 299.024 212.464C299.912 213.256 300.98 213.652 302.228 213.652C303.164 213.652 303.944 213.448 304.568 213.04C305.216 212.608 305.696 212.056 306.008 211.384H310.688C310.352 212.512 309.788 213.544 308.996 214.48C308.228 215.392 307.268 216.112 306.116 216.64C304.988 217.168 303.704 217.432 302.264 217.432ZM302.3 202.456C301.172 202.456 300.176 202.78 299.312 203.428C298.448 204.052 297.896 205.012 297.656 206.308H306.548C306.476 205.132 306.044 204.196 305.252 203.5C304.46 202.804 303.476 202.456 302.3 202.456ZM315.104 217V199.144H319.208L319.64 202.492C320.288 201.34 321.164 200.428 322.268 199.756C323.396 199.06 324.716 198.712 326.228 198.712V203.572H324.932C323.924 203.572 323.024 203.728 322.232 204.04C321.44 204.352 320.816 204.892 320.36 205.66C319.928 206.428 319.712 207.496 319.712 208.864V217H315.104ZM329.377 217V199.144H333.445L333.805 202.168C334.357 201.112 335.149 200.272 336.181 199.648C337.237 199.024 338.473 198.712 339.889 198.712C342.097 198.712 343.813 199.408 345.037 200.8C346.261 202.192 346.873 204.232 346.873 206.92V217H342.265V207.352C342.265 205.816 341.953 204.64 341.329 203.824C340.705 203.008 339.733 202.6 338.413 202.6C337.117 202.6 336.049 203.056 335.209 203.968C334.393 204.88 333.985 206.152 333.985 207.784V217H329.377ZM359.955 217.432C358.155 217.432 356.559 217.048 355.167 216.28C353.775 215.512 352.683 214.432 351.891 213.04C351.099 211.648 350.703 210.04 350.703 208.216C350.703 206.368 351.087 204.724 351.855 203.284C352.647 201.844 353.727 200.728 355.095 199.936C356.487 199.12 358.119 198.712 359.991 198.712C361.743 198.712 363.291 199.096 364.635 199.864C365.979 200.632 367.023 201.688 367.767 203.032C368.535 204.352 368.919 205.828 368.919 207.46C368.919 207.724 368.907 208 368.883 208.288C368.883 208.576 368.871 208.876 368.847 209.188H355.275C355.371 210.58 355.851 211.672 356.715 212.464C357.603 213.256 358.671 213.652 359.919 213.652C360.855 213.652 361.635 213.448 362.259 213.04C362.907 212.608 363.387 212.056 363.699 211.384H368.379C368.043 212.512 367.479 213.544 366.687 214.48C365.919 215.392 364.959 216.112 363.807 216.64C362.679 217.168 361.395 217.432 359.955 217.432ZM359.991 202.456C358.863 202.456 357.867 202.78 357.003 203.428C356.139 204.052 355.587 205.012 355.347 206.308H364.239C364.167 205.132 363.735 204.196 362.943 203.5C362.151 202.804 361.167 202.456 359.991 202.456ZM381.003 217.432C379.323 217.432 377.823 217.024 376.503 216.208C375.183 215.392 374.139 214.276 373.371 212.86C372.603 211.444 372.219 209.836 372.219 208.036C372.219 206.236 372.603 204.64 373.371 203.248C374.139 201.832 375.183 200.728 376.503 199.936C377.823 199.12 379.323 198.712 381.003 198.712C382.347 198.712 383.523 198.964 384.531 199.468C385.539 199.972 386.355 200.68 386.979 201.592V191.08H391.587V217H387.483L386.979 214.444C386.403 215.236 385.635 215.932 384.675 216.532C383.739 217.132 382.515 217.432 381.003 217.432ZM381.975 213.4C383.463 213.4 384.675 212.908 385.611 211.924C386.571 210.916 387.051 209.632 387.051 208.072C387.051 206.512 386.571 205.24 385.611 204.256C384.675 203.248 383.463 202.744 381.975 202.744C380.511 202.744 379.299 203.236 378.339 204.22C377.379 205.204 376.899 206.476 376.899 208.036C376.899 209.596 377.379 210.88 378.339 211.888C379.299 212.896 380.511 213.4 381.975 213.4ZM411.014 217.432C409.478 217.432 408.218 217.192 407.234 216.712C406.25 216.208 405.518 215.548 405.038 214.732C404.558 213.916 404.318 213.016 404.318 212.032C404.318 210.376 404.966 209.032 406.262 208C407.558 206.968 409.502 206.452 412.094 206.452H416.63V206.02C416.63 204.796 416.282 203.896 415.586 203.32C414.89 202.744 414.026 202.456 412.994 202.456C412.058 202.456 411.242 202.684 410.546 203.14C409.85 203.572 409.418 204.22 409.25 205.084H404.75C404.87 203.788 405.302 202.66 406.046 201.7C406.814 200.74 407.798 200.008 408.998 199.504C410.198 198.976 411.542 198.712 413.03 198.712C415.574 198.712 417.578 199.348 419.042 200.62C420.506 201.892 421.238 203.692 421.238 206.02V217H417.314L416.882 214.12C416.354 215.08 415.61 215.872 414.65 216.496C413.714 217.12 412.502 217.432 411.014 217.432ZM412.058 213.832C413.378 213.832 414.398 213.4 415.118 212.536C415.862 211.672 416.33 210.604 416.522 209.332H412.598C411.374 209.332 410.498 209.56 409.97 210.016C409.442 210.448 409.178 210.988 409.178 211.636C409.178 212.332 409.442 212.872 409.97 213.256C410.498 213.64 411.194 213.832 412.058 213.832ZM436.219 217.432C434.875 217.432 433.699 217.18 432.691 216.676C431.683 216.172 430.867 215.464 430.243 214.552L429.739 217H425.635V191.08H430.243V201.7C430.819 200.908 431.575 200.212 432.511 199.612C433.471 199.012 434.707 198.712 436.219 198.712C437.899 198.712 439.399 199.12 440.719 199.936C442.039 200.752 443.083 201.868 443.851 203.284C444.619 204.7 445.003 206.308 445.003 208.108C445.003 209.908 444.619 211.516 443.851 212.932C443.083 214.324 442.039 215.428 440.719 216.244C439.399 217.036 437.899 217.432 436.219 217.432ZM435.247 213.4C436.711 213.4 437.923 212.908 438.883 211.924C439.843 210.94 440.323 209.668 440.323 208.108C440.323 206.548 439.843 205.264 438.883 204.256C437.923 203.248 436.711 202.744 435.247 202.744C433.759 202.744 432.535 203.248 431.575 204.256C430.639 205.24 430.171 206.512 430.171 208.072C430.171 209.632 430.639 210.916 431.575 211.924C432.535 212.908 433.759 213.4 435.247 213.4ZM457.687 217.432C455.959 217.432 454.399 217.036 453.007 216.244C451.639 215.452 450.547 214.36 449.731 212.968C448.939 211.552 448.543 209.92 448.543 208.072C448.543 206.224 448.951 204.604 449.767 203.212C450.583 201.796 451.675 200.692 453.043 199.9C454.435 199.108 455.995 198.712 457.723 198.712C459.427 198.712 460.963 199.108 462.331 199.9C463.723 200.692 464.815 201.796 465.607 203.212C466.423 204.604 466.831 206.224 466.831 208.072C466.831 209.92 466.423 211.552 465.607 212.968C464.815 214.36 463.723 215.452 462.331 216.244C460.939 217.036 459.391 217.432 457.687 217.432ZM457.687 213.436C458.887 213.436 459.931 212.992 460.819 212.104C461.707 211.192 462.151 209.848 462.151 208.072C462.151 206.296 461.707 204.964 460.819 204.076C459.931 203.164 458.899 202.708 457.723 202.708C456.499 202.708 455.443 203.164 454.555 204.076C453.691 204.964 453.259 206.296 453.259 208.072C453.259 209.848 453.691 211.192 454.555 212.104C455.443 212.992 456.487 213.436 457.687 213.436ZM477.647 217.432C475.415 217.432 473.687 216.736 472.463 215.344C471.263 213.952 470.663 211.912 470.663 209.224V199.144H475.235V208.792C475.235 210.328 475.547 211.504 476.171 212.32C476.795 213.136 477.779 213.544 479.123 213.544C480.395 213.544 481.439 213.088 482.255 212.176C483.095 211.264 483.515 209.992 483.515 208.36V199.144H488.123V217H484.055L483.695 213.976C483.143 215.032 482.339 215.872 481.283 216.496C480.251 217.12 479.039 217.432 477.647 217.432ZM500.81 217C498.938 217 497.438 216.544 496.31 215.632C495.182 214.72 494.618 213.1 494.618 210.772V202.996H491.558V199.144H494.618L495.158 194.356H499.226V199.144H504.05V202.996H499.226V210.808C499.226 211.672 499.406 212.272 499.766 212.608C500.15 212.92 500.798 213.076 501.71 213.076H503.942V217H500.81ZM516.584 217V191.08H521.192V201.88C521.792 200.896 522.596 200.128 523.604 199.576C524.636 199 525.812 198.712 527.132 198.712C529.34 198.712 531.044 199.408 532.244 200.8C533.468 202.192 534.08 204.232 534.08 206.92V217H529.508V207.352C529.508 205.816 529.196 204.64 528.572 203.824C527.972 203.008 527.012 202.6 525.692 202.6C524.396 202.6 523.316 203.056 522.452 203.968C521.612 204.88 521.192 206.152 521.192 207.784V217H516.584ZM547.054 217.432C545.326 217.432 543.766 217.036 542.374 216.244C541.006 215.452 539.914 214.36 539.098 212.968C538.306 211.552 537.91 209.92 537.91 208.072C537.91 206.224 538.318 204.604 539.134 203.212C539.95 201.796 541.042 200.692 542.41 199.9C543.802 199.108 545.362 198.712 547.09 198.712C548.794 198.712 550.33 199.108 551.698 199.9C553.09 200.692 554.182 201.796 554.974 203.212C555.79 204.604 556.198 206.224 556.198 208.072C556.198 209.92 555.79 211.552 554.974 212.968C554.182 214.36 553.09 215.452 551.698 216.244C550.306 217.036 548.758 217.432 547.054 217.432ZM547.054 213.436C548.254 213.436 549.298 212.992 550.186 212.104C551.074 211.192 551.518 209.848 551.518 208.072C551.518 206.296 551.074 204.964 550.186 204.076C549.298 203.164 548.266 202.708 547.09 202.708C545.866 202.708 544.81 203.164 543.922 204.076C543.058 204.964 542.626 206.296 542.626 208.072C542.626 209.848 543.058 211.192 543.922 212.104C544.81 212.992 545.854 213.436 547.054 213.436ZM563.178 217L557.958 199.144H562.53L565.626 211.996L569.226 199.144H574.338L577.938 211.996L581.07 199.144H585.642L580.386 217H575.598L571.782 203.644L567.966 217H563.178ZM597.127 217V199.144H601.195L601.591 201.556C602.167 200.692 602.923 200.008 603.859 199.504C604.819 198.976 605.923 198.712 607.171 198.712C609.931 198.712 611.887 199.78 613.039 201.916C613.687 200.932 614.551 200.152 615.631 199.576C616.735 199 617.935 198.712 619.231 198.712C621.559 198.712 623.347 199.408 624.595 200.8C625.843 202.192 626.467 204.232 626.467 206.92V217H621.859V207.352C621.859 205.816 621.559 204.64 620.959 203.824C620.383 203.008 619.483 202.6 618.259 202.6C617.011 202.6 616.003 203.056 615.235 203.968C614.491 204.88 614.119 206.152 614.119 207.784V217H609.511V207.352C609.511 205.816 609.211 204.64 608.611 203.824C608.011 203.008 607.087 202.6 605.839 202.6C604.615 202.6 603.619 203.056 602.851 203.968C602.107 204.88 601.735 206.152 601.735 207.784V217H597.127ZM637.538 217.432C635.306 217.432 633.578 216.736 632.354 215.344C631.154 213.952 630.554 211.912 630.554 209.224V199.144H635.126V208.792C635.126 210.328 635.438 211.504 636.062 212.32C636.686 213.136 637.67 213.544 639.014 213.544C640.286 213.544 641.33 213.088 642.146 212.176C642.986 211.264 643.406 209.992 643.406 208.36V199.144H648.014V217H643.946L643.586 213.976C643.034 215.032 642.23 215.872 641.174 216.496C640.142 217.12 638.93 217.432 637.538 217.432ZM661.492 217.432C659.668 217.432 658.06 217.036 656.668 216.244C655.276 215.452 654.172 214.348 653.356 212.932C652.564 211.516 652.168 209.896 652.168 208.072C652.168 206.248 652.564 204.628 653.356 203.212C654.172 201.796 655.276 200.692 656.668 199.9C658.06 199.108 659.668 198.712 661.492 198.712C663.772 198.712 665.692 199.312 667.252 200.512C668.812 201.688 669.808 203.32 670.24 205.408H665.38C665.14 204.544 664.66 203.872 663.94 203.392C663.244 202.888 662.416 202.636 661.456 202.636C660.184 202.636 659.104 203.116 658.216 204.076C657.328 205.036 656.884 206.368 656.884 208.072C656.884 209.776 657.328 211.108 658.216 212.068C659.104 213.028 660.184 213.508 661.456 213.508C662.416 213.508 663.244 213.268 663.94 212.788C664.66 212.308 665.14 211.624 665.38 210.736H670.24C669.808 212.752 668.812 214.372 667.252 215.596C665.692 216.82 663.772 217.432 661.492 217.432ZM674.33 217V191.08H678.938V201.88C679.538 200.896 680.342 200.128 681.35 199.576C682.382 199 683.558 198.712 684.878 198.712C687.086 198.712 688.79 199.408 689.99 200.8C691.214 202.192 691.826 204.232 691.826 206.92V217H687.254V207.352C687.254 205.816 686.942 204.64 686.318 203.824C685.718 203.008 684.758 202.6 683.438 202.6C682.142 202.6 681.062 203.056 680.198 203.968C679.358 204.88 678.938 206.152 678.938 207.784V217H674.33ZM707.043 224.92L711.183 215.812H710.103L703.155 199.144H708.159L713.163 211.708L718.383 199.144H723.279L711.939 224.92H707.043ZM733.312 217.432C731.584 217.432 730.024 217.036 728.632 216.244C727.264 215.452 726.172 214.36 725.356 212.968C724.564 211.552 724.168 209.92 724.168 208.072C724.168 206.224 724.576 204.604 725.392 203.212C726.208 201.796 727.3 200.692 728.668 199.9C730.06 199.108 731.62 198.712 733.348 198.712C735.052 198.712 736.588 199.108 737.956 199.9C739.348 200.692 740.44 201.796 741.232 203.212C742.048 204.604 742.456 206.224 742.456 208.072C742.456 209.92 742.048 211.552 741.232 212.968C740.44 214.36 739.348 215.452 737.956 216.244C736.564 217.036 735.016 217.432 733.312 217.432ZM733.312 213.436C734.512 213.436 735.556 212.992 736.444 212.104C737.332 211.192 737.776 209.848 737.776 208.072C737.776 206.296 737.332 204.964 736.444 204.076C735.556 203.164 734.524 202.708 733.348 202.708C732.124 202.708 731.068 203.164 730.18 204.076C729.316 204.964 728.884 206.296 728.884 208.072C728.884 209.848 729.316 211.192 730.18 212.104C731.068 212.992 732.112 213.436 733.312 213.436ZM753.272 217.432C751.04 217.432 749.312 216.736 748.088 215.344C746.888 213.952 746.288 211.912 746.288 209.224V199.144H750.86V208.792C750.86 210.328 751.172 211.504 751.796 212.32C752.42 213.136 753.404 213.544 754.748 213.544C756.02 213.544 757.064 213.088 757.88 212.176C758.72 211.264 759.14 209.992 759.14 208.36V199.144H763.748V217H759.68L759.32 213.976C758.768 215.032 757.964 215.872 756.908 216.496C755.876 217.12 754.664 217.432 753.272 217.432ZM780.549 217L775.329 199.144H779.901L782.997 211.996L786.597 199.144H791.709L795.309 211.996L798.441 199.144H803.013L797.757 217H792.969L789.153 203.644L785.337 217H780.549ZM808.404 196.372C807.564 196.372 806.868 196.12 806.316 195.616C805.788 195.112 805.524 194.476 805.524 193.708C805.524 192.94 805.788 192.316 806.316 191.836C806.868 191.332 807.564 191.08 808.404 191.08C809.244 191.08 809.928 191.332 810.456 191.836C811.008 192.316 811.284 192.94 811.284 193.708C811.284 194.476 811.008 195.112 810.456 195.616C809.928 196.12 809.244 196.372 808.404 196.372ZM806.1 217V199.144H810.708V217H806.1ZM815.518 217V191.08H820.126V217H815.518ZM824.834 217V191.08H829.442V217H824.834ZM387.452 264.432C385.868 264.432 384.476 264.18 383.276 263.676C382.076 263.148 381.116 262.428 380.396 261.516C379.676 260.604 379.244 259.548 379.1 258.348H383.744C383.888 259.044 384.272 259.644 384.896 260.148C385.544 260.628 386.372 260.868 387.38 260.868C388.388 260.868 389.12 260.664 389.576 260.256C390.056 259.848 390.296 259.38 390.296 258.852C390.296 258.084 389.96 257.568 389.288 257.304C388.616 257.016 387.68 256.74 386.48 256.476C385.712 256.308 384.932 256.104 384.14 255.864C383.348 255.624 382.616 255.324 381.944 254.964C381.296 254.58 380.768 254.1 380.36 253.524C379.952 252.924 379.748 252.192 379.748 251.328C379.748 249.744 380.372 248.412 381.62 247.332C382.892 246.252 384.668 245.712 386.948 245.712C389.06 245.712 390.74 246.204 391.988 247.188C393.26 248.172 394.016 249.528 394.256 251.256H389.9C389.636 249.936 388.64 249.276 386.912 249.276C386.048 249.276 385.376 249.444 384.896 249.78C384.44 250.116 384.212 250.536 384.212 251.04C384.212 251.568 384.56 251.988 385.256 252.3C385.952 252.612 386.876 252.9 388.028 253.164C389.276 253.452 390.416 253.776 391.448 254.136C392.504 254.472 393.344 254.988 393.968 255.684C394.592 256.356 394.904 257.328 394.904 258.6C394.928 259.704 394.64 260.7 394.04 261.588C393.44 262.476 392.576 263.172 391.448 263.676C390.32 264.18 388.988 264.432 387.452 264.432ZM398.986 271.92V246.144H403.09L403.594 248.7C404.17 247.908 404.926 247.212 405.862 246.612C406.822 246.012 408.058 245.712 409.57 245.712C411.25 245.712 412.75 246.12 414.07 246.936C415.39 247.752 416.434 248.868 417.202 250.284C417.97 251.7 418.354 253.308 418.354 255.108C418.354 256.908 417.97 258.516 417.202 259.932C416.434 261.324 415.39 262.428 414.07 263.244C412.75 264.036 411.25 264.432 409.57 264.432C408.226 264.432 407.05 264.18 406.042 263.676C405.034 263.172 404.218 262.464 403.594 261.552V271.92H398.986ZM408.598 260.4C410.062 260.4 411.274 259.908 412.234 258.924C413.194 257.94 413.674 256.668 413.674 255.108C413.674 253.548 413.194 252.264 412.234 251.256C411.274 250.248 410.062 249.744 408.598 249.744C407.11 249.744 405.886 250.248 404.926 251.256C403.99 252.24 403.522 253.512 403.522 255.072C403.522 256.632 403.99 257.916 404.926 258.924C405.886 259.908 407.11 260.4 408.598 260.4ZM431.147 264.432C429.347 264.432 427.751 264.048 426.359 263.28C424.967 262.512 423.875 261.432 423.083 260.04C422.291 258.648 421.895 257.04 421.895 255.216C421.895 253.368 422.279 251.724 423.047 250.284C423.839 248.844 424.919 247.728 426.287 246.936C427.679 246.12 429.311 245.712 431.183 245.712C432.935 245.712 434.483 246.096 435.827 246.864C437.171 247.632 438.215 248.688 438.959 250.032C439.727 251.352 440.111 252.828 440.111 254.46C440.111 254.724 440.099 255 440.075 255.288C440.075 255.576 440.063 255.876 440.039 256.188H426.467C426.563 257.58 427.043 258.672 427.907 259.464C428.795 260.256 429.863 260.652 431.111 260.652C432.047 260.652 432.827 260.448 433.451 260.04C434.099 259.608 434.579 259.056 434.891 258.384H439.571C439.235 259.512 438.671 260.544 437.879 261.48C437.111 262.392 436.151 263.112 434.999 263.64C433.871 264.168 432.587 264.432 431.147 264.432ZM431.183 249.456C430.055 249.456 429.059 249.78 428.195 250.428C427.331 251.052 426.779 252.012 426.539 253.308H435.431C435.359 252.132 434.927 251.196 434.135 250.5C433.343 249.804 432.359 249.456 431.183 249.456ZM443.986 264V246.144H448.054L448.414 249.168C448.966 248.112 449.758 247.272 450.79 246.648C451.846 246.024 453.082 245.712 454.498 245.712C456.706 245.712 458.422 246.408 459.646 247.8C460.87 249.192 461.482 251.232 461.482 253.92V264H456.874V254.352C456.874 252.816 456.562 251.64 455.938 250.824C455.314 250.008 454.342 249.6 453.022 249.6C451.726 249.6 450.658 250.056 449.818 250.968C449.002 251.88 448.594 253.152 448.594 254.784V264H443.986ZM474.097 264.432C472.417 264.432 470.917 264.024 469.597 263.208C468.277 262.392 467.233 261.276 466.465 259.86C465.697 258.444 465.313 256.836 465.313 255.036C465.313 253.236 465.697 251.64 466.465 250.248C467.233 248.832 468.277 247.728 469.597 246.936C470.917 246.12 472.417 245.712 474.097 245.712C475.441 245.712 476.617 245.964 477.625 246.468C478.633 246.972 479.449 247.68 480.073 248.592V238.08H484.681V264H480.577L480.073 261.444C479.497 262.236 478.729 262.932 477.769 263.532C476.833 264.132 475.609 264.432 474.097 264.432ZM475.069 260.4C476.557 260.4 477.769 259.908 478.705 258.924C479.665 257.916 480.145 256.632 480.145 255.072C480.145 253.512 479.665 252.24 478.705 251.256C477.769 250.248 476.557 249.744 475.069 249.744C473.605 249.744 472.393 250.236 471.433 251.22C470.473 252.204 469.993 253.476 469.993 255.036C469.993 256.596 470.473 257.88 471.433 258.888C472.393 259.896 473.605 260.4 475.069 260.4ZM491.353 264.252C490.513 264.252 489.817 263.988 489.265 263.46C488.737 262.932 488.473 262.296 488.473 261.552C488.473 260.784 488.737 260.136 489.265 259.608C489.817 259.08 490.513 258.816 491.353 258.816C492.193 258.816 492.877 259.08 493.405 259.608C493.957 260.136 494.233 260.784 494.233 261.552C494.233 262.296 493.957 262.932 493.405 263.46C492.877 263.988 492.193 264.252 491.353 264.252Z" fill="black"/>
</svg>
