<svg width="895" height="174" viewBox="0 0 895 174" fill="none" xmlns="http://www.w3.org/2000/svg">
<rect x="2" y="2" width="891" height="170" rx="23" stroke="#BD4803" stroke-width="4"/>
<path d="M38.0543 76V54.508H30.7103V50.8H50.0423V54.508H42.6623V76H38.0543ZM53.3478 76V50.08H57.9558V60.88C58.5558 59.896 59.3598 59.128 60.3678 58.576C61.3998 58 62.5758 57.712 63.8958 57.712C66.1038 57.712 67.8078 58.408 69.0078 59.8C70.2318 61.192 70.8438 63.232 70.8438 65.92V76H66.2718V66.352C66.2718 64.816 65.9598 63.64 65.3358 62.824C64.7358 62.008 63.7758 61.6 62.4558 61.6C61.1598 61.6 60.0798 62.056 59.2158 62.968C58.3758 63.88 57.9558 65.152 57.9558 66.784V76H53.3478ZM83.9262 76.432C82.1262 76.432 80.5302 76.048 79.1382 75.28C77.7462 74.512 76.6542 73.432 75.8622 72.04C75.0702 70.648 74.6742 69.04 74.6742 67.216C74.6742 65.368 75.0582 63.724 75.8262 62.284C76.6182 60.844 77.6982 59.728 79.0662 58.936C80.4582 58.12 82.0902 57.712 83.9622 57.712C85.7142 57.712 87.2622 58.096 88.6062 58.864C89.9502 59.632 90.9942 60.688 91.7382 62.032C92.5062 63.352 92.8902 64.828 92.8902 66.46C92.8902 66.724 92.8782 67 92.8542 67.288C92.8542 67.576 92.8422 67.876 92.8182 68.188H79.2462C79.3422 69.58 79.8222 70.672 80.6862 71.464C81.5742 72.256 82.6422 72.652 83.8902 72.652C84.8262 72.652 85.6062 72.448 86.2302 72.04C86.8782 71.608 87.3582 71.056 87.6702 70.384H92.3502C92.0142 71.512 91.4502 72.544 90.6582 73.48C89.8902 74.392 88.9302 75.112 87.7782 75.64C86.6502 76.168 85.3662 76.432 83.9262 76.432ZM83.9622 61.456C82.8342 61.456 81.8382 61.78 80.9742 62.428C80.1102 63.052 79.5582 64.012 79.3182 65.308H88.2102C88.1382 64.132 87.7062 63.196 86.9142 62.5C86.1222 61.804 85.1382 61.456 83.9622 61.456ZM98.1189 83.92L102.259 74.812H101.179L94.2309 58.144H99.2349L104.239 70.708L109.459 58.144H114.355L103.015 83.92H98.1189ZM125.945 83.92V58.144H130.049L130.553 60.7C131.129 59.908 131.885 59.212 132.821 58.612C133.781 58.012 135.017 57.712 136.529 57.712C138.209 57.712 139.709 58.12 141.029 58.936C142.349 59.752 143.393 60.868 144.161 62.284C144.929 63.7 145.313 65.308 145.313 67.108C145.313 68.908 144.929 70.516 144.161 71.932C143.393 73.324 142.349 74.428 141.029 75.244C139.709 76.036 138.209 76.432 136.529 76.432C135.185 76.432 134.009 76.18 133.001 75.676C131.993 75.172 131.177 74.464 130.553 73.552V83.92H125.945ZM135.557 72.4C137.021 72.4 138.233 71.908 139.193 70.924C140.153 69.94 140.633 68.668 140.633 67.108C140.633 65.548 140.153 64.264 139.193 63.256C138.233 62.248 137.021 61.744 135.557 61.744C134.069 61.744 132.845 62.248 131.885 63.256C130.949 64.24 130.481 65.512 130.481 67.072C130.481 68.632 130.949 69.916 131.885 70.924C132.845 71.908 134.069 72.4 135.557 72.4ZM149.43 76V50.08H154.038V76H149.43ZM164.902 76.432C163.366 76.432 162.106 76.192 161.122 75.712C160.138 75.208 159.406 74.548 158.926 73.732C158.446 72.916 158.206 72.016 158.206 71.032C158.206 69.376 158.854 68.032 160.15 67C161.446 65.968 163.39 65.452 165.982 65.452H170.518V65.02C170.518 63.796 170.17 62.896 169.474 62.32C168.778 61.744 167.914 61.456 166.882 61.456C165.946 61.456 165.13 61.684 164.434 62.14C163.738 62.572 163.306 63.22 163.138 64.084H158.638C158.758 62.788 159.19 61.66 159.934 60.7C160.702 59.74 161.686 59.008 162.886 58.504C164.086 57.976 165.43 57.712 166.918 57.712C169.462 57.712 171.466 58.348 172.93 59.62C174.394 60.892 175.126 62.692 175.126 65.02V76H171.202L170.77 73.12C170.242 74.08 169.498 74.872 168.538 75.496C167.602 76.12 166.39 76.432 164.902 76.432ZM165.946 72.832C167.266 72.832 168.286 72.4 169.006 71.536C169.75 70.672 170.218 69.604 170.41 68.332H166.486C165.262 68.332 164.386 68.56 163.858 69.016C163.33 69.448 163.066 69.988 163.066 70.636C163.066 71.332 163.33 71.872 163.858 72.256C164.386 72.64 165.082 72.832 165.946 72.832ZM179.524 76V58.144H183.592L183.952 61.168C184.504 60.112 185.296 59.272 186.328 58.648C187.384 58.024 188.62 57.712 190.036 57.712C192.244 57.712 193.96 58.408 195.184 59.8C196.408 61.192 197.02 63.232 197.02 65.92V76H192.412V66.352C192.412 64.816 192.1 63.64 191.476 62.824C190.852 62.008 189.88 61.6 188.56 61.6C187.264 61.6 186.196 62.056 185.356 62.968C184.54 63.88 184.132 65.152 184.132 66.784V76H179.524ZM217.96 76C216.088 76 214.588 75.544 213.46 74.632C212.332 73.72 211.768 72.1 211.768 69.772V61.996H208.708V58.144H211.768L212.308 53.356H216.376V58.144H221.2V61.996H216.376V69.808C216.376 70.672 216.556 71.272 216.916 71.608C217.3 71.92 217.948 72.076 218.86 72.076H221.092V76H217.96ZM233.267 76.432C231.539 76.432 229.979 76.036 228.587 75.244C227.219 74.452 226.127 73.36 225.311 71.968C224.519 70.552 224.123 68.92 224.123 67.072C224.123 65.224 224.531 63.604 225.347 62.212C226.163 60.796 227.255 59.692 228.623 58.9C230.015 58.108 231.575 57.712 233.303 57.712C235.007 57.712 236.543 58.108 237.911 58.9C239.303 59.692 240.395 60.796 241.187 62.212C242.003 63.604 242.411 65.224 242.411 67.072C242.411 68.92 242.003 70.552 241.187 71.968C240.395 73.36 239.303 74.452 237.911 75.244C236.519 76.036 234.971 76.432 233.267 76.432ZM233.267 72.436C234.467 72.436 235.511 71.992 236.399 71.104C237.287 70.192 237.731 68.848 237.731 67.072C237.731 65.296 237.287 63.964 236.399 63.076C235.511 62.164 234.479 61.708 233.303 61.708C232.079 61.708 231.023 62.164 230.135 63.076C229.271 63.964 228.839 65.296 228.839 67.072C228.839 68.848 229.271 70.192 230.135 71.104C231.023 71.992 232.067 72.436 233.267 72.436ZM255.099 76.432C253.371 76.432 251.811 76.036 250.419 75.244C249.051 74.452 247.959 73.36 247.143 71.968C246.351 70.552 245.955 68.92 245.955 67.072C245.955 65.224 246.363 63.604 247.179 62.212C247.995 60.796 249.087 59.692 250.455 58.9C251.847 58.108 253.407 57.712 255.135 57.712C256.839 57.712 258.375 58.108 259.743 58.9C261.135 59.692 262.227 60.796 263.019 62.212C263.835 63.604 264.243 65.224 264.243 67.072C264.243 68.92 263.835 70.552 263.019 71.968C262.227 73.36 261.135 74.452 259.743 75.244C258.351 76.036 256.803 76.432 255.099 76.432ZM255.099 72.436C256.299 72.436 257.343 71.992 258.231 71.104C259.119 70.192 259.563 68.848 259.563 67.072C259.563 65.296 259.119 63.964 258.231 63.076C257.343 62.164 256.311 61.708 255.135 61.708C253.911 61.708 252.855 62.164 251.967 63.076C251.103 63.964 250.671 65.296 250.671 67.072C250.671 68.848 251.103 70.192 251.967 71.104C252.855 71.992 253.899 72.436 255.099 72.436ZM276.942 76V58.144H281.01L281.406 60.556C281.982 59.692 282.738 59.008 283.674 58.504C284.634 57.976 285.738 57.712 286.986 57.712C289.746 57.712 291.702 58.78 292.854 60.916C293.502 59.932 294.366 59.152 295.446 58.576C296.55 58 297.75 57.712 299.046 57.712C301.374 57.712 303.162 58.408 304.41 59.8C305.658 61.192 306.282 63.232 306.282 65.92V76H301.674V66.352C301.674 64.816 301.374 63.64 300.774 62.824C300.198 62.008 299.298 61.6 298.074 61.6C296.826 61.6 295.818 62.056 295.05 62.968C294.306 63.88 293.934 65.152 293.934 66.784V76H289.326V66.352C289.326 64.816 289.026 63.64 288.426 62.824C287.826 62.008 286.902 61.6 285.654 61.6C284.43 61.6 283.434 62.056 282.666 62.968C281.922 63.88 281.55 65.152 281.55 66.784V76H276.942ZM316.812 76.432C315.276 76.432 314.016 76.192 313.032 75.712C312.048 75.208 311.316 74.548 310.836 73.732C310.356 72.916 310.116 72.016 310.116 71.032C310.116 69.376 310.764 68.032 312.06 67C313.356 65.968 315.3 65.452 317.892 65.452H322.428V65.02C322.428 63.796 322.08 62.896 321.384 62.32C320.688 61.744 319.824 61.456 318.792 61.456C317.856 61.456 317.04 61.684 316.344 62.14C315.648 62.572 315.216 63.22 315.048 64.084H310.548C310.668 62.788 311.1 61.66 311.844 60.7C312.612 59.74 313.596 59.008 314.796 58.504C315.996 57.976 317.34 57.712 318.828 57.712C321.372 57.712 323.376 58.348 324.84 59.62C326.304 60.892 327.036 62.692 327.036 65.02V76H323.112L322.68 73.12C322.152 74.08 321.408 74.872 320.448 75.496C319.512 76.12 318.3 76.432 316.812 76.432ZM317.856 72.832C319.176 72.832 320.196 72.4 320.916 71.536C321.66 70.672 322.128 69.604 322.32 68.332H318.396C317.172 68.332 316.296 68.56 315.768 69.016C315.24 69.448 314.976 69.988 314.976 70.636C314.976 71.332 315.24 71.872 315.768 72.256C316.296 72.64 316.992 72.832 317.856 72.832ZM331.434 76V58.144H335.502L335.862 61.168C336.414 60.112 337.206 59.272 338.238 58.648C339.294 58.024 340.53 57.712 341.946 57.712C344.154 57.712 345.87 58.408 347.094 59.8C348.318 61.192 348.93 63.232 348.93 65.92V76H344.322V66.352C344.322 64.816 344.01 63.64 343.386 62.824C342.762 62.008 341.79 61.6 340.47 61.6C339.174 61.6 338.106 62.056 337.266 62.968C336.45 63.88 336.042 65.152 336.042 66.784V76H331.434ZM354.97 83.92L359.11 74.812H358.03L351.082 58.144H356.086L361.09 70.708L366.31 58.144H371.206L359.866 83.92H354.97ZM390.753 76C388.881 76 387.381 75.544 386.253 74.632C385.125 73.72 384.561 72.1 384.561 69.772V61.996H381.501V58.144H384.561L385.101 53.356H389.169V58.144H393.993V61.996H389.169V69.808C389.169 70.672 389.349 71.272 389.709 71.608C390.093 71.92 390.741 72.076 391.653 72.076H393.885V76H390.753ZM397.949 76V50.08H402.557V60.88C403.157 59.896 403.961 59.128 404.969 58.576C406.001 58 407.177 57.712 408.497 57.712C410.705 57.712 412.409 58.408 413.609 59.8C414.833 61.192 415.445 63.232 415.445 65.92V76H410.873V66.352C410.873 64.816 410.561 63.64 409.937 62.824C409.337 62.008 408.377 61.6 407.057 61.6C405.761 61.6 404.681 62.056 403.817 62.968C402.977 63.88 402.557 65.152 402.557 66.784V76H397.949ZM422.336 55.372C421.496 55.372 420.8 55.12 420.248 54.616C419.72 54.112 419.456 53.476 419.456 52.708C419.456 51.94 419.72 51.316 420.248 50.836C420.8 50.332 421.496 50.08 422.336 50.08C423.176 50.08 423.86 50.332 424.388 50.836C424.94 51.316 425.216 51.94 425.216 52.708C425.216 53.476 424.94 54.112 424.388 54.616C423.86 55.12 423.176 55.372 422.336 55.372ZM420.032 76V58.144H424.64V76H420.032ZM429.449 76V58.144H433.517L433.877 61.168C434.429 60.112 435.221 59.272 436.253 58.648C437.309 58.024 438.545 57.712 439.961 57.712C442.169 57.712 443.885 58.408 445.109 59.8C446.333 61.192 446.945 63.232 446.945 65.92V76H442.337V66.352C442.337 64.816 442.025 63.64 441.401 62.824C440.777 62.008 439.805 61.6 438.485 61.6C437.189 61.6 436.121 62.056 435.281 62.968C434.465 63.88 434.057 65.152 434.057 66.784V76H429.449ZM458.912 70.672C458.048 70.672 457.244 70.576 456.5 70.384L455.168 71.716C455.576 71.932 456.128 72.112 456.824 72.256C457.52 72.4 458.648 72.544 460.208 72.688C462.584 72.904 464.312 73.468 465.392 74.38C466.472 75.292 467.012 76.552 467.012 78.16C467.012 79.216 466.724 80.212 466.148 81.148C465.572 82.108 464.684 82.876 463.484 83.452C462.284 84.052 460.748 84.352 458.876 84.352C456.332 84.352 454.28 83.872 452.72 82.912C451.16 81.976 450.38 80.56 450.38 78.664C450.38 77.056 451.16 75.664 452.72 74.488C452.24 74.272 451.82 74.044 451.46 73.804C451.124 73.564 450.824 73.312 450.56 73.048V72.22L453.692 68.908C452.3 67.684 451.604 66.112 451.604 64.192C451.604 62.992 451.892 61.9 452.468 60.916C453.068 59.932 453.908 59.152 454.988 58.576C456.068 58 457.376 57.712 458.912 57.712C459.92 57.712 460.856 57.856 461.72 58.144H468.488V60.952L465.428 61.168C465.908 62.08 466.148 63.088 466.148 64.192C466.148 65.392 465.86 66.484 465.284 67.468C464.708 68.452 463.868 69.232 462.764 69.808C461.684 70.384 460.4 70.672 458.912 70.672ZM458.912 67.144C459.848 67.144 460.616 66.892 461.216 66.388C461.84 65.884 462.152 65.164 462.152 64.228C462.152 63.292 461.84 62.572 461.216 62.068C460.616 61.564 459.848 61.312 458.912 61.312C457.928 61.312 457.136 61.564 456.536 62.068C455.936 62.572 455.636 63.292 455.636 64.228C455.636 65.164 455.936 65.884 456.536 66.388C457.136 66.892 457.928 67.144 458.912 67.144ZM454.592 78.196C454.592 79.084 455 79.744 455.816 80.176C456.656 80.632 457.676 80.86 458.876 80.86C460.028 80.86 460.964 80.62 461.684 80.14C462.404 79.684 462.764 79.06 462.764 78.268C462.764 77.62 462.524 77.08 462.044 76.648C461.588 76.216 460.664 75.952 459.272 75.856C458.288 75.784 457.376 75.676 456.536 75.532C455.84 75.916 455.336 76.336 455.024 76.792C454.736 77.248 454.592 77.716 454.592 78.196ZM479.228 76.432C477.644 76.432 476.252 76.18 475.052 75.676C473.852 75.148 472.892 74.428 472.172 73.516C471.452 72.604 471.02 71.548 470.876 70.348H475.52C475.664 71.044 476.048 71.644 476.672 72.148C477.32 72.628 478.148 72.868 479.156 72.868C480.164 72.868 480.896 72.664 481.352 72.256C481.832 71.848 482.072 71.38 482.072 70.852C482.072 70.084 481.736 69.568 481.064 69.304C480.392 69.016 479.456 68.74 478.256 68.476C477.488 68.308 476.708 68.104 475.916 67.864C475.124 67.624 474.392 67.324 473.72 66.964C473.072 66.58 472.544 66.1 472.136 65.524C471.728 64.924 471.524 64.192 471.524 63.328C471.524 61.744 472.148 60.412 473.396 59.332C474.668 58.252 476.444 57.712 478.724 57.712C480.836 57.712 482.516 58.204 483.764 59.188C485.036 60.172 485.792 61.528 486.032 63.256H481.676C481.412 61.936 480.416 61.276 478.688 61.276C477.824 61.276 477.152 61.444 476.672 61.78C476.216 62.116 475.988 62.536 475.988 63.04C475.988 63.568 476.336 63.988 477.032 64.3C477.728 64.612 478.652 64.9 479.804 65.164C481.052 65.452 482.192 65.776 483.224 66.136C484.28 66.472 485.12 66.988 485.744 67.684C486.368 68.356 486.68 69.328 486.68 70.6C486.704 71.704 486.416 72.7 485.816 73.588C485.216 74.476 484.352 75.172 483.224 75.676C482.096 76.18 480.764 76.432 479.228 76.432ZM500.168 76V61.996H497.72V58.144H500.168V56.056C500.168 53.896 500.708 52.36 501.788 51.448C502.892 50.536 504.38 50.08 506.252 50.08H508.232V54.004H506.972C506.18 54.004 505.616 54.16 505.28 54.472C504.944 54.784 504.776 55.312 504.776 56.056V58.144H508.628V61.996H504.776V76H500.168ZM520.142 76.432C518.414 76.432 516.854 76.036 515.462 75.244C514.094 74.452 513.002 73.36 512.186 71.968C511.394 70.552 510.998 68.92 510.998 67.072C510.998 65.224 511.406 63.604 512.222 62.212C513.038 60.796 514.13 59.692 515.498 58.9C516.89 58.108 518.45 57.712 520.178 57.712C521.882 57.712 523.418 58.108 524.786 58.9C526.178 59.692 527.27 60.796 528.062 62.212C528.878 63.604 529.286 65.224 529.286 67.072C529.286 68.92 528.878 70.552 528.062 71.968C527.27 73.36 526.178 74.452 524.786 75.244C523.394 76.036 521.846 76.432 520.142 76.432ZM520.142 72.436C521.342 72.436 522.386 71.992 523.274 71.104C524.162 70.192 524.606 68.848 524.606 67.072C524.606 65.296 524.162 63.964 523.274 63.076C522.386 62.164 521.354 61.708 520.178 61.708C518.954 61.708 517.898 62.164 517.01 63.076C516.146 63.964 515.714 65.296 515.714 67.072C515.714 68.848 516.146 70.192 517.01 71.104C517.898 71.992 518.942 72.436 520.142 72.436ZM533.406 76V58.144H537.51L537.942 61.492C538.59 60.34 539.466 59.428 540.57 58.756C541.698 58.06 543.018 57.712 544.53 57.712V62.572H543.234C542.226 62.572 541.326 62.728 540.534 63.04C539.742 63.352 539.118 63.892 538.662 64.66C538.23 65.428 538.014 66.496 538.014 67.864V76H533.406ZM564.826 76.432C563.098 76.432 561.538 76.036 560.146 75.244C558.778 74.452 557.686 73.36 556.87 71.968C556.078 70.552 555.682 68.92 555.682 67.072C555.682 65.224 556.09 63.604 556.906 62.212C557.722 60.796 558.814 59.692 560.182 58.9C561.574 58.108 563.134 57.712 564.862 57.712C566.566 57.712 568.102 58.108 569.47 58.9C570.862 59.692 571.954 60.796 572.746 62.212C573.562 63.604 573.97 65.224 573.97 67.072C573.97 68.92 573.562 70.552 572.746 71.968C571.954 73.36 570.862 74.452 569.47 75.244C568.078 76.036 566.53 76.432 564.826 76.432ZM564.826 72.436C566.026 72.436 567.07 71.992 567.958 71.104C568.846 70.192 569.29 68.848 569.29 67.072C569.29 65.296 568.846 63.964 567.958 63.076C567.07 62.164 566.038 61.708 564.862 61.708C563.638 61.708 562.582 62.164 561.694 63.076C560.83 63.964 560.398 65.296 560.398 67.072C560.398 68.848 560.83 70.192 561.694 71.104C562.582 71.992 563.626 72.436 564.826 72.436ZM578.09 76V58.144H582.158L582.518 61.168C583.07 60.112 583.862 59.272 584.894 58.648C585.95 58.024 587.186 57.712 588.602 57.712C590.81 57.712 592.526 58.408 593.75 59.8C594.974 61.192 595.586 63.232 595.586 65.92V76H590.978V66.352C590.978 64.816 590.666 63.64 590.042 62.824C589.418 62.008 588.446 61.6 587.126 61.6C585.83 61.6 584.762 62.056 583.922 62.968C583.106 63.88 582.698 65.152 582.698 66.784V76H578.09ZM608.668 76.432C606.868 76.432 605.272 76.048 603.88 75.28C602.488 74.512 601.396 73.432 600.604 72.04C599.812 70.648 599.416 69.04 599.416 67.216C599.416 65.368 599.8 63.724 600.568 62.284C601.36 60.844 602.44 59.728 603.808 58.936C605.2 58.12 606.832 57.712 608.704 57.712C610.456 57.712 612.004 58.096 613.348 58.864C614.692 59.632 615.736 60.688 616.48 62.032C617.248 63.352 617.632 64.828 617.632 66.46C617.632 66.724 617.62 67 617.596 67.288C617.596 67.576 617.584 67.876 617.56 68.188H603.988C604.084 69.58 604.564 70.672 605.428 71.464C606.316 72.256 607.384 72.652 608.632 72.652C609.568 72.652 610.348 72.448 610.972 72.04C611.62 71.608 612.1 71.056 612.412 70.384H617.092C616.756 71.512 616.192 72.544 615.4 73.48C614.632 74.392 613.672 75.112 612.52 75.64C611.392 76.168 610.108 76.432 608.668 76.432ZM608.704 61.456C607.576 61.456 606.58 61.78 605.716 62.428C604.852 63.052 604.3 64.012 604.06 65.308H612.952C612.88 64.132 612.448 63.196 611.656 62.5C610.864 61.804 609.88 61.456 608.704 61.456ZM638.294 76.432C636.614 76.432 635.114 76.024 633.794 75.208C632.474 74.392 631.43 73.276 630.662 71.86C629.894 70.444 629.51 68.836 629.51 67.036C629.51 65.236 629.894 63.64 630.662 62.248C631.43 60.832 632.474 59.728 633.794 58.936C635.114 58.12 636.614 57.712 638.294 57.712C639.638 57.712 640.814 57.964 641.822 58.468C642.83 58.972 643.646 59.68 644.27 60.592V50.08H648.878V76H644.774L644.27 73.444C643.694 74.236 642.926 74.932 641.966 75.532C641.03 76.132 639.806 76.432 638.294 76.432ZM639.266 72.4C640.754 72.4 641.966 71.908 642.902 70.924C643.862 69.916 644.342 68.632 644.342 67.072C644.342 65.512 643.862 64.24 642.902 63.256C641.966 62.248 640.754 61.744 639.266 61.744C637.802 61.744 636.59 62.236 635.63 63.22C634.67 64.204 634.19 65.476 634.19 67.036C634.19 68.596 634.67 69.88 635.63 70.888C636.59 71.896 637.802 72.4 639.266 72.4ZM659.726 76.432C658.19 76.432 656.93 76.192 655.946 75.712C654.962 75.208 654.23 74.548 653.75 73.732C653.27 72.916 653.03 72.016 653.03 71.032C653.03 69.376 653.678 68.032 654.974 67C656.27 65.968 658.214 65.452 660.806 65.452H665.342V65.02C665.342 63.796 664.994 62.896 664.298 62.32C663.602 61.744 662.738 61.456 661.706 61.456C660.77 61.456 659.954 61.684 659.258 62.14C658.562 62.572 658.13 63.22 657.962 64.084H653.462C653.582 62.788 654.014 61.66 654.758 60.7C655.526 59.74 656.51 59.008 657.71 58.504C658.91 57.976 660.254 57.712 661.742 57.712C664.286 57.712 666.29 58.348 667.754 59.62C669.218 60.892 669.95 62.692 669.95 65.02V76H666.026L665.594 73.12C665.066 74.08 664.322 74.872 663.362 75.496C662.426 76.12 661.214 76.432 659.726 76.432ZM660.77 72.832C662.09 72.832 663.11 72.4 663.83 71.536C664.574 70.672 665.042 69.604 665.234 68.332H661.31C660.086 68.332 659.21 68.56 658.682 69.016C658.154 69.448 657.89 69.988 657.89 70.636C657.89 71.332 658.154 71.872 658.682 72.256C659.21 72.64 659.906 72.832 660.77 72.832ZM675.982 83.92L680.122 74.812H679.042L672.094 58.144H677.098L682.102 70.708L687.322 58.144H692.218L680.878 83.92H675.982ZM709.965 76.432C708.429 76.432 707.169 76.192 706.185 75.712C705.201 75.208 704.469 74.548 703.989 73.732C703.509 72.916 703.269 72.016 703.269 71.032C703.269 69.376 703.917 68.032 705.213 67C706.509 65.968 708.453 65.452 711.045 65.452H715.581V65.02C715.581 63.796 715.233 62.896 714.537 62.32C713.841 61.744 712.977 61.456 711.945 61.456C711.009 61.456 710.193 61.684 709.497 62.14C708.801 62.572 708.369 63.22 708.201 64.084H703.701C703.821 62.788 704.253 61.66 704.997 60.7C705.765 59.74 706.749 59.008 707.949 58.504C709.149 57.976 710.493 57.712 711.981 57.712C714.525 57.712 716.529 58.348 717.993 59.62C719.457 60.892 720.189 62.692 720.189 65.02V76H716.265L715.833 73.12C715.305 74.08 714.561 74.872 713.601 75.496C712.665 76.12 711.453 76.432 709.965 76.432ZM711.009 72.832C712.329 72.832 713.349 72.4 714.069 71.536C714.813 70.672 715.281 69.604 715.473 68.332H711.549C710.325 68.332 709.449 68.56 708.921 69.016C708.393 69.448 708.129 69.988 708.129 70.636C708.129 71.332 708.393 71.872 708.921 72.256C709.449 72.64 710.145 72.832 711.009 72.832ZM724.586 76V58.144H728.654L729.014 61.168C729.566 60.112 730.358 59.272 731.39 58.648C732.446 58.024 733.682 57.712 735.098 57.712C737.306 57.712 739.022 58.408 740.246 59.8C741.47 61.192 742.082 63.232 742.082 65.92V76H737.474V66.352C737.474 64.816 737.162 63.64 736.538 62.824C735.914 62.008 734.942 61.6 733.622 61.6C732.326 61.6 731.258 62.056 730.418 62.968C729.602 63.88 729.194 65.152 729.194 66.784V76H724.586ZM754.696 76.432C753.016 76.432 751.516 76.024 750.196 75.208C748.876 74.392 747.832 73.276 747.064 71.86C746.296 70.444 745.912 68.836 745.912 67.036C745.912 65.236 746.296 63.64 747.064 62.248C747.832 60.832 748.876 59.728 750.196 58.936C751.516 58.12 753.016 57.712 754.696 57.712C756.04 57.712 757.216 57.964 758.224 58.468C759.232 58.972 760.048 59.68 760.672 60.592V50.08H765.28V76H761.176L760.672 73.444C760.096 74.236 759.328 74.932 758.368 75.532C757.432 76.132 756.208 76.432 754.696 76.432ZM755.668 72.4C757.156 72.4 758.368 71.908 759.304 70.924C760.264 69.916 760.744 68.632 760.744 67.072C760.744 65.512 760.264 64.24 759.304 63.256C758.368 62.248 757.156 61.744 755.668 61.744C754.204 61.744 752.992 62.236 752.032 63.22C751.072 64.204 750.592 65.476 750.592 67.036C750.592 68.596 751.072 69.88 752.032 70.888C752.992 71.896 754.204 72.4 755.668 72.4ZM778.551 76V58.144H782.619L783.015 60.556C783.591 59.692 784.347 59.008 785.283 58.504C786.243 57.976 787.347 57.712 788.595 57.712C791.355 57.712 793.311 58.78 794.463 60.916C795.111 59.932 795.975 59.152 797.055 58.576C798.159 58 799.359 57.712 800.655 57.712C802.983 57.712 804.771 58.408 806.019 59.8C807.267 61.192 807.891 63.232 807.891 65.92V76H803.283V66.352C803.283 64.816 802.983 63.64 802.383 62.824C801.807 62.008 800.907 61.6 799.683 61.6C798.435 61.6 797.427 62.056 796.659 62.968C795.915 63.88 795.543 65.152 795.543 66.784V76H790.935V66.352C790.935 64.816 790.635 63.64 790.035 62.824C789.435 62.008 788.511 61.6 787.263 61.6C786.039 61.6 785.043 62.056 784.275 62.968C783.531 63.88 783.159 65.152 783.159 66.784V76H778.551ZM820.834 76.432C819.106 76.432 817.546 76.036 816.154 75.244C814.786 74.452 813.694 73.36 812.878 71.968C812.086 70.552 811.69 68.92 811.69 67.072C811.69 65.224 812.098 63.604 812.914 62.212C813.73 60.796 814.822 59.692 816.19 58.9C817.582 58.108 819.142 57.712 820.87 57.712C822.574 57.712 824.11 58.108 825.478 58.9C826.87 59.692 827.962 60.796 828.754 62.212C829.57 63.604 829.978 65.224 829.978 67.072C829.978 68.92 829.57 70.552 828.754 71.968C827.962 73.36 826.87 74.452 825.478 75.244C824.086 76.036 822.538 76.432 820.834 76.432ZM820.834 72.436C822.034 72.436 823.078 71.992 823.966 71.104C824.854 70.192 825.298 68.848 825.298 67.072C825.298 65.296 824.854 63.964 823.966 63.076C823.078 62.164 822.046 61.708 820.87 61.708C819.646 61.708 818.59 62.164 817.702 63.076C816.838 63.964 816.406 65.296 816.406 67.072C816.406 68.848 816.838 70.192 817.702 71.104C818.59 71.992 819.634 72.436 820.834 72.436ZM841.478 76.432C839.894 76.432 838.502 76.18 837.302 75.676C836.102 75.148 835.142 74.428 834.422 73.516C833.702 72.604 833.27 71.548 833.126 70.348H837.77C837.914 71.044 838.298 71.644 838.922 72.148C839.57 72.628 840.398 72.868 841.406 72.868C842.414 72.868 843.146 72.664 843.602 72.256C844.082 71.848 844.322 71.38 844.322 70.852C844.322 70.084 843.986 69.568 843.314 69.304C842.642 69.016 841.706 68.74 840.506 68.476C839.738 68.308 838.958 68.104 838.166 67.864C837.374 67.624 836.642 67.324 835.97 66.964C835.322 66.58 834.794 66.1 834.386 65.524C833.978 64.924 833.774 64.192 833.774 63.328C833.774 61.744 834.398 60.412 835.646 59.332C836.918 58.252 838.694 57.712 840.974 57.712C843.086 57.712 844.766 58.204 846.014 59.188C847.286 60.172 848.042 61.528 848.282 63.256H843.926C843.662 61.936 842.666 61.276 840.938 61.276C840.074 61.276 839.402 61.444 838.922 61.78C838.466 62.116 838.238 62.536 838.238 63.04C838.238 63.568 838.586 63.988 839.282 64.3C839.978 64.612 840.902 64.9 842.054 65.164C843.302 65.452 844.442 65.776 845.474 66.136C846.53 66.472 847.37 66.988 847.994 67.684C848.618 68.356 848.93 69.328 848.93 70.6C848.954 71.704 848.666 72.7 848.066 73.588C847.466 74.476 846.602 75.172 845.474 75.676C844.346 76.18 843.014 76.432 841.478 76.432ZM860.405 76C858.533 76 857.033 75.544 855.905 74.632C854.777 73.72 854.213 72.1 854.213 69.772V61.996H851.153V58.144H854.213L854.753 53.356H858.821V58.144H863.645V61.996H858.821V69.808C858.821 70.672 859.001 71.272 859.361 71.608C859.745 71.92 860.393 72.076 861.305 72.076H863.537V76H860.405ZM53.1124 123C51.2404 123 49.7404 122.544 48.6124 121.632C47.4844 120.72 46.9204 119.1 46.9204 116.772V108.996H43.8604V105.144H46.9204L47.4604 100.356H51.5284V105.144H56.3524V108.996H51.5284V116.808C51.5284 117.672 51.7084 118.272 52.0684 118.608C52.4524 118.92 53.1004 119.076 54.0124 119.076H56.2444V123H53.1124ZM62.7928 102.372C61.9528 102.372 61.2568 102.12 60.7048 101.616C60.1768 101.112 59.9128 100.476 59.9128 99.708C59.9128 98.94 60.1768 98.316 60.7048 97.836C61.2568 97.332 61.9528 97.08 62.7928 97.08C63.6328 97.08 64.3168 97.332 64.8448 97.836C65.3968 98.316 65.6728 98.94 65.6728 99.708C65.6728 100.476 65.3968 101.112 64.8448 101.616C64.3168 102.12 63.6328 102.372 62.7928 102.372ZM60.4888 123V105.144H65.0968V123H60.4888ZM69.9064 123V105.144H73.9744L74.3704 107.556C74.9464 106.692 75.7024 106.008 76.6384 105.504C77.5984 104.976 78.7024 104.712 79.9504 104.712C82.7104 104.712 84.6664 105.78 85.8184 107.916C86.4664 106.932 87.3304 106.152 88.4104 105.576C89.5144 105 90.7144 104.712 92.0104 104.712C94.3384 104.712 96.1264 105.408 97.3744 106.8C98.6224 108.192 99.2464 110.232 99.2464 112.92V123H94.6384V113.352C94.6384 111.816 94.3384 110.64 93.7384 109.824C93.1624 109.008 92.2624 108.6 91.0384 108.6C89.7904 108.6 88.7824 109.056 88.0144 109.968C87.2704 110.88 86.8984 112.152 86.8984 113.784V123H82.2904V113.352C82.2904 111.816 81.9904 110.64 81.3904 109.824C80.7904 109.008 79.8664 108.6 78.6184 108.6C77.3944 108.6 76.3984 109.056 75.6304 109.968C74.8864 110.88 74.5144 112.152 74.5144 113.784V123H69.9064ZM112.297 123.432C110.497 123.432 108.901 123.048 107.509 122.28C106.117 121.512 105.025 120.432 104.233 119.04C103.441 117.648 103.045 116.04 103.045 114.216C103.045 112.368 103.429 110.724 104.197 109.284C104.989 107.844 106.069 106.728 107.437 105.936C108.829 105.12 110.461 104.712 112.333 104.712C114.085 104.712 115.633 105.096 116.977 105.864C118.321 106.632 119.365 107.688 120.109 109.032C120.877 110.352 121.261 111.828 121.261 113.46C121.261 113.724 121.249 114 121.225 114.288C121.225 114.576 121.213 114.876 121.189 115.188H107.617C107.713 116.58 108.193 117.672 109.057 118.464C109.945 119.256 111.013 119.652 112.261 119.652C113.197 119.652 113.977 119.448 114.601 119.04C115.249 118.608 115.729 118.056 116.041 117.384H120.721C120.385 118.512 119.821 119.544 119.029 120.48C118.261 121.392 117.301 122.112 116.149 122.64C115.021 123.168 113.737 123.432 112.297 123.432ZM112.333 108.456C111.205 108.456 110.209 108.78 109.345 109.428C108.481 110.052 107.929 111.012 107.689 112.308H116.581C116.509 111.132 116.077 110.196 115.285 109.5C114.493 108.804 113.509 108.456 112.333 108.456ZM132.517 123.432C130.933 123.432 129.541 123.18 128.341 122.676C127.141 122.148 126.181 121.428 125.461 120.516C124.741 119.604 124.309 118.548 124.165 117.348H128.809C128.953 118.044 129.337 118.644 129.961 119.148C130.609 119.628 131.437 119.868 132.445 119.868C133.453 119.868 134.185 119.664 134.641 119.256C135.121 118.848 135.361 118.38 135.361 117.852C135.361 117.084 135.025 116.568 134.353 116.304C133.681 116.016 132.745 115.74 131.545 115.476C130.777 115.308 129.997 115.104 129.205 114.864C128.413 114.624 127.681 114.324 127.009 113.964C126.361 113.58 125.833 113.1 125.425 112.524C125.017 111.924 124.813 111.192 124.813 110.328C124.813 108.744 125.437 107.412 126.685 106.332C127.957 105.252 129.733 104.712 132.013 104.712C134.125 104.712 135.805 105.204 137.053 106.188C138.325 107.172 139.081 108.528 139.321 110.256H134.965C134.701 108.936 133.705 108.276 131.977 108.276C131.113 108.276 130.441 108.444 129.961 108.78C129.505 109.116 129.277 109.536 129.277 110.04C129.277 110.568 129.625 110.988 130.321 111.3C131.017 111.612 131.941 111.9 133.093 112.164C134.341 112.452 135.481 112.776 136.513 113.136C137.569 113.472 138.409 113.988 139.033 114.684C139.657 115.356 139.969 116.328 139.969 117.6C139.993 118.704 139.705 119.7 139.105 120.588C138.505 121.476 137.641 122.172 136.513 122.676C135.385 123.18 134.053 123.432 132.517 123.432ZM152.629 123V97.08H157.237V107.88C157.837 106.896 158.641 106.128 159.649 105.576C160.681 105 161.857 104.712 163.177 104.712C165.385 104.712 167.089 105.408 168.289 106.8C169.513 108.192 170.125 110.232 170.125 112.92V123H165.553V113.352C165.553 111.816 165.241 110.64 164.617 109.824C164.017 109.008 163.057 108.6 161.737 108.6C160.441 108.6 159.361 109.056 158.497 109.968C157.657 110.88 157.237 112.152 157.237 113.784V123H152.629ZM180.687 123.432C179.151 123.432 177.891 123.192 176.907 122.712C175.923 122.208 175.191 121.548 174.711 120.732C174.231 119.916 173.991 119.016 173.991 118.032C173.991 116.376 174.639 115.032 175.935 114C177.231 112.968 179.175 112.452 181.767 112.452H186.303V112.02C186.303 110.796 185.955 109.896 185.259 109.32C184.563 108.744 183.699 108.456 182.667 108.456C181.731 108.456 180.915 108.684 180.219 109.14C179.523 109.572 179.091 110.22 178.923 111.084H174.423C174.543 109.788 174.975 108.66 175.719 107.7C176.487 106.74 177.471 106.008 178.671 105.504C179.871 104.976 181.215 104.712 182.703 104.712C185.247 104.712 187.251 105.348 188.715 106.62C190.179 107.892 190.911 109.692 190.911 112.02V123H186.987L186.555 120.12C186.027 121.08 185.283 121.872 184.323 122.496C183.387 123.12 182.175 123.432 180.687 123.432ZM181.731 119.832C183.051 119.832 184.071 119.4 184.791 118.536C185.535 117.672 186.003 116.604 186.195 115.332H182.271C181.047 115.332 180.171 115.56 179.643 116.016C179.115 116.448 178.851 116.988 178.851 117.636C178.851 118.332 179.115 118.872 179.643 119.256C180.171 119.64 180.867 119.832 181.731 119.832ZM199.605 123L193.053 105.144H197.877L202.413 118.644L206.949 105.144H211.773L205.185 123H199.605ZM222.477 123.432C220.677 123.432 219.081 123.048 217.689 122.28C216.297 121.512 215.205 120.432 214.413 119.04C213.621 117.648 213.225 116.04 213.225 114.216C213.225 112.368 213.609 110.724 214.377 109.284C215.169 107.844 216.249 106.728 217.617 105.936C219.009 105.12 220.641 104.712 222.513 104.712C224.265 104.712 225.813 105.096 227.157 105.864C228.501 106.632 229.545 107.688 230.289 109.032C231.057 110.352 231.441 111.828 231.441 113.46C231.441 113.724 231.429 114 231.405 114.288C231.405 114.576 231.393 114.876 231.369 115.188H217.797C217.893 116.58 218.373 117.672 219.237 118.464C220.125 119.256 221.193 119.652 222.441 119.652C223.377 119.652 224.157 119.448 224.781 119.04C225.429 118.608 225.909 118.056 226.221 117.384H230.901C230.565 118.512 230.001 119.544 229.209 120.48C228.441 121.392 227.481 122.112 226.329 122.64C225.201 123.168 223.917 123.432 222.477 123.432ZM222.513 108.456C221.385 108.456 220.389 108.78 219.525 109.428C218.661 110.052 218.109 111.012 217.869 112.308H226.761C226.689 111.132 226.257 110.196 225.465 109.5C224.673 108.804 223.689 108.456 222.513 108.456ZM251.851 123C249.979 123 248.479 122.544 247.351 121.632C246.223 120.72 245.659 119.1 245.659 116.772V108.996H242.599V105.144H245.659L246.199 100.356H250.267V105.144H255.091V108.996H250.267V116.808C250.267 117.672 250.447 118.272 250.807 118.608C251.191 118.92 251.839 119.076 252.751 119.076H254.983V123H251.851ZM267.158 123.432C265.43 123.432 263.87 123.036 262.478 122.244C261.11 121.452 260.018 120.36 259.202 118.968C258.41 117.552 258.014 115.92 258.014 114.072C258.014 112.224 258.422 110.604 259.238 109.212C260.054 107.796 261.146 106.692 262.514 105.9C263.906 105.108 265.466 104.712 267.194 104.712C268.898 104.712 270.434 105.108 271.802 105.9C273.194 106.692 274.286 107.796 275.078 109.212C275.894 110.604 276.302 112.224 276.302 114.072C276.302 115.92 275.894 117.552 275.078 118.968C274.286 120.36 273.194 121.452 271.802 122.244C270.41 123.036 268.862 123.432 267.158 123.432ZM267.158 119.436C268.358 119.436 269.402 118.992 270.29 118.104C271.178 117.192 271.622 115.848 271.622 114.072C271.622 112.296 271.178 110.964 270.29 110.076C269.402 109.164 268.37 108.708 267.194 108.708C265.97 108.708 264.914 109.164 264.026 110.076C263.162 110.964 262.73 112.296 262.73 114.072C262.73 115.848 263.162 117.192 264.026 118.104C264.914 118.992 265.958 119.436 267.158 119.436ZM297.748 123.432C295.924 123.432 294.316 123.036 292.924 122.244C291.532 121.452 290.428 120.348 289.612 118.932C288.82 117.516 288.424 115.896 288.424 114.072C288.424 112.248 288.82 110.628 289.612 109.212C290.428 107.796 291.532 106.692 292.924 105.9C294.316 105.108 295.924 104.712 297.748 104.712C300.028 104.712 301.948 105.312 303.508 106.512C305.068 107.688 306.064 109.32 306.496 111.408H301.636C301.396 110.544 300.916 109.872 300.196 109.392C299.5 108.888 298.672 108.636 297.712 108.636C296.44 108.636 295.36 109.116 294.472 110.076C293.584 111.036 293.14 112.368 293.14 114.072C293.14 115.776 293.584 117.108 294.472 118.068C295.36 119.028 296.44 119.508 297.712 119.508C298.672 119.508 299.5 119.268 300.196 118.788C300.916 118.308 301.396 117.624 301.636 116.736H306.496C306.064 118.752 305.068 120.372 303.508 121.596C301.948 122.82 300.028 123.432 297.748 123.432ZM319.154 123.432C317.426 123.432 315.866 123.036 314.474 122.244C313.106 121.452 312.014 120.36 311.198 118.968C310.406 117.552 310.01 115.92 310.01 114.072C310.01 112.224 310.418 110.604 311.234 109.212C312.05 107.796 313.142 106.692 314.51 105.9C315.902 105.108 317.462 104.712 319.19 104.712C320.894 104.712 322.43 105.108 323.798 105.9C325.19 106.692 326.282 107.796 327.074 109.212C327.89 110.604 328.298 112.224 328.298 114.072C328.298 115.92 327.89 117.552 327.074 118.968C326.282 120.36 325.19 121.452 323.798 122.244C322.406 123.036 320.858 123.432 319.154 123.432ZM319.154 119.436C320.354 119.436 321.398 118.992 322.286 118.104C323.174 117.192 323.618 115.848 323.618 114.072C323.618 112.296 323.174 110.964 322.286 110.076C321.398 109.164 320.366 108.708 319.19 108.708C317.966 108.708 316.91 109.164 316.022 110.076C315.158 110.964 314.726 112.296 314.726 114.072C314.726 115.848 315.158 117.192 316.022 118.104C316.91 118.992 317.954 119.436 319.154 119.436ZM332.418 123V105.144H336.486L336.882 107.556C337.458 106.692 338.214 106.008 339.15 105.504C340.11 104.976 341.214 104.712 342.462 104.712C345.222 104.712 347.178 105.78 348.33 107.916C348.978 106.932 349.842 106.152 350.922 105.576C352.026 105 353.226 104.712 354.522 104.712C356.85 104.712 358.638 105.408 359.886 106.8C361.134 108.192 361.758 110.232 361.758 112.92V123H357.15V113.352C357.15 111.816 356.85 110.64 356.25 109.824C355.674 109.008 354.774 108.6 353.55 108.6C352.302 108.6 351.294 109.056 350.526 109.968C349.782 110.88 349.41 112.152 349.41 113.784V123H344.802V113.352C344.802 111.816 344.502 110.64 343.902 109.824C343.302 109.008 342.378 108.6 341.13 108.6C339.906 108.6 338.91 109.056 338.142 109.968C337.398 110.88 337.026 112.152 337.026 113.784V123H332.418ZM374.809 123.432C373.009 123.432 371.413 123.048 370.021 122.28C368.629 121.512 367.537 120.432 366.745 119.04C365.953 117.648 365.557 116.04 365.557 114.216C365.557 112.368 365.941 110.724 366.709 109.284C367.501 107.844 368.581 106.728 369.949 105.936C371.341 105.12 372.973 104.712 374.845 104.712C376.597 104.712 378.145 105.096 379.489 105.864C380.833 106.632 381.877 107.688 382.621 109.032C383.389 110.352 383.773 111.828 383.773 113.46C383.773 113.724 383.761 114 383.737 114.288C383.737 114.576 383.725 114.876 383.701 115.188H370.129C370.225 116.58 370.705 117.672 371.569 118.464C372.457 119.256 373.525 119.652 374.773 119.652C375.709 119.652 376.489 119.448 377.113 119.04C377.761 118.608 378.241 118.056 378.553 117.384H383.233C382.897 118.512 382.333 119.544 381.541 120.48C380.773 121.392 379.813 122.112 378.661 122.64C377.533 123.168 376.249 123.432 374.809 123.432ZM374.845 108.456C373.717 108.456 372.721 108.78 371.857 109.428C370.993 110.052 370.441 111.012 370.201 112.308H379.093C379.021 111.132 378.589 110.196 377.797 109.5C377.005 108.804 376.021 108.456 374.845 108.456ZM402.923 123.432C400.691 123.432 398.963 122.736 397.739 121.344C396.539 119.952 395.939 117.912 395.939 115.224V105.144H400.511V114.792C400.511 116.328 400.823 117.504 401.447 118.32C402.071 119.136 403.055 119.544 404.399 119.544C405.671 119.544 406.715 119.088 407.531 118.176C408.371 117.264 408.791 115.992 408.791 114.36V105.144H413.399V123H409.331L408.971 119.976C408.419 121.032 407.615 121.872 406.559 122.496C405.527 123.12 404.315 123.432 402.923 123.432ZM418.129 130.92V105.144H422.233L422.737 107.7C423.313 106.908 424.069 106.212 425.005 105.612C425.965 105.012 427.201 104.712 428.713 104.712C430.393 104.712 431.893 105.12 433.213 105.936C434.533 106.752 435.577 107.868 436.345 109.284C437.113 110.7 437.497 112.308 437.497 114.108C437.497 115.908 437.113 117.516 436.345 118.932C435.577 120.324 434.533 121.428 433.213 122.244C431.893 123.036 430.393 123.432 428.713 123.432C427.369 123.432 426.193 123.18 425.185 122.676C424.177 122.172 423.361 121.464 422.737 120.552V130.92H418.129ZM427.741 119.4C429.205 119.4 430.417 118.908 431.377 117.924C432.337 116.94 432.817 115.668 432.817 114.108C432.817 112.548 432.337 111.264 431.377 110.256C430.417 109.248 429.205 108.744 427.741 108.744C426.253 108.744 425.029 109.248 424.069 110.256C423.133 111.24 422.665 112.512 422.665 114.072C422.665 115.632 423.133 116.916 424.069 117.924C425.029 118.908 426.253 119.4 427.741 119.4ZM453.684 123L448.464 105.144H453.036L456.132 117.996L459.732 105.144H464.844L468.444 117.996L471.576 105.144H476.148L470.892 123H466.104L462.288 109.644L458.472 123H453.684ZM481.539 102.372C480.699 102.372 480.003 102.12 479.451 101.616C478.923 101.112 478.659 100.476 478.659 99.708C478.659 98.94 478.923 98.316 479.451 97.836C480.003 97.332 480.699 97.08 481.539 97.08C482.379 97.08 483.063 97.332 483.591 97.836C484.143 98.316 484.419 98.94 484.419 99.708C484.419 100.476 484.143 101.112 483.591 101.616C483.063 102.12 482.379 102.372 481.539 102.372ZM479.235 123V105.144H483.843V123H479.235ZM496.609 123C494.737 123 493.237 122.544 492.109 121.632C490.981 120.72 490.417 119.1 490.417 116.772V108.996H487.357V105.144H490.417L490.957 100.356H495.025V105.144H499.849V108.996H495.025V116.808C495.025 117.672 495.205 118.272 495.564 118.608C495.949 118.92 496.597 119.076 497.509 119.076H499.741V123H496.609ZM503.805 123V97.08H508.413V107.88C509.013 106.896 509.817 106.128 510.825 105.576C511.857 105 513.033 104.712 514.353 104.712C516.561 104.712 518.265 105.408 519.465 106.8C520.689 108.192 521.301 110.232 521.301 112.92V123H516.729V113.352C516.729 111.816 516.417 110.64 515.793 109.824C515.193 109.008 514.233 108.6 512.913 108.6C511.617 108.6 510.537 109.056 509.673 109.968C508.833 110.88 508.413 112.152 508.413 113.784V123H503.805ZM542.493 123.432C540.813 123.432 539.313 123.024 537.993 122.208C536.673 121.392 535.629 120.276 534.861 118.86C534.093 117.444 533.709 115.836 533.709 114.036C533.709 112.236 534.093 110.64 534.861 109.248C535.629 107.832 536.673 106.728 537.993 105.936C539.313 105.12 540.813 104.712 542.493 104.712C543.837 104.712 545.013 104.964 546.021 105.468C547.029 105.972 547.845 106.68 548.469 107.592V97.08H553.077V123H548.973L548.469 120.444C547.893 121.236 547.125 121.932 546.165 122.532C545.229 123.132 544.005 123.432 542.493 123.432ZM543.465 119.4C544.953 119.4 546.165 118.908 547.101 117.924C548.061 116.916 548.541 115.632 548.541 114.072C548.541 112.512 548.061 111.24 547.101 110.256C546.165 109.248 544.953 108.744 543.465 108.744C542.001 108.744 540.789 109.236 539.829 110.22C538.869 111.204 538.389 112.476 538.389 114.036C538.389 115.596 538.869 116.88 539.829 117.888C540.789 118.896 542.001 119.4 543.465 119.4ZM560.254 102.372C559.414 102.372 558.718 102.12 558.166 101.616C557.638 101.112 557.374 100.476 557.374 99.708C557.374 98.94 557.638 98.316 558.166 97.836C558.718 97.332 559.414 97.08 560.254 97.08C561.094 97.08 561.778 97.332 562.306 97.836C562.858 98.316 563.134 98.94 563.134 99.708C563.134 100.476 562.858 101.112 562.306 101.616C561.778 102.12 561.094 102.372 560.254 102.372ZM557.95 123V105.144H562.558V123H557.95ZM568.195 123V108.996H565.747V105.144H568.195V103.056C568.195 100.896 568.735 99.36 569.815 98.448C570.919 97.536 572.407 97.08 574.279 97.08H576.259V101.004H574.999C574.207 101.004 573.643 101.16 573.307 101.472C572.971 101.784 572.803 102.312 572.803 103.056V105.144H576.655V108.996H572.803V123H568.195ZM581.133 123V108.996H578.685V105.144H581.133V103.056C581.133 100.896 581.673 99.36 582.753 98.448C583.857 97.536 585.345 97.08 587.217 97.08H589.197V101.004H587.937C587.145 101.004 586.581 101.16 586.245 101.472C585.909 101.784 585.741 102.312 585.741 103.056V105.144H589.593V108.996H585.741V123H581.133ZM601.215 123.432C599.415 123.432 597.819 123.048 596.427 122.28C595.035 121.512 593.943 120.432 593.151 119.04C592.359 117.648 591.963 116.04 591.963 114.216C591.963 112.368 592.347 110.724 593.115 109.284C593.907 107.844 594.987 106.728 596.355 105.936C597.747 105.12 599.379 104.712 601.251 104.712C603.003 104.712 604.551 105.096 605.895 105.864C607.239 106.632 608.283 107.688 609.027 109.032C609.795 110.352 610.179 111.828 610.179 113.46C610.179 113.724 610.167 114 610.143 114.288C610.143 114.576 610.131 114.876 610.107 115.188H596.535C596.631 116.58 597.111 117.672 597.975 118.464C598.863 119.256 599.931 119.652 601.179 119.652C602.115 119.652 602.895 119.448 603.519 119.04C604.167 118.608 604.647 118.056 604.959 117.384H609.639C609.303 118.512 608.739 119.544 607.947 120.48C607.179 121.392 606.219 122.112 605.067 122.64C603.939 123.168 602.655 123.432 601.215 123.432ZM601.251 108.456C600.123 108.456 599.127 108.78 598.263 109.428C597.399 110.052 596.847 111.012 596.607 112.308H605.499C605.427 111.132 604.995 110.196 604.203 109.5C603.411 108.804 602.427 108.456 601.251 108.456ZM614.055 123V105.144H618.159L618.591 108.492C619.239 107.34 620.115 106.428 621.219 105.756C622.347 105.06 623.667 104.712 625.179 104.712V109.572H623.883C622.875 109.572 621.975 109.728 621.183 110.04C620.391 110.352 619.767 110.892 619.311 111.66C618.879 112.428 618.663 113.496 618.663 114.864V123H614.055ZM636.688 123.432C634.888 123.432 633.292 123.048 631.9 122.28C630.508 121.512 629.416 120.432 628.624 119.04C627.832 117.648 627.436 116.04 627.436 114.216C627.436 112.368 627.82 110.724 628.588 109.284C629.38 107.844 630.46 106.728 631.828 105.936C633.22 105.12 634.852 104.712 636.724 104.712C638.476 104.712 640.024 105.096 641.368 105.864C642.712 106.632 643.756 107.688 644.5 109.032C645.268 110.352 645.652 111.828 645.652 113.46C645.652 113.724 645.64 114 645.616 114.288C645.616 114.576 645.604 114.876 645.58 115.188H632.008C632.104 116.58 632.584 117.672 633.448 118.464C634.336 119.256 635.404 119.652 636.652 119.652C637.588 119.652 638.368 119.448 638.992 119.04C639.64 118.608 640.12 118.056 640.432 117.384H645.112C644.776 118.512 644.212 119.544 643.42 120.48C642.652 121.392 641.692 122.112 640.54 122.64C639.412 123.168 638.128 123.432 636.688 123.432ZM636.724 108.456C635.596 108.456 634.6 108.78 633.736 109.428C632.872 110.052 632.32 111.012 632.08 112.308H640.972C640.9 111.132 640.468 110.196 639.676 109.5C638.884 108.804 637.9 108.456 636.724 108.456ZM649.528 123V105.144H653.596L653.956 108.168C654.508 107.112 655.3 106.272 656.332 105.648C657.388 105.024 658.624 104.712 660.04 104.712C662.248 104.712 663.964 105.408 665.188 106.8C666.411 108.192 667.023 110.232 667.023 112.92V123H662.416V113.352C662.416 111.816 662.104 110.64 661.48 109.824C660.856 109.008 659.884 108.6 658.564 108.6C657.268 108.6 656.2 109.056 655.36 109.968C654.544 110.88 654.136 112.152 654.136 113.784V123H649.528ZM679.386 123C677.514 123 676.014 122.544 674.886 121.632C673.758 120.72 673.194 119.1 673.194 116.772V108.996H670.134V105.144H673.194L673.734 100.356H677.802V105.144H682.626V108.996H677.802V116.808C677.802 117.672 677.982 118.272 678.342 118.608C678.726 118.92 679.374 119.076 680.286 119.076H682.518V123H679.386ZM702.54 123.432C700.956 123.432 699.564 123.18 698.364 122.676C697.164 122.148 696.204 121.428 695.484 120.516C694.764 119.604 694.332 118.548 694.188 117.348H698.832C698.976 118.044 699.36 118.644 699.984 119.148C700.632 119.628 701.46 119.868 702.468 119.868C703.476 119.868 704.208 119.664 704.664 119.256C705.144 118.848 705.384 118.38 705.384 117.852C705.384 117.084 705.048 116.568 704.376 116.304C703.704 116.016 702.768 115.74 701.568 115.476C700.8 115.308 700.02 115.104 699.228 114.864C698.436 114.624 697.704 114.324 697.032 113.964C696.384 113.58 695.856 113.1 695.448 112.524C695.04 111.924 694.836 111.192 694.836 110.328C694.836 108.744 695.46 107.412 696.708 106.332C697.98 105.252 699.756 104.712 702.036 104.712C704.148 104.712 705.828 105.204 707.076 106.188C708.348 107.172 709.104 108.528 709.344 110.256H704.988C704.724 108.936 703.728 108.276 702 108.276C701.136 108.276 700.464 108.444 699.984 108.78C699.528 109.116 699.3 109.536 699.3 110.04C699.3 110.568 699.648 110.988 700.344 111.3C701.04 111.612 701.964 111.9 703.116 112.164C704.364 112.452 705.504 112.776 706.536 113.136C707.592 113.472 708.432 113.988 709.056 114.684C709.68 115.356 709.992 116.328 709.992 117.6C710.016 118.704 709.728 119.7 709.128 120.588C708.528 121.476 707.664 122.172 706.536 122.676C705.408 123.18 704.076 123.432 702.54 123.432ZM722.642 123.432C720.914 123.432 719.354 123.036 717.962 122.244C716.594 121.452 715.502 120.36 714.686 118.968C713.894 117.552 713.498 115.92 713.498 114.072C713.498 112.224 713.906 110.604 714.722 109.212C715.538 107.796 716.63 106.692 717.998 105.9C719.39 105.108 720.95 104.712 722.678 104.712C724.382 104.712 725.918 105.108 727.286 105.9C728.678 106.692 729.77 107.796 730.562 109.212C731.378 110.604 731.786 112.224 731.786 114.072C731.786 115.92 731.378 117.552 730.562 118.968C729.77 120.36 728.678 121.452 727.286 122.244C725.894 123.036 724.346 123.432 722.642 123.432ZM722.642 119.436C723.842 119.436 724.886 118.992 725.774 118.104C726.662 117.192 727.106 115.848 727.106 114.072C727.106 112.296 726.662 110.964 725.774 110.076C724.886 109.164 723.854 108.708 722.678 108.708C721.454 108.708 720.398 109.164 719.51 110.076C718.646 110.964 718.214 112.296 718.214 114.072C718.214 115.848 718.646 117.192 719.51 118.104C720.398 118.992 721.442 119.436 722.642 119.436ZM735.906 123V97.08H740.514V123H735.906ZM751.919 123.432C749.687 123.432 747.959 122.736 746.735 121.344C745.535 119.952 744.935 117.912 744.935 115.224V105.144H749.507V114.792C749.507 116.328 749.819 117.504 750.443 118.32C751.067 119.136 752.051 119.544 753.395 119.544C754.667 119.544 755.711 119.088 756.527 118.176C757.367 117.264 757.787 115.992 757.787 114.36V105.144H762.395V123H758.327L757.967 119.976C757.415 121.032 756.611 121.872 755.555 122.496C754.523 123.12 753.311 123.432 751.919 123.432ZM775.081 123C773.209 123 771.709 122.544 770.581 121.632C769.453 120.72 768.889 119.1 768.889 116.772V108.996H765.829V105.144H768.889L769.429 100.356H773.497V105.144H778.321V108.996H773.497V116.808C773.497 117.672 773.677 118.272 774.037 118.608C774.421 118.92 775.069 119.076 775.981 119.076H778.213V123H775.081ZM784.762 102.372C783.922 102.372 783.226 102.12 782.674 101.616C782.146 101.112 781.882 100.476 781.882 99.708C781.882 98.94 782.146 98.316 782.674 97.836C783.226 97.332 783.922 97.08 784.762 97.08C785.602 97.08 786.286 97.332 786.814 97.836C787.366 98.316 787.642 98.94 787.642 99.708C787.642 100.476 787.366 101.112 786.814 101.616C786.286 102.12 785.602 102.372 784.762 102.372ZM782.458 123V105.144H787.066V123H782.458ZM800.443 123.432C798.715 123.432 797.155 123.036 795.763 122.244C794.395 121.452 793.303 120.36 792.487 118.968C791.695 117.552 791.299 115.92 791.299 114.072C791.299 112.224 791.707 110.604 792.523 109.212C793.339 107.796 794.431 106.692 795.799 105.9C797.191 105.108 798.751 104.712 800.479 104.712C802.183 104.712 803.719 105.108 805.087 105.9C806.479 106.692 807.571 107.796 808.363 109.212C809.179 110.604 809.587 112.224 809.587 114.072C809.587 115.92 809.179 117.552 808.363 118.968C807.571 120.36 806.479 121.452 805.087 122.244C803.695 123.036 802.147 123.432 800.443 123.432ZM800.443 119.436C801.643 119.436 802.687 118.992 803.575 118.104C804.463 117.192 804.907 115.848 804.907 114.072C804.907 112.296 804.463 110.964 803.575 110.076C802.687 109.164 801.655 108.708 800.479 108.708C799.255 108.708 798.199 109.164 797.311 110.076C796.447 110.964 796.015 112.296 796.015 114.072C796.015 115.848 796.447 117.192 797.311 118.104C798.199 118.992 799.243 119.436 800.443 119.436ZM813.707 123V105.144H817.775L818.135 108.168C818.687 107.112 819.479 106.272 820.511 105.648C821.567 105.024 822.803 104.712 824.219 104.712C826.427 104.712 828.143 105.408 829.367 106.8C830.591 108.192 831.203 110.232 831.203 112.92V123H826.595V113.352C826.595 111.816 826.283 110.64 825.659 109.824C825.035 109.008 824.063 108.6 822.743 108.6C821.447 108.6 820.379 109.056 819.539 109.968C818.723 110.88 818.315 112.152 818.315 113.784V123H813.707ZM842.99 123.432C841.406 123.432 840.014 123.18 838.814 122.676C837.614 122.148 836.654 121.428 835.934 120.516C835.214 119.604 834.782 118.548 834.638 117.348H839.282C839.426 118.044 839.81 118.644 840.434 119.148C841.082 119.628 841.91 119.868 842.918 119.868C843.926 119.868 844.658 119.664 845.114 119.256C845.594 118.848 845.834 118.38 845.834 117.852C845.834 117.084 845.498 116.568 844.826 116.304C844.154 116.016 843.218 115.74 842.018 115.476C841.25 115.308 840.47 115.104 839.678 114.864C838.886 114.624 838.154 114.324 837.482 113.964C836.834 113.58 836.306 113.1 835.898 112.524C835.49 111.924 835.286 111.192 835.286 110.328C835.286 108.744 835.91 107.412 837.158 106.332C838.43 105.252 840.206 104.712 842.486 104.712C844.598 104.712 846.278 105.204 847.526 106.188C848.798 107.172 849.554 108.528 849.794 110.256H845.438C845.174 108.936 844.178 108.276 842.45 108.276C841.586 108.276 840.914 108.444 840.434 108.78C839.978 109.116 839.75 109.536 839.75 110.04C839.75 110.568 840.098 110.988 840.794 111.3C841.49 111.612 842.414 111.9 843.566 112.164C844.814 112.452 845.954 112.776 846.986 113.136C848.042 113.472 848.882 113.988 849.506 114.684C850.13 115.356 850.442 116.328 850.442 117.6C850.466 118.704 850.178 119.7 849.578 120.588C848.978 121.476 848.114 122.172 846.986 122.676C845.858 123.18 844.526 123.432 842.99 123.432Z" fill="#222222"/>
</svg>
