<svg width="895" height="174" viewBox="0 0 895 174" fill="none" xmlns="http://www.w3.org/2000/svg">
<rect x="2" y="2" width="891" height="170" rx="23" stroke="#BD4803" stroke-width="4"/>
<path d="M58.2518 76L67.4678 50.8H72.6518L81.8678 76H76.9718L74.9558 70.168H65.1278L63.0758 76H58.2518ZM66.3878 66.568H73.6958L70.0238 56.092L66.3878 66.568ZM92.9103 76.432C91.0863 76.432 89.4783 76.036 88.0863 75.244C86.6943 74.452 85.5903 73.348 84.7743 71.932C83.9823 70.516 83.5863 68.896 83.5863 67.072C83.5863 65.248 83.9823 63.628 84.7743 62.212C85.5903 60.796 86.6943 59.692 88.0863 58.9C89.4783 58.108 91.0863 57.712 92.9103 57.712C95.1903 57.712 97.1103 58.312 98.6703 59.512C100.23 60.688 101.226 62.32 101.658 64.408H96.7983C96.5583 63.544 96.0783 62.872 95.3583 62.392C94.6623 61.888 93.8343 61.636 92.8743 61.636C91.6023 61.636 90.5223 62.116 89.6343 63.076C88.7463 64.036 88.3023 65.368 88.3023 67.072C88.3023 68.776 88.7463 70.108 89.6343 71.068C90.5223 72.028 91.6023 72.508 92.8743 72.508C93.8343 72.508 94.6623 72.268 95.3583 71.788C96.0783 71.308 96.5583 70.624 96.7983 69.736H101.658C101.226 71.752 100.23 73.372 98.6703 74.596C97.1103 75.82 95.1903 76.432 92.9103 76.432ZM114.496 76.432C112.672 76.432 111.064 76.036 109.672 75.244C108.28 74.452 107.176 73.348 106.36 71.932C105.568 70.516 105.172 68.896 105.172 67.072C105.172 65.248 105.568 63.628 106.36 62.212C107.176 60.796 108.28 59.692 109.672 58.9C111.064 58.108 112.672 57.712 114.496 57.712C116.776 57.712 118.696 58.312 120.256 59.512C121.816 60.688 122.812 62.32 123.244 64.408H118.384C118.144 63.544 117.664 62.872 116.944 62.392C116.248 61.888 115.42 61.636 114.46 61.636C113.188 61.636 112.108 62.116 111.22 63.076C110.332 64.036 109.888 65.368 109.888 67.072C109.888 68.776 110.332 70.108 111.22 71.068C112.108 72.028 113.188 72.508 114.46 72.508C115.42 72.508 116.248 72.268 116.944 71.788C117.664 71.308 118.144 70.624 118.384 69.736H123.244C122.812 71.752 121.816 73.372 120.256 74.596C118.696 75.82 116.776 76.432 114.496 76.432ZM135.902 76.432C134.174 76.432 132.614 76.036 131.222 75.244C129.854 74.452 128.762 73.36 127.946 71.968C127.154 70.552 126.758 68.92 126.758 67.072C126.758 65.224 127.166 63.604 127.982 62.212C128.798 60.796 129.89 59.692 131.258 58.9C132.65 58.108 134.21 57.712 135.938 57.712C137.642 57.712 139.178 58.108 140.546 58.9C141.938 59.692 143.03 60.796 143.822 62.212C144.638 63.604 145.046 65.224 145.046 67.072C145.046 68.92 144.638 70.552 143.822 71.968C143.03 73.36 141.938 74.452 140.546 75.244C139.154 76.036 137.606 76.432 135.902 76.432ZM135.902 72.436C137.102 72.436 138.146 71.992 139.034 71.104C139.922 70.192 140.366 68.848 140.366 67.072C140.366 65.296 139.922 63.964 139.034 63.076C138.146 62.164 137.114 61.708 135.938 61.708C134.714 61.708 133.658 62.164 132.77 63.076C131.906 63.964 131.474 65.296 131.474 67.072C131.474 68.848 131.906 70.192 132.77 71.104C133.658 71.992 134.702 72.436 135.902 72.436ZM149.166 76V58.144H153.234L153.63 60.556C154.206 59.692 154.962 59.008 155.898 58.504C156.858 57.976 157.962 57.712 159.21 57.712C161.97 57.712 163.926 58.78 165.078 60.916C165.726 59.932 166.59 59.152 167.67 58.576C168.774 58 169.974 57.712 171.27 57.712C173.598 57.712 175.386 58.408 176.634 59.8C177.882 61.192 178.506 63.232 178.506 65.92V76H173.898V66.352C173.898 64.816 173.598 63.64 172.998 62.824C172.422 62.008 171.522 61.6 170.298 61.6C169.05 61.6 168.042 62.056 167.274 62.968C166.53 63.88 166.158 65.152 166.158 66.784V76H161.55V66.352C161.55 64.816 161.25 63.64 160.65 62.824C160.05 62.008 159.126 61.6 157.878 61.6C156.654 61.6 155.658 62.056 154.89 62.968C154.146 63.88 153.774 65.152 153.774 66.784V76H149.166ZM182.881 76V58.144H186.949L187.345 60.556C187.921 59.692 188.677 59.008 189.613 58.504C190.573 57.976 191.677 57.712 192.925 57.712C195.685 57.712 197.641 58.78 198.793 60.916C199.441 59.932 200.305 59.152 201.385 58.576C202.489 58 203.689 57.712 204.985 57.712C207.313 57.712 209.101 58.408 210.349 59.8C211.597 61.192 212.221 63.232 212.221 65.92V76H207.613V66.352C207.613 64.816 207.313 63.64 206.713 62.824C206.137 62.008 205.237 61.6 204.013 61.6C202.765 61.6 201.757 62.056 200.989 62.968C200.245 63.88 199.873 65.152 199.873 66.784V76H195.265V66.352C195.265 64.816 194.965 63.64 194.365 62.824C193.765 62.008 192.841 61.6 191.593 61.6C190.369 61.6 189.373 62.056 188.605 62.968C187.861 63.88 187.489 65.152 187.489 66.784V76H182.881ZM225.164 76.432C223.436 76.432 221.876 76.036 220.484 75.244C219.116 74.452 218.024 73.36 217.208 71.968C216.416 70.552 216.02 68.92 216.02 67.072C216.02 65.224 216.428 63.604 217.244 62.212C218.06 60.796 219.152 59.692 220.52 58.9C221.912 58.108 223.472 57.712 225.2 57.712C226.904 57.712 228.44 58.108 229.808 58.9C231.2 59.692 232.292 60.796 233.084 62.212C233.9 63.604 234.308 65.224 234.308 67.072C234.308 68.92 233.9 70.552 233.084 71.968C232.292 73.36 231.2 74.452 229.808 75.244C228.416 76.036 226.868 76.432 225.164 76.432ZM225.164 72.436C226.364 72.436 227.408 71.992 228.296 71.104C229.184 70.192 229.628 68.848 229.628 67.072C229.628 65.296 229.184 63.964 228.296 63.076C227.408 62.164 226.376 61.708 225.2 61.708C223.976 61.708 222.92 62.164 222.032 63.076C221.168 63.964 220.736 65.296 220.736 67.072C220.736 68.848 221.168 70.192 222.032 71.104C222.92 71.992 223.964 72.436 225.164 72.436ZM246.636 76.432C244.956 76.432 243.456 76.024 242.136 75.208C240.816 74.392 239.772 73.276 239.004 71.86C238.236 70.444 237.852 68.836 237.852 67.036C237.852 65.236 238.236 63.64 239.004 62.248C239.772 60.832 240.816 59.728 242.136 58.936C243.456 58.12 244.956 57.712 246.636 57.712C247.98 57.712 249.156 57.964 250.164 58.468C251.172 58.972 251.988 59.68 252.612 60.592V50.08H257.22V76H253.116L252.612 73.444C252.036 74.236 251.268 74.932 250.308 75.532C249.372 76.132 248.148 76.432 246.636 76.432ZM247.608 72.4C249.096 72.4 250.308 71.908 251.244 70.924C252.204 69.916 252.684 68.632 252.684 67.072C252.684 65.512 252.204 64.24 251.244 63.256C250.308 62.248 249.096 61.744 247.608 61.744C246.144 61.744 244.932 62.236 243.972 63.22C243.012 64.204 242.532 65.476 242.532 67.036C242.532 68.596 243.012 69.88 243.972 70.888C244.932 71.896 246.144 72.4 247.608 72.4ZM268.068 76.432C266.532 76.432 265.272 76.192 264.288 75.712C263.304 75.208 262.572 74.548 262.092 73.732C261.612 72.916 261.372 72.016 261.372 71.032C261.372 69.376 262.02 68.032 263.316 67C264.612 65.968 266.556 65.452 269.148 65.452H273.684V65.02C273.684 63.796 273.336 62.896 272.64 62.32C271.944 61.744 271.08 61.456 270.048 61.456C269.112 61.456 268.296 61.684 267.6 62.14C266.904 62.572 266.472 63.22 266.304 64.084H261.804C261.924 62.788 262.356 61.66 263.1 60.7C263.868 59.74 264.852 59.008 266.052 58.504C267.252 57.976 268.596 57.712 270.084 57.712C272.628 57.712 274.632 58.348 276.096 59.62C277.56 60.892 278.292 62.692 278.292 65.02V76H274.368L273.936 73.12C273.408 74.08 272.664 74.872 271.704 75.496C270.768 76.12 269.556 76.432 268.068 76.432ZM269.112 72.832C270.432 72.832 271.452 72.4 272.172 71.536C272.916 70.672 273.384 69.604 273.576 68.332H269.652C268.428 68.332 267.552 68.56 267.024 69.016C266.496 69.448 266.232 69.988 266.232 70.636C266.232 71.332 266.496 71.872 267.024 72.256C267.552 72.64 268.248 72.832 269.112 72.832ZM290.4 76C288.528 76 287.028 75.544 285.9 74.632C284.772 73.72 284.208 72.1 284.208 69.772V61.996H281.148V58.144H284.208L284.748 53.356H288.816V58.144H293.64V61.996H288.816V69.808C288.816 70.672 288.996 71.272 289.356 71.608C289.74 71.92 290.388 72.076 291.3 72.076H293.532V76H290.4ZM300.08 55.372C299.24 55.372 298.544 55.12 297.992 54.616C297.464 54.112 297.2 53.476 297.2 52.708C297.2 51.94 297.464 51.316 297.992 50.836C298.544 50.332 299.24 50.08 300.08 50.08C300.92 50.08 301.604 50.332 302.132 50.836C302.684 51.316 302.96 51.94 302.96 52.708C302.96 53.476 302.684 54.112 302.132 54.616C301.604 55.12 300.92 55.372 300.08 55.372ZM297.776 76V58.144H302.384V76H297.776ZM315.762 76.432C314.034 76.432 312.474 76.036 311.082 75.244C309.714 74.452 308.622 73.36 307.806 71.968C307.014 70.552 306.618 68.92 306.618 67.072C306.618 65.224 307.026 63.604 307.842 62.212C308.658 60.796 309.75 59.692 311.118 58.9C312.51 58.108 314.07 57.712 315.798 57.712C317.502 57.712 319.038 58.108 320.406 58.9C321.798 59.692 322.89 60.796 323.682 62.212C324.498 63.604 324.906 65.224 324.906 67.072C324.906 68.92 324.498 70.552 323.682 71.968C322.89 73.36 321.798 74.452 320.406 75.244C319.014 76.036 317.466 76.432 315.762 76.432ZM315.762 72.436C316.962 72.436 318.006 71.992 318.894 71.104C319.782 70.192 320.226 68.848 320.226 67.072C320.226 65.296 319.782 63.964 318.894 63.076C318.006 62.164 316.974 61.708 315.798 61.708C314.574 61.708 313.518 62.164 312.63 63.076C311.766 63.964 311.334 65.296 311.334 67.072C311.334 68.848 311.766 70.192 312.63 71.104C313.518 71.992 314.562 72.436 315.762 72.436ZM329.026 76V58.144H333.094L333.454 61.168C334.006 60.112 334.798 59.272 335.83 58.648C336.886 58.024 338.122 57.712 339.538 57.712C341.746 57.712 343.462 58.408 344.686 59.8C345.91 61.192 346.522 63.232 346.522 65.92V76H341.914V66.352C341.914 64.816 341.602 63.64 340.978 62.824C340.354 62.008 339.382 61.6 338.062 61.6C336.766 61.6 335.698 62.056 334.858 62.968C334.042 63.88 333.634 65.152 333.634 66.784V76H329.026ZM361.99 55.372C361.15 55.372 360.454 55.12 359.902 54.616C359.374 54.112 359.11 53.476 359.11 52.708C359.11 51.94 359.374 51.316 359.902 50.836C360.454 50.332 361.15 50.08 361.99 50.08C362.83 50.08 363.514 50.332 364.042 50.836C364.594 51.316 364.87 51.94 364.87 52.708C364.87 53.476 364.594 54.112 364.042 54.616C363.514 55.12 362.83 55.372 361.99 55.372ZM359.686 76V58.144H364.294V76H359.686ZM376.484 76.432C374.9 76.432 373.508 76.18 372.308 75.676C371.108 75.148 370.148 74.428 369.428 73.516C368.708 72.604 368.276 71.548 368.132 70.348H372.776C372.92 71.044 373.304 71.644 373.928 72.148C374.576 72.628 375.404 72.868 376.412 72.868C377.42 72.868 378.152 72.664 378.608 72.256C379.088 71.848 379.328 71.38 379.328 70.852C379.328 70.084 378.992 69.568 378.32 69.304C377.648 69.016 376.712 68.74 375.512 68.476C374.744 68.308 373.964 68.104 373.172 67.864C372.38 67.624 371.648 67.324 370.976 66.964C370.328 66.58 369.8 66.1 369.392 65.524C368.984 64.924 368.78 64.192 368.78 63.328C368.78 61.744 369.404 60.412 370.652 59.332C371.924 58.252 373.7 57.712 375.98 57.712C378.092 57.712 379.772 58.204 381.02 59.188C382.292 60.172 383.048 61.528 383.288 63.256H378.932C378.668 61.936 377.672 61.276 375.944 61.276C375.08 61.276 374.408 61.444 373.928 61.78C373.472 62.116 373.244 62.536 373.244 63.04C373.244 63.568 373.592 63.988 374.288 64.3C374.984 64.612 375.908 64.9 377.06 65.164C378.308 65.452 379.448 65.776 380.48 66.136C381.536 66.472 382.376 66.988 383 67.684C383.624 68.356 383.936 69.328 383.936 70.6C383.96 71.704 383.672 72.7 383.072 73.588C382.472 74.476 381.608 75.172 380.48 75.676C379.352 76.18 378.02 76.432 376.484 76.432ZM404.552 76C402.68 76 401.18 75.544 400.052 74.632C398.924 73.72 398.36 72.1 398.36 69.772V61.996H395.3V58.144H398.36L398.9 53.356H402.968V58.144H407.792V61.996H402.968V69.808C402.968 70.672 403.148 71.272 403.508 71.608C403.892 71.92 404.54 72.076 405.452 72.076H407.684V76H404.552ZM411.748 76V50.08H416.356V60.88C416.956 59.896 417.76 59.128 418.768 58.576C419.8 58 420.976 57.712 422.296 57.712C424.504 57.712 426.208 58.408 427.408 59.8C428.632 61.192 429.244 63.232 429.244 65.92V76H424.672V66.352C424.672 64.816 424.36 63.64 423.736 62.824C423.136 62.008 422.176 61.6 420.856 61.6C419.56 61.6 418.48 62.056 417.616 62.968C416.776 63.88 416.356 65.152 416.356 66.784V76H411.748ZM442.327 76.432C440.527 76.432 438.931 76.048 437.539 75.28C436.147 74.512 435.055 73.432 434.263 72.04C433.471 70.648 433.075 69.04 433.075 67.216C433.075 65.368 433.459 63.724 434.227 62.284C435.019 60.844 436.099 59.728 437.467 58.936C438.859 58.12 440.491 57.712 442.363 57.712C444.115 57.712 445.663 58.096 447.007 58.864C448.351 59.632 449.395 60.688 450.139 62.032C450.907 63.352 451.291 64.828 451.291 66.46C451.291 66.724 451.279 67 451.255 67.288C451.255 67.576 451.243 67.876 451.219 68.188H437.647C437.743 69.58 438.223 70.672 439.087 71.464C439.975 72.256 441.043 72.652 442.291 72.652C443.227 72.652 444.007 72.448 444.631 72.04C445.279 71.608 445.759 71.056 446.071 70.384H450.751C450.415 71.512 449.851 72.544 449.059 73.48C448.291 74.392 447.331 75.112 446.179 75.64C445.051 76.168 443.767 76.432 442.327 76.432ZM442.363 61.456C441.235 61.456 440.239 61.78 439.375 62.428C438.511 63.052 437.959 64.012 437.719 65.308H446.611C446.539 64.132 446.107 63.196 445.315 62.5C444.523 61.804 443.539 61.456 442.363 61.456ZM463.744 76V58.144H467.812L468.208 60.556C468.784 59.692 469.54 59.008 470.476 58.504C471.436 57.976 472.54 57.712 473.788 57.712C476.548 57.712 478.504 58.78 479.656 60.916C480.304 59.932 481.168 59.152 482.248 58.576C483.352 58 484.552 57.712 485.848 57.712C488.176 57.712 489.964 58.408 491.212 59.8C492.46 61.192 493.084 63.232 493.084 65.92V76H488.476V66.352C488.476 64.816 488.176 63.64 487.576 62.824C487 62.008 486.1 61.6 484.876 61.6C483.628 61.6 482.62 62.056 481.852 62.968C481.108 63.88 480.736 65.152 480.736 66.784V76H476.128V66.352C476.128 64.816 475.828 63.64 475.228 62.824C474.628 62.008 473.704 61.6 472.456 61.6C471.232 61.6 470.236 62.056 469.468 62.968C468.724 63.88 468.352 65.152 468.352 66.784V76H463.744ZM506.027 76.432C504.299 76.432 502.739 76.036 501.347 75.244C499.979 74.452 498.887 73.36 498.071 71.968C497.279 70.552 496.883 68.92 496.883 67.072C496.883 65.224 497.291 63.604 498.107 62.212C498.923 60.796 500.015 59.692 501.383 58.9C502.775 58.108 504.335 57.712 506.063 57.712C507.767 57.712 509.303 58.108 510.671 58.9C512.063 59.692 513.155 60.796 513.947 62.212C514.763 63.604 515.171 65.224 515.171 67.072C515.171 68.92 514.763 70.552 513.947 71.968C513.155 73.36 512.063 74.452 510.671 75.244C509.279 76.036 507.731 76.432 506.027 76.432ZM506.027 72.436C507.227 72.436 508.271 71.992 509.159 71.104C510.047 70.192 510.491 68.848 510.491 67.072C510.491 65.296 510.047 63.964 509.159 63.076C508.271 62.164 507.239 61.708 506.063 61.708C504.839 61.708 503.783 62.164 502.895 63.076C502.031 63.964 501.599 65.296 501.599 67.072C501.599 68.848 502.031 70.192 502.895 71.104C503.783 71.992 504.827 72.436 506.027 72.436ZM526.671 76.432C525.087 76.432 523.695 76.18 522.495 75.676C521.295 75.148 520.335 74.428 519.615 73.516C518.895 72.604 518.463 71.548 518.319 70.348H522.963C523.107 71.044 523.491 71.644 524.115 72.148C524.763 72.628 525.591 72.868 526.599 72.868C527.607 72.868 528.339 72.664 528.795 72.256C529.275 71.848 529.515 71.38 529.515 70.852C529.515 70.084 529.179 69.568 528.507 69.304C527.835 69.016 526.899 68.74 525.699 68.476C524.931 68.308 524.151 68.104 523.359 67.864C522.567 67.624 521.835 67.324 521.163 66.964C520.515 66.58 519.987 66.1 519.579 65.524C519.171 64.924 518.967 64.192 518.967 63.328C518.967 61.744 519.591 60.412 520.839 59.332C522.111 58.252 523.887 57.712 526.167 57.712C528.279 57.712 529.959 58.204 531.207 59.188C532.479 60.172 533.235 61.528 533.475 63.256H529.119C528.855 61.936 527.859 61.276 526.131 61.276C525.267 61.276 524.595 61.444 524.115 61.78C523.659 62.116 523.431 62.536 523.431 63.04C523.431 63.568 523.779 63.988 524.475 64.3C525.171 64.612 526.095 64.9 527.247 65.164C528.495 65.452 529.635 65.776 530.667 66.136C531.723 66.472 532.563 66.988 533.187 67.684C533.811 68.356 534.123 69.328 534.123 70.6C534.147 71.704 533.859 72.7 533.259 73.588C532.659 74.476 531.795 75.172 530.667 75.676C529.539 76.18 528.207 76.432 526.671 76.432ZM545.599 76C543.727 76 542.227 75.544 541.099 74.632C539.971 73.72 539.407 72.1 539.407 69.772V61.996H536.347V58.144H539.407L539.947 53.356H544.015V58.144H548.839V61.996H544.015V69.808C544.015 70.672 544.195 71.272 544.555 71.608C544.939 71.92 545.587 72.076 546.499 72.076H548.731V76H545.599ZM569.581 76.432C567.901 76.432 566.401 76.024 565.081 75.208C563.761 74.392 562.717 73.276 561.949 71.86C561.181 70.444 560.797 68.836 560.797 67.036C560.797 65.236 561.181 63.64 561.949 62.248C562.717 60.832 563.761 59.728 565.081 58.936C566.401 58.12 567.901 57.712 569.581 57.712C570.925 57.712 572.101 57.964 573.109 58.468C574.117 58.972 574.933 59.68 575.557 60.592V50.08H580.165V76H576.061L575.557 73.444C574.981 74.236 574.213 74.932 573.253 75.532C572.317 76.132 571.093 76.432 569.581 76.432ZM570.553 72.4C572.041 72.4 573.253 71.908 574.189 70.924C575.149 69.916 575.629 68.632 575.629 67.072C575.629 65.512 575.149 64.24 574.189 63.256C573.253 62.248 572.041 61.744 570.553 61.744C569.089 61.744 567.877 62.236 566.917 63.22C565.957 64.204 565.477 65.476 565.477 67.036C565.477 68.596 565.957 69.88 566.917 70.888C567.877 71.896 569.089 72.4 570.553 72.4ZM587.342 55.372C586.502 55.372 585.806 55.12 585.254 54.616C584.726 54.112 584.462 53.476 584.462 52.708C584.462 51.94 584.726 51.316 585.254 50.836C585.806 50.332 586.502 50.08 587.342 50.08C588.182 50.08 588.866 50.332 589.394 50.836C589.946 51.316 590.222 51.94 590.222 52.708C590.222 53.476 589.946 54.112 589.394 54.616C588.866 55.12 588.182 55.372 587.342 55.372ZM585.038 76V58.144H589.646V76H585.038ZM595.283 76V61.996H592.835V58.144H595.283V56.056C595.283 53.896 595.823 52.36 596.903 51.448C598.007 50.536 599.495 50.08 601.367 50.08H603.347V54.004H602.087C601.295 54.004 600.731 54.16 600.395 54.472C600.059 54.784 599.891 55.312 599.891 56.056V58.144H603.743V61.996H599.891V76H595.283ZM608.221 76V61.996H605.773V58.144H608.221V56.056C608.221 53.896 608.761 52.36 609.841 51.448C610.945 50.536 612.433 50.08 614.305 50.08H616.285V54.004H615.025C614.233 54.004 613.669 54.16 613.333 54.472C612.997 54.784 612.829 55.312 612.829 56.056V58.144H624.349V76H619.741V61.996H612.829V76H608.221ZM622.081 55.588C621.241 55.588 620.545 55.336 619.993 54.832C619.465 54.328 619.201 53.692 619.201 52.924C619.201 52.156 619.465 51.532 619.993 51.052C620.545 50.548 621.241 50.296 622.081 50.296C622.921 50.296 623.605 50.548 624.133 51.052C624.685 51.532 624.961 52.156 624.961 52.924C624.961 53.692 624.685 54.328 624.133 54.832C623.605 55.336 622.921 55.588 622.081 55.588ZM637.973 76.432C636.149 76.432 634.541 76.036 633.149 75.244C631.757 74.452 630.653 73.348 629.837 71.932C629.045 70.516 628.649 68.896 628.649 67.072C628.649 65.248 629.045 63.628 629.837 62.212C630.653 60.796 631.757 59.692 633.149 58.9C634.541 58.108 636.149 57.712 637.973 57.712C640.253 57.712 642.173 58.312 643.733 59.512C645.293 60.688 646.289 62.32 646.721 64.408H641.861C641.621 63.544 641.141 62.872 640.421 62.392C639.725 61.888 638.897 61.636 637.937 61.636C636.665 61.636 635.585 62.116 634.697 63.076C633.809 64.036 633.365 65.368 633.365 67.072C633.365 68.776 633.809 70.108 634.697 71.068C635.585 72.028 636.665 72.508 637.937 72.508C638.897 72.508 639.725 72.268 640.421 71.788C641.141 71.308 641.621 70.624 641.861 69.736H646.721C646.289 71.752 645.293 73.372 643.733 74.596C642.173 75.82 640.253 76.432 637.973 76.432ZM657.507 76.432C655.275 76.432 653.547 75.736 652.323 74.344C651.123 72.952 650.523 70.912 650.523 68.224V58.144H655.095V67.792C655.095 69.328 655.407 70.504 656.031 71.32C656.655 72.136 657.639 72.544 658.983 72.544C660.255 72.544 661.299 72.088 662.115 71.176C662.955 70.264 663.375 68.992 663.375 67.36V58.144H667.983V76H663.915L663.555 72.976C663.003 74.032 662.199 74.872 661.143 75.496C660.111 76.12 658.899 76.432 657.507 76.432ZM672.713 76V50.08H677.321V76H672.713ZM689.985 76C688.113 76 686.613 75.544 685.485 74.632C684.357 73.72 683.793 72.1 683.793 69.772V61.996H680.733V58.144H683.793L684.333 53.356H688.401V58.144H693.225V61.996H688.401V69.808C688.401 70.672 688.581 71.272 688.941 71.608C689.325 71.92 689.973 72.076 690.885 72.076H693.117V76H689.985ZM713.716 76C711.844 76 710.344 75.544 709.216 74.632C708.088 73.72 707.524 72.1 707.524 69.772V61.996H704.464V58.144H707.524L708.064 53.356H712.132V58.144H716.956V61.996H712.132V69.808C712.132 70.672 712.312 71.272 712.672 71.608C713.056 71.92 713.704 72.076 714.616 72.076H716.848V76H713.716ZM720.912 76V50.08H725.52V60.88C726.12 59.896 726.924 59.128 727.932 58.576C728.964 58 730.14 57.712 731.46 57.712C733.668 57.712 735.372 58.408 736.572 59.8C737.796 61.192 738.408 63.232 738.408 65.92V76H733.836V66.352C733.836 64.816 733.524 63.64 732.9 62.824C732.3 62.008 731.34 61.6 730.02 61.6C728.724 61.6 727.644 62.056 726.78 62.968C725.94 63.88 725.52 65.152 725.52 66.784V76H720.912ZM745.299 55.372C744.459 55.372 743.763 55.12 743.211 54.616C742.683 54.112 742.419 53.476 742.419 52.708C742.419 51.94 742.683 51.316 743.211 50.836C743.763 50.332 744.459 50.08 745.299 50.08C746.139 50.08 746.823 50.332 747.351 50.836C747.903 51.316 748.179 51.94 748.179 52.708C748.179 53.476 747.903 54.112 747.351 54.616C746.823 55.12 746.139 55.372 745.299 55.372ZM742.995 76V58.144H747.603V76H742.995ZM752.412 76V58.144H756.48L756.84 61.168C757.392 60.112 758.184 59.272 759.216 58.648C760.272 58.024 761.508 57.712 762.924 57.712C765.132 57.712 766.848 58.408 768.072 59.8C769.296 61.192 769.908 63.232 769.908 65.92V76H765.3V66.352C765.3 64.816 764.988 63.64 764.364 62.824C763.74 62.008 762.768 61.6 761.448 61.6C760.152 61.6 759.084 62.056 758.244 62.968C757.428 63.88 757.02 65.152 757.02 66.784V76H752.412ZM781.875 70.672C781.011 70.672 780.207 70.576 779.463 70.384L778.131 71.716C778.539 71.932 779.091 72.112 779.787 72.256C780.483 72.4 781.611 72.544 783.171 72.688C785.547 72.904 787.275 73.468 788.355 74.38C789.435 75.292 789.975 76.552 789.975 78.16C789.975 79.216 789.687 80.212 789.111 81.148C788.535 82.108 787.647 82.876 786.447 83.452C785.247 84.052 783.711 84.352 781.839 84.352C779.295 84.352 777.243 83.872 775.683 82.912C774.123 81.976 773.343 80.56 773.343 78.664C773.343 77.056 774.123 75.664 775.683 74.488C775.203 74.272 774.783 74.044 774.423 73.804C774.087 73.564 773.787 73.312 773.523 73.048V72.22L776.655 68.908C775.263 67.684 774.567 66.112 774.567 64.192C774.567 62.992 774.855 61.9 775.431 60.916C776.031 59.932 776.871 59.152 777.951 58.576C779.031 58 780.339 57.712 781.875 57.712C782.883 57.712 783.819 57.856 784.683 58.144H791.451V60.952L788.391 61.168C788.871 62.08 789.111 63.088 789.111 64.192C789.111 65.392 788.823 66.484 788.247 67.468C787.671 68.452 786.831 69.232 785.727 69.808C784.647 70.384 783.363 70.672 781.875 70.672ZM781.875 67.144C782.811 67.144 783.579 66.892 784.179 66.388C784.803 65.884 785.115 65.164 785.115 64.228C785.115 63.292 784.803 62.572 784.179 62.068C783.579 61.564 782.811 61.312 781.875 61.312C780.891 61.312 780.099 61.564 779.499 62.068C778.899 62.572 778.599 63.292 778.599 64.228C778.599 65.164 778.899 65.884 779.499 66.388C780.099 66.892 780.891 67.144 781.875 67.144ZM777.555 78.196C777.555 79.084 777.963 79.744 778.779 80.176C779.619 80.632 780.639 80.86 781.839 80.86C782.991 80.86 783.927 80.62 784.647 80.14C785.367 79.684 785.727 79.06 785.727 78.268C785.727 77.62 785.487 77.08 785.007 76.648C784.551 76.216 783.627 75.952 782.235 75.856C781.251 75.784 780.339 75.676 779.499 75.532C778.803 75.916 778.299 76.336 777.987 76.792C777.699 77.248 777.555 77.716 777.555 78.196ZM811.345 76C809.473 76 807.973 75.544 806.845 74.632C805.717 73.72 805.153 72.1 805.153 69.772V61.996H802.093V58.144H805.153L805.693 53.356H809.761V58.144H814.585V61.996H809.761V69.808C809.761 70.672 809.941 71.272 810.301 71.608C810.685 71.92 811.333 72.076 812.245 72.076H814.477V76H811.345ZM826.652 76.432C824.924 76.432 823.364 76.036 821.972 75.244C820.604 74.452 819.512 73.36 818.696 71.968C817.904 70.552 817.508 68.92 817.508 67.072C817.508 65.224 817.916 63.604 818.732 62.212C819.548 60.796 820.64 59.692 822.008 58.9C823.4 58.108 824.96 57.712 826.688 57.712C828.392 57.712 829.928 58.108 831.296 58.9C832.688 59.692 833.78 60.796 834.572 62.212C835.388 63.604 835.796 65.224 835.796 67.072C835.796 68.92 835.388 70.552 834.572 71.968C833.78 73.36 832.688 74.452 831.296 75.244C829.904 76.036 828.356 76.432 826.652 76.432ZM826.652 72.436C827.852 72.436 828.896 71.992 829.784 71.104C830.672 70.192 831.116 68.848 831.116 67.072C831.116 65.296 830.672 63.964 829.784 63.076C828.896 62.164 827.864 61.708 826.688 61.708C825.464 61.708 824.408 62.164 823.52 63.076C822.656 63.964 822.224 65.296 822.224 67.072C822.224 68.848 822.656 70.192 823.52 71.104C824.408 71.992 825.452 72.436 826.652 72.436ZM216.876 123.432C215.196 123.432 213.696 123.024 212.376 122.208C211.056 121.392 210.012 120.276 209.244 118.86C208.476 117.444 208.092 115.836 208.092 114.036C208.092 112.236 208.476 110.64 209.244 109.248C210.012 107.832 211.056 106.728 212.376 105.936C213.696 105.12 215.196 104.712 216.876 104.712C218.22 104.712 219.396 104.964 220.404 105.468C221.412 105.972 222.228 106.68 222.852 107.592V97.08H227.46V123H223.356L222.852 120.444C222.276 121.236 221.508 121.932 220.548 122.532C219.612 123.132 218.388 123.432 216.876 123.432ZM217.848 119.4C219.336 119.4 220.548 118.908 221.484 117.924C222.444 116.916 222.924 115.632 222.924 114.072C222.924 112.512 222.444 111.24 221.484 110.256C220.548 109.248 219.336 108.744 217.848 108.744C216.384 108.744 215.172 109.236 214.212 110.22C213.252 111.204 212.772 112.476 212.772 114.036C212.772 115.596 213.252 116.88 214.212 117.888C215.172 118.896 216.384 119.4 217.848 119.4ZM240.829 123.432C239.029 123.432 237.433 123.048 236.041 122.28C234.649 121.512 233.557 120.432 232.765 119.04C231.973 117.648 231.577 116.04 231.577 114.216C231.577 112.368 231.961 110.724 232.729 109.284C233.521 107.844 234.601 106.728 235.969 105.936C237.361 105.12 238.993 104.712 240.865 104.712C242.617 104.712 244.165 105.096 245.509 105.864C246.853 106.632 247.897 107.688 248.641 109.032C249.409 110.352 249.793 111.828 249.793 113.46C249.793 113.724 249.781 114 249.757 114.288C249.757 114.576 249.745 114.876 249.721 115.188H236.149C236.245 116.58 236.725 117.672 237.589 118.464C238.477 119.256 239.545 119.652 240.793 119.652C241.729 119.652 242.509 119.448 243.133 119.04C243.781 118.608 244.261 118.056 244.573 117.384H249.253C248.917 118.512 248.353 119.544 247.561 120.48C246.793 121.392 245.833 122.112 244.681 122.64C243.553 123.168 242.269 123.432 240.829 123.432ZM240.865 108.456C239.737 108.456 238.741 108.78 237.877 109.428C237.013 110.052 236.461 111.012 236.221 112.308H245.113C245.041 111.132 244.609 110.196 243.817 109.5C243.025 108.804 242.041 108.456 240.865 108.456ZM262.416 123.432C260.592 123.432 258.984 123.036 257.592 122.244C256.2 121.452 255.096 120.348 254.28 118.932C253.488 117.516 253.092 115.896 253.092 114.072C253.092 112.248 253.488 110.628 254.28 109.212C255.096 107.796 256.2 106.692 257.592 105.9C258.984 105.108 260.592 104.712 262.416 104.712C264.696 104.712 266.616 105.312 268.176 106.512C269.736 107.688 270.732 109.32 271.164 111.408H266.304C266.064 110.544 265.584 109.872 264.864 109.392C264.168 108.888 263.34 108.636 262.38 108.636C261.108 108.636 260.028 109.116 259.14 110.076C258.252 111.036 257.808 112.368 257.808 114.072C257.808 115.776 258.252 117.108 259.14 118.068C260.028 119.028 261.108 119.508 262.38 119.508C263.34 119.508 264.168 119.268 264.864 118.788C265.584 118.308 266.064 117.624 266.304 116.736H271.164C270.732 118.752 269.736 120.372 268.176 121.596C266.616 122.82 264.696 123.432 262.416 123.432ZM277.738 102.372C276.898 102.372 276.202 102.12 275.65 101.616C275.122 101.112 274.858 100.476 274.858 99.708C274.858 98.94 275.122 98.316 275.65 97.836C276.202 97.332 276.898 97.08 277.738 97.08C278.578 97.08 279.262 97.332 279.79 97.836C280.342 98.316 280.618 98.94 280.618 99.708C280.618 100.476 280.342 101.112 279.79 101.616C279.262 102.12 278.578 102.372 277.738 102.372ZM275.434 123V105.144H280.042V123H275.434ZM293.06 123.432C291.38 123.432 289.88 123.024 288.56 122.208C287.24 121.392 286.196 120.276 285.428 118.86C284.66 117.444 284.276 115.836 284.276 114.036C284.276 112.236 284.66 110.64 285.428 109.248C286.196 107.832 287.24 106.728 288.56 105.936C289.88 105.12 291.38 104.712 293.06 104.712C294.404 104.712 295.58 104.964 296.588 105.468C297.596 105.972 298.412 106.68 299.036 107.592V97.08H303.644V123H299.54L299.036 120.444C298.46 121.236 297.692 121.932 296.732 122.532C295.796 123.132 294.572 123.432 293.06 123.432ZM294.032 119.4C295.52 119.4 296.732 118.908 297.668 117.924C298.628 116.916 299.108 115.632 299.108 114.072C299.108 112.512 298.628 111.24 297.668 110.256C296.732 109.248 295.52 108.744 294.032 108.744C292.568 108.744 291.356 109.236 290.396 110.22C289.436 111.204 288.956 112.476 288.956 114.036C288.956 115.596 289.436 116.88 290.396 117.888C291.356 118.896 292.568 119.4 294.032 119.4ZM317.012 123.432C315.212 123.432 313.616 123.048 312.224 122.28C310.832 121.512 309.74 120.432 308.948 119.04C308.156 117.648 307.76 116.04 307.76 114.216C307.76 112.368 308.144 110.724 308.912 109.284C309.704 107.844 310.784 106.728 312.152 105.936C313.544 105.12 315.176 104.712 317.048 104.712C318.8 104.712 320.348 105.096 321.692 105.864C323.036 106.632 324.08 107.688 324.824 109.032C325.592 110.352 325.976 111.828 325.976 113.46C325.976 113.724 325.964 114 325.94 114.288C325.94 114.576 325.928 114.876 325.904 115.188H312.332C312.428 116.58 312.908 117.672 313.772 118.464C314.66 119.256 315.728 119.652 316.976 119.652C317.912 119.652 318.692 119.448 319.316 119.04C319.964 118.608 320.444 118.056 320.756 117.384H325.436C325.1 118.512 324.536 119.544 323.744 120.48C322.976 121.392 322.016 122.112 320.864 122.64C319.736 123.168 318.452 123.432 317.012 123.432ZM317.048 108.456C315.92 108.456 314.924 108.78 314.06 109.428C313.196 110.052 312.644 111.012 312.404 112.308H321.296C321.224 111.132 320.792 110.196 320 109.5C319.208 108.804 318.224 108.456 317.048 108.456ZM341.922 123L336.702 105.144H341.274L344.37 117.996L347.97 105.144H353.082L356.682 117.996L359.814 105.144H364.386L359.13 123H354.342L350.526 109.644L346.71 123H341.922ZM367.293 123V97.08H371.901V107.88C372.501 106.896 373.305 106.128 374.313 105.576C375.345 105 376.521 104.712 377.841 104.712C380.049 104.712 381.753 105.408 382.953 106.8C384.177 108.192 384.789 110.232 384.789 112.92V123H380.217V113.352C380.217 111.816 379.905 110.64 379.281 109.824C378.681 109.008 377.721 108.6 376.401 108.6C375.105 108.6 374.025 109.056 373.161 109.968C372.321 110.88 371.901 112.152 371.901 113.784V123H367.293ZM397.871 123.432C396.071 123.432 394.475 123.048 393.083 122.28C391.691 121.512 390.599 120.432 389.807 119.04C389.015 117.648 388.619 116.04 388.619 114.216C388.619 112.368 389.003 110.724 389.771 109.284C390.563 107.844 391.643 106.728 393.011 105.936C394.403 105.12 396.035 104.712 397.907 104.712C399.659 104.712 401.207 105.096 402.551 105.864C403.895 106.632 404.939 107.688 405.683 109.032C406.451 110.352 406.835 111.828 406.835 113.46C406.835 113.724 406.823 114 406.799 114.288C406.799 114.576 406.787 114.876 406.763 115.188H393.191C393.287 116.58 393.767 117.672 394.631 118.464C395.519 119.256 396.587 119.652 397.835 119.652C398.771 119.652 399.551 119.448 400.175 119.04C400.823 118.608 401.303 118.056 401.615 117.384H406.295C405.959 118.512 405.395 119.544 404.603 120.48C403.835 121.392 402.875 122.112 401.723 122.64C400.595 123.168 399.311 123.432 397.871 123.432ZM397.907 108.456C396.779 108.456 395.783 108.78 394.919 109.428C394.055 110.052 393.503 111.012 393.263 112.308H402.155C402.083 111.132 401.651 110.196 400.859 109.5C400.067 108.804 399.083 108.456 397.907 108.456ZM410.711 123V105.144H414.779L415.139 108.168C415.691 107.112 416.483 106.272 417.515 105.648C418.571 105.024 419.807 104.712 421.223 104.712C423.431 104.712 425.147 105.408 426.371 106.8C427.595 108.192 428.207 110.232 428.207 112.92V123H423.599V113.352C423.599 111.816 423.287 110.64 422.663 109.824C422.039 109.008 421.067 108.6 419.747 108.6C418.451 108.6 417.383 109.056 416.543 109.968C415.727 110.88 415.319 112.152 415.319 113.784V123H410.711ZM441.192 130.92V105.144H445.296L445.8 107.7C446.376 106.908 447.132 106.212 448.068 105.612C449.028 105.012 450.264 104.712 451.776 104.712C453.456 104.712 454.956 105.12 456.276 105.936C457.596 106.752 458.64 107.868 459.408 109.284C460.176 110.7 460.56 112.308 460.56 114.108C460.56 115.908 460.176 117.516 459.408 118.932C458.64 120.324 457.596 121.428 456.276 122.244C454.956 123.036 453.456 123.432 451.776 123.432C450.432 123.432 449.256 123.18 448.248 122.676C447.24 122.172 446.424 121.464 445.8 120.552V130.92H441.192ZM450.804 119.4C452.268 119.4 453.48 118.908 454.44 117.924C455.4 116.94 455.88 115.668 455.88 114.108C455.88 112.548 455.4 111.264 454.44 110.256C453.48 109.248 452.268 108.744 450.804 108.744C449.316 108.744 448.092 109.248 447.132 110.256C446.196 111.24 445.728 112.512 445.728 114.072C445.728 115.632 446.196 116.916 447.132 117.924C448.092 118.908 449.316 119.4 450.804 119.4ZM464.676 123V97.08H469.284V123H464.676ZM480.148 123.432C478.612 123.432 477.352 123.192 476.368 122.712C475.384 122.208 474.652 121.548 474.172 120.732C473.692 119.916 473.452 119.016 473.452 118.032C473.452 116.376 474.1 115.032 475.396 114C476.692 112.968 478.636 112.452 481.228 112.452H485.764V112.02C485.764 110.796 485.416 109.896 484.72 109.32C484.024 108.744 483.16 108.456 482.128 108.456C481.192 108.456 480.376 108.684 479.68 109.14C478.984 109.572 478.552 110.22 478.384 111.084H473.884C474.004 109.788 474.436 108.66 475.18 107.7C475.948 106.74 476.932 106.008 478.132 105.504C479.332 104.976 480.676 104.712 482.164 104.712C484.708 104.712 486.712 105.348 488.176 106.62C489.64 107.892 490.372 109.692 490.372 112.02V123H486.448L486.016 120.12C485.488 121.08 484.744 121.872 483.784 122.496C482.848 123.12 481.636 123.432 480.148 123.432ZM481.192 119.832C482.512 119.832 483.532 119.4 484.252 118.536C484.996 117.672 485.464 116.604 485.656 115.332H481.732C480.508 115.332 479.632 115.56 479.104 116.016C478.576 116.448 478.312 116.988 478.312 117.636C478.312 118.332 478.576 118.872 479.104 119.256C479.632 119.64 480.328 119.832 481.192 119.832ZM494.77 123V105.144H498.838L499.198 108.168C499.75 107.112 500.542 106.272 501.574 105.648C502.63 105.024 503.866 104.712 505.282 104.712C507.49 104.712 509.206 105.408 510.43 106.8C511.654 108.192 512.266 110.232 512.266 112.92V123H507.658V113.352C507.658 111.816 507.346 110.64 506.722 109.824C506.098 109.008 505.126 108.6 503.806 108.6C502.51 108.6 501.442 109.056 500.602 109.968C499.786 110.88 499.378 112.152 499.378 113.784V123H494.77ZM516.672 123V105.144H520.74L521.1 108.168C521.652 107.112 522.444 106.272 523.476 105.648C524.532 105.024 525.768 104.712 527.184 104.712C529.392 104.712 531.108 105.408 532.332 106.8C533.556 108.192 534.168 110.232 534.168 112.92V123H529.56V113.352C529.56 111.816 529.248 110.64 528.624 109.824C528 109.008 527.028 108.6 525.708 108.6C524.412 108.6 523.344 109.056 522.504 109.968C521.688 110.88 521.28 112.152 521.28 113.784V123H516.672ZM541.058 102.372C540.218 102.372 539.522 102.12 538.97 101.616C538.442 101.112 538.178 100.476 538.178 99.708C538.178 98.94 538.442 98.316 538.97 97.836C539.522 97.332 540.218 97.08 541.058 97.08C541.898 97.08 542.582 97.332 543.11 97.836C543.662 98.316 543.938 98.94 543.938 99.708C543.938 100.476 543.662 101.112 543.11 101.616C542.582 102.12 541.898 102.372 541.058 102.372ZM538.754 123V105.144H543.362V123H538.754ZM548.172 123V105.144H552.24L552.6 108.168C553.152 107.112 553.944 106.272 554.976 105.648C556.032 105.024 557.268 104.712 558.684 104.712C560.892 104.712 562.608 105.408 563.832 106.8C565.056 108.192 565.668 110.232 565.668 112.92V123H561.06V113.352C561.06 111.816 560.748 110.64 560.124 109.824C559.5 109.008 558.528 108.6 557.208 108.6C555.912 108.6 554.844 109.056 554.004 109.968C553.188 110.88 552.78 112.152 552.78 113.784V123H548.172ZM577.634 117.672C576.77 117.672 575.966 117.576 575.222 117.384L573.89 118.716C574.298 118.932 574.85 119.112 575.546 119.256C576.242 119.4 577.37 119.544 578.93 119.688C581.306 119.904 583.034 120.468 584.114 121.38C585.194 122.292 585.734 123.552 585.734 125.16C585.734 126.216 585.446 127.212 584.87 128.148C584.294 129.108 583.406 129.876 582.206 130.452C581.006 131.052 579.47 131.352 577.598 131.352C575.054 131.352 573.002 130.872 571.442 129.912C569.882 128.976 569.102 127.56 569.102 125.664C569.102 124.056 569.882 122.664 571.442 121.488C570.962 121.272 570.542 121.044 570.182 120.804C569.846 120.564 569.546 120.312 569.282 120.048V119.22L572.414 115.908C571.022 114.684 570.326 113.112 570.326 111.192C570.326 109.992 570.614 108.9 571.19 107.916C571.79 106.932 572.63 106.152 573.71 105.576C574.79 105 576.098 104.712 577.634 104.712C578.642 104.712 579.578 104.856 580.442 105.144H587.21V107.952L584.15 108.168C584.63 109.08 584.87 110.088 584.87 111.192C584.87 112.392 584.582 113.484 584.006 114.468C583.43 115.452 582.59 116.232 581.486 116.808C580.406 117.384 579.122 117.672 577.634 117.672ZM577.634 114.144C578.57 114.144 579.338 113.892 579.938 113.388C580.562 112.884 580.874 112.164 580.874 111.228C580.874 110.292 580.562 109.572 579.938 109.068C579.338 108.564 578.57 108.312 577.634 108.312C576.65 108.312 575.858 108.564 575.258 109.068C574.658 109.572 574.358 110.292 574.358 111.228C574.358 112.164 574.658 112.884 575.258 113.388C575.858 113.892 576.65 114.144 577.634 114.144ZM573.314 125.196C573.314 126.084 573.722 126.744 574.538 127.176C575.378 127.632 576.398 127.86 577.598 127.86C578.75 127.86 579.686 127.62 580.406 127.14C581.126 126.684 581.486 126.06 581.486 125.268C581.486 124.62 581.246 124.08 580.766 123.648C580.31 123.216 579.386 122.952 577.994 122.856C577.01 122.784 576.098 122.676 575.258 122.532C574.562 122.916 574.058 123.336 573.746 123.792C573.458 124.248 573.314 124.716 573.314 125.196ZM605.305 123.432C603.769 123.432 602.509 123.192 601.525 122.712C600.541 122.208 599.809 121.548 599.329 120.732C598.849 119.916 598.609 119.016 598.609 118.032C598.609 116.376 599.257 115.032 600.553 114C601.849 112.968 603.793 112.452 606.385 112.452H610.921V112.02C610.921 110.796 610.573 109.896 609.877 109.32C609.181 108.744 608.317 108.456 607.285 108.456C606.349 108.456 605.533 108.684 604.837 109.14C604.141 109.572 603.709 110.22 603.541 111.084H599.041C599.161 109.788 599.593 108.66 600.337 107.7C601.105 106.74 602.089 106.008 603.289 105.504C604.489 104.976 605.833 104.712 607.321 104.712C609.865 104.712 611.869 105.348 613.333 106.62C614.797 107.892 615.529 109.692 615.529 112.02V123H611.605L611.173 120.12C610.645 121.08 609.901 121.872 608.941 122.496C608.005 123.12 606.793 123.432 605.305 123.432ZM606.349 119.832C607.669 119.832 608.689 119.4 609.409 118.536C610.153 117.672 610.621 116.604 610.813 115.332H606.889C605.665 115.332 604.789 115.56 604.261 116.016C603.733 116.448 603.469 116.988 603.469 117.636C603.469 118.332 603.733 118.872 604.261 119.256C604.789 119.64 605.485 119.832 606.349 119.832ZM636.46 123C634.588 123 633.088 122.544 631.96 121.632C630.832 120.72 630.268 119.1 630.268 116.772V108.996H627.208V105.144H630.268L630.808 100.356H634.876V105.144H639.7V108.996H634.876V116.808C634.876 117.672 635.056 118.272 635.416 118.608C635.8 118.92 636.448 119.076 637.36 119.076H639.592V123H636.46ZM643.656 123V105.144H647.76L648.192 108.492C648.84 107.34 649.716 106.428 650.82 105.756C651.948 105.06 653.268 104.712 654.78 104.712V109.572H653.484C652.476 109.572 651.576 109.728 650.784 110.04C649.992 110.352 649.368 110.892 648.912 111.66C648.48 112.428 648.264 113.496 648.264 114.864V123H643.656ZM660.414 102.372C659.574 102.372 658.878 102.12 658.326 101.616C657.798 101.112 657.534 100.476 657.534 99.708C657.534 98.94 657.798 98.316 658.326 97.836C658.878 97.332 659.574 97.08 660.414 97.08C661.254 97.08 661.938 97.332 662.466 97.836C663.018 98.316 663.294 98.94 663.294 99.708C663.294 100.476 663.018 101.112 662.466 101.616C661.938 102.12 661.254 102.372 660.414 102.372ZM658.11 123V105.144H662.718V123H658.11ZM667.528 130.92V105.144H671.632L672.136 107.7C672.712 106.908 673.468 106.212 674.404 105.612C675.364 105.012 676.6 104.712 678.112 104.712C679.792 104.712 681.292 105.12 682.612 105.936C683.932 106.752 684.976 107.868 685.744 109.284C686.512 110.7 686.896 112.308 686.896 114.108C686.896 115.908 686.512 117.516 685.744 118.932C684.976 120.324 683.932 121.428 682.612 122.244C681.292 123.036 679.792 123.432 678.112 123.432C676.768 123.432 675.592 123.18 674.584 122.676C673.576 122.172 672.76 121.464 672.136 120.552V130.92H667.528ZM677.14 119.4C678.604 119.4 679.816 118.908 680.776 117.924C681.736 116.94 682.216 115.668 682.216 114.108C682.216 112.548 681.736 111.264 680.776 110.256C679.816 109.248 678.604 108.744 677.14 108.744C675.652 108.744 674.428 109.248 673.468 110.256C672.532 111.24 672.064 112.512 672.064 114.072C672.064 115.632 672.532 116.916 673.468 117.924C674.428 118.908 675.652 119.4 677.14 119.4Z" fill="#222222"/>
</svg>
