<svg width="895" height="268" viewBox="0 0 895 268" fill="none" xmlns="http://www.w3.org/2000/svg">
<rect x="2" y="2" width="891" height="264" rx="23" stroke="#BD4803" stroke-width="4"/>
<path d="M70.7083 76.432C68.8603 76.432 67.2283 76.12 65.8123 75.496C64.3963 74.848 63.2803 73.936 62.4643 72.76C61.6483 71.56 61.2283 70.108 61.2043 68.404H66.0643C66.1123 69.58 66.5323 70.576 67.3243 71.392C68.1403 72.184 69.2563 72.58 70.6723 72.58C71.8963 72.58 72.8683 72.292 73.5883 71.716C74.3083 71.116 74.6683 70.324 74.6683 69.34C74.6683 68.308 74.3443 67.504 73.6963 66.928C73.0723 66.352 72.2323 65.884 71.1763 65.524C70.1203 65.164 68.9923 64.78 67.7923 64.372C65.8483 63.7 64.3603 62.836 63.3283 61.78C62.3203 60.724 61.8163 59.32 61.8163 57.568C61.7923 56.08 62.1403 54.808 62.8603 53.752C63.6043 52.672 64.6123 51.844 65.8843 51.268C67.1563 50.668 68.6203 50.368 70.2763 50.368C71.9563 50.368 73.4323 50.668 74.7043 51.268C76.0003 51.868 77.0083 52.708 77.7283 53.788C78.4723 54.868 78.8683 56.152 78.9163 57.64H73.9843C73.9603 56.752 73.6123 55.972 72.9403 55.3C72.2923 54.604 71.3803 54.256 70.2043 54.256C69.1963 54.232 68.3443 54.484 67.6483 55.012C66.9763 55.516 66.6403 56.26 66.6403 57.244C66.6403 58.084 66.9043 58.756 67.4323 59.26C67.9603 59.74 68.6803 60.148 69.5923 60.484C70.5043 60.82 71.5483 61.18 72.7243 61.564C73.9723 61.996 75.1123 62.5 76.1443 63.076C77.1763 63.652 78.0043 64.42 78.6283 65.38C79.2523 66.316 79.5643 67.528 79.5643 69.016C79.5643 70.336 79.2283 71.56 78.5563 72.688C77.8843 73.816 76.8883 74.728 75.5683 75.424C74.2483 76.096 72.6283 76.432 70.7083 76.432ZM92.0447 76.432C90.3167 76.432 88.7567 76.036 87.3647 75.244C85.9967 74.452 84.9047 73.36 84.0887 71.968C83.2967 70.552 82.9007 68.92 82.9007 67.072C82.9007 65.224 83.3087 63.604 84.1247 62.212C84.9407 60.796 86.0327 59.692 87.4007 58.9C88.7927 58.108 90.3527 57.712 92.0807 57.712C93.7847 57.712 95.3207 58.108 96.6887 58.9C98.0807 59.692 99.1727 60.796 99.9647 62.212C100.781 63.604 101.189 65.224 101.189 67.072C101.189 68.92 100.781 70.552 99.9647 71.968C99.1727 73.36 98.0807 74.452 96.6887 75.244C95.2967 76.036 93.7487 76.432 92.0447 76.432ZM92.0447 72.436C93.2447 72.436 94.2887 71.992 95.1767 71.104C96.0647 70.192 96.5087 68.848 96.5087 67.072C96.5087 65.296 96.0647 63.964 95.1767 63.076C94.2887 62.164 93.2567 61.708 92.0807 61.708C90.8567 61.708 89.8007 62.164 88.9127 63.076C88.0487 63.964 87.6167 65.296 87.6167 67.072C87.6167 68.848 88.0487 70.192 88.9127 71.104C89.8007 71.992 90.8447 72.436 92.0447 72.436ZM105.309 76V58.144H109.377L109.773 60.556C110.349 59.692 111.105 59.008 112.041 58.504C113.001 57.976 114.105 57.712 115.353 57.712C118.113 57.712 120.069 58.78 121.221 60.916C121.869 59.932 122.733 59.152 123.813 58.576C124.917 58 126.117 57.712 127.413 57.712C129.741 57.712 131.529 58.408 132.777 59.8C134.025 61.192 134.649 63.232 134.649 65.92V76H130.041V66.352C130.041 64.816 129.741 63.64 129.141 62.824C128.565 62.008 127.665 61.6 126.441 61.6C125.193 61.6 124.185 62.056 123.417 62.968C122.673 63.88 122.301 65.152 122.301 66.784V76H117.693V66.352C117.693 64.816 117.393 63.64 116.793 62.824C116.193 62.008 115.269 61.6 114.021 61.6C112.797 61.6 111.801 62.056 111.033 62.968C110.289 63.88 109.917 65.152 109.917 66.784V76H105.309ZM147.7 76.432C145.9 76.432 144.304 76.048 142.912 75.28C141.52 74.512 140.428 73.432 139.636 72.04C138.844 70.648 138.448 69.04 138.448 67.216C138.448 65.368 138.832 63.724 139.6 62.284C140.392 60.844 141.472 59.728 142.84 58.936C144.232 58.12 145.864 57.712 147.736 57.712C149.488 57.712 151.036 58.096 152.38 58.864C153.724 59.632 154.768 60.688 155.512 62.032C156.28 63.352 156.664 64.828 156.664 66.46C156.664 66.724 156.652 67 156.628 67.288C156.628 67.576 156.616 67.876 156.592 68.188H143.02C143.116 69.58 143.596 70.672 144.46 71.464C145.348 72.256 146.416 72.652 147.664 72.652C148.6 72.652 149.38 72.448 150.004 72.04C150.652 71.608 151.132 71.056 151.444 70.384H156.124C155.788 71.512 155.224 72.544 154.432 73.48C153.664 74.392 152.704 75.112 151.552 75.64C150.424 76.168 149.14 76.432 147.7 76.432ZM147.736 61.456C146.608 61.456 145.612 61.78 144.748 62.428C143.884 63.052 143.332 64.012 143.092 65.308H151.984C151.912 64.132 151.48 63.196 150.688 62.5C149.896 61.804 148.912 61.456 147.736 61.456ZM169.117 76V58.144H173.185L173.545 61.168C174.097 60.112 174.889 59.272 175.921 58.648C176.977 58.024 178.213 57.712 179.629 57.712C181.837 57.712 183.553 58.408 184.777 59.8C186.001 61.192 186.613 63.232 186.613 65.92V76H182.005V66.352C182.005 64.816 181.693 63.64 181.069 62.824C180.445 62.008 179.473 61.6 178.153 61.6C176.857 61.6 175.789 62.056 174.949 62.968C174.133 63.88 173.725 65.152 173.725 66.784V76H169.117ZM199.696 76.432C197.896 76.432 196.3 76.048 194.908 75.28C193.516 74.512 192.424 73.432 191.632 72.04C190.84 70.648 190.444 69.04 190.444 67.216C190.444 65.368 190.828 63.724 191.596 62.284C192.388 60.844 193.468 59.728 194.836 58.936C196.228 58.12 197.86 57.712 199.732 57.712C201.484 57.712 203.032 58.096 204.376 58.864C205.72 59.632 206.764 60.688 207.508 62.032C208.276 63.352 208.66 64.828 208.66 66.46C208.66 66.724 208.648 67 208.624 67.288C208.624 67.576 208.612 67.876 208.588 68.188H195.016C195.112 69.58 195.592 70.672 196.456 71.464C197.344 72.256 198.412 72.652 199.66 72.652C200.596 72.652 201.376 72.448 202 72.04C202.648 71.608 203.128 71.056 203.44 70.384H208.12C207.784 71.512 207.22 72.544 206.428 73.48C205.66 74.392 204.7 75.112 203.548 75.64C202.42 76.168 201.136 76.432 199.696 76.432ZM199.732 61.456C198.604 61.456 197.608 61.78 196.744 62.428C195.88 63.052 195.328 64.012 195.088 65.308H203.98C203.908 64.132 203.476 63.196 202.684 62.5C201.892 61.804 200.908 61.456 199.732 61.456ZM221.211 76.432C219.411 76.432 217.815 76.048 216.423 75.28C215.031 74.512 213.939 73.432 213.147 72.04C212.355 70.648 211.959 69.04 211.959 67.216C211.959 65.368 212.343 63.724 213.111 62.284C213.903 60.844 214.983 59.728 216.351 58.936C217.743 58.12 219.375 57.712 221.247 57.712C222.999 57.712 224.547 58.096 225.891 58.864C227.235 59.632 228.279 60.688 229.023 62.032C229.791 63.352 230.175 64.828 230.175 66.46C230.175 66.724 230.163 67 230.139 67.288C230.139 67.576 230.127 67.876 230.103 68.188H216.531C216.627 69.58 217.107 70.672 217.971 71.464C218.859 72.256 219.927 72.652 221.175 72.652C222.111 72.652 222.891 72.448 223.515 72.04C224.163 71.608 224.643 71.056 224.955 70.384H229.635C229.299 71.512 228.735 72.544 227.943 73.48C227.175 74.392 226.215 75.112 225.063 75.64C223.935 76.168 222.651 76.432 221.211 76.432ZM221.247 61.456C220.119 61.456 219.123 61.78 218.259 62.428C217.395 63.052 216.843 64.012 216.603 65.308H225.495C225.423 64.132 224.991 63.196 224.199 62.5C223.407 61.804 222.423 61.456 221.247 61.456ZM242.259 76.432C240.579 76.432 239.079 76.024 237.759 75.208C236.439 74.392 235.395 73.276 234.627 71.86C233.859 70.444 233.475 68.836 233.475 67.036C233.475 65.236 233.859 63.64 234.627 62.248C235.395 60.832 236.439 59.728 237.759 58.936C239.079 58.12 240.579 57.712 242.259 57.712C243.603 57.712 244.779 57.964 245.787 58.468C246.795 58.972 247.611 59.68 248.235 60.592V50.08H252.843V76H248.739L248.235 73.444C247.659 74.236 246.891 74.932 245.931 75.532C244.995 76.132 243.771 76.432 242.259 76.432ZM243.231 72.4C244.719 72.4 245.931 71.908 246.867 70.924C247.827 69.916 248.307 68.632 248.307 67.072C248.307 65.512 247.827 64.24 246.867 63.256C245.931 62.248 244.719 61.744 243.231 61.744C241.767 61.744 240.555 62.236 239.595 63.22C238.635 64.204 238.155 65.476 238.155 67.036C238.155 68.596 238.635 69.88 239.595 70.888C240.555 71.896 241.767 72.4 243.231 72.4ZM264.915 76.432C263.331 76.432 261.939 76.18 260.739 75.676C259.539 75.148 258.579 74.428 257.859 73.516C257.139 72.604 256.707 71.548 256.563 70.348H261.207C261.351 71.044 261.735 71.644 262.359 72.148C263.007 72.628 263.835 72.868 264.843 72.868C265.851 72.868 266.583 72.664 267.039 72.256C267.519 71.848 267.759 71.38 267.759 70.852C267.759 70.084 267.423 69.568 266.751 69.304C266.079 69.016 265.143 68.74 263.943 68.476C263.175 68.308 262.395 68.104 261.603 67.864C260.811 67.624 260.079 67.324 259.407 66.964C258.759 66.58 258.231 66.1 257.823 65.524C257.415 64.924 257.211 64.192 257.211 63.328C257.211 61.744 257.835 60.412 259.083 59.332C260.355 58.252 262.131 57.712 264.411 57.712C266.523 57.712 268.203 58.204 269.451 59.188C270.723 60.172 271.479 61.528 271.719 63.256H267.363C267.099 61.936 266.103 61.276 264.375 61.276C263.511 61.276 262.839 61.444 262.359 61.78C261.903 62.116 261.675 62.536 261.675 63.04C261.675 63.568 262.023 63.988 262.719 64.3C263.415 64.612 264.339 64.9 265.491 65.164C266.739 65.452 267.879 65.776 268.911 66.136C269.967 66.472 270.807 66.988 271.431 67.684C272.055 68.356 272.367 69.328 272.367 70.6C272.391 71.704 272.103 72.7 271.503 73.588C270.903 74.476 270.039 75.172 268.911 75.676C267.783 76.18 266.451 76.432 264.915 76.432ZM292.984 76C291.112 76 289.612 75.544 288.484 74.632C287.356 73.72 286.792 72.1 286.792 69.772V61.996H283.732V58.144H286.792L287.332 53.356H291.4V58.144H296.224V61.996H291.4V69.808C291.4 70.672 291.58 71.272 291.939 71.608C292.324 71.92 292.972 72.076 293.884 72.076H296.116V76H292.984ZM300.18 76V50.08H304.788V60.88C305.388 59.896 306.192 59.128 307.2 58.576C308.232 58 309.408 57.712 310.728 57.712C312.936 57.712 314.64 58.408 315.84 59.8C317.064 61.192 317.676 63.232 317.676 65.92V76H313.104V66.352C313.104 64.816 312.792 63.64 312.168 62.824C311.568 62.008 310.608 61.6 309.288 61.6C307.992 61.6 306.912 62.056 306.048 62.968C305.208 63.88 304.788 65.152 304.788 66.784V76H300.18ZM330.758 76.432C328.958 76.432 327.362 76.048 325.97 75.28C324.578 74.512 323.486 73.432 322.694 72.04C321.902 70.648 321.506 69.04 321.506 67.216C321.506 65.368 321.89 63.724 322.658 62.284C323.45 60.844 324.53 59.728 325.898 58.936C327.29 58.12 328.922 57.712 330.794 57.712C332.546 57.712 334.094 58.096 335.438 58.864C336.782 59.632 337.826 60.688 338.57 62.032C339.338 63.352 339.722 64.828 339.722 66.46C339.722 66.724 339.71 67 339.686 67.288C339.686 67.576 339.674 67.876 339.65 68.188H326.078C326.174 69.58 326.654 70.672 327.518 71.464C328.406 72.256 329.474 72.652 330.722 72.652C331.658 72.652 332.438 72.448 333.062 72.04C333.71 71.608 334.19 71.056 334.502 70.384H339.182C338.846 71.512 338.282 72.544 337.49 73.48C336.722 74.392 335.762 75.112 334.61 75.64C333.482 76.168 332.198 76.432 330.758 76.432ZM330.794 61.456C329.666 61.456 328.67 61.78 327.806 62.428C326.942 63.052 326.39 64.012 326.15 65.308H335.042C334.97 64.132 334.538 63.196 333.746 62.5C332.954 61.804 331.97 61.456 330.794 61.456ZM352.176 83.92V58.144H356.28L356.784 60.7C357.36 59.908 358.116 59.212 359.052 58.612C360.012 58.012 361.248 57.712 362.76 57.712C364.44 57.712 365.94 58.12 367.26 58.936C368.58 59.752 369.624 60.868 370.392 62.284C371.16 63.7 371.544 65.308 371.544 67.108C371.544 68.908 371.16 70.516 370.392 71.932C369.624 73.324 368.58 74.428 367.26 75.244C365.94 76.036 364.44 76.432 362.76 76.432C361.416 76.432 360.24 76.18 359.232 75.676C358.224 75.172 357.408 74.464 356.784 73.552V83.92H352.176ZM361.788 72.4C363.252 72.4 364.464 71.908 365.424 70.924C366.384 69.94 366.864 68.668 366.864 67.108C366.864 65.548 366.384 64.264 365.424 63.256C364.464 62.248 363.252 61.744 361.788 61.744C360.3 61.744 359.076 62.248 358.116 63.256C357.18 64.24 356.712 65.512 356.712 67.072C356.712 68.632 357.18 69.916 358.116 70.924C359.076 71.908 360.3 72.4 361.788 72.4ZM381.816 76.432C380.28 76.432 379.02 76.192 378.036 75.712C377.052 75.208 376.32 74.548 375.84 73.732C375.36 72.916 375.12 72.016 375.12 71.032C375.12 69.376 375.768 68.032 377.064 67C378.36 65.968 380.304 65.452 382.896 65.452H387.432V65.02C387.432 63.796 387.084 62.896 386.388 62.32C385.692 61.744 384.828 61.456 383.796 61.456C382.86 61.456 382.044 61.684 381.348 62.14C380.652 62.572 380.22 63.22 380.052 64.084H375.552C375.672 62.788 376.104 61.66 376.848 60.7C377.616 59.74 378.6 59.008 379.8 58.504C381 57.976 382.344 57.712 383.832 57.712C386.376 57.712 388.38 58.348 389.844 59.62C391.308 60.892 392.04 62.692 392.04 65.02V76H388.116L387.684 73.12C387.156 74.08 386.412 74.872 385.452 75.496C384.516 76.12 383.304 76.432 381.816 76.432ZM382.86 72.832C384.18 72.832 385.2 72.4 385.92 71.536C386.664 70.672 387.132 69.604 387.324 68.332H383.4C382.176 68.332 381.3 68.56 380.772 69.016C380.244 69.448 379.98 69.988 379.98 70.636C379.98 71.332 380.244 71.872 380.772 72.256C381.3 72.64 381.996 72.832 382.86 72.832ZM396.438 76V58.144H400.542L400.974 61.492C401.622 60.34 402.498 59.428 403.602 58.756C404.73 58.06 406.05 57.712 407.562 57.712V62.572H406.266C405.258 62.572 404.358 62.728 403.566 63.04C402.774 63.352 402.15 63.892 401.694 64.66C401.262 65.428 401.046 66.496 401.046 67.864V76H396.438ZM418.667 76C416.795 76 415.295 75.544 414.167 74.632C413.039 73.72 412.475 72.1 412.475 69.772V61.996H409.415V58.144H412.475L413.015 53.356H417.083V58.144H421.907V61.996H417.083V69.808C417.083 70.672 417.263 71.272 417.623 71.608C418.007 71.92 418.655 72.076 419.567 72.076H421.799V76H418.667ZM428.347 55.372C427.507 55.372 426.811 55.12 426.259 54.616C425.731 54.112 425.467 53.476 425.467 52.708C425.467 51.94 425.731 51.316 426.259 50.836C426.811 50.332 427.507 50.08 428.347 50.08C429.187 50.08 429.871 50.332 430.399 50.836C430.951 51.316 431.227 51.94 431.227 52.708C431.227 53.476 430.951 54.112 430.399 54.616C429.871 55.12 429.187 55.372 428.347 55.372ZM426.043 76V58.144H430.651V76H426.043ZM444.209 76.432C442.385 76.432 440.777 76.036 439.385 75.244C437.993 74.452 436.889 73.348 436.073 71.932C435.281 70.516 434.885 68.896 434.885 67.072C434.885 65.248 435.281 63.628 436.073 62.212C436.889 60.796 437.993 59.692 439.385 58.9C440.777 58.108 442.385 57.712 444.209 57.712C446.489 57.712 448.409 58.312 449.969 59.512C451.529 60.688 452.525 62.32 452.957 64.408H448.097C447.857 63.544 447.377 62.872 446.657 62.392C445.961 61.888 445.133 61.636 444.173 61.636C442.901 61.636 441.821 62.116 440.933 63.076C440.045 64.036 439.601 65.368 439.601 67.072C439.601 68.776 440.045 70.108 440.933 71.068C441.821 72.028 442.901 72.508 444.173 72.508C445.133 72.508 445.961 72.268 446.657 71.788C447.377 71.308 447.857 70.624 448.097 69.736H452.957C452.525 71.752 451.529 73.372 449.969 74.596C448.409 75.82 446.489 76.432 444.209 76.432ZM459.531 55.372C458.691 55.372 457.995 55.12 457.443 54.616C456.915 54.112 456.651 53.476 456.651 52.708C456.651 51.94 456.915 51.316 457.443 50.836C457.995 50.332 458.691 50.08 459.531 50.08C460.371 50.08 461.055 50.332 461.583 50.836C462.135 51.316 462.411 51.94 462.411 52.708C462.411 53.476 462.135 54.112 461.583 54.616C461.055 55.12 460.371 55.372 459.531 55.372ZM457.227 76V58.144H461.835V76H457.227ZM466.645 83.92V58.144H470.749L471.253 60.7C471.829 59.908 472.585 59.212 473.521 58.612C474.481 58.012 475.717 57.712 477.229 57.712C478.909 57.712 480.409 58.12 481.729 58.936C483.049 59.752 484.093 60.868 484.861 62.284C485.629 63.7 486.013 65.308 486.013 67.108C486.013 68.908 485.629 70.516 484.861 71.932C484.093 73.324 483.049 74.428 481.729 75.244C480.409 76.036 478.909 76.432 477.229 76.432C475.885 76.432 474.709 76.18 473.701 75.676C472.693 75.172 471.877 74.464 471.253 73.552V83.92H466.645ZM476.257 72.4C477.721 72.4 478.933 71.908 479.893 70.924C480.853 69.94 481.333 68.668 481.333 67.108C481.333 65.548 480.853 64.264 479.893 63.256C478.933 62.248 477.721 61.744 476.257 61.744C474.769 61.744 473.545 62.248 472.585 63.256C471.649 64.24 471.181 65.512 471.181 67.072C471.181 68.632 471.649 69.916 472.585 70.924C473.545 71.908 474.769 72.4 476.257 72.4ZM496.285 76.432C494.749 76.432 493.489 76.192 492.505 75.712C491.521 75.208 490.789 74.548 490.309 73.732C489.829 72.916 489.589 72.016 489.589 71.032C489.589 69.376 490.237 68.032 491.533 67C492.829 65.968 494.773 65.452 497.365 65.452H501.901V65.02C501.901 63.796 501.553 62.896 500.857 62.32C500.161 61.744 499.297 61.456 498.265 61.456C497.329 61.456 496.513 61.684 495.817 62.14C495.121 62.572 494.689 63.22 494.521 64.084H490.021C490.141 62.788 490.573 61.66 491.317 60.7C492.085 59.74 493.069 59.008 494.269 58.504C495.469 57.976 496.813 57.712 498.301 57.712C500.845 57.712 502.849 58.348 504.313 59.62C505.777 60.892 506.509 62.692 506.509 65.02V76H502.585L502.153 73.12C501.625 74.08 500.881 74.872 499.921 75.496C498.985 76.12 497.773 76.432 496.285 76.432ZM497.329 72.832C498.649 72.832 499.669 72.4 500.389 71.536C501.133 70.672 501.601 69.604 501.793 68.332H497.869C496.645 68.332 495.769 68.56 495.241 69.016C494.713 69.448 494.449 69.988 494.449 70.636C494.449 71.332 494.713 71.872 495.241 72.256C495.769 72.64 496.465 72.832 497.329 72.832ZM510.906 76V58.144H514.974L515.334 61.168C515.886 60.112 516.678 59.272 517.71 58.648C518.766 58.024 520.002 57.712 521.418 57.712C523.626 57.712 525.342 58.408 526.566 59.8C527.79 61.192 528.402 63.232 528.402 65.92V76H523.794V66.352C523.794 64.816 523.482 63.64 522.858 62.824C522.234 62.008 521.262 61.6 519.942 61.6C518.646 61.6 517.578 62.056 516.738 62.968C515.922 63.88 515.514 65.152 515.514 66.784V76H510.906ZM540.765 76C538.893 76 537.393 75.544 536.265 74.632C535.137 73.72 534.573 72.1 534.573 69.772V61.996H531.513V58.144H534.573L535.113 53.356H539.181V58.144H544.005V61.996H539.181V69.808C539.181 70.672 539.361 71.272 539.721 71.608C540.105 71.92 540.753 72.076 541.665 72.076H543.897V76H540.765ZM555.341 76.432C553.757 76.432 552.365 76.18 551.165 75.676C549.965 75.148 549.005 74.428 548.285 73.516C547.565 72.604 547.133 71.548 546.989 70.348H551.633C551.777 71.044 552.161 71.644 552.785 72.148C553.433 72.628 554.261 72.868 555.269 72.868C556.277 72.868 557.009 72.664 557.465 72.256C557.945 71.848 558.185 71.38 558.185 70.852C558.185 70.084 557.849 69.568 557.177 69.304C556.505 69.016 555.569 68.74 554.369 68.476C553.601 68.308 552.821 68.104 552.029 67.864C551.237 67.624 550.505 67.324 549.833 66.964C549.185 66.58 548.657 66.1 548.249 65.524C547.841 64.924 547.637 64.192 547.637 63.328C547.637 61.744 548.261 60.412 549.509 59.332C550.781 58.252 552.557 57.712 554.837 57.712C556.949 57.712 558.629 58.204 559.877 59.188C561.149 60.172 561.905 61.528 562.145 63.256H557.789C557.525 61.936 556.529 61.276 554.801 61.276C553.937 61.276 553.265 61.444 552.785 61.78C552.329 62.116 552.101 62.536 552.101 63.04C552.101 63.568 552.449 63.988 553.145 64.3C553.841 64.612 554.765 64.9 555.917 65.164C557.165 65.452 558.305 65.776 559.337 66.136C560.393 66.472 561.233 66.988 561.857 67.684C562.481 68.356 562.793 69.328 562.793 70.6C562.817 71.704 562.529 72.7 561.929 73.588C561.329 74.476 560.465 75.172 559.337 75.676C558.209 76.18 556.877 76.432 555.341 76.432ZM582.833 76.432C581.249 76.432 579.857 76.18 578.657 75.676C577.457 75.148 576.497 74.428 575.777 73.516C575.057 72.604 574.625 71.548 574.481 70.348H579.125C579.269 71.044 579.653 71.644 580.277 72.148C580.925 72.628 581.753 72.868 582.761 72.868C583.769 72.868 584.501 72.664 584.957 72.256C585.437 71.848 585.677 71.38 585.677 70.852C585.677 70.084 585.341 69.568 584.669 69.304C583.997 69.016 583.061 68.74 581.861 68.476C581.093 68.308 580.313 68.104 579.521 67.864C578.729 67.624 577.997 67.324 577.325 66.964C576.677 66.58 576.149 66.1 575.741 65.524C575.333 64.924 575.129 64.192 575.129 63.328C575.129 61.744 575.753 60.412 577.001 59.332C578.273 58.252 580.049 57.712 582.329 57.712C584.441 57.712 586.121 58.204 587.369 59.188C588.641 60.172 589.397 61.528 589.637 63.256H585.281C585.017 61.936 584.021 61.276 582.293 61.276C581.429 61.276 580.757 61.444 580.277 61.78C579.821 62.116 579.593 62.536 579.593 63.04C579.593 63.568 579.941 63.988 580.637 64.3C581.333 64.612 582.257 64.9 583.409 65.164C584.657 65.452 585.797 65.776 586.829 66.136C587.885 66.472 588.725 66.988 589.349 67.684C589.973 68.356 590.285 69.328 590.285 70.6C590.309 71.704 590.021 72.7 589.421 73.588C588.821 74.476 587.957 75.172 586.829 75.676C585.701 76.18 584.369 76.432 582.833 76.432ZM600.523 76.432C598.987 76.432 597.727 76.192 596.743 75.712C595.759 75.208 595.027 74.548 594.547 73.732C594.067 72.916 593.827 72.016 593.827 71.032C593.827 69.376 594.475 68.032 595.771 67C597.067 65.968 599.011 65.452 601.603 65.452H606.139V65.02C606.139 63.796 605.791 62.896 605.095 62.32C604.399 61.744 603.535 61.456 602.503 61.456C601.567 61.456 600.751 61.684 600.055 62.14C599.359 62.572 598.927 63.22 598.759 64.084H594.259C594.379 62.788 594.811 61.66 595.555 60.7C596.323 59.74 597.307 59.008 598.507 58.504C599.707 57.976 601.051 57.712 602.539 57.712C605.083 57.712 607.087 58.348 608.551 59.62C610.015 60.892 610.747 62.692 610.747 65.02V76H606.823L606.391 73.12C605.863 74.08 605.119 74.872 604.159 75.496C603.223 76.12 602.011 76.432 600.523 76.432ZM601.567 72.832C602.887 72.832 603.907 72.4 604.627 71.536C605.371 70.672 605.839 69.604 606.031 68.332H602.107C600.883 68.332 600.007 68.56 599.479 69.016C598.951 69.448 598.687 69.988 598.687 70.636C598.687 71.332 598.951 71.872 599.479 72.256C600.007 72.64 600.703 72.832 601.567 72.832ZM617.629 55.372C616.789 55.372 616.093 55.12 615.541 54.616C615.013 54.112 614.749 53.476 614.749 52.708C614.749 51.94 615.013 51.316 615.541 50.836C616.093 50.332 616.789 50.08 617.629 50.08C618.469 50.08 619.153 50.332 619.681 50.836C620.233 51.316 620.509 51.94 620.509 52.708C620.509 53.476 620.233 54.112 619.681 54.616C619.153 55.12 618.469 55.372 617.629 55.372ZM615.325 76V58.144H619.933V76H615.325ZM632.95 76.432C631.27 76.432 629.77 76.024 628.45 75.208C627.13 74.392 626.086 73.276 625.318 71.86C624.55 70.444 624.166 68.836 624.166 67.036C624.166 65.236 624.55 63.64 625.318 62.248C626.086 60.832 627.13 59.728 628.45 58.936C629.77 58.12 631.27 57.712 632.95 57.712C634.294 57.712 635.47 57.964 636.478 58.468C637.486 58.972 638.302 59.68 638.926 60.592V50.08H643.534V76H639.43L638.926 73.444C638.35 74.236 637.582 74.932 636.622 75.532C635.686 76.132 634.462 76.432 632.95 76.432ZM633.922 72.4C635.41 72.4 636.622 71.908 637.558 70.924C638.518 69.916 638.998 68.632 638.998 67.072C638.998 65.512 638.518 64.24 637.558 63.256C636.622 62.248 635.41 61.744 633.922 61.744C632.458 61.744 631.246 62.236 630.286 63.22C629.326 64.204 628.846 65.476 628.846 67.036C628.846 68.596 629.326 69.88 630.286 70.888C631.246 71.896 632.458 72.4 633.922 72.4ZM656.805 76V58.144H660.873L661.233 61.168C661.785 60.112 662.577 59.272 663.609 58.648C664.665 58.024 665.901 57.712 667.317 57.712C669.525 57.712 671.241 58.408 672.465 59.8C673.689 61.192 674.301 63.232 674.301 65.92V76H669.693V66.352C669.693 64.816 669.381 63.64 668.757 62.824C668.133 62.008 667.161 61.6 665.841 61.6C664.545 61.6 663.477 62.056 662.637 62.968C661.821 63.88 661.413 65.152 661.413 66.784V76H656.805ZM687.383 76.432C685.583 76.432 683.987 76.048 682.595 75.28C681.203 74.512 680.111 73.432 679.319 72.04C678.527 70.648 678.131 69.04 678.131 67.216C678.131 65.368 678.515 63.724 679.283 62.284C680.075 60.844 681.155 59.728 682.523 58.936C683.915 58.12 685.547 57.712 687.419 57.712C689.171 57.712 690.719 58.096 692.063 58.864C693.407 59.632 694.451 60.688 695.195 62.032C695.963 63.352 696.347 64.828 696.347 66.46C696.347 66.724 696.335 67 696.311 67.288C696.311 67.576 696.299 67.876 696.275 68.188H682.703C682.799 69.58 683.279 70.672 684.143 71.464C685.031 72.256 686.099 72.652 687.347 72.652C688.283 72.652 689.063 72.448 689.687 72.04C690.335 71.608 690.815 71.056 691.127 70.384H695.807C695.471 71.512 694.907 72.544 694.115 73.48C693.347 74.392 692.387 75.112 691.235 75.64C690.107 76.168 688.823 76.432 687.383 76.432ZM687.419 61.456C686.291 61.456 685.295 61.78 684.431 62.428C683.567 63.052 683.015 64.012 682.775 65.308H691.667C691.595 64.132 691.163 63.196 690.371 62.5C689.579 61.804 688.595 61.456 687.419 61.456ZM708.971 76.432C707.147 76.432 705.539 76.036 704.147 75.244C702.755 74.452 701.651 73.348 700.835 71.932C700.043 70.516 699.647 68.896 699.647 67.072C699.647 65.248 700.043 63.628 700.835 62.212C701.651 60.796 702.755 59.692 704.147 58.9C705.539 58.108 707.147 57.712 708.971 57.712C711.251 57.712 713.171 58.312 714.731 59.512C716.291 60.688 717.287 62.32 717.719 64.408H712.859C712.619 63.544 712.139 62.872 711.419 62.392C710.723 61.888 709.895 61.636 708.935 61.636C707.663 61.636 706.583 62.116 705.695 63.076C704.807 64.036 704.363 65.368 704.363 67.072C704.363 68.776 704.807 70.108 705.695 71.068C706.583 72.028 707.663 72.508 708.935 72.508C709.895 72.508 710.723 72.268 711.419 71.788C712.139 71.308 712.619 70.624 712.859 69.736H717.719C717.287 71.752 716.291 73.372 714.731 74.596C713.171 75.82 711.251 76.432 708.971 76.432ZM730.485 76.432C728.685 76.432 727.089 76.048 725.697 75.28C724.305 74.512 723.213 73.432 722.421 72.04C721.629 70.648 721.233 69.04 721.233 67.216C721.233 65.368 721.617 63.724 722.385 62.284C723.177 60.844 724.257 59.728 725.625 58.936C727.017 58.12 728.649 57.712 730.521 57.712C732.273 57.712 733.821 58.096 735.165 58.864C736.509 59.632 737.553 60.688 738.297 62.032C739.065 63.352 739.449 64.828 739.449 66.46C739.449 66.724 739.437 67 739.413 67.288C739.413 67.576 739.401 67.876 739.377 68.188H725.805C725.901 69.58 726.381 70.672 727.245 71.464C728.133 72.256 729.201 72.652 730.449 72.652C731.385 72.652 732.165 72.448 732.789 72.04C733.437 71.608 733.917 71.056 734.229 70.384H738.909C738.573 71.512 738.009 72.544 737.217 73.48C736.449 74.392 735.489 75.112 734.337 75.64C733.209 76.168 731.925 76.432 730.485 76.432ZM730.521 61.456C729.393 61.456 728.397 61.78 727.533 62.428C726.669 63.052 726.117 64.012 725.877 65.308H734.769C734.697 64.132 734.265 63.196 733.473 62.5C732.681 61.804 731.697 61.456 730.521 61.456ZM750.704 76.432C749.12 76.432 747.728 76.18 746.528 75.676C745.328 75.148 744.368 74.428 743.648 73.516C742.928 72.604 742.496 71.548 742.352 70.348H746.996C747.14 71.044 747.524 71.644 748.148 72.148C748.796 72.628 749.624 72.868 750.632 72.868C751.64 72.868 752.372 72.664 752.828 72.256C753.308 71.848 753.548 71.38 753.548 70.852C753.548 70.084 753.212 69.568 752.54 69.304C751.868 69.016 750.932 68.74 749.732 68.476C748.964 68.308 748.184 68.104 747.392 67.864C746.6 67.624 745.868 67.324 745.196 66.964C744.548 66.58 744.02 66.1 743.612 65.524C743.204 64.924 743 64.192 743 63.328C743 61.744 743.624 60.412 744.872 59.332C746.144 58.252 747.92 57.712 750.2 57.712C752.312 57.712 753.992 58.204 755.24 59.188C756.512 60.172 757.268 61.528 757.508 63.256H753.152C752.888 61.936 751.892 61.276 750.164 61.276C749.3 61.276 748.628 61.444 748.148 61.78C747.692 62.116 747.464 62.536 747.464 63.04C747.464 63.568 747.812 63.988 748.508 64.3C749.204 64.612 750.128 64.9 751.28 65.164C752.528 65.452 753.668 65.776 754.7 66.136C755.756 66.472 756.596 66.988 757.22 67.684C757.844 68.356 758.156 69.328 758.156 70.6C758.18 71.704 757.892 72.7 757.292 73.588C756.692 74.476 755.828 75.172 754.7 75.676C753.572 76.18 752.24 76.432 750.704 76.432ZM769.618 76.432C768.034 76.432 766.642 76.18 765.442 75.676C764.242 75.148 763.282 74.428 762.562 73.516C761.842 72.604 761.41 71.548 761.266 70.348H765.91C766.054 71.044 766.438 71.644 767.062 72.148C767.71 72.628 768.538 72.868 769.546 72.868C770.554 72.868 771.286 72.664 771.742 72.256C772.222 71.848 772.462 71.38 772.462 70.852C772.462 70.084 772.126 69.568 771.454 69.304C770.782 69.016 769.846 68.74 768.646 68.476C767.878 68.308 767.098 68.104 766.306 67.864C765.514 67.624 764.782 67.324 764.11 66.964C763.462 66.58 762.934 66.1 762.526 65.524C762.118 64.924 761.914 64.192 761.914 63.328C761.914 61.744 762.538 60.412 763.786 59.332C765.058 58.252 766.834 57.712 769.114 57.712C771.226 57.712 772.906 58.204 774.154 59.188C775.426 60.172 776.182 61.528 776.422 63.256H772.066C771.802 61.936 770.806 61.276 769.078 61.276C768.214 61.276 767.542 61.444 767.062 61.78C766.606 62.116 766.378 62.536 766.378 63.04C766.378 63.568 766.726 63.988 767.422 64.3C768.118 64.612 769.042 64.9 770.194 65.164C771.442 65.452 772.582 65.776 773.614 66.136C774.67 66.472 775.51 66.988 776.134 67.684C776.758 68.356 777.07 69.328 777.07 70.6C777.094 71.704 776.806 72.7 776.206 73.588C775.606 74.476 774.742 75.172 773.614 75.676C772.486 76.18 771.154 76.432 769.618 76.432ZM787.309 76.432C785.773 76.432 784.513 76.192 783.529 75.712C782.545 75.208 781.813 74.548 781.333 73.732C780.853 72.916 780.613 72.016 780.613 71.032C780.613 69.376 781.261 68.032 782.557 67C783.853 65.968 785.797 65.452 788.389 65.452H792.925V65.02C792.925 63.796 792.577 62.896 791.881 62.32C791.185 61.744 790.321 61.456 789.289 61.456C788.353 61.456 787.537 61.684 786.841 62.14C786.145 62.572 785.713 63.22 785.545 64.084H781.045C781.165 62.788 781.597 61.66 782.341 60.7C783.109 59.74 784.093 59.008 785.293 58.504C786.493 57.976 787.837 57.712 789.325 57.712C791.869 57.712 793.873 58.348 795.337 59.62C796.801 60.892 797.533 62.692 797.533 65.02V76H793.609L793.177 73.12C792.649 74.08 791.905 74.872 790.945 75.496C790.009 76.12 788.797 76.432 787.309 76.432ZM788.353 72.832C789.673 72.832 790.693 72.4 791.413 71.536C792.157 70.672 792.625 69.604 792.817 68.332H788.893C787.669 68.332 786.793 68.56 786.265 69.016C785.737 69.448 785.473 69.988 785.473 70.636C785.473 71.332 785.737 71.872 786.265 72.256C786.793 72.64 787.489 72.832 788.353 72.832ZM801.93 76V58.144H806.034L806.466 61.492C807.114 60.34 807.99 59.428 809.094 58.756C810.222 58.06 811.542 57.712 813.054 57.712V62.572H811.758C810.75 62.572 809.85 62.728 809.058 63.04C808.266 63.352 807.642 63.892 807.186 64.66C806.754 65.428 806.538 66.496 806.538 67.864V76H801.93ZM818.435 83.92L822.575 74.812H821.495L814.547 58.144H819.551L824.555 70.708L829.775 58.144H834.671L823.331 83.92H818.435ZM91.2754 123L86.0554 105.144H90.6274L93.7234 117.996L97.3234 105.144H102.435L106.035 117.996L109.167 105.144H113.739L108.483 123H103.695L99.8794 109.644L96.0634 123H91.2754ZM121.889 123.432C120.353 123.432 119.093 123.192 118.109 122.712C117.125 122.208 116.393 121.548 115.913 120.732C115.433 119.916 115.193 119.016 115.193 118.032C115.193 116.376 115.841 115.032 117.137 114C118.433 112.968 120.377 112.452 122.969 112.452H127.505V112.02C127.505 110.796 127.157 109.896 126.461 109.32C125.765 108.744 124.901 108.456 123.869 108.456C122.933 108.456 122.117 108.684 121.421 109.14C120.725 109.572 120.293 110.22 120.125 111.084H115.625C115.745 109.788 116.177 108.66 116.921 107.7C117.689 106.74 118.673 106.008 119.873 105.504C121.073 104.976 122.417 104.712 123.905 104.712C126.449 104.712 128.453 105.348 129.917 106.62C131.381 107.892 132.113 109.692 132.113 112.02V123H128.189L127.757 120.12C127.229 121.08 126.485 121.872 125.525 122.496C124.589 123.12 123.377 123.432 121.889 123.432ZM122.933 119.832C124.253 119.832 125.273 119.4 125.993 118.536C126.737 117.672 127.205 116.604 127.397 115.332H123.473C122.249 115.332 121.373 115.56 120.845 116.016C120.317 116.448 120.053 116.988 120.053 117.636C120.053 118.332 120.317 118.872 120.845 119.256C121.373 119.64 122.069 119.832 122.933 119.832ZM143.89 123.432C142.306 123.432 140.914 123.18 139.714 122.676C138.514 122.148 137.554 121.428 136.834 120.516C136.114 119.604 135.682 118.548 135.538 117.348H140.182C140.326 118.044 140.71 118.644 141.334 119.148C141.982 119.628 142.81 119.868 143.818 119.868C144.826 119.868 145.558 119.664 146.014 119.256C146.494 118.848 146.734 118.38 146.734 117.852C146.734 117.084 146.398 116.568 145.726 116.304C145.054 116.016 144.118 115.74 142.918 115.476C142.15 115.308 141.37 115.104 140.578 114.864C139.786 114.624 139.054 114.324 138.382 113.964C137.734 113.58 137.206 113.1 136.798 112.524C136.39 111.924 136.186 111.192 136.186 110.328C136.186 108.744 136.81 107.412 138.058 106.332C139.33 105.252 141.106 104.712 143.386 104.712C145.498 104.712 147.178 105.204 148.426 106.188C149.698 107.172 150.454 108.528 150.694 110.256H146.338C146.074 108.936 145.078 108.276 143.35 108.276C142.486 108.276 141.814 108.444 141.334 108.78C140.878 109.116 140.65 109.536 140.65 110.04C140.65 110.568 140.998 110.988 141.694 111.3C142.39 111.612 143.314 111.9 144.466 112.164C145.714 112.452 146.854 112.776 147.886 113.136C148.942 113.472 149.782 113.988 150.406 114.684C151.03 115.356 151.342 116.328 151.342 117.6C151.366 118.704 151.078 119.7 150.478 120.588C149.878 121.476 149.014 122.172 147.886 122.676C146.758 123.18 145.426 123.432 143.89 123.432ZM164.002 123V97.08H168.61V112.38L174.946 105.144H180.418L173.11 113.28L181.606 123H175.846L168.61 114.036V123H164.002ZM184.463 123V105.144H188.531L188.891 108.168C189.443 107.112 190.235 106.272 191.267 105.648C192.323 105.024 193.559 104.712 194.975 104.712C197.183 104.712 198.899 105.408 200.123 106.8C201.347 108.192 201.959 110.232 201.959 112.92V123H197.351V113.352C197.351 111.816 197.039 110.64 196.415 109.824C195.791 109.008 194.819 108.6 193.499 108.6C192.203 108.6 191.135 109.056 190.295 109.968C189.479 110.88 189.071 112.152 189.071 113.784V123H184.463ZM214.933 123.432C213.205 123.432 211.645 123.036 210.253 122.244C208.885 121.452 207.793 120.36 206.977 118.968C206.185 117.552 205.789 115.92 205.789 114.072C205.789 112.224 206.197 110.604 207.013 109.212C207.829 107.796 208.921 106.692 210.289 105.9C211.681 105.108 213.241 104.712 214.969 104.712C216.673 104.712 218.209 105.108 219.577 105.9C220.969 106.692 222.061 107.796 222.853 109.212C223.669 110.604 224.077 112.224 224.077 114.072C224.077 115.92 223.669 117.552 222.853 118.968C222.061 120.36 220.969 121.452 219.577 122.244C218.185 123.036 216.637 123.432 214.933 123.432ZM214.933 119.436C216.133 119.436 217.177 118.992 218.065 118.104C218.953 117.192 219.397 115.848 219.397 114.072C219.397 112.296 218.953 110.964 218.065 110.076C217.177 109.164 216.145 108.708 214.969 108.708C213.745 108.708 212.689 109.164 211.801 110.076C210.937 110.964 210.505 112.296 210.505 114.072C210.505 115.848 210.937 117.192 211.801 118.104C212.689 118.992 213.733 119.436 214.933 119.436ZM231.057 123L225.837 105.144H230.409L233.505 117.996L237.105 105.144H242.217L245.817 117.996L248.949 105.144H253.521L248.265 123H243.477L239.661 109.644L235.845 123H231.057ZM258.912 102.372C258.072 102.372 257.376 102.12 256.824 101.616C256.296 101.112 256.032 100.476 256.032 99.708C256.032 98.94 256.296 98.316 256.824 97.836C257.376 97.332 258.072 97.08 258.912 97.08C259.752 97.08 260.436 97.332 260.964 97.836C261.516 98.316 261.792 98.94 261.792 99.708C261.792 100.476 261.516 101.112 260.964 101.616C260.436 102.12 259.752 102.372 258.912 102.372ZM256.608 123V105.144H261.216V123H256.608ZM266.026 123V105.144H270.094L270.454 108.168C271.006 107.112 271.798 106.272 272.83 105.648C273.886 105.024 275.122 104.712 276.538 104.712C278.746 104.712 280.462 105.408 281.686 106.8C282.91 108.192 283.522 110.232 283.522 112.92V123H278.914V113.352C278.914 111.816 278.602 110.64 277.978 109.824C277.354 109.008 276.382 108.6 275.062 108.6C273.766 108.6 272.698 109.056 271.858 109.968C271.042 110.88 270.634 112.152 270.634 113.784V123H266.026ZM295.488 117.672C294.624 117.672 293.82 117.576 293.076 117.384L291.744 118.716C292.152 118.932 292.704 119.112 293.4 119.256C294.096 119.4 295.224 119.544 296.784 119.688C299.16 119.904 300.888 120.468 301.968 121.38C303.048 122.292 303.588 123.552 303.588 125.16C303.588 126.216 303.3 127.212 302.724 128.148C302.148 129.108 301.26 129.876 300.06 130.452C298.86 131.052 297.324 131.352 295.452 131.352C292.908 131.352 290.856 130.872 289.296 129.912C287.736 128.976 286.956 127.56 286.956 125.664C286.956 124.056 287.736 122.664 289.296 121.488C288.816 121.272 288.396 121.044 288.036 120.804C287.7 120.564 287.4 120.312 287.136 120.048V119.22L290.268 115.908C288.876 114.684 288.18 113.112 288.18 111.192C288.18 109.992 288.468 108.9 289.044 107.916C289.644 106.932 290.484 106.152 291.564 105.576C292.644 105 293.952 104.712 295.488 104.712C296.496 104.712 297.432 104.856 298.296 105.144H305.064V107.952L302.004 108.168C302.484 109.08 302.724 110.088 302.724 111.192C302.724 112.392 302.436 113.484 301.86 114.468C301.284 115.452 300.444 116.232 299.34 116.808C298.26 117.384 296.976 117.672 295.488 117.672ZM295.488 114.144C296.424 114.144 297.192 113.892 297.792 113.388C298.416 112.884 298.728 112.164 298.728 111.228C298.728 110.292 298.416 109.572 297.792 109.068C297.192 108.564 296.424 108.312 295.488 108.312C294.504 108.312 293.712 108.564 293.112 109.068C292.512 109.572 292.212 110.292 292.212 111.228C292.212 112.164 292.512 112.884 293.112 113.388C293.712 113.892 294.504 114.144 295.488 114.144ZM291.168 125.196C291.168 126.084 291.576 126.744 292.392 127.176C293.232 127.632 294.252 127.86 295.452 127.86C296.604 127.86 297.54 127.62 298.26 127.14C298.98 126.684 299.34 126.06 299.34 125.268C299.34 124.62 299.1 124.08 298.62 123.648C298.164 123.216 297.24 122.952 295.848 122.856C294.864 122.784 293.952 122.676 293.112 122.532C292.416 122.916 291.912 123.336 291.6 123.792C291.312 124.248 291.168 124.716 291.168 125.196ZM319.486 102.372C318.646 102.372 317.95 102.12 317.398 101.616C316.87 101.112 316.606 100.476 316.606 99.708C316.606 98.94 316.87 98.316 317.398 97.836C317.95 97.332 318.646 97.08 319.486 97.08C320.326 97.08 321.01 97.332 321.538 97.836C322.09 98.316 322.366 98.94 322.366 99.708C322.366 100.476 322.09 101.112 321.538 101.616C321.01 102.12 320.326 102.372 319.486 102.372ZM317.182 123V105.144H321.79V123H317.182ZM326.6 123V105.144H330.668L331.028 108.168C331.58 107.112 332.372 106.272 333.404 105.648C334.46 105.024 335.696 104.712 337.112 104.712C339.32 104.712 341.036 105.408 342.26 106.8C343.484 108.192 344.096 110.232 344.096 112.92V123H339.488V113.352C339.488 111.816 339.176 110.64 338.552 109.824C337.928 109.008 336.956 108.6 335.636 108.6C334.34 108.6 333.272 109.056 332.432 109.968C331.616 110.88 331.208 112.152 331.208 113.784V123H326.6ZM363.236 123.432C361.7 123.432 360.44 123.192 359.456 122.712C358.472 122.208 357.74 121.548 357.26 120.732C356.78 119.916 356.54 119.016 356.54 118.032C356.54 116.376 357.188 115.032 358.484 114C359.78 112.968 361.724 112.452 364.316 112.452H368.852V112.02C368.852 110.796 368.504 109.896 367.808 109.32C367.112 108.744 366.248 108.456 365.216 108.456C364.28 108.456 363.464 108.684 362.768 109.14C362.072 109.572 361.64 110.22 361.472 111.084H356.972C357.092 109.788 357.524 108.66 358.268 107.7C359.036 106.74 360.02 106.008 361.22 105.504C362.42 104.976 363.764 104.712 365.252 104.712C367.796 104.712 369.8 105.348 371.264 106.62C372.728 107.892 373.46 109.692 373.46 112.02V123H369.536L369.104 120.12C368.576 121.08 367.832 121.872 366.872 122.496C365.936 123.12 364.724 123.432 363.236 123.432ZM364.28 119.832C365.6 119.832 366.62 119.4 367.34 118.536C368.084 117.672 368.552 116.604 368.744 115.332H364.82C363.596 115.332 362.72 115.56 362.192 116.016C361.664 116.448 361.4 116.988 361.4 117.636C361.4 118.332 361.664 118.872 362.192 119.256C362.72 119.64 363.416 119.832 364.28 119.832ZM386.066 123.432C384.386 123.432 382.886 123.024 381.566 122.208C380.246 121.392 379.202 120.276 378.434 118.86C377.666 117.444 377.282 115.836 377.282 114.036C377.282 112.236 377.666 110.64 378.434 109.248C379.202 107.832 380.246 106.728 381.566 105.936C382.886 105.12 384.386 104.712 386.066 104.712C387.41 104.712 388.586 104.964 389.594 105.468C390.602 105.972 391.418 106.68 392.042 107.592V97.08H396.65V123H392.546L392.042 120.444C391.466 121.236 390.698 121.932 389.738 122.532C388.802 123.132 387.578 123.432 386.066 123.432ZM387.038 119.4C388.526 119.4 389.738 118.908 390.674 117.924C391.634 116.916 392.114 115.632 392.114 114.072C392.114 112.512 391.634 111.24 390.674 110.256C389.738 109.248 388.526 108.744 387.038 108.744C385.574 108.744 384.362 109.236 383.402 110.22C382.442 111.204 381.962 112.476 381.962 114.036C381.962 115.596 382.442 116.88 383.402 117.888C384.362 118.896 385.574 119.4 387.038 119.4ZM406.166 123L399.614 105.144H404.438L408.974 118.644L413.51 105.144H418.334L411.746 123H406.166ZM426.307 123.432C424.771 123.432 423.511 123.192 422.527 122.712C421.543 122.208 420.811 121.548 420.331 120.732C419.851 119.916 419.611 119.016 419.611 118.032C419.611 116.376 420.259 115.032 421.555 114C422.851 112.968 424.795 112.452 427.387 112.452H431.923V112.02C431.923 110.796 431.575 109.896 430.879 109.32C430.183 108.744 429.319 108.456 428.287 108.456C427.351 108.456 426.535 108.684 425.839 109.14C425.143 109.572 424.711 110.22 424.543 111.084H420.043C420.163 109.788 420.595 108.66 421.339 107.7C422.107 106.74 423.091 106.008 424.291 105.504C425.491 104.976 426.835 104.712 428.323 104.712C430.867 104.712 432.871 105.348 434.335 106.62C435.799 107.892 436.531 109.692 436.531 112.02V123H432.607L432.175 120.12C431.647 121.08 430.903 121.872 429.943 122.496C429.007 123.12 427.795 123.432 426.307 123.432ZM427.351 119.832C428.671 119.832 429.691 119.4 430.411 118.536C431.155 117.672 431.623 116.604 431.815 115.332H427.891C426.667 115.332 425.791 115.56 425.263 116.016C424.735 116.448 424.471 116.988 424.471 117.636C424.471 118.332 424.735 118.872 425.263 119.256C425.791 119.64 426.487 119.832 427.351 119.832ZM440.928 123V105.144H444.996L445.356 108.168C445.908 107.112 446.7 106.272 447.732 105.648C448.788 105.024 450.024 104.712 451.44 104.712C453.648 104.712 455.364 105.408 456.588 106.8C457.812 108.192 458.424 110.232 458.424 112.92V123H453.816V113.352C453.816 111.816 453.504 110.64 452.88 109.824C452.256 109.008 451.284 108.6 449.964 108.6C448.668 108.6 447.6 109.056 446.76 109.968C445.944 110.88 445.536 112.152 445.536 113.784V123H440.928ZM471.578 123.432C469.754 123.432 468.146 123.036 466.754 122.244C465.362 121.452 464.258 120.348 463.442 118.932C462.65 117.516 462.254 115.896 462.254 114.072C462.254 112.248 462.65 110.628 463.442 109.212C464.258 107.796 465.362 106.692 466.754 105.9C468.146 105.108 469.754 104.712 471.578 104.712C473.858 104.712 475.778 105.312 477.338 106.512C478.898 107.688 479.894 109.32 480.326 111.408H475.466C475.226 110.544 474.746 109.872 474.026 109.392C473.33 108.888 472.502 108.636 471.542 108.636C470.27 108.636 469.19 109.116 468.302 110.076C467.414 111.036 466.97 112.368 466.97 114.072C466.97 115.776 467.414 117.108 468.302 118.068C469.19 119.028 470.27 119.508 471.542 119.508C472.502 119.508 473.33 119.268 474.026 118.788C474.746 118.308 475.226 117.624 475.466 116.736H480.326C479.894 118.752 478.898 120.372 477.338 121.596C475.778 122.82 473.858 123.432 471.578 123.432ZM493.092 123.432C491.292 123.432 489.696 123.048 488.304 122.28C486.912 121.512 485.82 120.432 485.028 119.04C484.236 117.648 483.84 116.04 483.84 114.216C483.84 112.368 484.224 110.724 484.992 109.284C485.784 107.844 486.864 106.728 488.232 105.936C489.624 105.12 491.256 104.712 493.128 104.712C494.88 104.712 496.428 105.096 497.772 105.864C499.116 106.632 500.16 107.688 500.904 109.032C501.672 110.352 502.056 111.828 502.056 113.46C502.056 113.724 502.044 114 502.02 114.288C502.02 114.576 502.008 114.876 501.984 115.188H488.412C488.508 116.58 488.988 117.672 489.852 118.464C490.74 119.256 491.808 119.652 493.056 119.652C493.992 119.652 494.772 119.448 495.396 119.04C496.044 118.608 496.524 118.056 496.836 117.384H501.516C501.18 118.512 500.616 119.544 499.824 120.48C499.056 121.392 498.096 122.112 496.944 122.64C495.816 123.168 494.532 123.432 493.092 123.432ZM493.128 108.456C492 108.456 491.004 108.78 490.14 109.428C489.276 110.052 488.724 111.012 488.484 112.308H497.376C497.304 111.132 496.872 110.196 496.08 109.5C495.288 108.804 494.304 108.456 493.128 108.456ZM518.002 123L512.782 105.144H517.354L520.45 117.996L524.05 105.144H529.162L532.762 117.996L535.894 105.144H540.466L535.21 123H530.422L526.606 109.644L522.79 123H518.002ZM543.373 123V97.08H547.981V107.88C548.581 106.896 549.385 106.128 550.393 105.576C551.425 105 552.601 104.712 553.921 104.712C556.129 104.712 557.833 105.408 559.033 106.8C560.257 108.192 560.869 110.232 560.869 112.92V123H556.297V113.352C556.297 111.816 555.985 110.64 555.361 109.824C554.761 109.008 553.801 108.6 552.481 108.6C551.185 108.6 550.105 109.056 549.241 109.968C548.401 110.88 547.981 112.152 547.981 113.784V123H543.373ZM573.952 123.432C572.152 123.432 570.556 123.048 569.164 122.28C567.772 121.512 566.68 120.432 565.888 119.04C565.096 117.648 564.7 116.04 564.7 114.216C564.7 112.368 565.084 110.724 565.852 109.284C566.644 107.844 567.724 106.728 569.092 105.936C570.484 105.12 572.116 104.712 573.988 104.712C575.74 104.712 577.288 105.096 578.632 105.864C579.976 106.632 581.02 107.688 581.764 109.032C582.532 110.352 582.916 111.828 582.916 113.46C582.916 113.724 582.904 114 582.88 114.288C582.88 114.576 582.868 114.876 582.844 115.188H569.272C569.368 116.58 569.848 117.672 570.712 118.464C571.6 119.256 572.668 119.652 573.916 119.652C574.852 119.652 575.632 119.448 576.256 119.04C576.904 118.608 577.384 118.056 577.696 117.384H582.376C582.04 118.512 581.476 119.544 580.684 120.48C579.916 121.392 578.956 122.112 577.804 122.64C576.676 123.168 575.392 123.432 573.952 123.432ZM573.988 108.456C572.86 108.456 571.864 108.78 571 109.428C570.136 110.052 569.584 111.012 569.344 112.308H578.236C578.164 111.132 577.732 110.196 576.94 109.5C576.148 108.804 575.164 108.456 573.988 108.456ZM594.431 123C592.559 123 591.059 122.544 589.931 121.632C588.803 120.72 588.239 119.1 588.239 116.772V108.996H585.179V105.144H588.239L588.779 100.356H592.847V105.144H597.671V108.996H592.847V116.808C592.847 117.672 593.027 118.272 593.387 118.608C593.771 118.92 594.419 119.076 595.331 119.076H597.563V123H594.431ZM601.627 123V97.08H606.235V107.88C606.835 106.896 607.639 106.128 608.647 105.576C609.679 105 610.855 104.712 612.175 104.712C614.383 104.712 616.087 105.408 617.287 106.8C618.511 108.192 619.123 110.232 619.123 112.92V123H614.551V113.352C614.551 111.816 614.239 110.64 613.615 109.824C613.015 109.008 612.055 108.6 610.735 108.6C609.439 108.6 608.359 109.056 607.495 109.968C606.655 110.88 606.235 112.152 606.235 113.784V123H601.627ZM632.205 123.432C630.405 123.432 628.809 123.048 627.417 122.28C626.025 121.512 624.933 120.432 624.141 119.04C623.349 117.648 622.953 116.04 622.953 114.216C622.953 112.368 623.337 110.724 624.105 109.284C624.897 107.844 625.977 106.728 627.345 105.936C628.737 105.12 630.369 104.712 632.241 104.712C633.993 104.712 635.541 105.096 636.885 105.864C638.229 106.632 639.273 107.688 640.017 109.032C640.785 110.352 641.169 111.828 641.169 113.46C641.169 113.724 641.157 114 641.133 114.288C641.133 114.576 641.121 114.876 641.097 115.188H627.525C627.621 116.58 628.101 117.672 628.965 118.464C629.853 119.256 630.921 119.652 632.169 119.652C633.105 119.652 633.885 119.448 634.509 119.04C635.157 118.608 635.637 118.056 635.949 117.384H640.629C640.293 118.512 639.729 119.544 638.937 120.48C638.169 121.392 637.209 122.112 636.057 122.64C634.929 123.168 633.645 123.432 632.205 123.432ZM632.241 108.456C631.113 108.456 630.117 108.78 629.253 109.428C628.389 110.052 627.837 111.012 627.597 112.308H636.489C636.417 111.132 635.985 110.196 635.193 109.5C634.401 108.804 633.417 108.456 632.241 108.456ZM645.045 123V105.144H649.149L649.581 108.492C650.229 107.34 651.105 106.428 652.209 105.756C653.337 105.06 654.657 104.712 656.169 104.712V109.572H654.873C653.865 109.572 652.965 109.728 652.173 110.04C651.381 110.352 650.757 110.892 650.301 111.66C649.869 112.428 649.653 113.496 649.653 114.864V123H645.045ZM670.381 102.372C669.541 102.372 668.845 102.12 668.293 101.616C667.765 101.112 667.501 100.476 667.501 99.708C667.501 98.94 667.765 98.316 668.293 97.836C668.845 97.332 669.541 97.08 670.381 97.08C671.221 97.08 671.905 97.332 672.433 97.836C672.985 98.316 673.261 98.94 673.261 99.708C673.261 100.476 672.985 101.112 672.433 101.616C671.905 102.12 671.221 102.372 670.381 102.372ZM668.077 123V105.144H672.685V123H668.077ZM685.45 123C683.578 123 682.078 122.544 680.95 121.632C679.822 120.72 679.258 119.1 679.258 116.772V108.996H676.198V105.144H679.258L679.798 100.356H683.866V105.144H688.69V108.996H683.866V116.808C683.866 117.672 684.046 118.272 684.406 118.608C684.79 118.92 685.438 119.076 686.35 119.076H688.582V123H685.45ZM704.717 123L699.497 105.144H704.069L707.165 117.996L710.765 105.144H715.877L719.477 117.996L722.609 105.144H727.181L721.925 123H717.137L713.321 109.644L709.505 123H704.717ZM732.572 102.372C731.732 102.372 731.036 102.12 730.484 101.616C729.956 101.112 729.692 100.476 729.692 99.708C729.692 98.94 729.956 98.316 730.484 97.836C731.036 97.332 731.732 97.08 732.572 97.08C733.412 97.08 734.096 97.332 734.624 97.836C735.176 98.316 735.452 98.94 735.452 99.708C735.452 100.476 735.176 101.112 734.624 101.616C734.096 102.12 733.412 102.372 732.572 102.372ZM730.268 123V105.144H734.876V123H730.268ZM739.686 123V97.08H744.294V123H739.686ZM749.002 123V97.08H753.61V123H749.002ZM777.481 123.432C776.137 123.432 774.961 123.18 773.953 122.676C772.945 122.172 772.129 121.464 771.505 120.552L771.001 123H766.897V97.08H771.505V107.7C772.081 106.908 772.837 106.212 773.773 105.612C774.733 105.012 775.969 104.712 777.481 104.712C779.161 104.712 780.661 105.12 781.981 105.936C783.301 106.752 784.345 107.868 785.113 109.284C785.881 110.7 786.265 112.308 786.265 114.108C786.265 115.908 785.881 117.516 785.113 118.932C784.345 120.324 783.301 121.428 781.981 122.244C780.661 123.036 779.161 123.432 777.481 123.432ZM776.509 119.4C777.973 119.4 779.185 118.908 780.145 117.924C781.105 116.94 781.585 115.668 781.585 114.108C781.585 112.548 781.105 111.264 780.145 110.256C779.185 109.248 777.973 108.744 776.509 108.744C775.021 108.744 773.797 109.248 772.837 110.256C771.901 111.24 771.433 112.512 771.433 114.072C771.433 115.632 771.901 116.916 772.837 117.924C773.797 118.908 775.021 119.4 776.509 119.4ZM799.057 123.432C797.257 123.432 795.661 123.048 794.269 122.28C792.877 121.512 791.785 120.432 790.993 119.04C790.201 117.648 789.805 116.04 789.805 114.216C789.805 112.368 790.189 110.724 790.957 109.284C791.749 107.844 792.829 106.728 794.197 105.936C795.589 105.12 797.221 104.712 799.093 104.712C800.845 104.712 802.393 105.096 803.737 105.864C805.081 106.632 806.125 107.688 806.869 109.032C807.637 110.352 808.021 111.828 808.021 113.46C808.021 113.724 808.009 114 807.985 114.288C807.985 114.576 807.973 114.876 807.949 115.188H794.377C794.473 116.58 794.953 117.672 795.817 118.464C796.705 119.256 797.773 119.652 799.021 119.652C799.957 119.652 800.737 119.448 801.361 119.04C802.009 118.608 802.489 118.056 802.801 117.384H807.481C807.145 118.512 806.581 119.544 805.789 120.48C805.021 121.392 804.061 122.112 802.909 122.64C801.781 123.168 800.497 123.432 799.057 123.432ZM799.093 108.456C797.965 108.456 796.969 108.78 796.105 109.428C795.241 110.052 794.689 111.012 794.449 112.308H803.341C803.269 111.132 802.837 110.196 802.045 109.5C801.253 108.804 800.269 108.456 799.093 108.456ZM27.2091 177.92V152.144H31.3131L31.8171 154.7C32.3931 153.908 33.1491 153.212 34.0851 152.612C35.0451 152.012 36.2811 151.712 37.7931 151.712C39.4731 151.712 40.9731 152.12 42.2931 152.936C43.6131 153.752 44.6571 154.868 45.4251 156.284C46.1931 157.7 46.5771 159.308 46.5771 161.108C46.5771 162.908 46.1931 164.516 45.4251 165.932C44.6571 167.324 43.6131 168.428 42.2931 169.244C40.9731 170.036 39.4731 170.432 37.7931 170.432C36.4491 170.432 35.2731 170.18 34.2651 169.676C33.2571 169.172 32.4411 168.464 31.8171 167.552V177.92H27.2091ZM36.8211 166.4C38.2851 166.4 39.4971 165.908 40.4571 164.924C41.4171 163.94 41.8971 162.668 41.8971 161.108C41.8971 159.548 41.4171 158.264 40.4571 157.256C39.4971 156.248 38.2851 155.744 36.8211 155.744C35.3331 155.744 34.1091 156.248 33.1491 157.256C32.2131 158.24 31.7451 159.512 31.7451 161.072C31.7451 162.632 32.2131 163.916 33.1491 164.924C34.1091 165.908 35.3331 166.4 36.8211 166.4ZM59.2615 170.432C57.5335 170.432 55.9735 170.036 54.5815 169.244C53.2135 168.452 52.1215 167.36 51.3055 165.968C50.5135 164.552 50.1175 162.92 50.1175 161.072C50.1175 159.224 50.5255 157.604 51.3415 156.212C52.1575 154.796 53.2495 153.692 54.6175 152.9C56.0095 152.108 57.5695 151.712 59.2975 151.712C61.0015 151.712 62.5375 152.108 63.9055 152.9C65.2975 153.692 66.3895 154.796 67.1815 156.212C67.9975 157.604 68.4055 159.224 68.4055 161.072C68.4055 162.92 67.9975 164.552 67.1815 165.968C66.3895 167.36 65.2975 168.452 63.9055 169.244C62.5135 170.036 60.9655 170.432 59.2615 170.432ZM59.2615 166.436C60.4615 166.436 61.5055 165.992 62.3935 165.104C63.2815 164.192 63.7255 162.848 63.7255 161.072C63.7255 159.296 63.2815 157.964 62.3935 157.076C61.5055 156.164 60.4735 155.708 59.2975 155.708C58.0735 155.708 57.0175 156.164 56.1295 157.076C55.2655 157.964 54.8335 159.296 54.8335 161.072C54.8335 162.848 55.2655 164.192 56.1295 165.104C57.0175 165.992 58.0615 166.436 59.2615 166.436ZM79.9055 170.432C78.3215 170.432 76.9295 170.18 75.7295 169.676C74.5295 169.148 73.5695 168.428 72.8495 167.516C72.1295 166.604 71.6975 165.548 71.5535 164.348H76.1975C76.3415 165.044 76.7255 165.644 77.3495 166.148C77.9975 166.628 78.8255 166.868 79.8335 166.868C80.8415 166.868 81.5735 166.664 82.0295 166.256C82.5095 165.848 82.7495 165.38 82.7495 164.852C82.7495 164.084 82.4135 163.568 81.7415 163.304C81.0695 163.016 80.1335 162.74 78.9335 162.476C78.1655 162.308 77.3855 162.104 76.5935 161.864C75.8015 161.624 75.0695 161.324 74.3975 160.964C73.7495 160.58 73.2215 160.1 72.8135 159.524C72.4055 158.924 72.2015 158.192 72.2015 157.328C72.2015 155.744 72.8255 154.412 74.0735 153.332C75.3455 152.252 77.1215 151.712 79.4015 151.712C81.5135 151.712 83.1935 152.204 84.4415 153.188C85.7135 154.172 86.4695 155.528 86.7095 157.256H82.3535C82.0895 155.936 81.0935 155.276 79.3655 155.276C78.5015 155.276 77.8295 155.444 77.3495 155.78C76.8935 156.116 76.6655 156.536 76.6655 157.04C76.6655 157.568 77.0135 157.988 77.7095 158.3C78.4055 158.612 79.3295 158.9 80.4815 159.164C81.7295 159.452 82.8695 159.776 83.9015 160.136C84.9575 160.472 85.7975 160.988 86.4215 161.684C87.0455 162.356 87.3575 163.328 87.3575 164.6C87.3815 165.704 87.0935 166.7 86.4935 167.588C85.8935 168.476 85.0295 169.172 83.9015 169.676C82.7735 170.18 81.4415 170.432 79.9055 170.432ZM98.8196 170.432C97.2356 170.432 95.8436 170.18 94.6436 169.676C93.4436 169.148 92.4836 168.428 91.7636 167.516C91.0436 166.604 90.6116 165.548 90.4676 164.348H95.1116C95.2556 165.044 95.6396 165.644 96.2636 166.148C96.9116 166.628 97.7396 166.868 98.7476 166.868C99.7556 166.868 100.488 166.664 100.944 166.256C101.424 165.848 101.664 165.38 101.664 164.852C101.664 164.084 101.328 163.568 100.656 163.304C99.9836 163.016 99.0476 162.74 97.8476 162.476C97.0796 162.308 96.2996 162.104 95.5076 161.864C94.7156 161.624 93.9836 161.324 93.3116 160.964C92.6636 160.58 92.1356 160.1 91.7276 159.524C91.3196 158.924 91.1156 158.192 91.1156 157.328C91.1156 155.744 91.7396 154.412 92.9876 153.332C94.2596 152.252 96.0356 151.712 98.3156 151.712C100.428 151.712 102.108 152.204 103.356 153.188C104.628 154.172 105.384 155.528 105.624 157.256H101.268C101.004 155.936 100.008 155.276 98.2796 155.276C97.4156 155.276 96.7436 155.444 96.2636 155.78C95.8076 156.116 95.5796 156.536 95.5796 157.04C95.5796 157.568 95.9276 157.988 96.6236 158.3C97.3196 158.612 98.2436 158.9 99.3956 159.164C100.644 159.452 101.784 159.776 102.816 160.136C103.872 160.472 104.712 160.988 105.336 161.684C105.96 162.356 106.272 163.328 106.272 164.6C106.296 165.704 106.008 166.7 105.408 167.588C104.808 168.476 103.944 169.172 102.816 169.676C101.688 170.18 100.356 170.432 98.8196 170.432ZM112.838 149.372C111.998 149.372 111.302 149.12 110.75 148.616C110.222 148.112 109.958 147.476 109.958 146.708C109.958 145.94 110.222 145.316 110.75 144.836C111.302 144.332 111.998 144.08 112.838 144.08C113.678 144.08 114.362 144.332 114.89 144.836C115.442 145.316 115.718 145.94 115.718 146.708C115.718 147.476 115.442 148.112 114.89 148.616C114.362 149.12 113.678 149.372 112.838 149.372ZM110.534 170V152.144H115.142V170H110.534ZM130.535 170.432C129.191 170.432 128.015 170.18 127.007 169.676C125.999 169.172 125.183 168.464 124.559 167.552L124.055 170H119.951V144.08H124.559V154.7C125.135 153.908 125.891 153.212 126.827 152.612C127.787 152.012 129.023 151.712 130.535 151.712C132.215 151.712 133.715 152.12 135.035 152.936C136.355 153.752 137.399 154.868 138.167 156.284C138.935 157.7 139.319 159.308 139.319 161.108C139.319 162.908 138.935 164.516 138.167 165.932C137.399 167.324 136.355 168.428 135.035 169.244C133.715 170.036 132.215 170.432 130.535 170.432ZM129.563 166.4C131.027 166.4 132.239 165.908 133.199 164.924C134.159 163.94 134.639 162.668 134.639 161.108C134.639 159.548 134.159 158.264 133.199 157.256C132.239 156.248 131.027 155.744 129.563 155.744C128.075 155.744 126.851 156.248 125.891 157.256C124.955 158.24 124.487 159.512 124.487 161.072C124.487 162.632 124.955 163.916 125.891 164.924C126.851 165.908 128.075 166.4 129.563 166.4ZM143.436 170V144.08H148.044V170H143.436ZM161.428 170.432C159.628 170.432 158.032 170.048 156.64 169.28C155.248 168.512 154.156 167.432 153.364 166.04C152.572 164.648 152.176 163.04 152.176 161.216C152.176 159.368 152.56 157.724 153.328 156.284C154.12 154.844 155.2 153.728 156.568 152.936C157.96 152.12 159.592 151.712 161.464 151.712C163.216 151.712 164.764 152.096 166.108 152.864C167.452 153.632 168.496 154.688 169.24 156.032C170.008 157.352 170.392 158.828 170.392 160.46C170.392 160.724 170.38 161 170.356 161.288C170.356 161.576 170.344 161.876 170.32 162.188H156.748C156.844 163.58 157.324 164.672 158.188 165.464C159.076 166.256 160.144 166.652 161.392 166.652C162.328 166.652 163.108 166.448 163.732 166.04C164.38 165.608 164.86 165.056 165.172 164.384H169.852C169.516 165.512 168.952 166.544 168.16 167.48C167.392 168.392 166.432 169.112 165.28 169.64C164.152 170.168 162.868 170.432 161.428 170.432ZM161.464 155.456C160.336 155.456 159.34 155.78 158.476 156.428C157.612 157.052 157.06 158.012 156.82 159.308H165.712C165.64 158.132 165.208 157.196 164.416 156.5C163.624 155.804 162.64 155.456 161.464 155.456ZM190.802 170C188.93 170 187.43 169.544 186.302 168.632C185.174 167.72 184.61 166.1 184.61 163.772V155.996H181.55V152.144H184.61L185.15 147.356H189.218V152.144H194.042V155.996H189.218V163.808C189.218 164.672 189.398 165.272 189.758 165.608C190.142 165.92 190.79 166.076 191.702 166.076H193.934V170H190.802ZM206.109 170.432C204.381 170.432 202.821 170.036 201.429 169.244C200.061 168.452 198.969 167.36 198.153 165.968C197.361 164.552 196.965 162.92 196.965 161.072C196.965 159.224 197.373 157.604 198.189 156.212C199.005 154.796 200.097 153.692 201.465 152.9C202.857 152.108 204.417 151.712 206.145 151.712C207.849 151.712 209.385 152.108 210.753 152.9C212.145 153.692 213.237 154.796 214.029 156.212C214.845 157.604 215.253 159.224 215.253 161.072C215.253 162.92 214.845 164.552 214.029 165.968C213.237 167.36 212.145 168.452 210.753 169.244C209.361 170.036 207.813 170.432 206.109 170.432ZM206.109 166.436C207.309 166.436 208.353 165.992 209.241 165.104C210.129 164.192 210.573 162.848 210.573 161.072C210.573 159.296 210.129 157.964 209.241 157.076C208.353 156.164 207.321 155.708 206.145 155.708C204.921 155.708 203.865 156.164 202.977 157.076C202.113 157.964 201.681 159.296 201.681 161.072C201.681 162.848 202.113 164.192 202.977 165.104C203.865 165.992 204.909 166.436 206.109 166.436ZM236.159 170.432C234.479 170.432 232.979 170.024 231.659 169.208C230.339 168.392 229.295 167.276 228.527 165.86C227.759 164.444 227.375 162.836 227.375 161.036C227.375 159.236 227.759 157.64 228.527 156.248C229.295 154.832 230.339 153.728 231.659 152.936C232.979 152.12 234.479 151.712 236.159 151.712C237.503 151.712 238.679 151.964 239.687 152.468C240.695 152.972 241.511 153.68 242.135 154.592V144.08H246.743V170H242.639L242.135 167.444C241.559 168.236 240.791 168.932 239.831 169.532C238.895 170.132 237.671 170.432 236.159 170.432ZM237.131 166.4C238.619 166.4 239.831 165.908 240.767 164.924C241.727 163.916 242.207 162.632 242.207 161.072C242.207 159.512 241.727 158.24 240.767 157.256C239.831 156.248 238.619 155.744 237.131 155.744C235.667 155.744 234.455 156.236 233.495 157.22C232.535 158.204 232.055 159.476 232.055 161.036C232.055 162.596 232.535 163.88 233.495 164.888C234.455 165.896 235.667 166.4 237.131 166.4ZM260.004 170.432C258.276 170.432 256.716 170.036 255.324 169.244C253.956 168.452 252.864 167.36 252.048 165.968C251.256 164.552 250.86 162.92 250.86 161.072C250.86 159.224 251.268 157.604 252.084 156.212C252.9 154.796 253.992 153.692 255.36 152.9C256.752 152.108 258.312 151.712 260.04 151.712C261.744 151.712 263.28 152.108 264.648 152.9C266.04 153.692 267.132 154.796 267.924 156.212C268.74 157.604 269.148 159.224 269.148 161.072C269.148 162.92 268.74 164.552 267.924 165.968C267.132 167.36 266.04 168.452 264.648 169.244C263.256 170.036 261.708 170.432 260.004 170.432ZM260.004 166.436C261.204 166.436 262.248 165.992 263.136 165.104C264.024 164.192 264.468 162.848 264.468 161.072C264.468 159.296 264.024 157.964 263.136 157.076C262.248 156.164 261.216 155.708 260.04 155.708C258.816 155.708 257.76 156.164 256.872 157.076C256.008 157.964 255.576 159.296 255.576 161.072C255.576 162.848 256.008 164.192 256.872 165.104C257.76 165.992 258.804 166.436 260.004 166.436ZM290.522 170.432C288.722 170.432 287.126 170.048 285.734 169.28C284.342 168.512 283.25 167.432 282.458 166.04C281.666 164.648 281.27 163.04 281.27 161.216C281.27 159.368 281.654 157.724 282.422 156.284C283.214 154.844 284.294 153.728 285.662 152.936C287.054 152.12 288.686 151.712 290.558 151.712C292.31 151.712 293.858 152.096 295.202 152.864C296.546 153.632 297.59 154.688 298.334 156.032C299.102 157.352 299.486 158.828 299.486 160.46C299.486 160.724 299.474 161 299.45 161.288C299.45 161.576 299.438 161.876 299.414 162.188H285.842C285.938 163.58 286.418 164.672 287.282 165.464C288.17 166.256 289.238 166.652 290.486 166.652C291.422 166.652 292.202 166.448 292.826 166.04C293.474 165.608 293.954 165.056 294.266 164.384H298.946C298.61 165.512 298.046 166.544 297.254 167.48C296.486 168.392 295.526 169.112 294.374 169.64C293.246 170.168 291.962 170.432 290.522 170.432ZM290.558 155.456C289.43 155.456 288.434 155.78 287.57 156.428C286.706 157.052 286.154 158.012 285.914 159.308H294.806C294.734 158.132 294.302 157.196 293.51 156.5C292.718 155.804 291.734 155.456 290.558 155.456ZM307.482 170L300.93 152.144H305.754L310.29 165.644L314.826 152.144H319.65L313.062 170H307.482ZM330.354 170.432C328.554 170.432 326.958 170.048 325.566 169.28C324.174 168.512 323.082 167.432 322.29 166.04C321.498 164.648 321.102 163.04 321.102 161.216C321.102 159.368 321.486 157.724 322.254 156.284C323.046 154.844 324.126 153.728 325.494 152.936C326.886 152.12 328.518 151.712 330.39 151.712C332.142 151.712 333.69 152.096 335.034 152.864C336.378 153.632 337.422 154.688 338.166 156.032C338.934 157.352 339.318 158.828 339.318 160.46C339.318 160.724 339.306 161 339.282 161.288C339.282 161.576 339.27 161.876 339.246 162.188H325.674C325.77 163.58 326.25 164.672 327.114 165.464C328.002 166.256 329.07 166.652 330.318 166.652C331.254 166.652 332.034 166.448 332.658 166.04C333.306 165.608 333.786 165.056 334.098 164.384H338.778C338.442 165.512 337.878 166.544 337.086 167.48C336.318 168.392 335.358 169.112 334.206 169.64C333.078 170.168 331.794 170.432 330.354 170.432ZM330.39 155.456C329.262 155.456 328.266 155.78 327.402 156.428C326.538 157.052 325.986 158.012 325.746 159.308H334.638C334.566 158.132 334.134 157.196 333.342 156.5C332.55 155.804 331.566 155.456 330.39 155.456ZM343.194 170V152.144H347.298L347.73 155.492C348.378 154.34 349.254 153.428 350.358 152.756C351.486 152.06 352.806 151.712 354.318 151.712V156.572H353.022C352.014 156.572 351.114 156.728 350.322 157.04C349.53 157.352 348.906 157.892 348.45 158.66C348.018 159.428 347.802 160.496 347.802 161.864V170H343.194ZM359.699 177.92L363.839 168.812H362.759L355.811 152.144H360.815L365.819 164.708L371.039 152.144H375.935L364.595 177.92H359.699ZM386.903 170C385.031 170 383.531 169.544 382.403 168.632C381.275 167.72 380.711 166.1 380.711 163.772V155.996H377.651V152.144H380.711L381.251 147.356H385.319V152.144H390.143V155.996H385.319V163.808C385.319 164.672 385.499 165.272 385.859 165.608C386.243 165.92 386.891 166.076 387.803 166.076H390.035V170H386.903ZM394.1 170V144.08H398.708V154.88C399.308 153.896 400.112 153.128 401.12 152.576C402.152 152 403.328 151.712 404.648 151.712C406.856 151.712 408.56 152.408 409.76 153.8C410.984 155.192 411.596 157.232 411.596 159.92V170H407.024V160.352C407.024 158.816 406.712 157.64 406.088 156.824C405.488 156.008 404.528 155.6 403.208 155.6C401.912 155.6 400.832 156.056 399.968 156.968C399.128 157.88 398.708 159.152 398.708 160.784V170H394.1ZM418.486 149.372C417.646 149.372 416.95 149.12 416.398 148.616C415.87 148.112 415.606 147.476 415.606 146.708C415.606 145.94 415.87 145.316 416.398 144.836C416.95 144.332 417.646 144.08 418.486 144.08C419.326 144.08 420.01 144.332 420.538 144.836C421.09 145.316 421.366 145.94 421.366 146.708C421.366 147.476 421.09 148.112 420.538 148.616C420.01 149.12 419.326 149.372 418.486 149.372ZM416.182 170V152.144H420.79V170H416.182ZM425.6 170V152.144H429.668L430.028 155.168C430.58 154.112 431.372 153.272 432.404 152.648C433.46 152.024 434.696 151.712 436.112 151.712C438.32 151.712 440.036 152.408 441.26 153.8C442.484 155.192 443.096 157.232 443.096 159.92V170H438.488V160.352C438.488 158.816 438.176 157.64 437.552 156.824C436.928 156.008 435.956 155.6 434.636 155.6C433.34 155.6 432.272 156.056 431.432 156.968C430.616 157.88 430.208 159.152 430.208 160.784V170H425.6ZM455.062 164.672C454.198 164.672 453.394 164.576 452.65 164.384L451.318 165.716C451.726 165.932 452.278 166.112 452.974 166.256C453.67 166.4 454.798 166.544 456.358 166.688C458.734 166.904 460.462 167.468 461.542 168.38C462.622 169.292 463.162 170.552 463.162 172.16C463.162 173.216 462.874 174.212 462.298 175.148C461.722 176.108 460.834 176.876 459.634 177.452C458.434 178.052 456.898 178.352 455.026 178.352C452.482 178.352 450.43 177.872 448.87 176.912C447.31 175.976 446.53 174.56 446.53 172.664C446.53 171.056 447.31 169.664 448.87 168.488C448.39 168.272 447.97 168.044 447.61 167.804C447.274 167.564 446.974 167.312 446.71 167.048V166.22L449.842 162.908C448.45 161.684 447.754 160.112 447.754 158.192C447.754 156.992 448.042 155.9 448.618 154.916C449.218 153.932 450.058 153.152 451.138 152.576C452.218 152 453.526 151.712 455.062 151.712C456.07 151.712 457.006 151.856 457.87 152.144H464.638V154.952L461.578 155.168C462.058 156.08 462.298 157.088 462.298 158.192C462.298 159.392 462.01 160.484 461.434 161.468C460.858 162.452 460.018 163.232 458.914 163.808C457.834 164.384 456.55 164.672 455.062 164.672ZM455.062 161.144C455.998 161.144 456.766 160.892 457.366 160.388C457.99 159.884 458.302 159.164 458.302 158.228C458.302 157.292 457.99 156.572 457.366 156.068C456.766 155.564 455.998 155.312 455.062 155.312C454.078 155.312 453.286 155.564 452.686 156.068C452.086 156.572 451.786 157.292 451.786 158.228C451.786 159.164 452.086 159.884 452.686 160.388C453.286 160.892 454.078 161.144 455.062 161.144ZM450.742 172.196C450.742 173.084 451.15 173.744 451.966 174.176C452.806 174.632 453.826 174.86 455.026 174.86C456.178 174.86 457.114 174.62 457.834 174.14C458.554 173.684 458.914 173.06 458.914 172.268C458.914 171.62 458.674 171.08 458.194 170.648C457.738 170.216 456.814 169.952 455.422 169.856C454.438 169.784 453.526 169.676 452.686 169.532C451.99 169.916 451.486 170.336 451.174 170.792C450.886 171.248 450.742 171.716 450.742 172.196ZM478.808 177.92L482.948 168.812H481.868L474.92 152.144H479.924L484.928 164.708L490.148 152.144H495.044L483.704 177.92H478.808ZM505.078 170.432C503.35 170.432 501.79 170.036 500.398 169.244C499.03 168.452 497.938 167.36 497.122 165.968C496.33 164.552 495.934 162.92 495.934 161.072C495.934 159.224 496.342 157.604 497.158 156.212C497.974 154.796 499.066 153.692 500.434 152.9C501.826 152.108 503.386 151.712 505.114 151.712C506.818 151.712 508.354 152.108 509.722 152.9C511.114 153.692 512.206 154.796 512.998 156.212C513.814 157.604 514.222 159.224 514.222 161.072C514.222 162.92 513.814 164.552 512.998 165.968C512.206 167.36 511.114 168.452 509.722 169.244C508.33 170.036 506.782 170.432 505.078 170.432ZM505.078 166.436C506.278 166.436 507.322 165.992 508.21 165.104C509.098 164.192 509.542 162.848 509.542 161.072C509.542 159.296 509.098 157.964 508.21 157.076C507.322 156.164 506.29 155.708 505.114 155.708C503.89 155.708 502.834 156.164 501.946 157.076C501.082 157.964 500.65 159.296 500.65 161.072C500.65 162.848 501.082 164.192 501.946 165.104C502.834 165.992 503.878 166.436 505.078 166.436ZM525.038 170.432C522.806 170.432 521.078 169.736 519.854 168.344C518.654 166.952 518.054 164.912 518.054 162.224V152.144H522.626V161.792C522.626 163.328 522.938 164.504 523.562 165.32C524.186 166.136 525.17 166.544 526.514 166.544C527.786 166.544 528.83 166.088 529.646 165.176C530.486 164.264 530.906 162.992 530.906 161.36V152.144H535.514V170H531.446L531.086 166.976C530.534 168.032 529.73 168.872 528.674 169.496C527.642 170.12 526.43 170.432 525.038 170.432ZM552.314 170L547.094 152.144H551.666L554.762 164.996L558.362 152.144H563.474L567.074 164.996L570.206 152.144H574.778L569.522 170H564.734L560.918 156.644L557.102 170H552.314ZM582.928 170.432C581.392 170.432 580.132 170.192 579.148 169.712C578.164 169.208 577.432 168.548 576.952 167.732C576.472 166.916 576.232 166.016 576.232 165.032C576.232 163.376 576.88 162.032 578.176 161C579.472 159.968 581.416 159.452 584.008 159.452H588.544V159.02C588.544 157.796 588.196 156.896 587.5 156.32C586.804 155.744 585.94 155.456 584.908 155.456C583.972 155.456 583.156 155.684 582.46 156.14C581.764 156.572 581.332 157.22 581.164 158.084H576.664C576.784 156.788 577.216 155.66 577.96 154.7C578.728 153.74 579.712 153.008 580.912 152.504C582.112 151.976 583.456 151.712 584.944 151.712C587.488 151.712 589.492 152.348 590.956 153.62C592.42 154.892 593.152 156.692 593.152 159.02V170H589.228L588.796 167.12C588.268 168.08 587.524 168.872 586.564 169.496C585.628 170.12 584.416 170.432 582.928 170.432ZM583.972 166.832C585.292 166.832 586.312 166.4 587.032 165.536C587.776 164.672 588.244 163.604 588.436 162.332H584.512C583.288 162.332 582.412 162.56 581.884 163.016C581.356 163.448 581.092 163.988 581.092 164.636C581.092 165.332 581.356 165.872 581.884 166.256C582.412 166.64 583.108 166.832 583.972 166.832ZM597.549 170V152.144H601.617L601.977 155.168C602.529 154.112 603.321 153.272 604.353 152.648C605.409 152.024 606.645 151.712 608.061 151.712C610.269 151.712 611.985 152.408 613.209 153.8C614.433 155.192 615.045 157.232 615.045 159.92V170H610.437V160.352C610.437 158.816 610.125 157.64 609.501 156.824C608.877 156.008 607.905 155.6 606.585 155.6C605.289 155.6 604.221 156.056 603.381 156.968C602.565 157.88 602.157 159.152 602.157 160.784V170H597.549ZM627.407 170C625.535 170 624.035 169.544 622.907 168.632C621.779 167.72 621.215 166.1 621.215 163.772V155.996H618.155V152.144H621.215L621.755 147.356H625.823V152.144H630.647V155.996H625.823V163.808C625.823 164.672 626.003 165.272 626.363 165.608C626.747 165.92 627.395 166.076 628.307 166.076H630.539V170H627.407ZM651.75 170.432C650.022 170.432 648.462 170.036 647.07 169.244C645.702 168.452 644.61 167.36 643.794 165.968C643.002 164.552 642.606 162.92 642.606 161.072C642.606 159.224 643.014 157.604 643.83 156.212C644.646 154.796 645.738 153.692 647.106 152.9C648.498 152.108 650.058 151.712 651.786 151.712C653.49 151.712 655.026 152.108 656.394 152.9C657.786 153.692 658.878 154.796 659.67 156.212C660.486 157.604 660.894 159.224 660.894 161.072C660.894 162.92 660.486 164.552 659.67 165.968C658.878 167.36 657.786 168.452 656.394 169.244C655.002 170.036 653.454 170.432 651.75 170.432ZM651.75 166.436C652.95 166.436 653.994 165.992 654.882 165.104C655.77 164.192 656.214 162.848 656.214 161.072C656.214 159.296 655.77 157.964 654.882 157.076C653.994 156.164 652.962 155.708 651.786 155.708C650.562 155.708 649.506 156.164 648.618 157.076C647.754 157.964 647.322 159.296 647.322 161.072C647.322 162.848 647.754 164.192 648.618 165.104C649.506 165.992 650.55 166.436 651.75 166.436ZM665.014 170V152.144H669.082L669.442 155.168C669.994 154.112 670.786 153.272 671.818 152.648C672.874 152.024 674.11 151.712 675.526 151.712C677.734 151.712 679.45 152.408 680.674 153.8C681.898 155.192 682.51 157.232 682.51 159.92V170H677.902V160.352C677.902 158.816 677.59 157.64 676.966 156.824C676.342 156.008 675.37 155.6 674.05 155.6C672.754 155.6 671.686 156.056 670.846 156.968C670.03 157.88 669.622 159.152 669.622 160.784V170H665.014ZM703.45 170C701.578 170 700.078 169.544 698.95 168.632C697.822 167.72 697.258 166.1 697.258 163.772V155.996H694.198V152.144H697.258L697.798 147.356H701.866V152.144H706.69V155.996H701.866V163.808C701.866 164.672 702.046 165.272 702.406 165.608C702.79 165.92 703.438 166.076 704.35 166.076H706.582V170H703.45ZM710.647 170V144.08H715.255V154.88C715.855 153.896 716.659 153.128 717.667 152.576C718.699 152 719.875 151.712 721.195 151.712C723.403 151.712 725.107 152.408 726.307 153.8C727.531 155.192 728.143 157.232 728.143 159.92V170H723.571V160.352C723.571 158.816 723.259 157.64 722.635 156.824C722.035 156.008 721.075 155.6 719.755 155.6C718.459 155.6 717.379 156.056 716.515 156.968C715.675 157.88 715.255 159.152 715.255 160.784V170H710.647ZM741.225 170.432C739.425 170.432 737.829 170.048 736.437 169.28C735.045 168.512 733.953 167.432 733.161 166.04C732.369 164.648 731.973 163.04 731.973 161.216C731.973 159.368 732.357 157.724 733.125 156.284C733.917 154.844 734.997 153.728 736.365 152.936C737.757 152.12 739.389 151.712 741.261 151.712C743.013 151.712 744.561 152.096 745.905 152.864C747.249 153.632 748.293 154.688 749.037 156.032C749.805 157.352 750.189 158.828 750.189 160.46C750.189 160.724 750.177 161 750.153 161.288C750.153 161.576 750.141 161.876 750.117 162.188H736.545C736.641 163.58 737.121 164.672 737.985 165.464C738.873 166.256 739.941 166.652 741.189 166.652C742.125 166.652 742.905 166.448 743.529 166.04C744.177 165.608 744.657 165.056 744.969 164.384H749.649C749.313 165.512 748.749 166.544 747.957 167.48C747.189 168.392 746.229 169.112 745.077 169.64C743.949 170.168 742.665 170.432 741.225 170.432ZM741.261 155.456C740.133 155.456 739.137 155.78 738.273 156.428C737.409 157.052 736.857 158.012 736.617 159.308H745.509C745.437 158.132 745.005 157.196 744.213 156.5C743.421 155.804 742.437 155.456 741.261 155.456ZM770.851 170.432C769.171 170.432 767.671 170.024 766.351 169.208C765.031 168.392 763.987 167.276 763.219 165.86C762.451 164.444 762.067 162.836 762.067 161.036C762.067 159.236 762.451 157.64 763.219 156.248C763.987 154.832 765.031 153.728 766.351 152.936C767.671 152.12 769.171 151.712 770.851 151.712C772.195 151.712 773.371 151.964 774.379 152.468C775.387 152.972 776.203 153.68 776.827 154.592V144.08H781.435V170H777.331L776.827 167.444C776.251 168.236 775.483 168.932 774.523 169.532C773.587 170.132 772.363 170.432 770.851 170.432ZM771.823 166.4C773.311 166.4 774.523 165.908 775.459 164.924C776.419 163.916 776.899 162.632 776.899 161.072C776.899 159.512 776.419 158.24 775.459 157.256C774.523 156.248 773.311 155.744 771.823 155.744C770.359 155.744 769.147 156.236 768.187 157.22C767.227 158.204 766.747 159.476 766.747 161.036C766.747 162.596 767.227 163.88 768.187 164.888C769.147 165.896 770.359 166.4 771.823 166.4ZM792.283 170.432C790.747 170.432 789.487 170.192 788.503 169.712C787.519 169.208 786.787 168.548 786.307 167.732C785.827 166.916 785.587 166.016 785.587 165.032C785.587 163.376 786.235 162.032 787.531 161C788.827 159.968 790.771 159.452 793.363 159.452H797.899V159.02C797.899 157.796 797.551 156.896 796.855 156.32C796.159 155.744 795.295 155.456 794.263 155.456C793.327 155.456 792.511 155.684 791.815 156.14C791.119 156.572 790.687 157.22 790.519 158.084H786.019C786.139 156.788 786.571 155.66 787.315 154.7C788.083 153.74 789.067 153.008 790.267 152.504C791.467 151.976 792.811 151.712 794.299 151.712C796.843 151.712 798.847 152.348 800.311 153.62C801.775 154.892 802.507 156.692 802.507 159.02V170H798.583L798.151 167.12C797.623 168.08 796.879 168.872 795.919 169.496C794.983 170.12 793.771 170.432 792.283 170.432ZM793.327 166.832C794.647 166.832 795.667 166.4 796.387 165.536C797.131 164.672 797.599 163.604 797.791 162.332H793.867C792.643 162.332 791.767 162.56 791.239 163.016C790.711 163.448 790.447 163.988 790.447 164.636C790.447 165.332 790.711 165.872 791.239 166.256C791.767 166.64 792.463 166.832 793.327 166.832ZM808.539 177.92L812.679 168.812H811.599L804.651 152.144H809.655L814.659 164.708L819.879 152.144H824.775L813.435 177.92H808.539ZM844.933 170.432C843.205 170.432 841.645 170.036 840.253 169.244C838.885 168.452 837.793 167.36 836.977 165.968C836.185 164.552 835.789 162.92 835.789 161.072C835.789 159.224 836.197 157.604 837.013 156.212C837.829 154.796 838.921 153.692 840.289 152.9C841.681 152.108 843.241 151.712 844.969 151.712C846.673 151.712 848.209 152.108 849.577 152.9C850.969 153.692 852.061 154.796 852.853 156.212C853.669 157.604 854.077 159.224 854.077 161.072C854.077 162.92 853.669 164.552 852.853 165.968C852.061 167.36 850.969 168.452 849.577 169.244C848.185 170.036 846.637 170.432 844.933 170.432ZM844.933 166.436C846.133 166.436 847.177 165.992 848.065 165.104C848.953 164.192 849.397 162.848 849.397 161.072C849.397 159.296 848.953 157.964 848.065 157.076C847.177 156.164 846.145 155.708 844.969 155.708C843.745 155.708 842.689 156.164 841.801 157.076C840.937 157.964 840.505 159.296 840.505 161.072C840.505 162.848 840.937 164.192 841.801 165.104C842.689 165.992 843.733 166.436 844.933 166.436ZM858.197 170V152.144H862.301L862.733 155.492C863.381 154.34 864.257 153.428 865.361 152.756C866.489 152.06 867.809 151.712 869.321 151.712V156.572H868.025C867.017 156.572 866.117 156.728 865.325 157.04C864.533 157.352 863.909 157.892 863.453 158.66C863.021 159.428 862.805 160.496 862.805 161.864V170H858.197ZM81.0097 217L75.7897 199.144H80.3617L83.4577 211.996L87.0577 199.144H92.1697L95.7697 211.996L98.9017 199.144H103.474L98.2177 217H93.4297L89.6137 203.644L85.7977 217H81.0097ZM106.381 217V191.08H110.989V201.88C111.589 200.896 112.393 200.128 113.401 199.576C114.433 199 115.609 198.712 116.929 198.712C119.137 198.712 120.841 199.408 122.041 200.8C123.265 202.192 123.877 204.232 123.877 206.92V217H119.305V207.352C119.305 205.816 118.993 204.64 118.369 203.824C117.769 203.008 116.809 202.6 115.489 202.6C114.193 202.6 113.113 203.056 112.249 203.968C111.409 204.88 110.989 206.152 110.989 207.784V217H106.381ZM136.959 217.432C135.159 217.432 133.563 217.048 132.171 216.28C130.779 215.512 129.687 214.432 128.895 213.04C128.103 211.648 127.707 210.04 127.707 208.216C127.707 206.368 128.091 204.724 128.859 203.284C129.651 201.844 130.731 200.728 132.099 199.936C133.491 199.12 135.123 198.712 136.995 198.712C138.747 198.712 140.295 199.096 141.639 199.864C142.983 200.632 144.027 201.688 144.771 203.032C145.539 204.352 145.923 205.828 145.923 207.46C145.923 207.724 145.911 208 145.887 208.288C145.887 208.576 145.875 208.876 145.851 209.188H132.279C132.375 210.58 132.855 211.672 133.719 212.464C134.607 213.256 135.675 213.652 136.923 213.652C137.859 213.652 138.639 213.448 139.263 213.04C139.911 212.608 140.391 212.056 140.703 211.384H145.383C145.047 212.512 144.483 213.544 143.691 214.48C142.923 215.392 141.963 216.112 140.811 216.64C139.683 217.168 138.399 217.432 136.959 217.432ZM136.995 202.456C135.867 202.456 134.871 202.78 134.007 203.428C133.143 204.052 132.591 205.012 132.351 206.308H141.243C141.171 205.132 140.739 204.196 139.947 203.5C139.155 202.804 138.171 202.456 136.995 202.456ZM157.439 217C155.567 217 154.067 216.544 152.939 215.632C151.811 214.72 151.247 213.1 151.247 210.772V202.996H148.187V199.144H151.247L151.787 194.356H155.855V199.144H160.679V202.996H155.855V210.808C155.855 211.672 156.035 212.272 156.395 212.608C156.779 212.92 157.427 213.076 158.339 213.076H160.571V217H157.439ZM164.635 217V191.08H169.243V201.88C169.843 200.896 170.647 200.128 171.655 199.576C172.687 199 173.863 198.712 175.183 198.712C177.391 198.712 179.095 199.408 180.295 200.8C181.519 202.192 182.131 204.232 182.131 206.92V217H177.559V207.352C177.559 205.816 177.247 204.64 176.623 203.824C176.023 203.008 175.063 202.6 173.743 202.6C172.447 202.6 171.367 203.056 170.503 203.968C169.663 204.88 169.243 206.152 169.243 207.784V217H164.635ZM195.213 217.432C193.413 217.432 191.817 217.048 190.425 216.28C189.033 215.512 187.941 214.432 187.149 213.04C186.357 211.648 185.961 210.04 185.961 208.216C185.961 206.368 186.345 204.724 187.113 203.284C187.905 201.844 188.985 200.728 190.353 199.936C191.745 199.12 193.377 198.712 195.249 198.712C197.001 198.712 198.549 199.096 199.893 199.864C201.237 200.632 202.281 201.688 203.025 203.032C203.793 204.352 204.177 205.828 204.177 207.46C204.177 207.724 204.165 208 204.141 208.288C204.141 208.576 204.129 208.876 204.105 209.188H190.533C190.629 210.58 191.109 211.672 191.973 212.464C192.861 213.256 193.929 213.652 195.177 213.652C196.113 213.652 196.893 213.448 197.517 213.04C198.165 212.608 198.645 212.056 198.957 211.384H203.637C203.301 212.512 202.737 213.544 201.945 214.48C201.177 215.392 200.217 216.112 199.065 216.64C197.937 217.168 196.653 217.432 195.213 217.432ZM195.249 202.456C194.121 202.456 193.125 202.78 192.261 203.428C191.397 204.052 190.845 205.012 190.605 206.308H199.497C199.425 205.132 198.993 204.196 198.201 203.5C197.409 202.804 196.425 202.456 195.249 202.456ZM208.053 217V199.144H212.157L212.589 202.492C213.237 201.34 214.113 200.428 215.217 199.756C216.345 199.06 217.665 198.712 219.177 198.712V203.572H217.881C216.873 203.572 215.973 203.728 215.181 204.04C214.389 204.352 213.765 204.892 213.309 205.66C212.877 206.428 212.661 207.496 212.661 208.864V217H208.053ZM233.136 224.92L237.276 215.812H236.196L229.248 199.144H234.252L239.256 211.708L244.476 199.144H249.372L238.032 224.92H233.136ZM259.406 217.432C257.678 217.432 256.118 217.036 254.726 216.244C253.358 215.452 252.266 214.36 251.45 212.968C250.658 211.552 250.262 209.92 250.262 208.072C250.262 206.224 250.67 204.604 251.486 203.212C252.302 201.796 253.394 200.692 254.762 199.9C256.154 199.108 257.714 198.712 259.442 198.712C261.146 198.712 262.682 199.108 264.05 199.9C265.442 200.692 266.534 201.796 267.326 203.212C268.142 204.604 268.55 206.224 268.55 208.072C268.55 209.92 268.142 211.552 267.326 212.968C266.534 214.36 265.442 215.452 264.05 216.244C262.658 217.036 261.11 217.432 259.406 217.432ZM259.406 213.436C260.606 213.436 261.65 212.992 262.538 212.104C263.426 211.192 263.87 209.848 263.87 208.072C263.87 206.296 263.426 204.964 262.538 204.076C261.65 203.164 260.618 202.708 259.442 202.708C258.218 202.708 257.162 203.164 256.274 204.076C255.41 204.964 254.978 206.296 254.978 208.072C254.978 209.848 255.41 211.192 256.274 212.104C257.162 212.992 258.206 213.436 259.406 213.436ZM279.366 217.432C277.134 217.432 275.406 216.736 274.182 215.344C272.982 213.952 272.382 211.912 272.382 209.224V199.144H276.954V208.792C276.954 210.328 277.266 211.504 277.89 212.32C278.514 213.136 279.498 213.544 280.842 213.544C282.114 213.544 283.158 213.088 283.974 212.176C284.814 211.264 285.234 209.992 285.234 208.36V199.144H289.842V217H285.774L285.414 213.976C284.862 215.032 284.058 215.872 283.002 216.496C281.97 217.12 280.758 217.432 279.366 217.432ZM306.643 217L301.423 199.144H305.995L309.091 211.996L312.691 199.144H317.803L321.403 211.996L324.535 199.144H329.107L323.851 217H319.063L315.247 203.644L311.431 217H306.643ZM334.498 196.372C333.658 196.372 332.962 196.12 332.41 195.616C331.882 195.112 331.618 194.476 331.618 193.708C331.618 192.94 331.882 192.316 332.41 191.836C332.962 191.332 333.658 191.08 334.498 191.08C335.338 191.08 336.022 191.332 336.55 191.836C337.102 192.316 337.378 192.94 337.378 193.708C337.378 194.476 337.102 195.112 336.55 195.616C336.022 196.12 335.338 196.372 334.498 196.372ZM332.194 217V199.144H336.802V217H332.194ZM341.611 217V191.08H346.219V217H341.611ZM350.928 217V191.08H355.536V217H350.928ZM368.822 217V191.08H373.43V201.88C374.03 200.896 374.834 200.128 375.842 199.576C376.874 199 378.05 198.712 379.37 198.712C381.578 198.712 383.282 199.408 384.482 200.8C385.706 202.192 386.318 204.232 386.318 206.92V217H381.746V207.352C381.746 205.816 381.434 204.64 380.81 203.824C380.21 203.008 379.25 202.6 377.93 202.6C376.634 202.6 375.554 203.056 374.69 203.968C373.85 204.88 373.43 206.152 373.43 207.784V217H368.822ZM396.881 217.432C395.345 217.432 394.085 217.192 393.101 216.712C392.117 216.208 391.385 215.548 390.905 214.732C390.425 213.916 390.185 213.016 390.185 212.032C390.185 210.376 390.833 209.032 392.129 208C393.425 206.968 395.369 206.452 397.961 206.452H402.497V206.02C402.497 204.796 402.149 203.896 401.453 203.32C400.757 202.744 399.893 202.456 398.861 202.456C397.925 202.456 397.109 202.684 396.413 203.14C395.717 203.572 395.285 204.22 395.117 205.084H390.617C390.737 203.788 391.169 202.66 391.913 201.7C392.681 200.74 393.665 200.008 394.865 199.504C396.065 198.976 397.409 198.712 398.897 198.712C401.441 198.712 403.445 199.348 404.909 200.62C406.373 201.892 407.105 203.692 407.105 206.02V217H403.181L402.749 214.12C402.221 215.08 401.477 215.872 400.517 216.496C399.581 217.12 398.369 217.432 396.881 217.432ZM397.925 213.832C399.245 213.832 400.265 213.4 400.985 212.536C401.729 211.672 402.197 210.604 402.389 209.332H398.465C397.241 209.332 396.365 209.56 395.837 210.016C395.309 210.448 395.045 210.988 395.045 211.636C395.045 212.332 395.309 212.872 395.837 213.256C396.365 213.64 397.061 213.832 397.925 213.832ZM415.799 217L409.247 199.144H414.071L418.607 212.644L423.143 199.144H427.967L421.379 217H415.799ZM438.67 217.432C436.87 217.432 435.274 217.048 433.882 216.28C432.49 215.512 431.398 214.432 430.606 213.04C429.814 211.648 429.418 210.04 429.418 208.216C429.418 206.368 429.802 204.724 430.57 203.284C431.362 201.844 432.442 200.728 433.81 199.936C435.202 199.12 436.834 198.712 438.706 198.712C440.458 198.712 442.006 199.096 443.35 199.864C444.694 200.632 445.738 201.688 446.482 203.032C447.25 204.352 447.634 205.828 447.634 207.46C447.634 207.724 447.622 208 447.598 208.288C447.598 208.576 447.586 208.876 447.562 209.188H433.99C434.086 210.58 434.566 211.672 435.43 212.464C436.318 213.256 437.386 213.652 438.634 213.652C439.57 213.652 440.35 213.448 440.974 213.04C441.622 212.608 442.102 212.056 442.414 211.384H447.094C446.758 212.512 446.194 213.544 445.402 214.48C444.634 215.392 443.674 216.112 442.522 216.64C441.394 217.168 440.11 217.432 438.67 217.432ZM438.706 202.456C437.578 202.456 436.582 202.78 435.718 203.428C434.854 204.052 434.302 205.012 434.062 206.308H442.954C442.882 205.132 442.45 204.196 441.658 203.5C440.866 202.804 439.882 202.456 438.706 202.456ZM468.044 217C466.172 217 464.672 216.544 463.544 215.632C462.416 214.72 461.852 213.1 461.852 210.772V202.996H458.792V199.144H461.852L462.392 194.356H466.46V199.144H471.284V202.996H466.46V210.808C466.46 211.672 466.64 212.272 467 212.608C467.384 212.92 468.032 213.076 468.944 213.076H471.176V217H468.044ZM483.351 217.432C481.623 217.432 480.063 217.036 478.671 216.244C477.303 215.452 476.211 214.36 475.395 212.968C474.603 211.552 474.207 209.92 474.207 208.072C474.207 206.224 474.615 204.604 475.431 203.212C476.247 201.796 477.339 200.692 478.707 199.9C480.099 199.108 481.659 198.712 483.387 198.712C485.091 198.712 486.627 199.108 487.995 199.9C489.387 200.692 490.479 201.796 491.271 203.212C492.087 204.604 492.495 206.224 492.495 208.072C492.495 209.92 492.087 211.552 491.271 212.968C490.479 214.36 489.387 215.452 487.995 216.244C486.603 217.036 485.055 217.432 483.351 217.432ZM483.351 213.436C484.551 213.436 485.595 212.992 486.483 212.104C487.371 211.192 487.815 209.848 487.815 208.072C487.815 206.296 487.371 204.964 486.483 204.076C485.595 203.164 484.563 202.708 483.387 202.708C482.163 202.708 481.107 203.164 480.219 204.076C479.355 204.964 478.923 206.296 478.923 208.072C478.923 209.848 479.355 211.192 480.219 212.104C481.107 212.992 482.151 213.436 483.351 213.436ZM513.942 217.432C512.118 217.432 510.51 217.036 509.118 216.244C507.726 215.452 506.622 214.348 505.806 212.932C505.014 211.516 504.618 209.896 504.618 208.072C504.618 206.248 505.014 204.628 505.806 203.212C506.622 201.796 507.726 200.692 509.118 199.9C510.51 199.108 512.118 198.712 513.942 198.712C516.222 198.712 518.142 199.312 519.702 200.512C521.262 201.688 522.258 203.32 522.69 205.408H517.83C517.59 204.544 517.11 203.872 516.39 203.392C515.694 202.888 514.866 202.636 513.906 202.636C512.634 202.636 511.554 203.116 510.666 204.076C509.778 205.036 509.334 206.368 509.334 208.072C509.334 209.776 509.778 211.108 510.666 212.068C511.554 213.028 512.634 213.508 513.906 213.508C514.866 213.508 515.694 213.268 516.39 212.788C517.11 212.308 517.59 211.624 517.83 210.736H522.69C522.258 212.752 521.262 214.372 519.702 215.596C518.142 216.82 516.222 217.432 513.942 217.432ZM526.779 217V191.08H531.387V201.88C531.987 200.896 532.791 200.128 533.799 199.576C534.831 199 536.007 198.712 537.327 198.712C539.535 198.712 541.239 199.408 542.439 200.8C543.663 202.192 544.275 204.232 544.275 206.92V217H539.703V207.352C539.703 205.816 539.391 204.64 538.767 203.824C538.167 203.008 537.207 202.6 535.887 202.6C534.591 202.6 533.511 203.056 532.647 203.968C531.807 204.88 531.387 206.152 531.387 207.784V217H526.779ZM554.838 217.432C553.302 217.432 552.042 217.192 551.058 216.712C550.074 216.208 549.342 215.548 548.862 214.732C548.382 213.916 548.142 213.016 548.142 212.032C548.142 210.376 548.79 209.032 550.086 208C551.382 206.968 553.326 206.452 555.918 206.452H560.454V206.02C560.454 204.796 560.106 203.896 559.41 203.32C558.714 202.744 557.85 202.456 556.818 202.456C555.882 202.456 555.066 202.684 554.37 203.14C553.674 203.572 553.242 204.22 553.074 205.084H548.574C548.694 203.788 549.126 202.66 549.87 201.7C550.638 200.74 551.622 200.008 552.822 199.504C554.022 198.976 555.366 198.712 556.854 198.712C559.398 198.712 561.402 199.348 562.866 200.62C564.33 201.892 565.062 203.692 565.062 206.02V217H561.138L560.706 214.12C560.178 215.08 559.434 215.872 558.474 216.496C557.538 217.12 556.326 217.432 554.838 217.432ZM555.882 213.832C557.202 213.832 558.222 213.4 558.942 212.536C559.686 211.672 560.154 210.604 560.346 209.332H556.422C555.198 209.332 554.322 209.56 553.794 210.016C553.266 210.448 553.002 210.988 553.002 211.636C553.002 212.332 553.266 212.872 553.794 213.256C554.322 213.64 555.018 213.832 555.882 213.832ZM569.459 217V199.144H573.527L573.887 202.168C574.439 201.112 575.231 200.272 576.263 199.648C577.319 199.024 578.555 198.712 579.971 198.712C582.179 198.712 583.895 199.408 585.119 200.8C586.343 202.192 586.955 204.232 586.955 206.92V217H582.347V207.352C582.347 205.816 582.035 204.64 581.411 203.824C580.787 203.008 579.815 202.6 578.495 202.6C577.199 202.6 576.131 203.056 575.291 203.968C574.475 204.88 574.067 206.152 574.067 207.784V217H569.459ZM598.921 211.672C598.057 211.672 597.253 211.576 596.509 211.384L595.177 212.716C595.585 212.932 596.137 213.112 596.833 213.256C597.529 213.4 598.657 213.544 600.217 213.688C602.593 213.904 604.321 214.468 605.401 215.38C606.481 216.292 607.021 217.552 607.021 219.16C607.021 220.216 606.733 221.212 606.157 222.148C605.581 223.108 604.693 223.876 603.493 224.452C602.293 225.052 600.757 225.352 598.885 225.352C596.341 225.352 594.289 224.872 592.729 223.912C591.169 222.976 590.389 221.56 590.389 219.664C590.389 218.056 591.169 216.664 592.729 215.488C592.249 215.272 591.829 215.044 591.469 214.804C591.133 214.564 590.833 214.312 590.569 214.048V213.22L593.701 209.908C592.309 208.684 591.613 207.112 591.613 205.192C591.613 203.992 591.901 202.9 592.477 201.916C593.077 200.932 593.917 200.152 594.997 199.576C596.077 199 597.385 198.712 598.921 198.712C599.929 198.712 600.865 198.856 601.729 199.144H608.497V201.952L605.437 202.168C605.917 203.08 606.157 204.088 606.157 205.192C606.157 206.392 605.869 207.484 605.293 208.468C604.717 209.452 603.877 210.232 602.773 210.808C601.693 211.384 600.409 211.672 598.921 211.672ZM598.921 208.144C599.857 208.144 600.625 207.892 601.225 207.388C601.849 206.884 602.161 206.164 602.161 205.228C602.161 204.292 601.849 203.572 601.225 203.068C600.625 202.564 599.857 202.312 598.921 202.312C597.937 202.312 597.145 202.564 596.545 203.068C595.945 203.572 595.645 204.292 595.645 205.228C595.645 206.164 595.945 206.884 596.545 207.388C597.145 207.892 597.937 208.144 598.921 208.144ZM594.601 219.196C594.601 220.084 595.009 220.744 595.825 221.176C596.665 221.632 597.685 221.86 598.885 221.86C600.037 221.86 600.973 221.62 601.693 221.14C602.413 220.684 602.773 220.06 602.773 219.268C602.773 218.62 602.533 218.08 602.053 217.648C601.597 217.216 600.673 216.952 599.281 216.856C598.297 216.784 597.385 216.676 596.545 216.532C595.849 216.916 595.345 217.336 595.033 217.792C594.745 218.248 594.601 218.716 594.601 219.196ZM619.83 217.432C618.03 217.432 616.434 217.048 615.042 216.28C613.65 215.512 612.558 214.432 611.766 213.04C610.974 211.648 610.578 210.04 610.578 208.216C610.578 206.368 610.962 204.724 611.73 203.284C612.522 201.844 613.602 200.728 614.97 199.936C616.362 199.12 617.994 198.712 619.866 198.712C621.618 198.712 623.166 199.096 624.51 199.864C625.854 200.632 626.898 201.688 627.642 203.032C628.41 204.352 628.794 205.828 628.794 207.46C628.794 207.724 628.782 208 628.758 208.288C628.758 208.576 628.746 208.876 628.722 209.188H615.15C615.246 210.58 615.726 211.672 616.59 212.464C617.478 213.256 618.546 213.652 619.794 213.652C620.73 213.652 621.51 213.448 622.134 213.04C622.782 212.608 623.262 212.056 623.574 211.384H628.254C627.918 212.512 627.354 213.544 626.562 214.48C625.794 215.392 624.834 216.112 623.682 216.64C622.554 217.168 621.27 217.432 619.83 217.432ZM619.866 202.456C618.738 202.456 617.742 202.78 616.878 203.428C616.014 204.052 615.462 205.012 615.222 206.308H624.114C624.042 205.132 623.61 204.196 622.818 203.5C622.026 202.804 621.042 202.456 619.866 202.456ZM643.48 224.92L647.62 215.812H646.54L639.592 199.144H644.596L649.6 211.708L654.82 199.144H659.716L648.376 224.92H643.48ZM669.75 217.432C668.022 217.432 666.462 217.036 665.07 216.244C663.702 215.452 662.61 214.36 661.794 212.968C661.002 211.552 660.606 209.92 660.606 208.072C660.606 206.224 661.014 204.604 661.83 203.212C662.646 201.796 663.738 200.692 665.106 199.9C666.498 199.108 668.058 198.712 669.786 198.712C671.49 198.712 673.026 199.108 674.394 199.9C675.786 200.692 676.878 201.796 677.67 203.212C678.486 204.604 678.894 206.224 678.894 208.072C678.894 209.92 678.486 211.552 677.67 212.968C676.878 214.36 675.786 215.452 674.394 216.244C673.002 217.036 671.454 217.432 669.75 217.432ZM669.75 213.436C670.95 213.436 671.994 212.992 672.882 212.104C673.77 211.192 674.214 209.848 674.214 208.072C674.214 206.296 673.77 204.964 672.882 204.076C671.994 203.164 670.962 202.708 669.786 202.708C668.562 202.708 667.506 203.164 666.618 204.076C665.754 204.964 665.322 206.296 665.322 208.072C665.322 209.848 665.754 211.192 666.618 212.104C667.506 212.992 668.55 213.436 669.75 213.436ZM689.71 217.432C687.478 217.432 685.75 216.736 684.526 215.344C683.326 213.952 682.726 211.912 682.726 209.224V199.144H687.298V208.792C687.298 210.328 687.61 211.504 688.234 212.32C688.858 213.136 689.842 213.544 691.186 213.544C692.458 213.544 693.502 213.088 694.318 212.176C695.158 211.264 695.578 209.992 695.578 208.36V199.144H700.186V217H696.118L695.758 213.976C695.206 215.032 694.402 215.872 693.346 216.496C692.314 217.12 691.102 217.432 689.71 217.432ZM704.916 217V199.144H709.02L709.452 202.492C710.1 201.34 710.976 200.428 712.08 199.756C713.208 199.06 714.528 198.712 716.04 198.712V203.572H714.744C713.736 203.572 712.836 203.728 712.044 204.04C711.252 204.352 710.628 204.892 710.172 205.66C709.74 206.428 709.524 207.496 709.524 208.864V217H704.916ZM727.768 224.92V199.144H731.872L732.376 201.7C732.952 200.908 733.708 200.212 734.644 199.612C735.604 199.012 736.84 198.712 738.352 198.712C740.032 198.712 741.532 199.12 742.852 199.936C744.172 200.752 745.216 201.868 745.984 203.284C746.752 204.7 747.136 206.308 747.136 208.108C747.136 209.908 746.752 211.516 745.984 212.932C745.216 214.324 744.172 215.428 742.852 216.244C741.532 217.036 740.032 217.432 738.352 217.432C737.008 217.432 735.832 217.18 734.824 216.676C733.816 216.172 733 215.464 732.376 214.552V224.92H727.768ZM737.38 213.4C738.844 213.4 740.056 212.908 741.016 211.924C741.976 210.94 742.456 209.668 742.456 208.108C742.456 206.548 741.976 205.264 741.016 204.256C740.056 203.248 738.844 202.744 737.38 202.744C735.892 202.744 734.668 203.248 733.708 204.256C732.772 205.24 732.304 206.512 732.304 208.072C732.304 209.632 732.772 210.916 733.708 211.924C734.668 212.908 735.892 213.4 737.38 213.4ZM751.252 217V191.08H755.86V217H751.252ZM766.725 217.432C765.189 217.432 763.929 217.192 762.945 216.712C761.961 216.208 761.229 215.548 760.749 214.732C760.269 213.916 760.029 213.016 760.029 212.032C760.029 210.376 760.677 209.032 761.973 208C763.269 206.968 765.213 206.452 767.805 206.452H772.341V206.02C772.341 204.796 771.993 203.896 771.297 203.32C770.601 202.744 769.737 202.456 768.705 202.456C767.769 202.456 766.953 202.684 766.257 203.14C765.561 203.572 765.129 204.22 764.961 205.084H760.461C760.581 203.788 761.013 202.66 761.757 201.7C762.525 200.74 763.509 200.008 764.709 199.504C765.909 198.976 767.253 198.712 768.741 198.712C771.285 198.712 773.289 199.348 774.753 200.62C776.217 201.892 776.949 203.692 776.949 206.02V217H773.025L772.593 214.12C772.065 215.08 771.321 215.872 770.361 216.496C769.425 217.12 768.213 217.432 766.725 217.432ZM767.769 213.832C769.089 213.832 770.109 213.4 770.829 212.536C771.573 211.672 772.041 210.604 772.233 209.332H768.309C767.085 209.332 766.209 209.56 765.681 210.016C765.153 210.448 764.889 210.988 764.889 211.636C764.889 212.332 765.153 212.872 765.681 213.256C766.209 213.64 766.905 213.832 767.769 213.832ZM781.346 217V199.144H785.414L785.774 202.168C786.326 201.112 787.118 200.272 788.15 199.648C789.206 199.024 790.442 198.712 791.858 198.712C794.066 198.712 795.782 199.408 797.006 200.8C798.23 202.192 798.842 204.232 798.842 206.92V217H794.234V207.352C794.234 205.816 793.922 204.64 793.298 203.824C792.674 203.008 791.702 202.6 790.382 202.6C789.086 202.6 788.018 203.056 787.178 203.968C786.362 204.88 785.954 206.152 785.954 207.784V217H781.346ZM810.628 217.432C809.044 217.432 807.652 217.18 806.452 216.676C805.252 216.148 804.292 215.428 803.572 214.516C802.852 213.604 802.42 212.548 802.276 211.348H806.92C807.064 212.044 807.448 212.644 808.072 213.148C808.72 213.628 809.548 213.868 810.556 213.868C811.564 213.868 812.296 213.664 812.752 213.256C813.232 212.848 813.472 212.38 813.472 211.852C813.472 211.084 813.136 210.568 812.464 210.304C811.792 210.016 810.856 209.74 809.656 209.476C808.888 209.308 808.108 209.104 807.316 208.864C806.524 208.624 805.792 208.324 805.12 207.964C804.472 207.58 803.944 207.1 803.536 206.524C803.128 205.924 802.924 205.192 802.924 204.328C802.924 202.744 803.548 201.412 804.796 200.332C806.068 199.252 807.844 198.712 810.124 198.712C812.236 198.712 813.916 199.204 815.164 200.188C816.436 201.172 817.192 202.528 817.432 204.256H813.076C812.812 202.936 811.816 202.276 810.088 202.276C809.224 202.276 808.552 202.444 808.072 202.78C807.616 203.116 807.388 203.536 807.388 204.04C807.388 204.568 807.736 204.988 808.432 205.3C809.128 205.612 810.052 205.9 811.204 206.164C812.452 206.452 813.592 206.776 814.624 207.136C815.68 207.472 816.52 207.988 817.144 208.684C817.768 209.356 818.08 210.328 818.08 211.6C818.104 212.704 817.816 213.7 817.216 214.588C816.616 215.476 815.752 216.172 814.624 216.676C813.496 217.18 812.164 217.432 810.628 217.432Z" fill="black"/>
</svg>
