<svg width="60" height="60" viewBox="0 0 60 60" fill="none" xmlns="http://www.w3.org/2000/svg">
<rect x="1.561" y="1.561" width="56.878" height="56.878" rx="28.439" stroke="#77ACF1" stroke-width="3.12201"/>
<path d="M15.8191 40.7441C15.1803 41.323 15.1317 42.3102 15.7106 42.949C16.2895 43.5878 17.2767 43.6364 17.9155 43.0575L15.8191 40.7441ZM44.6917 18.1759C44.7341 17.3148 44.0704 16.5825 43.2093 16.5401L29.1773 15.8496C28.3162 15.8072 27.5838 16.4709 27.5414 17.332C27.499 18.1931 28.1627 18.9255 29.0238 18.9678L41.4968 19.5816L40.883 32.0545C40.8406 32.9156 41.5043 33.648 42.3654 33.6904C43.2265 33.7328 43.9589 33.0691 44.0012 32.208L44.6917 18.1759ZM17.9155 43.0575L44.1808 19.2559L42.0844 16.9425L15.8191 40.7441L17.9155 43.0575Z" fill="#77ACF1"/>
</svg>
