<svg width="359" height="144" viewBox="0 0 359 144" fill="none" xmlns="http://www.w3.org/2000/svg">
<rect x="144.5" y="96.5" width="47" height="24" rx="0.5" transform="rotate(90 144.5 96.5)" fill="white" stroke="black"/>
<rect x="143" y="99" width="42" height="21" rx="0.8125" transform="rotate(90 143 99)" fill="#A6CB12"/>
<path d="M2.8557 64.0919H76.1379C76.4073 64.0919 76.6592 64.2253 76.8105 64.4482L87.852 80.7093C88.2185 81.2491 87.8319 81.9791 87.1794 81.9791H12.5044C12.2174 81.9791 11.9517 81.8278 11.8052 81.5809L2.15647 65.3198C1.83488 64.7779 2.22549 64.0919 2.8557 64.0919Z" fill="white" stroke="black" stroke-width="1.62611"/>
<rect x="3.2522" y="21.8131" width="76.4271" height="39.0266" rx="0.813054" fill="white" stroke="black" stroke-width="1.62611"/>
<rect x="7.3175" y="25.8783" width="68.2966" height="30.8961" rx="1.32121" fill="#687EFF"/>
<path d="M4.42378 60.0266H78.7586C79.0442 60.0266 79.3089 60.1765 79.4558 60.4214L89.7002 77.4955C90.0253 78.0374 89.635 78.7269 89.003 78.7269H14.1496C13.8574 78.7269 13.5877 78.5701 13.4431 78.3162L3.71731 61.2421C3.40856 60.7001 3.79999 60.0266 4.42378 60.0266Z" fill="white" stroke="black" stroke-width="1.62611"/>
<path d="M9.77045 63.3064C9.39057 62.5466 9.94304 61.6527 10.7925 61.6527H75.7863C76.1843 61.6527 76.5537 61.8599 76.7613 62.1995L84.3083 74.5492C84.7736 75.3106 84.2256 76.2877 83.3333 76.2877H16.9673C16.5345 76.2877 16.1388 76.0432 15.9453 75.656L9.77045 63.3064Z" fill="black"/>
<rect x="218.853" y="37.6474" width="60.859" height="49.2051" rx="0.647436" transform="rotate(90 218.853 37.6474)" fill="white" stroke="black" stroke-width="1.29487"/>
<rect x="215.615" y="40.8846" width="51.7949" height="42.7308" rx="1.05208" transform="rotate(90 215.615 40.8846)" fill="#687EFF"/>
<circle cx="194.897" cy="95.2692" r="1.29487" fill="black"/>
<rect x="357.2" y="63.8" width="113.2" height="62.8" rx="1.4" transform="rotate(-180 357.2 63.8)" fill="white" stroke="black" stroke-width="2"/>
<rect x="353.4" y="60.0001" width="105.6" height="55.2" rx="1.95" transform="rotate(-180 353.4 60.0001)" fill="#A6CB12"/>
<rect x="292" y="64" width="17" height="14" rx="1.4" fill="white" stroke="black" stroke-width="2"/>
<path d="M111.375 38.375L114.625 33.5L117.875 37.125L120.875 41.125L118.625 45.25L115.125 49.625L111.875 45.625L108.75 41.5L111.375 38.375Z" fill="black"/>
<path fill-rule="evenodd" clip-rule="evenodd" d="M114.938 28.0019C114.921 28.0009 114.904 28.0003 114.887 28.0001C114.334 27.9936 113.882 28.4361 113.875 28.9884C113.856 30.6681 113.458 33.2872 112.345 35.612C111.238 37.9256 109.487 39.8318 106.795 40.3963C106.353 40.489 106.028 40.8665 106.002 41.3175C105.976 41.7685 106.255 42.1808 106.684 42.3237C108.908 43.0651 113.875 46.7134 113.875 55.375C113.875 55.9273 114.323 56.375 114.875 56.375C114.896 56.375 114.917 56.3744 114.938 56.3731C114.958 56.3744 114.979 56.375 115 56.375C115.552 56.375 116 55.9273 116 55.375C116 46.7134 120.967 43.0651 123.191 42.3237C123.62 42.1808 123.899 41.7685 123.873 41.3175C123.847 40.8665 123.522 40.489 123.08 40.3963C120.388 39.8318 118.637 37.9256 117.53 35.612C116.417 33.2872 116.019 30.6681 116 28.9884C115.994 28.4361 115.541 27.9936 114.988 28.0001C114.971 28.0003 114.954 28.0009 114.938 28.0019ZM114.938 34.4973C114.72 35.1606 114.46 35.8264 114.149 36.4755C113.184 38.4921 111.701 40.4142 109.504 41.5434C111.495 42.893 113.714 45.3159 114.938 49.0774C116.161 45.3159 118.38 42.893 120.371 41.5434C118.174 40.4142 116.691 38.4921 115.726 36.4755C115.415 35.8264 115.155 35.1606 114.938 34.4973Z" fill="black"/>
<path d="M269.031 93.375L265.781 88.5L262.531 92.125L259.531 96.125L261.781 100.25L265.281 104.625L268.531 100.625L271.656 96.5L269.031 93.375Z" fill="black"/>
<path fill-rule="evenodd" clip-rule="evenodd" d="M265.469 83.0019C265.486 83.0009 265.503 83.0003 265.52 83.0001C266.072 82.9936 266.525 83.4361 266.531 83.9884C266.551 85.6681 266.949 88.2872 268.061 90.612C269.169 92.9256 270.919 94.8318 273.611 95.3963C274.054 95.489 274.379 95.8665 274.405 96.3175C274.431 96.7685 274.151 97.1808 273.722 97.3237C271.498 98.0651 266.531 101.713 266.531 110.375C266.531 110.927 266.084 111.375 265.531 111.375C265.51 111.375 265.489 111.374 265.469 111.373C265.448 111.374 265.427 111.375 265.406 111.375C264.854 111.375 264.406 110.927 264.406 110.375C264.406 101.713 259.439 98.0651 257.215 97.3237C256.787 97.1808 256.507 96.7685 256.533 96.3175C256.559 95.8665 256.884 95.489 257.326 95.3963C260.018 94.8318 261.769 92.9256 262.876 90.612C263.989 88.2872 264.387 85.6681 264.406 83.9884C264.413 83.4361 264.866 82.9936 265.418 83.0001C265.435 83.0003 265.452 83.0009 265.469 83.0019ZM265.469 89.4973C265.686 90.1606 265.947 90.8264 266.257 91.4755C267.223 93.4921 268.705 95.4142 270.902 96.5434C268.911 97.893 266.692 100.316 265.469 104.077C264.246 100.316 262.026 97.893 260.036 96.5434C262.232 95.4142 263.715 93.4921 264.68 91.4755C264.991 90.8264 265.252 90.1606 265.469 89.4973Z" fill="black"/>
<path d="M32.2864 111.388L30.9119 109.326L29.5375 110.859L28.2687 112.551L29.2203 114.295L30.7004 116.145L32.0749 114.454L33.3965 112.709L32.2864 111.388Z" fill="black"/>
<path fill-rule="evenodd" clip-rule="evenodd" d="M30.7797 107.001C30.7868 107 30.794 107 30.8012 107C31.0348 106.997 31.2263 107.184 31.229 107.418C31.2373 108.128 31.4056 109.236 31.8762 110.219C32.3444 111.198 33.0848 112.004 34.2233 112.242C34.4103 112.282 34.5478 112.441 34.5587 112.632C34.5697 112.823 34.4515 112.997 34.2703 113.058C33.3296 113.371 31.229 114.914 31.229 118.577C31.229 118.811 31.0397 119 30.8061 119C30.7973 119 30.7884 119 30.7797 118.999C30.771 119 30.7622 119 30.7533 119C30.5197 119 30.3304 118.811 30.3304 118.577C30.3304 114.914 28.2298 113.371 27.2891 113.058C27.1079 112.997 26.9897 112.823 27.0007 112.632C27.0117 112.441 27.1491 112.282 27.3361 112.242C28.4746 112.004 29.215 111.198 29.6833 110.219C30.1538 109.236 30.3221 108.128 30.3304 107.418C30.3331 107.184 30.5246 106.997 30.7582 107C30.7654 107 30.7726 107 30.7797 107.001ZM30.7797 109.748C30.8715 110.028 30.9818 110.31 31.1132 110.584C31.5214 111.437 32.1485 112.25 33.0774 112.728C32.2355 113.298 31.297 114.323 30.7797 115.914C30.2624 114.323 29.3239 113.298 28.482 112.728C29.4109 112.25 30.038 111.437 30.4462 110.584C30.5776 110.31 30.6879 110.028 30.7797 109.748Z" fill="black"/>
<path d="M52.5909 118.62L49.5773 114.1L46.5637 117.461L43.7819 121.17L45.8683 124.995L49.1137 129.052L52.1273 125.343L55.025 121.518L52.5909 118.62Z" fill="black"/>
<path fill-rule="evenodd" clip-rule="evenodd" d="M49.2875 109.002C49.3031 109.001 49.3188 109 49.3347 109C49.8467 108.994 50.2667 109.404 50.2726 109.916C50.2908 111.474 50.6598 113.903 51.6916 116.058C52.7183 118.204 54.3417 119.971 56.838 120.495C57.2479 120.581 57.5493 120.931 57.5734 121.349C57.5975 121.767 57.3383 122.149 56.9409 122.282C54.8784 122.969 50.2727 126.352 50.2727 134.384C50.2727 134.896 49.8576 135.311 49.3454 135.311C49.326 135.311 49.3066 135.311 49.2875 135.309C49.2683 135.311 49.249 135.311 49.2295 135.311C48.7174 135.311 48.3022 134.896 48.3022 134.384C48.3022 126.352 43.6965 122.969 41.634 122.282C41.2367 122.149 40.9774 121.767 41.0015 121.349C41.0256 120.931 41.327 120.581 41.737 120.495C44.2333 119.971 45.8566 118.204 46.8834 116.058C47.9151 113.903 48.2842 111.474 48.3023 109.916C48.3082 109.404 48.7282 108.994 49.2403 109C49.2561 109 49.2718 109.001 49.2875 109.002ZM49.2875 115.025C49.4888 115.64 49.7307 116.257 50.0187 116.859C50.9137 118.729 52.2888 120.511 54.3255 121.558C52.4795 122.81 50.4216 125.056 49.2875 128.545C48.1533 125.056 46.0954 122.81 44.2494 121.558C46.2861 120.511 47.6612 118.729 48.5562 116.859C48.8442 116.257 49.0861 115.64 49.2875 115.025Z" fill="black"/>
<path d="M128.031 55.7812L130.469 52.125L132.906 54.8438L135.156 57.8438L133.469 60.9375L130.844 64.2188L128.406 61.2188L126.062 58.125L128.031 55.7812Z" fill="black"/>
<path fill-rule="evenodd" clip-rule="evenodd" d="M130.703 48.0014C130.691 48.0007 130.678 48.0002 130.665 48.0001C130.251 47.9952 129.911 48.3271 129.906 48.7413C129.892 50.0011 129.593 51.9654 128.759 53.709C127.928 55.4442 126.615 56.8739 124.596 57.2972C124.265 57.3667 124.021 57.6499 124.001 57.9881C123.982 58.3263 124.191 58.6356 124.513 58.7428C126.181 59.2988 129.906 62.035 129.906 68.5313C129.906 68.9455 130.242 69.2813 130.656 69.2813C130.672 69.2813 130.688 69.2808 130.703 69.2798C130.719 69.2808 130.734 69.2813 130.75 69.2813C131.164 69.2813 131.5 68.9455 131.5 68.5313C131.5 62.035 135.225 59.2988 136.893 58.7428C137.215 58.6356 137.425 58.3263 137.405 57.9881C137.386 57.6499 137.142 57.3667 136.81 57.2972C134.791 56.8739 133.478 55.4442 132.648 53.709C131.813 51.9654 131.515 50.0011 131.5 48.7413C131.495 48.3271 131.155 47.9952 130.741 48.0001C130.728 48.0002 130.716 48.0007 130.703 48.0014ZM130.703 52.873C130.54 53.3705 130.345 53.8698 130.112 54.3566C129.388 55.8691 128.276 57.3107 126.628 58.1576C128.121 59.1698 129.786 60.9869 130.703 63.8081C131.62 60.9869 133.285 59.1698 134.778 58.1576C133.131 57.3107 132.018 55.8691 131.295 54.3566C131.062 53.8698 130.866 53.3705 130.703 52.873Z" fill="black"/>
<path d="M253.489 119.216L251.542 116.295L249.595 118.467L247.797 120.863L249.145 123.335L251.242 125.956L253.189 123.559L255.062 121.088L253.489 119.216Z" fill="black"/>
<path fill-rule="evenodd" clip-rule="evenodd" d="M251.355 113.001C251.365 113.001 251.375 113 251.385 113C251.716 112.996 251.987 113.261 251.991 113.592C252.003 114.599 252.241 116.168 252.908 117.561C253.571 118.947 254.62 120.089 256.233 120.427C256.498 120.482 256.693 120.709 256.708 120.979C256.724 121.249 256.556 121.496 256.3 121.582C254.967 122.026 251.991 124.212 251.991 129.401C251.991 129.732 251.723 130 251.392 130C251.379 130 251.367 130 251.355 129.999C251.342 130 251.33 130 251.317 130C250.986 130 250.718 129.732 250.718 129.401C250.718 124.212 247.742 122.026 246.41 121.582C246.153 121.496 245.985 121.249 246.001 120.979C246.017 120.709 246.211 120.482 246.476 120.427C248.089 120.089 249.138 118.947 249.801 117.561C250.468 116.168 250.706 114.599 250.718 113.592C250.722 113.261 250.993 112.996 251.324 113C251.334 113 251.345 113.001 251.355 113.001ZM251.355 116.893C251.485 117.29 251.641 117.689 251.827 118.078C252.405 119.286 253.294 120.438 254.61 121.114C253.417 121.923 252.087 123.374 251.355 125.628C250.622 123.374 249.292 121.923 248.1 121.114C249.415 120.438 250.304 119.286 250.882 118.078C251.068 117.689 251.225 117.29 251.355 116.893Z" fill="black"/>
</svg>
