<svg width="518" height="400" viewBox="0 0 518 400" fill="none" xmlns="http://www.w3.org/2000/svg">
<path d="M150.227 252C144.681 207.344 136.318 165.735 130 140C139 144.343 144.409 157.2 150.227 252ZM150.227 252C156.235 300.371 158.938 352.318 152.157 391.54C151.796 393.628 154.567 394.966 155.92 393.335C193.192 348.382 267.725 275.264 360 220.881M360 220.881C407.079 193.134 458.777 170.264 512.5 158.5C491 148.843 454.8 159.186 360 220.881Z" stroke="black" stroke-width="10" stroke-linecap="round" stroke-linejoin="round"/>
<path d="M25.2274 252C19.6812 207.344 11.3183 165.735 5 140C14 144.343 19.4093 157.2 25.2274 252ZM25.2274 252C31.235 300.371 33.9376 352.318 27.1567 391.54C26.7957 393.628 29.5673 394.966 30.9199 393.335C68.1915 348.382 142.725 275.264 235 220.881M235 220.881C282.079 193.134 333.777 170.264 387.5 158.5C366 148.843 329.8 159.186 235 220.881Z" stroke="black" stroke-width="10" stroke-linecap="round" stroke-linejoin="round"/>
<path d="M402.5 41.5L415.5 22L428.5 36.5L440.5 52.5L431.5 69L417.5 86.5L404.5 70.5L392 54L402.5 41.5Z" fill="black"/>
<path fill-rule="evenodd" clip-rule="evenodd" d="M416.75 0.00773285C416.683 0.00356911 416.615 0.00106989 416.547 0.000276071C414.338 -0.0254097 412.526 1.74451 412.5 3.9535C412.422 10.6725 410.83 21.1488 406.38 30.4482C401.95 39.7024 394.948 47.3272 384.179 49.5851C382.411 49.9559 381.111 51.4662 381.007 53.27C380.903 55.0738 382.021 56.7234 383.735 57.2947C392.632 60.2604 412.5 74.8535 412.5 109.5C412.5 111.709 414.291 113.5 416.5 113.5C416.584 113.5 416.667 113.497 416.75 113.492C416.833 113.497 416.916 113.5 417 113.5C419.209 113.5 421 111.709 421 109.5C421 74.8535 440.868 60.2604 449.765 57.2947C451.479 56.7234 452.597 55.0738 452.493 53.27C452.39 51.4662 451.089 49.9559 449.321 49.5851C438.552 47.3272 431.55 39.7024 427.121 30.4482C422.67 21.1488 421.078 10.6725 421 3.9535C420.974 1.74451 419.163 -0.0254097 416.954 0.000276071C416.885 0.00106989 416.817 0.00356911 416.75 0.00773285ZM416.75 25.9893C415.882 28.6425 414.838 31.3056 413.596 33.9018C409.735 41.9683 403.803 49.657 395.017 54.1738C402.981 59.5722 411.858 69.2635 416.75 84.3098C421.643 69.2635 430.52 59.5722 438.483 54.1738C429.697 49.657 423.765 41.9683 419.905 33.9018C418.662 31.3056 417.618 28.6425 416.75 25.9893Z" fill="black"/>
<path d="M462.25 95.5595L471 83.3095L475.25 93.0595L485 99.3095L476.75 109.31L469.75 118.06L463.25 110.06L457 101.81L462.25 95.5595Z" fill="black"/>
<path d="M469.72 74C469.632 81.6082 466.164 97.5147 453 100.275C458.573 102.133 469.72 110.679 469.72 130" stroke="black" stroke-width="5" stroke-linecap="round" stroke-linejoin="round"/>
<path d="M469.986 74C470.074 81.6082 473.542 97.5147 486.706 100.275C481.133 102.133 469.986 110.679 469.986 130" stroke="black" stroke-width="5" stroke-linecap="round" stroke-linejoin="round"/>
</svg>
