<svg width="168" height="64" viewBox="0 0 168 64" fill="none" xmlns="http://www.w3.org/2000/svg">
<rect width="168" height="64" rx="5" fill="#D9D9D9"/>
<path d="M66.4091 38V26.3636H67.8182V36.75H73.2273V38H66.4091ZM78.7727 38.1818C77.9848 38.1818 77.2936 37.9943 76.6989 37.6193C76.108 37.2443 75.6458 36.7197 75.3125 36.0455C74.983 35.3712 74.8182 34.5833 74.8182 33.6818C74.8182 32.7727 74.983 31.9792 75.3125 31.3011C75.6458 30.6231 76.108 30.0966 76.6989 29.7216C77.2936 29.3466 77.9848 29.1591 78.7727 29.1591C79.5606 29.1591 80.25 29.3466 80.8409 29.7216C81.4356 30.0966 81.8977 30.6231 82.2273 31.3011C82.5606 31.9792 82.7273 32.7727 82.7273 33.6818C82.7273 34.5833 82.5606 35.3712 82.2273 36.0455C81.8977 36.7197 81.4356 37.2443 80.8409 37.6193C80.25 37.9943 79.5606 38.1818 78.7727 38.1818ZM78.7727 36.9773C79.3712 36.9773 79.8636 36.8239 80.25 36.517C80.6364 36.2102 80.9223 35.8068 81.108 35.3068C81.2936 34.8068 81.3864 34.2652 81.3864 33.6818C81.3864 33.0985 81.2936 32.5549 81.108 32.0511C80.9223 31.5473 80.6364 31.1402 80.25 30.8295C79.8636 30.5189 79.3712 30.3636 78.7727 30.3636C78.1742 30.3636 77.6818 30.5189 77.2955 30.8295C76.9091 31.1402 76.6231 31.5473 76.4375 32.0511C76.2519 32.5549 76.1591 33.0985 76.1591 33.6818C76.1591 34.2652 76.2519 34.8068 76.4375 35.3068C76.6231 35.8068 76.9091 36.2102 77.2955 36.517C77.6818 36.8239 78.1742 36.9773 78.7727 36.9773ZM88.2969 41.4545C87.6491 41.4545 87.0923 41.3712 86.6264 41.2045C86.1605 41.0417 85.7723 40.8258 85.4616 40.5568C85.1548 40.2917 84.9105 40.0076 84.7287 39.7045L85.7969 38.9545C85.9181 39.1136 86.0715 39.2955 86.2571 39.5C86.4427 39.7083 86.6965 39.8883 87.0185 40.0398C87.3442 40.1951 87.7704 40.2727 88.2969 40.2727C89.0014 40.2727 89.5829 40.1023 90.0412 39.7614C90.4995 39.4205 90.7287 38.8864 90.7287 38.1591V36.3864H90.6151C90.5166 36.5455 90.3764 36.7424 90.1946 36.9773C90.0166 37.2083 89.759 37.4148 89.4219 37.5966C89.0885 37.7746 88.6378 37.8636 88.0696 37.8636C87.3651 37.8636 86.7325 37.697 86.1719 37.3636C85.6151 37.0303 85.1738 36.5455 84.848 35.9091C84.526 35.2727 84.3651 34.5 84.3651 33.5909C84.3651 32.697 84.5223 31.9186 84.8366 31.2557C85.151 30.589 85.5885 30.0739 86.1491 29.7102C86.7098 29.3428 87.3575 29.1591 88.0923 29.1591C88.6605 29.1591 89.1113 29.2538 89.4446 29.4432C89.7817 29.6288 90.0393 29.8409 90.2173 30.0795C90.3991 30.3144 90.5393 30.5076 90.6378 30.6591H90.7741V29.2727H92.0696V38.25C92.0696 39 91.8991 39.6098 91.5582 40.0795C91.2211 40.553 90.7666 40.8996 90.1946 41.1193C89.6264 41.3428 88.9938 41.4545 88.2969 41.4545ZM88.2514 36.6591C88.7893 36.6591 89.2438 36.536 89.6151 36.2898C89.9863 36.0436 90.2685 35.6894 90.4616 35.2273C90.6548 34.7652 90.7514 34.2121 90.7514 33.5682C90.7514 32.9394 90.6567 32.3845 90.4673 31.9034C90.2779 31.4223 89.9976 31.0455 89.6264 30.7727C89.2552 30.5 88.7969 30.3636 88.2514 30.3636C87.6832 30.3636 87.2098 30.5076 86.831 30.7955C86.456 31.0833 86.1738 31.4697 85.9844 31.9545C85.7988 32.4394 85.706 32.9773 85.706 33.5682C85.706 34.1742 85.8007 34.7102 85.9901 35.1761C86.1832 35.6383 86.4673 36.0019 86.8423 36.267C87.2211 36.5284 87.6908 36.6591 88.2514 36.6591ZM98.0696 38.1818C97.2817 38.1818 96.5904 37.9943 95.9957 37.6193C95.4048 37.2443 94.9427 36.7197 94.6094 36.0455C94.2798 35.3712 94.1151 34.5833 94.1151 33.6818C94.1151 32.7727 94.2798 31.9792 94.6094 31.3011C94.9427 30.6231 95.4048 30.0966 95.9957 29.7216C96.5904 29.3466 97.2817 29.1591 98.0696 29.1591C98.8575 29.1591 99.5469 29.3466 100.138 29.7216C100.732 30.0966 101.195 30.6231 101.524 31.3011C101.857 31.9792 102.024 32.7727 102.024 33.6818C102.024 34.5833 101.857 35.3712 101.524 36.0455C101.195 36.7197 100.732 37.2443 100.138 37.6193C99.5469 37.9943 98.8575 38.1818 98.0696 38.1818ZM98.0696 36.9773C98.6681 36.9773 99.1605 36.8239 99.5469 36.517C99.9332 36.2102 100.219 35.8068 100.405 35.3068C100.59 34.8068 100.683 34.2652 100.683 33.6818C100.683 33.0985 100.59 32.5549 100.405 32.0511C100.219 31.5473 99.9332 31.1402 99.5469 30.8295C99.1605 30.5189 98.6681 30.3636 98.0696 30.3636C97.4711 30.3636 96.9787 30.5189 96.5923 30.8295C96.206 31.1402 95.92 31.5473 95.7344 32.0511C95.5488 32.5549 95.456 33.0985 95.456 33.6818C95.456 34.2652 95.5488 34.8068 95.7344 35.3068C95.92 35.8068 96.206 36.2102 96.5923 36.517C96.9787 36.8239 97.4711 36.9773 98.0696 36.9773Z" fill="#8C8C8C"/>
</svg>
