<svg width="56" height="43" viewBox="0 0 56 43" fill="none" xmlns="http://www.w3.org/2000/svg">
<g id="logowhite">
<path id="Vector 1" d="M16.317 26.5781C15.732 21.8683 14.85 17.4799 14.1836 14.7656C15.1328 15.2237 15.7033 16.5797 16.317 26.5781ZM16.317 26.5781C16.9506 31.6798 17.2356 37.1585 16.5204 41.2952C16.4824 41.5155 16.7747 41.6566 16.9173 41.4845C20.8483 36.7434 28.7093 29.0318 38.4414 23.296M38.4414 23.296C43.4068 20.3696 48.8593 17.9575 54.5254 16.7168C52.2578 15.6983 48.4398 16.7891 38.4414 23.296Z" stroke="white" stroke-width="1.05469" stroke-linecap="round" stroke-linejoin="round"/>
<path id="Vector 2" d="M3.13336 26.5781C2.54841 21.8683 1.66638 17.4799 1 14.7656C1.94922 15.2237 2.51973 16.5797 3.13336 26.5781ZM3.13336 26.5781C3.76697 31.6798 4.05201 37.1585 3.33684 41.2952C3.29876 41.5155 3.59108 41.6566 3.73374 41.4845C7.66473 36.7434 15.5257 29.0318 25.2578 23.296M25.2578 23.296C30.2232 20.3696 35.6757 17.9575 41.3418 16.7168C39.0742 15.6983 35.2563 16.7891 25.2578 23.296Z" stroke="white" stroke-width="1.05469" stroke-linecap="round" stroke-linejoin="round"/>
<g id="Group 6">
<path id="Rectangle 32" d="M42.9238 4.37695L44.2949 2.32031L45.666 3.84961L46.9316 5.53711L45.9824 7.27734L44.5059 9.12305L43.1348 7.43555L41.8164 5.69531L42.9238 4.37695Z" fill="white"/>
<path id="Union" fill-rule="evenodd" clip-rule="evenodd" d="M44.4268 0.000815556C44.4197 0.00037642 44.4125 0.000112834 44.4053 2.91172e-05C44.1723 -0.00267994 43.9813 0.183991 43.9785 0.41697C43.9703 1.12562 43.8024 2.23053 43.333 3.21133C42.8659 4.18736 42.1273 4.99154 40.9916 5.22968C40.805 5.26879 40.6679 5.42807 40.657 5.61832C40.646 5.80857 40.7639 5.98254 40.9447 6.0428C41.8831 6.35559 43.9785 7.89471 43.9785 11.5488C43.9785 11.7818 44.1674 11.9707 44.4004 11.9707C44.4093 11.9707 44.418 11.9704 44.4268 11.9699C44.4355 11.9704 44.4443 11.9707 44.4531 11.9707C44.6861 11.9707 44.875 11.7818 44.875 11.5488C44.875 7.89471 46.9705 6.35559 47.9088 6.0428C48.0896 5.98254 48.2075 5.80857 48.1966 5.61832C48.1856 5.42807 48.0485 5.26879 47.862 5.22968C46.7262 4.99154 45.9877 4.18736 45.5205 3.21133C45.0511 2.23053 44.8832 1.12562 44.875 0.41697C44.8723 0.183991 44.6812 -0.00267994 44.4482 2.91172e-05C44.441 0.000112834 44.4339 0.00037642 44.4268 0.000815556ZM44.4268 2.74105C44.3352 3.02089 44.2251 3.30176 44.0941 3.57559C43.6869 4.42635 43.0613 5.23726 42.1346 5.71364C42.9745 6.28301 43.9108 7.30513 44.4268 8.89205C44.9428 7.30513 45.879 6.28301 46.7189 5.71364C45.7923 5.23726 45.1666 4.42635 44.7595 3.57559C44.6284 3.30176 44.5184 3.02089 44.4268 2.74105Z" fill="white"/>
</g>
<g id="Group 5">
<path id="Rectangle 33" d="M49.2256 10.0786L50.1484 8.78656L50.5967 9.81488L51.625 10.4741L50.7549 11.5287L50.0166 12.4516L49.3311 11.6079L48.6719 10.7377L49.2256 10.0786Z" fill="white"/>
<g id="Group 4">
<path id="Vector 3" d="M50.0135 7.80469C50.0041 8.60712 49.6384 10.2848 48.25 10.5759C48.8378 10.7718 50.0135 11.6731 50.0135 13.7109" stroke="white" stroke-width="0.527344" stroke-linecap="round" stroke-linejoin="round"/>
<path id="Vector 4" d="M50.0415 7.80469C50.0508 8.60712 50.4166 10.2848 51.805 10.5759C51.2171 10.7718 50.0415 11.6731 50.0415 13.7109" stroke="white" stroke-width="0.527344" stroke-linecap="round" stroke-linejoin="round"/>
</g>
</g>
</g>
</svg>
