<svg width="11" height="17" viewBox="0 0 11 17" fill="none" xmlns="http://www.w3.org/2000/svg">
<g id="stargreen2">
<path id="Rectangle 32" d="M7.48896 6.21586L5.54182 3.29515L3.59469 5.46696L1.79733 7.86343L3.14535 10.3348L5.24226 12.9559L7.1894 10.5595L9.06165 8.0881L7.48896 6.21586Z" fill="#A6CB12"/>
<path id="Union" fill-rule="evenodd" clip-rule="evenodd" d="M5.35459 0.00115822C5.36469 0.000534575 5.37485 0.000160239 5.38507 4.13493e-05C5.71594 -0.00380583 5.98727 0.261292 5.99112 0.592154C6.00282 1.59853 6.24126 3.16766 6.90789 4.56052C7.57129 5.94661 8.62016 7.08866 10.233 7.42685C10.4979 7.48239 10.6927 7.70859 10.7082 7.97877C10.7238 8.24895 10.5563 8.49601 10.2996 8.58159C8.96697 9.02579 5.99116 11.2115 5.99116 16.4009C5.99116 16.7318 5.72292 17 5.39204 17C5.37946 17 5.36698 16.9996 5.35459 16.9988C5.34221 16.9996 5.32973 17 5.31715 17C4.98627 17 4.71803 16.7318 4.71803 16.4009C4.71803 11.2115 1.74222 9.02579 0.409631 8.58159C0.152892 8.49601 -0.0146008 8.24895 0.000961304 7.97877C0.0165224 7.70859 0.211274 7.48239 0.476141 7.42685C2.08903 7.08866 3.1379 5.94661 3.8013 4.56052C4.46793 3.16766 4.70637 1.59853 4.71807 0.592154C4.72192 0.261292 4.99325 -0.00380583 5.32412 4.13493e-05C5.33434 0.000160239 5.3445 0.000534575 5.35459 0.00115822ZM5.35459 3.89266C5.48467 4.29007 5.64095 4.68894 5.82707 5.07781C6.40532 6.286 7.29377 7.43761 8.6097 8.11414C7.41699 8.92271 6.0874 10.3743 5.35459 12.6279C4.62179 10.3743 3.2922 8.92271 2.09949 8.11414C3.41542 7.43761 4.30387 6.286 4.88212 5.07781C5.06824 4.68894 5.22452 4.29007 5.35459 3.89266Z" fill="#A6CB12"/>
</g>
</svg>
