<svg width="39" height="63" viewBox="0 0 39 63" fill="none" xmlns="http://www.w3.org/2000/svg">
<g id="star2">
<path id="Rectangle 32" d="M11.4915 22.6344L18.7344 11.77L25.9774 19.8487L32.6632 28.7631L27.6488 37.956L19.8487 47.7061L12.6058 38.7917L5.64145 29.5988L11.4915 22.6344Z" fill="black"/>
<path id="Union" fill-rule="evenodd" clip-rule="evenodd" d="M19.4309 0.00551915C19.3915 0.00240009 19.3518 0.00058588 19.3117 0.00012018C18.3501 -0.0110614 17.5615 0.75942 17.5503 1.72104C17.5062 5.51907 16.6091 11.4288 14.0924 16.6872C11.5851 21.9259 7.58236 26.3163 1.38397 27.6159C0.61416 27.7773 0.0481331 28.4348 0.00290494 29.22C-0.0423232 30.0053 0.444478 30.7233 1.19066 30.9721C6.3429 32.6895 17.5502 41.0036 17.5502 60.5205C17.5502 61.4822 18.3298 62.2618 19.2915 62.2618C19.3384 62.2618 19.3849 62.2599 19.4309 62.2563C19.4768 62.2599 19.5233 62.2618 19.5702 62.2618C20.5319 62.2618 21.3115 61.4822 21.3115 60.5205C21.3115 41.0036 32.5188 32.6895 37.671 30.9721C38.4172 30.7233 38.904 30.0053 38.8588 29.22C38.8136 28.4348 38.2475 27.7773 37.4777 27.6159C31.2793 26.3163 27.2766 21.9259 24.7693 16.6872C22.2526 11.4288 21.3555 5.51907 21.3114 1.72104C21.3002 0.75942 20.5116 -0.0110614 19.55 0.00012018C19.5099 0.00058588 19.4702 0.00240009 19.4309 0.00551915ZM19.4309 12.325C18.8752 14.279 18.1535 16.2688 17.2337 18.1907C15.0023 22.853 11.533 27.2443 6.33607 29.6333C11.1111 32.6326 16.7334 38.5315 19.4309 48.1703C22.1283 38.5315 27.7506 32.6326 32.5256 29.6333C27.3287 27.2443 23.8594 22.853 21.628 18.1907C20.7082 16.2688 19.9865 14.279 19.4309 12.325Z" fill="black"/>
</g>
</svg>
