<svg width="19" height="29" viewBox="0 0 19 29" fill="none" xmlns="http://www.w3.org/2000/svg">
<g id="stargreen1">
<path id="Rectangle 32" d="M13.0312 10.375L9.78125 5.5L6.53125 9.125L3.53125 13.125L5.78125 17.25L9.28125 21.625L12.5312 17.625L15.6562 13.5L13.0312 10.375Z" fill="#A6CB12"/>
<path id="Union" fill-rule="evenodd" clip-rule="evenodd" d="M9.46874 0.00193323C9.48558 0.00089228 9.50254 0.000267461 9.51961 6.90178e-05C10.0719 -0.00635243 10.5247 0.436127 10.5312 0.988374C10.5507 2.66813 10.9487 5.28719 12.0614 7.61204C13.1687 9.9256 14.9193 11.8318 17.6115 12.3963C18.0535 12.489 18.3786 12.8665 18.4046 13.3175C18.4306 13.7685 18.151 14.1808 17.7225 14.3237C15.4982 15.0651 10.5312 18.7134 10.5312 27.375C10.5312 27.9273 10.0835 28.375 9.53124 28.375C9.51025 28.375 9.48941 28.3744 9.46874 28.3731C9.44807 28.3744 9.42723 28.375 9.40623 28.375C8.85395 28.375 8.40623 27.9273 8.40623 27.375C8.40623 18.7134 3.43925 15.0651 1.21501 14.3237C0.78648 14.1808 0.506916 13.7685 0.53289 13.3175C0.558863 12.8665 0.883926 12.489 1.32602 12.3963C4.01813 11.8318 5.76881 9.9256 6.8761 7.61204C7.98879 5.28719 8.38677 2.66813 8.4063 0.988374C8.41272 0.436127 8.86561 -0.00635243 9.41786 6.90178e-05C9.43493 0.000267461 9.45189 0.00089228 9.46874 0.00193323ZM9.46873 6.49731C9.68584 7.16062 9.9467 7.82639 10.2573 8.47546C11.2225 10.4921 12.7055 12.4142 14.9019 13.5434C12.9111 14.893 10.6919 17.3159 9.46873 21.0774C8.2456 17.3159 6.02636 14.893 4.03558 13.5434C6.23202 12.4142 7.71495 10.4921 8.68012 8.47546C8.99077 7.82639 9.25163 7.16062 9.46873 6.49731Z" fill="#A6CB12"/>
</g>
</svg>
