<svg width="18" height="29" viewBox="0 0 18 29" fill="none" xmlns="http://www.w3.org/2000/svg">
<g id="starpurple1">
<path id="Rectangle 32" d="M5.375 10.375L8.625 5.5L11.875 9.125L14.875 13.125L12.625 17.25L9.125 21.625L5.875 17.625L2.75 13.5L5.375 10.375Z" fill="#526BFF"/>
<path id="Union" fill-rule="evenodd" clip-rule="evenodd" d="M8.93751 0.00193323C8.92067 0.00089228 8.90371 0.000267461 8.88664 6.90178e-05C8.33439 -0.00635243 7.8815 0.436127 7.87508 0.988374C7.85555 2.66813 7.45757 5.28719 6.34488 7.61204C5.23759 9.9256 3.48691 11.8318 0.794799 12.3963C0.352705 12.489 0.0276423 12.8665 0.00166828 13.3175C-0.0243058 13.7685 0.255259 14.1808 0.683786 14.3237C2.90803 15.0651 7.87501 18.7134 7.87501 27.375C7.87501 27.9273 8.32273 28.375 8.87501 28.375C8.896 28.375 8.91684 28.3744 8.93751 28.3731C8.95818 28.3744 8.97902 28.375 9.00002 28.375C9.5523 28.375 10 27.9273 10 27.375C10 18.7134 14.967 15.0651 17.1912 14.3237C17.6198 14.1808 17.8993 13.7685 17.8734 13.3175C17.8474 12.8665 17.5223 12.489 17.0802 12.3963C14.3881 11.8318 12.6374 9.9256 11.5302 7.61204C10.4175 5.28719 10.0195 2.66813 9.99995 0.988374C9.99353 0.436127 9.54064 -0.00635243 8.98839 6.90178e-05C8.97132 0.000267461 8.95436 0.00089228 8.93751 0.00193323ZM8.93752 6.49731C8.72041 7.16062 8.45955 7.82639 8.1489 8.47546C7.18373 10.4921 5.7008 12.4142 3.50436 13.5434C5.49514 14.893 7.71438 17.3159 8.93752 21.0774C10.1607 17.3159 12.3799 14.893 14.3707 13.5434C12.1742 12.4142 10.6913 10.4921 9.72613 8.47546C9.41548 7.82639 9.15462 7.16062 8.93752 6.49731Z" fill="#526BFF"/>
</g>
</svg>
