<svg width="14" height="22" viewBox="0 0 14 22" fill="none" xmlns="http://www.w3.org/2000/svg">
<g id="starpurple2">
<path id="Rectangle 32" d="M4.03125 7.78125L6.46875 4.125L8.90625 6.84375L11.1562 9.84375L9.46875 12.9375L6.84375 16.2188L4.40625 13.2188L2.0625 10.125L4.03125 7.78125Z" fill="#526BFF"/>
<path id="Union" fill-rule="evenodd" clip-rule="evenodd" d="M6.70314 0.00144991C6.6905 0.000669204 6.67778 0.000200595 6.66498 5.1764e-05C6.2508 -0.00476435 5.91113 0.327095 5.90631 0.741281C5.89166 2.0011 5.59318 3.96539 4.75866 5.70903C3.92819 7.4442 2.61518 8.87386 0.596099 9.29721C0.264529 9.36674 0.0207317 9.6499 0.00125121 9.98812C-0.0182293 10.3263 0.191444 10.6356 0.512839 10.7428C2.18102 11.2988 5.90626 14.035 5.90626 20.5313C5.90626 20.9455 6.24205 21.2813 6.65626 21.2813C6.672 21.2813 6.68763 21.2808 6.70314 21.2798C6.71864 21.2808 6.73427 21.2813 6.75001 21.2813C7.16423 21.2813 7.50001 20.9455 7.50001 20.5313C7.50001 14.035 11.2252 11.2988 12.8934 10.7428C13.2148 10.6356 13.4245 10.3263 13.405 9.98812C13.3855 9.6499 13.1417 9.36674 12.8102 9.29721C10.7911 8.87386 9.47808 7.4442 8.64761 5.70903C7.8131 3.96539 7.51461 2.0011 7.49996 0.741281C7.49514 0.327095 7.15548 -0.00476435 6.74129 5.1764e-05C6.72849 0.000200595 6.71577 0.000669204 6.70314 0.00144991ZM6.70314 4.87298C6.54031 5.37047 6.34466 5.86979 6.11168 6.3566C5.3878 7.86906 4.2756 9.31068 2.62827 10.1576C4.12135 11.1698 5.78578 12.9869 6.70314 15.8081C7.62049 12.9869 9.28492 11.1698 10.778 10.1576C9.13067 9.31068 8.01847 7.86906 7.2946 6.3566C7.06161 5.86979 6.86597 5.37047 6.70314 4.87298Z" fill="#526BFF"/>
</g>
</svg>
