<svg width="95" height="124" viewBox="0 0 95 124" fill="none" xmlns="http://www.w3.org/2000/svg">
<g id="starpurple">
<g id="starpurple1">
<path id="Rectangle 32" d="M16.1249 31.125L25.8749 16.5L35.6249 27.375L44.6249 39.375L37.8749 51.75L27.3749 64.875L17.6249 52.875L8.24994 40.5L16.1249 31.125Z" fill="#526BFF"/>
<path id="Union" fill-rule="evenodd" clip-rule="evenodd" d="M26.8125 0.00579957C26.762 0.00267679 26.7111 0.000802378 26.6599 0.000207056C25.0032 -0.0190574 23.6445 1.30838 23.6252 2.96512C23.5666 8.0044 22.3727 15.8616 19.0346 22.8361C15.7128 29.7768 10.4607 35.4954 2.3844 37.1889C1.05812 37.4669 0.0829269 38.5996 0.00500483 39.9525C-0.0729173 41.3054 0.765777 42.5425 2.05136 42.9711C8.7241 45.1953 23.625 56.1401 23.625 82.125C23.625 83.7819 24.9682 85.125 26.625 85.125C26.688 85.125 26.7505 85.1231 26.8125 85.1192C26.8746 85.1231 26.9371 85.125 27 85.125C28.6569 85.125 30 83.7819 30 82.125C30 56.1401 44.901 45.1953 51.5737 42.9711C52.8593 42.5425 53.698 41.3054 53.6201 39.9525C53.5422 38.5996 52.567 37.4669 51.2407 37.1889C43.1644 35.4954 37.9123 29.7768 34.5905 22.8361C31.2524 15.8616 30.0584 8.0044 29.9998 2.96512C29.9806 1.30838 28.6219 -0.0190574 26.9652 0.000207056C26.914 0.000802378 26.8631 0.00267679 26.8125 0.00579957ZM26.8125 19.4919C26.1612 21.4819 25.3787 23.4792 24.4467 25.4264C21.5512 31.4762 17.1024 37.2427 10.5131 40.6303C16.4854 44.6791 23.1431 51.9476 26.8125 63.2323C30.482 51.9476 37.1397 44.6791 43.112 40.6303C36.5227 37.2427 32.0739 31.4762 29.1784 25.4264C28.2464 23.4792 27.4639 21.4819 26.8125 19.4919Z" fill="#526BFF"/>
</g>
<g id="starpurple2">
<path id="Rectangle 32_2" d="M66.0937 83.3438L73.4062 72.375L80.7187 80.5312L87.4687 89.5312L82.4062 98.8125L74.5312 108.656L67.2187 99.6562L60.1875 90.375L66.0937 83.3438Z" fill="#526BFF"/>
<path id="Union_2" fill-rule="evenodd" clip-rule="evenodd" d="M74.1094 60.0043C74.0715 60.002 74.0333 60.0006 73.9949 60.0002C72.7524 59.9857 71.7334 60.9813 71.7189 62.2238C71.675 66.0033 70.7795 71.8962 68.276 77.1271C65.7846 82.3326 61.8455 86.6216 55.7883 87.8916C54.7936 88.1002 54.0622 88.9497 54.0038 89.9644C53.9453 90.979 54.5743 91.9069 55.5385 92.2283C60.5431 93.8965 71.7188 102.105 71.7188 121.594C71.7188 122.836 72.7261 123.844 73.9688 123.844C74.016 123.844 74.0629 123.842 74.1094 123.839C74.1559 123.842 74.2028 123.844 74.25 123.844C75.4927 123.844 76.5 122.836 76.5 121.594C76.5 102.105 87.6757 93.8965 92.6803 92.2283C93.6445 91.9069 94.2735 90.979 94.2151 89.9644C94.1566 88.9497 93.4252 88.1002 92.4305 87.8916C86.3733 86.6216 82.4342 82.3326 79.9428 77.1271C77.4393 71.8962 76.5438 66.0033 76.4999 62.2238C76.4854 60.9813 75.4664 59.9857 74.2239 60.0002C74.1855 60.0006 74.1473 60.002 74.1094 60.0043ZM74.1094 74.619C73.6209 76.1114 73.034 77.6094 72.335 79.0698C70.1634 83.6072 66.8268 87.932 61.8848 90.4728C66.3641 93.5094 71.3573 98.9607 74.1094 107.424C76.8615 98.9607 81.8548 93.5094 86.334 90.4728C81.392 87.932 78.0554 83.6072 75.8838 79.0698C75.1848 77.6094 74.5979 76.1114 74.1094 74.619Z" fill="#526BFF"/>
</g>
</g>
</svg>
