<svg width="86" height="141" viewBox="0 0 86 141" fill="none" xmlns="http://www.w3.org/2000/svg">
<g id="stargreen">
<g id="stargreen1">
<path id="Rectangle 32" d="M69.0939 31.125L59.3439 16.5L49.5939 27.375L40.5939 39.375L47.3439 51.75L57.8439 64.875L67.5939 52.875L76.9689 40.5L69.0939 31.125Z" fill="#A6CB12"/>
<path id="Union" fill-rule="evenodd" clip-rule="evenodd" d="M58.4063 0.00579957C58.4569 0.00267679 58.5078 0.000802378 58.5589 0.000207056C60.2157 -0.0190574 61.5744 1.30838 61.5936 2.96512C61.6522 8.0044 62.8462 15.8616 66.1842 22.8361C69.5061 29.7768 74.7582 35.4954 82.8345 37.1889C84.1608 37.4669 85.1359 38.5996 85.2139 39.9525C85.2918 41.3054 84.4531 42.5425 83.1675 42.9711C76.4948 45.1953 61.5938 56.1401 61.5938 82.125C61.5938 83.7819 60.2507 85.125 58.5938 85.125C58.5309 85.125 58.4683 85.1231 58.4063 85.1192C58.3443 85.1231 58.2818 85.125 58.2188 85.125C56.562 85.125 55.2188 83.7819 55.2188 82.125C55.2188 56.1401 40.3179 45.1953 33.6451 42.9711C32.3596 42.5425 31.5209 41.3054 31.5988 39.9525C31.6767 38.5996 32.6519 37.4669 33.9782 37.1889C42.0545 35.4954 47.3066 29.7768 50.6284 22.8361C53.9665 15.8616 55.1604 8.0044 55.219 2.96512C55.2383 1.30838 56.597 -0.0190574 58.2537 0.000207056C58.3049 0.000802378 58.3558 0.00267679 58.4063 0.00579957ZM58.4063 19.4919C59.0577 21.4819 59.8402 23.4792 60.7722 25.4264C63.6677 31.4762 68.1165 37.2427 74.7058 40.6303C68.7335 44.6791 62.0757 51.9476 58.4063 63.2323C54.7369 51.9476 48.0792 44.6791 42.1069 40.6303C48.6962 37.2427 53.145 31.4762 56.0405 25.4264C56.9724 23.4792 57.755 21.4819 58.4063 19.4919Z" fill="#A6CB12"/>
</g>
<g id="stargreen2">
<path id="Rectangle 32_2" d="M22.467 108.648L16.6256 99.8855L10.7842 106.401L5.39211 113.59L9.43616 121.004L15.7269 128.868L21.5683 121.678L27.1851 114.264L22.467 108.648Z" fill="#A6CB12"/>
<path id="Union_2" fill-rule="evenodd" clip-rule="evenodd" d="M16.0639 90.0035C16.0942 90.0016 16.1247 90.0005 16.1553 90.0001C17.1479 89.9886 17.9619 90.7839 17.9735 91.7765C18.0086 94.7956 18.7239 99.503 20.7238 103.682C22.714 107.84 25.8606 111.266 30.6993 112.281C31.4939 112.447 32.0781 113.126 32.1248 113.936C32.1715 114.747 31.669 115.488 30.8988 115.745C26.901 117.077 17.9736 123.635 17.9736 139.203C17.9736 140.195 17.1689 141 16.1762 141C16.1385 141 16.1011 140.999 16.0639 140.997C16.0267 140.999 15.9893 141 15.9516 141C14.9589 141 14.1542 140.195 14.1542 139.203C14.1542 123.635 5.22676 117.077 1.229 115.745C0.458784 115.488 -0.0436933 114.747 0.00299094 113.936C0.0496752 113.126 0.63393 112.447 1.42853 112.281C6.26721 111.266 9.41381 107.84 11.404 103.682C13.4039 99.503 14.1192 94.7956 14.1543 91.7765C14.1659 90.7839 14.9799 89.9886 15.9725 90.0001C16.0031 90.0005 16.0336 90.0016 16.0639 90.0035ZM16.0639 101.678C16.4541 102.87 16.923 104.067 17.4813 105.233C19.2161 108.858 21.8814 112.313 25.8292 114.342C22.2511 116.768 18.2623 121.123 16.0639 127.884C13.8655 121.123 9.87672 116.768 6.29858 114.342C10.2464 112.313 12.9117 108.858 14.6465 105.233C15.2048 104.067 15.6737 102.87 16.0639 101.678Z" fill="#A6CB12"/>
</g>
</g>
</svg>
